<?xml version="1.0" encoding="utf-8"?>
<!-- Generator: Adobe Illustrator 18.0.0, SVG Export Plug-In . SVG Version: 6.00 Build 0)  -->
<!DOCTYPE svg PUBLIC "-//W3C//DTD SVG 1.1//EN" "http://www.w3.org/Graphics/SVG/1.1/DTD/svg11.dtd">
<svg version="1.1" id="Layer_1" xmlns="http://www.w3.org/2000/svg" xmlns:xlink="http://www.w3.org/1999/xlink" x="0px" y="0px"
	 viewBox="-1.3 54.1 549.3 133.2" enable-background="new -1.3 54.1 549.3 133.2" xml:space="preserve">
<g>
	<path fill="#FFFFFF" d="M113.8,114.2c5.7-13,8.9-22,10.2-25.4c-10.3-19-29.5-32.3-52.1-34.6C78.8,62.8,95.8,84.3,113.8,114.2z"/>
	<path fill="#FFFFFF" d="M127.4,96.4c-4.4,11.4-14.2,35.6-30,64.1c10.7-1.2,18.9-2.5,23.6-3.2c6.9-10.5,11-23,11-36.6
		C131.9,112.1,130.3,103.9,127.4,96.4z"/>
	<path fill="#FFFFFF" d="M81.7,76.7C71.2,62.6,64,54.4,63.9,54.3l0.3-0.2C42,54.4,22.3,65.7,10.6,82.9
		C22.2,80.9,48.4,77.2,81.7,76.7z"/>
	<path fill="#FFFFFF" d="M49.1,169.6c5.7,7.8,10.5,13.8,13.6,17.6c0.9,0,1.8,0.1,2.7,0.1c20.1,0,38.2-8.9,50.4-23.1
		C102.6,166.1,78.7,169,49.1,169.6z"/>
	<path fill="#FFFFFF" d="M17.1,132.2c-4.4,10.1-7.4,17.9-9.1,22.4c9.8,16.5,26.6,28.5,46.4,31.8C45.9,175.7,31.8,156.8,17.1,132.2z"
		/>
	<path fill="#FFFFFF" d="M33.5,85.7c-14,1.6-23.6,3.2-27.1,3.9c-4.9,9.3-7.7,19.8-7.7,31c0,9.5,2,18.6,5.6,26.8
		C9,135.2,18.6,112.4,33.5,85.7z"/>
</g>
<path fill="#FFFFFF" d="M49.4,115.3c-0.8,1.5-1.1,3.4-0.8,4.9l2.5,10.4c0.7,3,3.4,4.9,6.3,4.9c0.4,0,1,0,1.5-0.1l0,0
	c3.5-0.8,5.6-4.2,4.8-7.7l-2.5-10.4c-0.8-3.5-4.2-5.6-7.7-4.8C51.6,112.7,50.2,113.9,49.4,115.3z M52.2,117c0.4-0.7,1.1-1.1,2-1.5
	c0.3,0,0.4-0.1,0.8-0.1c1.5,0,2.8,1,3.1,2.5l2.5,10.4c0.3,1.7-0.7,3.5-2.3,3.8c-1.7,0.3-3.5-0.7-3.8-2.3L52,119.4
	C51.5,118.6,51.6,117.7,52.2,117z"/>
<path fill="#FFFFFF" d="M90,91.4c-2.3-2.8-6.3-3.1-9.1-1c-2.8,2.3-3.1,6.3-1,9.1l6.8,8.3c1.1,1.3,2.7,2.1,4.2,2.3c0.1,0,0.4,0,0.7,0
	c1.5,0,3-0.4,4.1-1.5c2.8-2.3,3.1-6.3,1-9.1L90,91.4z M94.9,104c-0.1,0.8-0.4,1.7-1.1,2.1l0,0c-0.7,0.4-1.5,0.8-2.3,0.7
	c-0.8-0.1-1.7-0.4-2.1-1.1l-6.8-8.3c-0.4-0.7-0.8-1.5-0.7-2.3s0.4-1.7,1.1-2.1c0.7-0.4,1.3-0.7,2-0.7c1,0,1.8,0.3,2.5,1.1l6.8,8.3
	C94.8,102.5,94.9,103.3,94.9,104z"/>
<path fill="#FFFFFF" d="M93.9,123.6c-1.7,0.3-3.1,1.5-4.1,2.8l-5.6,9.1c-2,3-1,7,2,8.9c1,0.7,2.3,1,3.5,1c0.4,0,1,0,1.5-0.1
	c1.7-0.3,3.1-1.5,4.1-2.8l5.6-9.1c2-3,1-7-2-8.9C97.4,123.6,95.6,123.3,93.9,123.6z M97,127.2c1.5,1,2,3,1,4.5l-5.6,9.1
	c-0.4,0.7-1.1,1.1-2,1.5c-0.8,0.1-1.7,0-2.5-0.3c-1.5-1-2-3-1-4.5l5.6-9.1c0.4-0.7,1.1-1.1,2-1.5C95.6,126.7,96.4,126.9,97,127.2z"
	/>
<path fill="#FFFFFF" d="M64,146.7L52,143.1c-3.5-1-7,1-8.1,4.2v0.1c-1,3.5,1,7,4.2,8.1l12.1,3.7c0.7,0.1,1.3,0.3,1.8,0.3
	c2.8,0,5.5-1.8,6.3-4.8c0.4-1.7,0.3-3.5-0.4-4.9C67.1,148.3,65.7,147.2,64,146.7z M65.2,153.9c-0.4,1.7-2.3,2.7-3.9,2.1l-12.1-3.6
	c-1.7-0.4-2.7-2.3-2.1-3.9v-0.1c0.1-0.8,0.8-1.5,1.5-1.8c0.8-0.3,1.7-0.4,2.5-0.1l12.1,3.6c0.8,0.1,1.5,0.8,1.8,1.5
	C65.4,152.1,65.4,153.1,65.2,153.9z"/>
<path fill="#FFFFFF" d="M49.8,96.2c-2.3-2.7-6.5-3-9.3-0.4l-7.9,7c-2.7,2.3-3,6.5-0.4,9.3c1.3,1.5,3.1,2.1,4.8,2.1
	c1.5,0,3.1-0.4,4.2-1.7l7.9-7C52,102.9,52.3,99,49.8,96.2z M47.3,102.9l-7.9,7c-1.3,1.1-3.4,1-4.5-0.3c-1.1-1.3-1-3.4,0.3-4.5l7.9-7
	c0.7-0.4,1.3-0.8,2.1-0.8c0.8,0,1.8,0.3,2.3,1C48.5,99.8,48.5,101.8,47.3,102.9z"/>
<path fill="#FFFFFF" d="M32.7,120.6c-3.6,0-6.6,3-6.6,6.6s3,6.6,6.6,6.6s6.6-3,6.6-6.6S36.3,120.6,32.7,120.6z M32.7,130.6
	c-1.8,0-3.4-1.5-3.4-3.4c0-1.9,1.5-3.4,3.4-3.4c1.8,0,3.4,1.5,3.4,3.4C36.1,129.1,34.5,130.6,32.7,130.6z"/>
<path fill="#FFFFFF" d="M85.5,118.8c0-3.6-3-6.6-6.6-6.6s-6.6,3-6.6,6.6c0,3.6,3,6.6,6.6,6.6C82.5,125.4,85.5,122.4,85.5,118.8z
	 M78.9,122.1c-1.8,0-3.4-1.5-3.4-3.4s1.5-3.4,3.4-3.4c1.9,0,3.4,1.5,3.4,3.4S80.7,122.1,78.9,122.1z"/>
<path fill="#FFFFFF" d="M64.7,85.3c-3.6,0-6.6,3-6.6,6.6s3,6.6,6.6,6.6s6.6-3,6.6-6.6S68.4,85.3,64.7,85.3z M64.7,95.2
	c-1.8,0-3.4-1.5-3.4-3.4s1.5-3.4,3.4-3.4s3.4,1.5,3.4,3.4S66.5,95.2,64.7,95.2z"/>
<text transform="matrix(1 0 0 1 143.2622 144.0784)" fill="#FFFFFF" font-family="'Roboto-Black'" font-size="59.7502">BACTOGRAPH</text>
</svg>
