<?xml version="1.0" encoding="utf-8"?>
<!-- Generator: Adobe Illustrator 18.0.0, SVG Export Plug-In . SVG Version: 6.00 Build 0)  -->
<!DOCTYPE svg PUBLIC "-//W3C//DTD SVG 1.0//EN" "http://www.w3.org/TR/2001/REC-SVG-20010904/DTD/svg10.dtd">
<svg version="1.0" id="Layer_1" xmlns="http://www.w3.org/2000/svg" xmlns:xlink="http://www.w3.org/1999/xlink" x="0px" y="0px"
	 viewBox="0 0 119.1 119.1" enable-background="new 0 0 119.1 119.1" xml:space="preserve">
<g>
	<path fill="#FFFFFF" d="M102.9,53.8c5.1-11.6,8-19.7,9.1-22.7c-9.2-17-26.4-28.9-46.6-30.9C71.6,7.8,86.8,27,102.9,53.8z"/>
	<path fill="#FFFFFF" d="M115.1,37.9c-3.9,10.2-12.7,31.8-26.8,57.3c9.6-1.1,16.9-2.2,21.1-2.9c6.2-9.4,9.8-20.6,9.8-32.7
		C119.1,51.9,117.7,44.6,115.1,37.9z"/>
	<path fill="#FFFFFF" d="M74.2,20.2C64.8,7.6,58.4,0.3,58.3,0.2L58.6,0c-19.9,0.3-37.5,10.4-48,25.8C21,24,44.4,20.7,74.2,20.2z"/>
	<path fill="#FFFFFF" d="M45,103.3c5.1,7,9.4,12.3,12.2,15.7c0.8,0,1.6,0.1,2.4,0.1c18,0,34.2-8,45.1-20.7
		C92.9,100.2,71.5,102.8,45,103.3z"/>
	<path fill="#FFFFFF" d="M16.4,69.9c-3.9,9-6.6,16-8.1,20c8.8,14.8,23.8,25.5,41.5,28.4C42.2,108.8,29.6,91.9,16.4,69.9z"/>
	<path fill="#FFFFFF" d="M31.1,28.3c-12.5,1.4-21.1,2.9-24.2,3.5C2.5,40.1,0,49.5,0,59.5c0,8.5,1.8,16.6,5,24
		C9.2,72.6,17.8,52.2,31.1,28.3z"/>
</g>
<path fill="#FFFFFF" d="M45.3,54.8c-0.7,1.3-1,3-0.7,4.4l2.2,9.3c0.6,2.7,3,4.4,5.6,4.4c0.4,0,0.9,0,1.3-0.1l0,0
	c3.1-0.7,5-3.8,4.3-6.9l-2.2-9.3c-0.7-3.1-3.8-5-6.9-4.3C47.3,52.4,46,53.5,45.3,54.8z M47.8,56.3c0.4-0.6,1-1,1.8-1.3
	c0.3,0,0.4-0.1,0.7-0.1c1.3,0,2.5,0.9,2.8,2.2l2.2,9.3c0.3,1.5-0.6,3.1-2.1,3.4c-1.5,0.3-3.1-0.6-3.4-2.1l-2.2-9.3
	C47.2,57.7,47.3,56.9,47.8,56.3z"/>
<path fill="#FFFFFF" d="M81.6,33.4c-2.1-2.5-5.6-2.8-8.1-0.9c-2.5,2.1-2.8,5.6-0.9,8.1l6.1,7.4c1,1.2,2.4,1.9,3.8,2.1
	c0.1,0,0.4,0,0.6,0c1.3,0,2.7-0.4,3.7-1.3c2.5-2.1,2.8-5.6,0.9-8.1L81.6,33.4z M86,44.7c-0.1,0.7-0.4,1.5-1,1.9l0,0
	c-0.6,0.4-1.3,0.7-2.1,0.6c-0.7-0.1-1.5-0.4-1.9-1l-6.1-7.4c-0.4-0.6-0.7-1.3-0.6-2.1s0.4-1.5,1-1.9c0.6-0.4,1.2-0.6,1.8-0.6
	c0.9,0,1.6,0.3,2.2,1l6.1,7.4C85.9,43.3,86,44,86,44.7z"/>
<path fill="#FFFFFF" d="M85.1,62.2c-1.5,0.3-2.8,1.3-3.7,2.5l-5,8.1c-1.8,2.7-0.9,6.3,1.8,8c0.9,0.6,2.1,0.9,3.1,0.9
	c0.4,0,0.9,0,1.3-0.1c1.5-0.3,2.8-1.3,3.7-2.5l5-8.1c1.8-2.7,0.9-6.3-1.8-8C88.2,62.2,86.6,61.9,85.1,62.2z M87.9,65.4
	c1.3,0.9,1.8,2.7,0.9,4l-5,8.1c-0.4,0.6-1,1-1.8,1.3c-0.7,0.1-1.5,0-2.2-0.3c-1.3-0.9-1.8-2.7-0.9-4l5-8.1c0.4-0.6,1-1,1.8-1.3
	C86.6,65,87.3,65.1,87.9,65.4z"/>
<path fill="#FFFFFF" d="M58.4,82.8l-10.8-3.2c-3.1-0.9-6.3,0.9-7.2,3.8v0.1c-0.9,3.1,0.9,6.3,3.8,7.2L55,94c0.6,0.1,1.2,0.3,1.6,0.3
	c2.5,0,4.9-1.6,5.6-4.3c0.4-1.5,0.3-3.1-0.4-4.4C61.1,84.3,59.9,83.3,58.4,82.8z M59.4,89.3c-0.4,1.5-2.1,2.4-3.5,1.9L45.1,88
	c-1.5-0.4-2.4-2.1-1.9-3.5v-0.1c0.1-0.7,0.7-1.3,1.3-1.6c0.7-0.3,1.5-0.4,2.2-0.1l10.8,3.2c0.7,0.1,1.3,0.7,1.6,1.3
	C59.6,87.7,59.6,88.6,59.4,89.3z"/>
<path fill="#FFFFFF" d="M45.7,37.7c-2.1-2.4-5.8-2.7-8.3-0.4l-7.1,6.3c-2.4,2.1-2.7,5.8-0.4,8.3c1.2,1.3,2.8,1.9,4.3,1.9
	c1.3,0,2.8-0.4,3.8-1.5l7.1-6.3C47.6,43.7,47.9,40.2,45.7,37.7z M43.4,43.7l-7.1,6.3c-1.2,1-3,0.9-4-0.3c-1-1.2-0.9-3,0.3-4l7.1-6.3
	c0.6-0.4,1.2-0.7,1.9-0.7c0.7,0,1.6,0.3,2.1,0.9C44.5,40.9,44.5,42.7,43.4,43.7z"/>
<path fill="#FFFFFF" d="M30.4,59.5c-3.2,0-5.9,2.7-5.9,5.9c0,3.2,2.7,5.9,5.9,5.9s5.9-2.7,5.9-5.9C36.3,62.2,33.6,59.5,30.4,59.5z
	 M30.4,68.4c-1.6,0-3-1.3-3-3s1.3-3,3-3c1.6,0,3,1.3,3,3S32,68.4,30.4,68.4z"/>
<path fill="#FFFFFF" d="M77.6,57.9c0-3.2-2.7-5.9-5.9-5.9c-3.2,0-5.9,2.7-5.9,5.9c0,3.2,2.7,5.9,5.9,5.9
	C74.9,63.8,77.6,61.1,77.6,57.9z M71.7,60.8c-1.6,0-3-1.3-3-3s1.3-3,3-3s3,1.3,3,3S73.3,60.8,71.7,60.8z"/>
<path fill="#FFFFFF" d="M59,27.9c-3.2,0-5.9,2.7-5.9,5.9s2.7,5.9,5.9,5.9c3.2,0,5.9-2.7,5.9-5.9S62.3,27.9,59,27.9z M59,36.8
	c-1.6,0-3-1.3-3-3s1.3-3,3-3s3,1.3,3,3C62,35.5,60.6,36.8,59,36.8z"/>
</svg>
