<?xml version="1.0" encoding="utf-8"?>
<!-- Generator: Adobe Illustrator 16.0.0, SVG Export Plug-In . SVG Version: 6.00 Build 0)  -->
<!DOCTYPE svg PUBLIC "-//W3C//DTD SVG 1.1//EN" "http://www.w3.org/Graphics/SVG/1.1/DTD/svg11.dtd">
<svg version="1.1" id="Layer_1" xmlns="http://www.w3.org/2000/svg" xmlns:xlink="http://www.w3.org/1999/xlink" x="0px" y="0px"
	 width="500px" height="500px" viewBox="0 0 500 500" enable-background="new 0 0 500 500" xml:space="preserve">
<g>
	<path id="path8780" inkscape:connector-curvature="0" fill="#D3D7DA" stroke="#000000" d="M69.112,69.832l234.223-3.268
		l-1.909,255.909L72.93,343.525L69.112,69.832z"/>
	
		<linearGradient id="path8712_1_" gradientUnits="userSpaceOnUse" x1="-1115.3408" y1="1664.9063" x2="-1102.2654" y2="1664.9063" gradientTransform="matrix(1 0 0 -1 1407.625 1996.5938)">
		<stop  offset="0" style="stop-color:#333333"/>
		<stop  offset="0.25" style="stop-color:#4A4A4A"/>
		<stop  offset="0.5" style="stop-color:#909090"/>
		<stop  offset="0.75" style="stop-color:#4A4A4A"/>
		<stop  offset="1" style="stop-color:#333333"/>
	</linearGradient>
	<path id="path8712" sodipodi:nodetypes="cccc" inkscape:connector-curvature="0" fill="url(#path8712_1_)" stroke="#000000" d="
		M293.29,326.428l-0.325,10.411c4.771,1.763,8.802,0.991,12.715-0.185v-11.156"/>
	
		<linearGradient id="path8728_1_" gradientUnits="userSpaceOnUse" x1="-1355.6187" y1="1630.1475" x2="-1336.0875" y2="1630.1475" gradientTransform="matrix(1 0 0 -1 1366.9004 1938.5938)">
		<stop  offset="0" style="stop-color:#333333"/>
		<stop  offset="0.25" style="stop-color:#4A4A4A"/>
		<stop  offset="0.5" style="stop-color:#909090"/>
		<stop  offset="0.75" style="stop-color:#4A4A4A"/>
		<stop  offset="1" style="stop-color:#333333"/>
	</linearGradient>
	<path id="path8728" sodipodi:nodetypes="cccc" inkscape:connector-curvature="0" fill="url(#path8728_1_)" stroke="#000000" d="
		M11.918,303.473l0.652,8.925c5.869,1.353,11.738,1.552,17.606-0.558l-0.652-7.995"/>
	
		<linearGradient id="path8710_1_" gradientUnits="userSpaceOnUse" x1="-1344.5029" y1="1647.2246" x2="-1324.9709" y2="1647.2246" gradientTransform="matrix(1 0 0 -1 1407.625 1996.5938)">
		<stop  offset="0" style="stop-color:#333333"/>
		<stop  offset="0.25" style="stop-color:#4A4A4A"/>
		<stop  offset="0.5" style="stop-color:#909090"/>
		<stop  offset="0.75" style="stop-color:#4A4A4A"/>
		<stop  offset="1" style="stop-color:#333333"/>
	</linearGradient>
	<path id="path8710" sodipodi:nodetypes="cccc" inkscape:connector-curvature="0" fill="url(#path8710_1_)" stroke="#000000" d="
		M63.528,343.212l0.883,11.292c5.869,1.354,11.737,1.551,17.606-0.558l0.501-8.521"/>
	<path id="path8596" inkscape:connector-curvature="0" fill="#A6A4A7" stroke="#000000" d="M77.163,340.921l229.622-21.956
		l0.462,7.231L77.163,347.76"/>
	<path id="path8427" inkscape:connector-curvature="0" fill="#F9F9F9" stroke="#000000" d="M78.658,78.724l6.683-3.81l200.491-2.542
		l7.319,2.905l-0.637,233.039l-6.683,6.534l-196.99,17.969l-6.683-2.541L78.658,78.724z"/>
	<path id="path8425" inkscape:connector-curvature="0" fill="#A6A4A7" stroke="#000000" d="M73.168,51.352l241.896,5.203
		l-0.791,35.015L72.34,87.589"/>
	<path id="path8419" inkscape:connector-curvature="0" opacity="0.2" fill="none" stroke="#000000" enable-background="new    " d="
		M77.704,340.984l220.54-20.872l-0.318,6.716L77.067,347.882L77.704,340.984z"/>
	<path id="path8423" inkscape:connector-curvature="0" fill="#656064" stroke="#000000" d="M64.007,57.063l-60.64,4.033
		l6.97,254.029l60.408,33.548"/>
	<path id="path8431" sodipodi:nodetypes="cccc" inkscape:connector-curvature="0" fill="#CCCCCC" stroke="#000000" d="
		M268.806,182.983l-61.897-19.474l-127.613,6.11l0.065,25.298"/>
	<path id="path8435" sodipodi:nodetypes="cccc" inkscape:connector-curvature="0" fill="#CCCCCC" stroke="#000000" d="
		M269.214,290.748l-62.306-24.924l-127.157,7.267l0.153,34.95"/>
	<path id="path8437" sodipodi:nodetypes="cc" inkscape:connector-curvature="0" fill="none" stroke="#000000" d="M206.568,89.137
		l0.45,176.687"/>
	<path id="path8447" sodipodi:nodetypes="ccccc" inkscape:connector-curvature="0" fill="#847E83" stroke="#000000" d="
		M299.264,63.678v265.88l194.359,32.152l4.744-293.066L299.264,63.678z"/>
	<path id="path8433" sodipodi:nodetypes="cccc" inkscape:connector-curvature="0" fill="#E6E6E6" stroke="#000000" d="
		M80.366,307.974l188.399-17.11v5.424L80.447,313.446"/>
	<path id="path8421" inkscape:connector-curvature="0" fill="#7E7B7E" stroke="#000000" d="M70.59,348.625l9.2-0.559L73.546,57.132
		h-9.528L70.59,348.625z"/>
	<path id="path8468" inkscape:connector-curvature="0" fill="#B3B3B3" stroke="#000000" d="M303.261,66.888l184.364,4.919
		l-3.497,286.563l-181.866-30.044L303.261,66.888z"/>
	<path id="path8472" sodipodi:nodetypes="cccccc" inkscape:connector-curvature="0" fill="#CCCCCC" stroke="#000000" d="
		M316.891,74.977l160.043,4.722l-4.946,272.33l-165.696-27.581l-0.353-249.757L316.891,74.977z"/>
	<path id="path8500_1_" sodipodi:nodetypes="cc" inkscape:connector-curvature="0" fill="#97AAB0" stroke="#000000" d="
		M399.879,319.112"/>
	<path id="path8502_1_" sodipodi:nodetypes="ccc" inkscape:connector-curvature="0" fill="#97AAB0" stroke="#000000" d="
		M469.209,409.731"/>
	<path id="path8640" inkscape:connector-curvature="0" fill="#A5A0A4" stroke="#000000" d="M69.107,31.62l-0.244,18.589
		l264.312,7.082l0.244-18.589L69.107,31.62z"/>
	<path id="path8642" sodipodi:nodetypes="ccccccc" inkscape:connector-curvature="0" fill="#656064" stroke="#000000" d="
		M68.38,31.029L3.367,48.438l0.115,21.096L64.43,57.043l-0.065-6.679l4.131-0.01L68.38,31.029z"/>
	<path id="path8669" sodipodi:nodetypes="cccc" inkscape:connector-curvature="0" fill="#333333" stroke="#000000" d="
		M333.145,57.553l-19.737,7.242l-249.08-7.511l-0.172-7.094"/>
	<path id="path8708" sodipodi:nodetypes="cccc" inkscape:connector-curvature="0" fill="none" stroke="#000000" d="M82.234,326.195
		l177.75-15.252l8.761-7.89l1.613-211.966"/>
	<path id="path8429" sodipodi:nodetypes="cccc" inkscape:connector-curvature="0" fill="#E6E6E6" stroke="#000000" d="
		M79.833,194.766l188.497-11.707v5.702l-188.497,10.59"/>
</g>
<g>
	<g>
		
			<path id="path8792_1_" sodipodi:type="arc" sodipodi:cx="322.75177" sodipodi:rx="182.77518" sodipodi:ry="72.002342" sodipodi:cy="260.33643" opacity="0.6" fill="none" stroke="#000000" stroke-linecap="round" stroke-linejoin="round" enable-background="new    " d="
			M139.527,338.338c0-48.227,61.9-87.322,138.258-87.322s138.259,39.096,138.259,87.322c0,48.228-61.901,87.322-138.259,87.322
			S139.527,386.565,139.527,338.338z"/>
		<path id="path9353_1_" opacity="0.07" enable-background="new    " d="M414.317,361.125c2.894,14.688,0.103,29.014-8.262,42.4
			c-16.379,26.21-51.009,45.445-94.451,52.465c-16.543,2.674-37.168,3.388-53.128,1.847c-37.088-3.589-67.969-15.046-90.374-33.53
			c-21.989-18.142-31.413-40.468-26.797-63.479c0.311-1.547,0.675-2.924,0.812-3.057c0.135-0.136,0.46,0.42,0.721,1.234
			c0.822,2.566,3.546,8.091,5.733,11.627c4.704,7.61,11.144,14.784,19.254,21.456c22.101,18.171,52.301,29.483,89.105,33.375
			c10.137,1.073,31.782,1.068,41.743-0.008c31.278-3.383,57.166-11.772,78.141-25.322c16.826-10.869,29.188-24.604,34.887-38.758
			c0.833-2.07,1.604-3.775,1.714-3.79C413.524,357.567,413.931,359.16,414.317,361.125L414.317,361.125z"/>
		<path id="path9355_1_" opacity="0.07" enable-background="new    " d="M290.803,286.151c0.541,0.085,3.64,0.374,6.886,0.647
			c20.718,1.738,42.488,7.259,60.519,15.349c16.511,7.408,31.796,18.493,41.605,30.177c4.719,5.618,10.001,14.597,12.262,20.837
			l0.772,2.14l-0.772,2.142c-1.472,4.062-3.731,8.465-6.771,13.188c-5.382,8.368-10.789,14.171-19.913,21.378
			c-22.052,17.412-51.811,28.249-87.56,31.882c-7.723,0.786-32.275,0.774-40.195-0.017c-41.77-4.18-76.968-19.074-98.274-41.589
			c-7.084-7.486-13.213-17.059-15.747-24.589l-0.805-2.396l0.805-2.394c0.443-1.317,1.662-4.106,2.708-6.2
			c11.768-23.552,38.561-42.691,74.349-53.116c9.167-2.669,22.909-5.301,34.573-6.624
			C260.828,286.337,287.958,285.714,290.803,286.151L290.803,286.151L290.803,286.151z"/>
		
			<linearGradient id="path9351_2_" gradientUnits="userSpaceOnUse" x1="-74.189" y1="1630.6113" x2="66.8477" y2="1630.6113" gradientTransform="matrix(-1 0 0 1 299.252 -1322.5527)">
			<stop  offset="0" style="stop-color:#000000;stop-opacity:0.6"/>
			<stop  offset="0.2217" style="stop-color:#4D4D4D;stop-opacity:0.6"/>
			<stop  offset="0.4895" style="stop-color:#ABABAB;stop-opacity:0.6"/>
			<stop  offset="1" style="stop-color:#000000;stop-opacity:0.6"/>
		</linearGradient>
		
			<path id="path9351_1_" sodipodi:nodetypes="cssssssssscccssscc" opacity="0.13" fill="url(#path9351_2_)" enable-background="new    " d="
			M299.713,252.162c44.428,4.796,80.999,21.973,101.578,47.354c3.165,3.903,8.836,13.116,10.381,17.317
			c2.625,7.127,4.142,14.46,4.142,20.897c0,3.061,0.436,24.497-0.123,25.394c-0.17,0.271-3.494-11.897-4.401-14.106
			c-2.378-5.801-9.371-16.027-14.397-21.351c-11.333-12-27.694-22.599-46.027-29.775c-23.441-9.173-45.084-13.289-73.148-13.289
			c-23.527,0-42.07,3.137-61.764,9.369c-36.041,11.407-61.014,30.31-71.577,55.043l-4.681,15.825l-0.243-13.775
			c-1.028-3.959-0.065-10.334,0.182-15.468c1.106-22.997,17.222-45.466,44.629-61.463c16.06-9.374,35.812-16.115,57.733-19.989
			c15.791-2.79,41.157-3.737,57.388-1.983H299.713z"/>
		
			<path id="path8792-2_1_" sodipodi:type="arc" sodipodi:cx="322.75177" sodipodi:rx="182.77518" sodipodi:ry="72.002342" sodipodi:cy="260.33643" opacity="0.6" fill="none" stroke="#000000" stroke-linecap="round" stroke-linejoin="round" enable-background="new    " d="
			M139.527,372.265c0-48.227,61.9-87.321,138.258-87.321s138.259,39.095,138.259,87.321c0,48.226-61.901,87.321-138.259,87.321
			S139.527,420.49,139.527,372.265z"/>
		<path opacity="0.8" fill="#FCFFBD" d="M149.686,338.52c0-44.138,57.161-79.892,127.672-79.892
			c70.513,0,127.673,35.754,127.673,79.892c0,44.133-57.16,79.886-127.673,79.886C206.847,418.405,149.686,382.652,149.686,338.52z"
			/>
	</g>
	<g>
		
			<path id="path8792_6_" sodipodi:type="arc" sodipodi:cx="322.75177" sodipodi:rx="182.77518" sodipodi:ry="72.002342" sodipodi:cy="260.33643" opacity="0.6" fill="none" stroke="#000000" stroke-linecap="round" stroke-linejoin="round" enable-background="new    " d="
			M424.182,389.946c0,46.91-65.737,84.939-146.829,84.939c-81.093,0-146.832-38.029-146.832-84.939
			c0-46.911,65.739-84.94,146.832-84.94C358.444,305.006,424.182,343.035,424.182,389.946z"/>
		<path id="path9353_5_" opacity="0.07" enable-background="new    " d="M131.214,372.861c-3.074-13.339-0.109-26.347,8.774-38.504
			c17.394-23.802,49.965-45.124,96.102-51.499c17.569-2.428,43.679-4.069,60.628-2.669c39.388,3.26,74.501,16.386,98.295,33.173
			c23.352,16.475,33.239,38.742,28.336,59.641c-0.329,1.404-0.633,3.833-0.779,3.955c-0.144,0.122-1.139-3.087-1.416-3.825
			c-0.873-2.33-1.412-5.525-3.733-8.736c-4.996-6.912-11.594-17.464-20.207-23.521c-23.472-16.502-56.781-31.104-95.868-34.638
			c-10.765-0.974-38.622-0.978-49.199,0c-33.219,3.071-61.789,14.218-84.065,26.523c-17.869,9.87-28.037,27.02-34.089,39.875
			c-0.885,1.878-1.704,3.427-1.819,3.441C132.057,376.093,131.626,374.646,131.214,372.861L131.214,372.861z"/>
		<path id="path9355_5_" opacity="0.07" enable-background="new    " d="M263.419,449.275c-0.582-0.089-3.914-0.392-7.405-0.679
			c-22.279-1.815-45.69-7.063-65.081-15.524c-16.33-6.667-34.473-18.258-45.526-31.369c-5.075-5.876-9.972-15.982-12.403-22.508
			l-0.831-2.237l0.831-2.241c1.583-4.248,4.013-8.853,7.282-13.793c5.788-8.751,11.602-14.82,21.415-22.356
			c23.713-18.21,55.716-29.544,94.161-33.345c8.305-0.821,34.708-0.81,43.226,0.019c44.919,4.372,82.771,19.949,105.685,43.495
			c7.617,7.829,14.208,17.84,16.932,25.717l0.866,2.505l-0.866,2.501c-0.476,1.379-1.786,4.296-2.911,6.485
			c-12.011,26.445-41.469,44.647-79.954,55.549c-9.858,2.791-24.637,5.545-37.181,6.93
			C295.654,449.082,266.479,449.732,263.419,449.275L263.419,449.275L263.419,449.275z"/>
		
			<linearGradient id="path9351_3_" gradientUnits="userSpaceOnUse" x1="-1481.7969" y1="1528.9131" x2="-1332.1587" y2="1528.9131" gradientTransform="matrix(1 0 0 -1 1657.3564 1950.377)">
			<stop  offset="0" style="stop-color:#000000"/>
			<stop  offset="0.4895" style="stop-color:#ABABAB"/>
			<stop  offset="1" style="stop-color:#000000"/>
		</linearGradient>
		
			<path id="path9351_5_" sodipodi:nodetypes="cssssssssscccssscc" opacity="0.13" fill="url(#path9351_3_)" enable-background="new    " d="
			M254.115,473.806c-47.184-4.666-81.601-16.439-103.457-41.13c-3.362-3.796-10.659-11.589-12.301-15.674
			c-3.401-6.791-7.468-17.093-7.468-23.355c0-2.978-0.84-25.389-0.247-26.261c0.181-0.263,1.759,16.086,6.143,21.189
			c3.891,6.902,10.21,14.995,15.548,20.175c12.037,11.673,27.986,20.802,47.457,27.783c24.895,8.924,47.986,12.804,77.79,12.804
			c24.986,0,44.572-2.95,65.488-9.014c26.653-6.438,63.455-26.929,75.455-52.258c1.965-4.146,5.529-17.35,5.529-17.35l0.259,17.574
			c0,0,0,6.772-0.771,11.444c-2.005,14.637-21.28,42.578-53.042,55.98c-17.057,9.12-31.81,12.557-55.091,16.324
			c-16.771,2.715-28.171,4.552-45.406,2.847L254.115,473.806z"/>
		
			<path id="path8792-2_6_" sodipodi:type="arc" sodipodi:cx="322.75177" sodipodi:rx="182.77518" sodipodi:ry="72.002342" sodipodi:cy="260.33643" opacity="0.6" fill="none" stroke="#000000" stroke-linecap="round" stroke-linejoin="round" enable-background="new    " d="
			M424.182,364.396c-0.673,47.638-65.737,84.94-146.829,84.94c-81.093,0-146.832-38.029-146.832-84.94
			c0-46.909,65.739-84.939,146.832-84.939C358.444,279.457,424.844,317.491,424.182,364.396z"/>
	</g>
	<g>
		<g>
			<g enable-background="new    ">
				<defs>
					<polygon id="SVGID_1_" enable-background="new    " points="137.733,387.599 145.694,267.932 408.004,267.932 415.965,387.599 
											"/>
				</defs>
				<clipPath id="SVGID_2_">
					<use xlink:href="#SVGID_1_"  overflow="visible"/>
				</clipPath>
				<g clip-path="url(#SVGID_2_)">
					<g>
						<g>
							<g>
								<path opacity="0.4" fill="#CCCCCC" d="M296.526,284.596c0,0-0.523,0.166-1.336,0.465c-0.813,0.3-1.915,0.734-3.069,1.27
									c-1.155,0.536-2.364,1.175-3.391,1.884c-1.027,0.709-1.871,1.488-2.296,2.306l-0.105,17.135c0,0,0.005,0.925,0.015,2.35
									c0.01,1.428,0.024,3.358,0.046,5.369c0.021,2.014,0.049,4.106,0.084,5.849c0.034,1.745,0.076,3.138,0.127,3.743
									c0.007,0.088,0.039,0.165,0.095,0.23c0.056,0.066,0.135,0.122,0.236,0.166c0.102,0.045,0.225,0.078,0.367,0.101
									s0.307,0.033,0.487,0.033c1.067,0,2.769-0.387,4.748-1.179c1.977-0.791,4.229-1.986,6.401-3.602
									c2.168-1.613,4.254-3.645,5.903-6.11c1.646-2.459,2.855-5.348,3.278-8.682c0.096-0.462,0.172-0.786,0.228-1.058
									c0.056-0.272,0.092-0.493,0.105-0.748c0.014-0.256,0.006-0.546-0.025-0.958c-0.03-0.411-0.084-0.944-0.163-1.684
									c-0.077-0.535-0.163-1.684-0.422-3.148c-0.258-1.463-0.688-3.241-1.452-5.04c-0.763-1.796-1.858-3.612-3.448-5.157
									C301.351,286.586,299.268,285.312,296.526,284.596 M279.14,276.419L279.14,276.419c0.001-0.001,0.002-0.001,0.002-0.001l0,0
									c0,0,0,0,0.001-0.001l0,0c0,0,0,0,0,0.001h-0.001C279.142,276.418,279.141,276.418,279.14,276.419
									C279.141,276.419,279.141,276.419,279.14,276.419c-0.009,0.017-0.338,0.588-0.915,1.478c-0.577,0.891-1.402,2.1-2.406,3.391
									c-1.005,1.293-2.188,2.669-3.476,3.887c-1.29,1.221-2.686,2.283-4.113,2.947c-0.556,0.252-1.275,0.606-2.191,1.001
									s-2.027,0.83-3.366,1.244c-1.339,0.415-2.904,0.809-4.728,1.12s-3.904,0.541-6.272,0.626
									c-0.115,0.004-0.229,0.008-0.344,0.011s-0.229,0.006-0.343,0.008c-0.114,0.002-0.228,0.004-0.341,0.005
									s-0.227,0.001-0.34,0.001c-1.602,0-3.154-0.097-4.64-0.256c-1.485-0.159-2.903-0.38-4.234-0.628
									c-1.331-0.249-2.575-0.524-3.714-0.792c-1.139-0.268-2.172-0.527-3.082-0.745c0,0-0.051-0.014-0.147-0.037
									c-0.096-0.024-0.236-0.059-0.416-0.101c-0.18-0.041-0.4-0.09-0.654-0.141c-0.254-0.052-0.542-0.107-0.859-0.162
									c-0.32-0.056-0.67-0.111-1.045-0.163s-0.774-0.1-1.194-0.142c-0.419-0.041-0.858-0.075-1.312-0.1s-0.922-0.038-1.399-0.038
									c-0.281,0-0.566,0.005-0.853,0.016c-0.287,0.01-0.576,0.025-0.866,0.048c-0.291,0.021-0.582,0.05-0.874,0.085
									c-0.292,0.035-0.583,0.077-0.875,0.126c-0.97,0.166-1.992,0.523-2.986,0.972c-0.995,0.447-1.962,0.985-2.822,1.512
									c-0.861,0.527-1.614,1.043-2.18,1.446c-0.566,0.402-0.945,0.691-1.056,0.766l0.027-0.89c0,0,0.015-0.156,0.042-0.403
									c0.028-0.248,0.068-0.588,0.12-0.955c0.052-0.368,0.115-0.765,0.187-1.125c0.072-0.361,0.153-0.688,0.242-0.914
									c1.077-3.023,2.666-5.315,4.493-7.054c1.824-1.735,3.889-2.921,5.923-3.73c2.033-0.809,4.036-1.243,5.74-1.476
									c1.704-0.232,3.108-0.263,3.942-0.263c0.063,0,0.123,0,0.179,0c0.057,0.001,0.109,0.001,0.159,0.001
									c0.049,0.001,0.095,0.001,0.138,0.002c0.042,0,0.081,0,0.116,0.001c0.397,0.002,0.945,0.023,1.584,0.061
									s1.37,0.091,2.132,0.16c0.762,0.069,1.556,0.153,2.323,0.253c0.767,0.098,1.506,0.211,2.159,0.336
									c0.473,0.091,1.491,0.336,2.878,0.653c1.388,0.318,3.145,0.708,5.094,1.087c1.951,0.379,4.094,0.747,6.253,1.02
									c2.16,0.273,4.335,0.452,6.347,0.452c0.325,0,0.646-0.005,0.962-0.015s0.627-0.024,0.932-0.044
									c0.305-0.021,0.604-0.046,0.896-0.077c0.293-0.031,0.579-0.067,0.857-0.11c1.232-0.152,2.488-0.496,3.68-0.927
									c1.191-0.432,2.318-0.95,3.294-1.451c0.975-0.502,1.799-0.986,2.385-1.35C278.768,276.681,279.116,276.438,279.14,276.419
									 M257.986,353.411c1.487-0.695,2.594-1.404,3.418-2.092c0.822-0.687,1.364-1.351,1.724-1.957
									c0.358-0.606,0.536-1.154,0.63-1.609c0.095-0.455,0.107-0.815,0.136-1.048c0.007-0.057,0.032-1.568,0.065-3.8
									c0.032-2.227,0.074-5.165,0.114-8.089c0.04-2.916,0.079-5.816,0.108-7.984c0.029-2.163,0.049-3.6,0.049-3.6l0.141-22.717
									c0.001-0.019,0.021-0.315,0.083-0.787c0.063-0.471,0.167-1.115,0.339-1.828c0.171-0.712,0.408-1.492,0.734-2.235
									c0.326-0.742,0.741-1.448,1.27-2.013c0.396-0.423,0.785-0.802,1.189-1.151c0.405-0.349,0.824-0.668,1.282-0.971
									c0.457-0.303,0.952-0.59,1.507-0.874c0.555-0.285,1.17-0.567,1.866-0.862l17.655-7.378l17.53-7.032
									c4.54,1.317,7.935,3.151,10.475,5.167c2.545,2.019,4.231,4.22,5.352,6.262c1.122,2.047,1.674,3.932,1.947,5.312
									c0.272,1.382,0.266,2.255,0.271,2.273c0.21,0.804,0.282,1.917,0.18,3.232c-0.103,1.317-0.381,2.839-0.871,4.456
									c-0.491,1.619-1.195,3.336-2.15,5.039c-0.956,1.706-2.164,3.399-3.66,4.971c-0.261,0.273-0.797,0.772-1.591,1.434
									c-0.795,0.662-1.847,1.485-3.138,2.408c-1.292,0.924-2.823,1.947-4.574,3.006c-1.753,1.06-3.727,2.155-5.9,3.223
									c0.028-0.015,0.059-0.026,0.091-0.037c0.031-0.01,0.065-0.019,0.101-0.025s0.072-0.012,0.111-0.015s0.079-0.005,0.121-0.005
									c0.43,0,1.02,0.169,1.677,0.432s1.382,0.619,2.08,0.994c0.698,0.376,1.37,0.77,1.923,1.106
									c0.552,0.337,0.983,0.617,1.201,0.765c1.371,0.938,2.629,2.061,3.774,3.279c1.146,1.221,2.181,2.537,3.104,3.857
									c0.924,1.321,1.736,2.647,2.437,3.885c0.701,1.238,1.29,2.388,1.767,3.354c0.038,0.076,0.456,1.061,1.071,2.507
									c0.615,1.449,1.428,3.362,2.252,5.292c0.826,1.933,1.663,3.882,2.324,5.393c0.662,1.514,1.147,2.588,1.266,2.765
									c0.508,0.738,0.939,1.356,1.35,1.88c0.41,0.524,0.8,0.954,1.224,1.315c0.424,0.362,0.883,0.657,1.433,0.912
									c0.549,0.254,1.188,0.468,1.975,0.668c0.214,0.055,0.426,0.103,0.636,0.144s0.418,0.075,0.626,0.103
									s0.415,0.048,0.623,0.062c0.209,0.013,0.417,0.02,0.628,0.02c0.493,0,0.996-0.036,1.525-0.109
									c0.528-0.073,1.082-0.183,1.677-0.328s1.229-0.326,1.919-0.542c0.69-0.216,1.436-0.467,2.251-0.753
									c0,0-0.392,0.426-1.008,1.1c-0.615,0.674-1.455,1.595-2.351,2.586c-0.896,0.992-1.847,2.053-2.684,3.004
									c-0.839,0.952-1.563,1.793-2.001,2.343c-0.494,0.62-1.132,1.424-1.81,2.281c-0.68,0.857-1.4,1.77-2.059,2.604
									c-0.66,0.836-1.258,1.595-1.691,2.145c-0.433,0.55-0.701,0.891-0.701,0.891s-0.034,0.004-0.1,0.009
									c-0.066,0.006-0.164,0.013-0.291,0.02c-0.128,0.008-0.285,0.015-0.471,0.021c-0.185,0.005-0.397,0.009-0.637,0.009
									c-0.651,0-1.495-0.026-2.488-0.116s-2.137-0.242-3.388-0.494s-2.61-0.603-4.034-1.089c-1.425-0.486-2.914-1.107-4.427-1.899
									c-1.314-0.688-2.472-1.557-3.487-2.516c-1.016-0.958-1.891-2.005-2.643-3.051c-0.752-1.045-1.381-2.088-1.906-3.041
									c-0.524-0.952-0.945-1.813-1.28-2.495c-0.003-0.006-0.007-0.012-0.012-0.016c-0.004-0.005-0.01-0.009-0.017-0.012
									c-0.006-0.003-0.013-0.005-0.021-0.007c-0.008-0.001-0.017-0.002-0.025-0.002c-0.213,0-0.812,0.376-1.59,0.941
									s-1.738,1.32-2.671,2.075c-0.935,0.756-1.843,1.512-2.518,2.079c-0.675,0.568-1.116,0.946-1.116,0.946l-10.348,9.446
									c0,0-0.867-0.331-2.264-0.846c-1.396-0.514-3.322-1.21-5.44-1.94c-2.116-0.73-4.425-1.495-6.59-2.146
									c-2.164-0.65-4.187-1.188-5.732-1.467c-1.13-0.225-2.26-0.413-3.385-0.57c-1.124-0.157-2.242-0.283-3.35-0.381
									c-1.106-0.097-2.201-0.166-3.277-0.212c-1.076-0.045-2.134-0.065-3.166-0.065c-1.186,0-2.339,0.027-3.449,0.076
									s-2.178,0.12-3.193,0.207s-1.979,0.19-2.879,0.305s-1.739,0.238-2.506,0.368c-2.158,0.366-4.506,0.944-6.814,1.607
									c-2.31,0.663-4.581,1.41-6.583,2.112c-2.003,0.703-3.737,1.359-4.97,1.842c-1.234,0.481-1.967,0.788-1.967,0.788
									s0.114-0.15,0.311-0.396c0.197-0.247,0.477-0.589,0.81-0.975c0.333-0.386,0.719-0.813,1.128-1.23s0.841-0.823,1.266-1.166
									c1.626-1.558,3.676-3.261,6.071-4.977c2.391-1.714,5.125-3.44,8.125-5.05c2.995-1.607,6.256-3.098,9.705-4.342
									c3.445-1.243,7.08-2.24,10.83-2.864c0.737-0.1,1.472-0.197,2.225-0.288s1.525-0.175,2.339-0.246
									c0.814-0.071,1.671-0.131,2.592-0.173c0.921-0.041,1.906-0.064,2.979-0.064c0.234,0,0.473,0.001,0.715,0.003
									c0.243,0.003,0.49,0.006,0.742,0.011c0.251,0.005,0.508,0.011,0.769,0.018c0.262,0.007,0.528,0.016,0.8,0.025
									c2.206,0.08,4.861,0.401,7.604,0.837c2.743,0.436,5.575,0.987,8.13,1.529c2.557,0.542,4.837,1.074,6.477,1.471
									s2.637,0.658,2.628,0.658h-0.001c0,0,0,0-0.001,0h-0.001c-0.001-0.001-0.002-0.001-0.002-0.001
									c0.271,0.065,0.545,0.13,0.819,0.192s0.551,0.124,0.827,0.185c0.277,0.062,0.555,0.121,0.833,0.18
									c0.278,0.06,0.557,0.118,0.835,0.176l2.353-1.339c-0.027-0.02-0.095-0.126-0.193-0.311s-0.229-0.448-0.385-0.782
									c-0.155-0.335-0.335-0.74-0.53-1.209c-0.196-0.468-0.409-0.999-0.631-1.586c-0.142-0.372-0.281-0.812-0.412-1.265
									s-0.253-0.92-0.357-1.347c-0.104-0.426-0.192-0.812-0.256-1.103c-0.064-0.291-0.104-0.488-0.11-0.537
									c-0.008-0.051-0.158-0.637-0.386-1.501c-0.228-0.863-0.531-2.004-0.845-3.166c-0.313-1.161-0.635-2.343-0.9-3.291
									c-0.266-0.947-0.474-1.662-0.561-1.892c-0.134-0.511-0.381-1.217-0.713-2.024c-0.331-0.808-0.746-1.717-1.219-2.636
									c-0.472-0.917-1.001-1.844-1.559-2.688c-0.558-0.842-1.145-1.602-1.734-2.186c-0.166-0.213-0.417-0.442-0.719-0.674
									c-0.303-0.231-0.657-0.465-1.032-0.686c-0.375-0.22-0.77-0.426-1.152-0.604s-0.754-0.326-1.081-0.431
									c-0.191-0.052-0.388-0.099-0.587-0.139s-0.402-0.074-0.609-0.102c-0.206-0.027-0.416-0.049-0.628-0.063
									c-0.213-0.015-0.429-0.021-0.647-0.021l-0.204,4.475l0.05,6.697c0.001,0.188-0.015,0.514-0.092,0.924
									c-0.077,0.409-0.216,0.904-0.462,1.432s-0.599,1.088-1.104,1.63c-0.507,0.542-1.165,1.065-2.022,1.518
									c-1.292,0.903-2.774,1.735-4.303,2.482c-1.529,0.748-3.104,1.411-4.584,1.978c-1.479,0.567-2.861,1.037-4.003,1.399
									c-1.142,0.361-2.042,0.614-2.558,0.746c-0.983,0.298-2.037,0.541-3.071,0.739c-1.034,0.199-2.049,0.354-2.951,0.479
									c-0.903,0.123-1.696,0.215-2.286,0.287C258.471,353.313,258.082,353.366,257.986,353.411 M356.798,271.579H204.003
									l-1.929,52.29l13.024,3.33c-0.013-0.57,0.011-1.14,0.071-1.695c0.06-0.557,0.155-1.1,0.284-1.619
									c0.128-0.519,0.291-1.014,0.484-1.473c0.194-0.46,0.419-0.884,0.674-1.261c0.655-0.974,1.46-1.703,2.364-2.248
									c0.903-0.545,1.905-0.907,2.955-1.148c1.049-0.24,2.145-0.359,3.237-0.419c1.092-0.059,2.179-0.058,3.209-0.058
									c0.45,0,1.131-0.006,1.9-0.016c0.769-0.011,1.625-0.024,2.424-0.039c0.8-0.016,1.543-0.033,2.086-0.05
									c0.543-0.016,0.887-0.031,0.887-0.045c0.034-2.768,0.059-4.81,0.078-6.345c0.019-1.532,0.031-2.561,0.041-3.298
									c0.01-0.737,0.016-1.185,0.022-1.555c0.006-0.37,0.012-0.663,0.021-1.091c0.027-1.313,0.706-2.443,1.717-3.401
									c1.009-0.957,2.35-1.742,3.703-2.368c1.352-0.625,2.715-1.09,3.772-1.407c1.056-0.316,1.807-0.484,1.931-0.516l12.92-3.346
									c-0.029,0.057-0.154,0.237-0.341,0.525c-0.186,0.288-0.431,0.684-0.701,1.167c-0.27,0.483-0.563,1.057-0.845,1.7
									s-0.551,1.358-0.771,2.126c-0.061,0.206-0.119,0.558-0.172,0.971s-0.102,0.887-0.144,1.335
									c-0.042,0.449-0.077,0.871-0.104,1.183c-0.027,0.311-0.045,0.509-0.052,0.509c-0.001,0-0.002-0.002-0.002-0.006
									c-0.001-0.004-0.001-0.01-0.002-0.019c0-0.009,0-0.02,0-0.032s0-0.028,0-0.046l-0.198,19.786l-0.202,20.185
									c0,0.02,0.067,0.385,0.04,0.993c-0.027,0.607-0.15,1.458-0.532,2.446c-0.383,0.989-1.025,2.117-2.091,3.278
									c-1.068,1.162-2.561,2.358-4.643,3.482c-2.518,1.361-4.867,2.522-6.992,3.507c-2.128,0.985-4.032,1.792-5.66,2.442
									c-1.629,0.651-2.981,1.146-4.003,1.504c-1.023,0.359-1.716,0.584-2.028,0.694c-0.028,0.012-0.053,0.022-0.075,0.031
									s-0.041,0.017-0.057,0.022s-0.028,0.011-0.036,0.015c-0.008,0.003-0.013,0.005-0.014,0.006
									c0.004-0.003,0.011-0.007,0.021-0.012c0.01-0.005,0.022-0.011,0.038-0.017s0.033-0.013,0.053-0.021s0.044-0.016,0.069-0.025
									c0.209-0.088,0.582-0.257,1.024-0.521s0.954-0.624,1.442-1.095c0.488-0.47,0.952-1.049,1.299-1.753
									c0.347-0.702,0.577-1.529,0.596-2.493l0.476-23.277c0,0-0.176,0-0.463-0.001s-0.687-0.002-1.133-0.004
									c-0.447-0.001-0.941-0.002-1.418-0.003c-0.478-0.001-0.939-0.002-1.319-0.002c-0.126,0-0.245,0-0.351,0
									s-0.201,0.001-0.283,0.001c-0.081,0.001-0.149,0.001-0.2,0.002c-0.052,0-0.087,0.001-0.104,0.002
									c-0.085-0.003-0.169-0.005-0.253-0.006c-0.083-0.002-0.166-0.003-0.248-0.004s-0.163-0.002-0.244-0.003
									c-0.081,0-0.16,0-0.239,0c-2.436,0-4.14,0.247-5.327,0.619c-1.188,0.372-1.857,0.868-2.222,1.365
									c-0.366,0.496-0.426,0.993-0.396,1.366s0.153,0.622,0.153,0.622s-0.069-0.014-0.195-0.052s-0.308-0.1-0.534-0.198
									c-0.226-0.098-0.495-0.23-0.794-0.41s-0.629-0.406-0.976-0.689l-10.813,16.902l-6.808-1.764l-1.231,33.371h161.454
									l-1.637-40.42l-18.591,1.604l-5.693-24.118l23.293-1.988L356.798,271.579"/>
								<path fill="#525252" d="M230.436,361.534c-0.025,0.01-0.049,0.018-0.069,0.025s-0.038,0.015-0.053,0.021
									s-0.028,0.012-0.038,0.017c-0.01,0.005-0.017,0.009-0.021,0.012c0.001-0.001,0.006-0.003,0.014-0.006
									c0.008-0.004,0.021-0.009,0.036-0.015s0.035-0.014,0.057-0.022S230.408,361.546,230.436,361.534 M259.879,293.803
									l-12.92,3.346c-0.125,0.031-0.875,0.199-1.931,0.516c-1.057,0.317-2.42,0.782-3.772,1.407
									c-1.353,0.626-2.693,1.411-3.703,2.368c-1.011,0.958-1.69,2.088-1.717,3.401c-0.009,0.428-0.015,0.721-0.021,1.091
									c-0.006,0.37-0.012,0.817-0.022,1.555c-0.009,0.737-0.022,1.766-0.041,3.298c-0.019,1.535-0.043,3.577-0.078,6.345
									c0,0.014-0.344,0.029-0.887,0.045c-0.543,0.017-1.287,0.034-2.086,0.05c-0.799,0.015-1.655,0.028-2.424,0.039
									c-0.769,0.01-1.45,0.016-1.9,0.016c-1.031,0-2.118-0.001-3.209,0.058c-1.092,0.06-2.188,0.179-3.237,0.419
									c-1.049,0.241-2.051,0.604-2.955,1.148c-0.904,0.545-1.709,1.274-2.364,2.248c-0.255,0.377-0.48,0.801-0.674,1.261
									c-0.194,0.459-0.356,0.954-0.484,1.473c-0.129,0.52-0.224,1.063-0.284,1.619c-0.06,0.556-0.084,1.125-0.071,1.695
									l7.407,1.895L218.727,335c0.347,0.283,0.677,0.51,0.976,0.689s0.568,0.313,0.794,0.41c0.226,0.099,0.408,0.16,0.534,0.198
									s0.195,0.052,0.195,0.052s-0.122-0.249-0.153-0.622s0.03-0.87,0.396-1.366c0.365-0.497,1.035-0.993,2.222-1.365
									c1.187-0.372,2.892-0.619,5.327-0.619c0.079,0,0.158,0,0.239,0c0.081,0.001,0.162,0.002,0.244,0.003
									s0.165,0.002,0.248,0.004c0.084,0.001,0.168,0.003,0.253,0.006c0.017-0.001,0.052-0.002,0.104-0.002
									c0.051-0.001,0.119-0.001,0.2-0.002c0.082,0,0.176-0.001,0.283-0.001s0.225,0,0.351,0c0.38,0,0.841,0.001,1.319,0.002
									c0.478,0.001,0.972,0.002,1.418,0.003c0.447,0.002,0.846,0.003,1.133,0.004s0.463,0.001,0.463,0.001l-0.476,23.277
									c-0.02,0.964-0.25,1.791-0.596,2.493c-0.347,0.704-0.811,1.283-1.299,1.753c-0.488,0.471-1,0.83-1.442,1.095
									s-0.815,0.434-1.024,0.521c0.312-0.11,1.005-0.335,2.028-0.694c1.022-0.358,2.375-0.853,4.003-1.504
									c1.628-0.65,3.532-1.457,5.66-2.442c2.125-0.984,4.474-2.146,6.992-3.507c2.083-1.124,3.575-2.32,4.643-3.482
									c1.065-1.161,1.708-2.289,2.091-3.278c0.382-0.988,0.505-1.839,0.532-2.446c0.027-0.608-0.04-0.974-0.04-0.993l0.202-20.185
									l0.198-19.786c0,0.018,0,0.033,0,0.046s0,0.023,0,0.032c0.001,0.009,0.001,0.015,0.002,0.019
									c0,0.004,0.001,0.006,0.002,0.006c0.007,0,0.024-0.198,0.052-0.509c0.026-0.312,0.062-0.733,0.104-1.183
									c0.042-0.448,0.091-0.922,0.144-1.335s0.111-0.765,0.172-0.971c0.221-0.768,0.49-1.482,0.771-2.126s0.575-1.217,0.845-1.7
									c0.271-0.483,0.516-0.879,0.701-1.167C259.725,294.04,259.85,293.859,259.879,293.803 M279.14,276.419
									c-0.023,0.019-0.372,0.262-0.958,0.626c-0.586,0.363-1.41,0.848-2.385,1.35c-0.976,0.501-2.103,1.02-3.294,1.451
									c-1.191,0.431-2.447,0.774-3.68,0.927c-0.278,0.043-0.564,0.079-0.857,0.11c-0.292,0.031-0.592,0.057-0.896,0.077
									c-0.305,0.02-0.616,0.034-0.932,0.044s-0.637,0.015-0.962,0.015c-2.012,0-4.187-0.179-6.347-0.452
									c-2.159-0.272-4.302-0.641-6.253-1.02c-1.949-0.379-3.707-0.769-5.094-1.087c-1.387-0.317-2.405-0.563-2.878-0.653
									c-0.653-0.125-1.392-0.238-2.159-0.336c-0.767-0.1-1.561-0.184-2.323-0.253c-0.763-0.069-1.493-0.123-2.132-0.16
									s-1.187-0.059-1.584-0.061c-0.035-0.001-0.074-0.001-0.116-0.001c-0.042-0.001-0.088-0.001-0.138-0.002
									c-0.049,0-0.102,0-0.159-0.001c-0.057,0-0.116,0-0.179,0c-0.833,0-2.238,0.03-3.942,0.263
									c-1.704,0.232-3.708,0.667-5.74,1.476c-2.034,0.81-4.099,1.995-5.923,3.73c-1.827,1.738-3.416,4.03-4.493,7.054
									c-0.088,0.227-0.17,0.553-0.242,0.914c-0.072,0.36-0.135,0.757-0.187,1.125c-0.052,0.367-0.092,0.707-0.12,0.955
									c-0.027,0.247-0.042,0.403-0.042,0.403l-0.027,0.89c0.111-0.074,0.489-0.363,1.056-0.766
									c0.566-0.403,1.319-0.919,2.18-1.446c0.86-0.526,1.827-1.064,2.822-1.512c0.994-0.448,2.016-0.806,2.986-0.972
									c0.291-0.049,0.583-0.091,0.875-0.126c0.292-0.035,0.583-0.063,0.874-0.085c0.29-0.022,0.579-0.038,0.866-0.048
									c0.287-0.011,0.572-0.016,0.853-0.016c0.478,0,0.946,0.014,1.399,0.038s0.893,0.059,1.312,0.1
									c0.419,0.042,0.819,0.09,1.194,0.142s0.725,0.107,1.045,0.163c0.317,0.055,0.605,0.11,0.859,0.162
									c0.254,0.051,0.474,0.1,0.654,0.141c0.18,0.042,0.32,0.076,0.416,0.101c0.096,0.023,0.146,0.037,0.147,0.037
									c0.91,0.218,1.943,0.478,3.082,0.745c1.139,0.268,2.384,0.543,3.714,0.792c1.332,0.248,2.749,0.469,4.234,0.628
									c1.486,0.159,3.039,0.256,4.64,0.256c0.113,0,0.227,0,0.34-0.001s0.227-0.003,0.341-0.005
									c0.114-0.002,0.229-0.005,0.343-0.008s0.229-0.007,0.344-0.011c2.368-0.085,4.449-0.314,6.272-0.626s3.389-0.705,4.728-1.12
									c1.339-0.414,2.45-0.85,3.366-1.244s1.636-0.749,2.191-1.001c1.428-0.664,2.823-1.727,4.113-2.947
									c1.288-1.218,2.471-2.594,3.476-3.887c1.004-1.291,1.829-2.5,2.406-3.391C278.802,277.007,279.131,276.436,279.14,276.419
									 M279.143,276.417L279.143,276.417C279.142,276.418,279.142,276.418,279.143,276.417L279.143,276.417
									c-0.001,0.001-0.002,0.001-0.002,0.002h-0.001c0.001,0,0.001,0,0.001,0C279.141,276.418,279.142,276.418,279.143,276.417
									L279.143,276.417C279.143,276.417,279.143,276.417,279.143,276.417 M287.786,325.495c-0.181,0-0.345-0.011-0.487-0.033
									s-0.266-0.056-0.367-0.101c-0.102-0.044-0.181-0.1-0.236-0.166c-0.056-0.065-0.088-0.143-0.095-0.23
									c-0.051-0.605-0.093-1.998-0.127-3.743c-0.035-1.742-0.063-3.835-0.084-5.849c-0.021-2.011-0.036-3.941-0.046-5.369
									c-0.01-1.425-0.015-2.35-0.015-2.35l0.105-17.135c0.425-0.817,1.269-1.597,2.296-2.306c1.026-0.709,2.235-1.348,3.391-1.884
									c1.154-0.535,2.256-0.97,3.069-1.27c0.813-0.299,1.336-0.465,1.336-0.465c2.741,0.716,4.824,1.99,6.413,3.534
									c1.59,1.545,2.686,3.361,3.448,5.157c0.765,1.799,1.194,3.577,1.452,5.04c0.259,1.465,0.345,2.613,0.422,3.148
									c0.079,0.739,0.133,1.272,0.163,1.684c0.031,0.412,0.039,0.702,0.025,0.958c-0.014,0.255-0.05,0.476-0.105,0.748
									c-0.056,0.271-0.132,0.596-0.228,1.058c-0.423,3.334-1.633,6.223-3.278,8.682c-1.649,2.466-3.735,4.497-5.903,6.11
									c-2.172,1.615-4.425,2.811-6.401,3.602C290.555,325.108,288.854,325.495,287.786,325.495 M307.827,275.384l-17.53,7.032
									l-17.655,7.378c-0.696,0.295-1.312,0.577-1.866,0.862c-0.555,0.284-1.05,0.571-1.507,0.874
									c-0.458,0.303-0.877,0.622-1.282,0.971c-0.404,0.35-0.793,0.729-1.189,1.151c-0.528,0.564-0.943,1.271-1.27,2.013
									c-0.326,0.743-0.563,1.523-0.734,2.235c-0.172,0.713-0.276,1.357-0.339,1.828c-0.063,0.472-0.082,0.769-0.083,0.787
									l-0.141,22.717c0,0-0.02,1.437-0.049,3.6c-0.029,2.168-0.068,5.068-0.108,7.984c-0.04,2.924-0.082,5.862-0.114,8.089
									c-0.033,2.231-0.059,3.743-0.065,3.8c-0.028,0.232-0.041,0.593-0.136,1.048c-0.094,0.455-0.271,1.003-0.63,1.609
									c-0.359,0.606-0.901,1.271-1.724,1.957c-0.824,0.688-1.931,1.396-3.418,2.092c0.096-0.045,0.484-0.098,1.075-0.17
									c0.59-0.072,1.383-0.164,2.286-0.287c0.902-0.124,1.917-0.279,2.951-0.479c1.034-0.198,2.088-0.441,3.071-0.739
									c0.516-0.132,1.416-0.385,2.558-0.746c1.142-0.362,2.523-0.832,4.003-1.399c1.479-0.566,3.055-1.229,4.584-1.978
									c1.528-0.747,3.011-1.579,4.303-2.482c0.857-0.452,1.516-0.976,2.022-1.518c0.506-0.542,0.858-1.103,1.104-1.63
									s0.385-1.022,0.462-1.432c0.077-0.41,0.093-0.735,0.092-0.924l-0.05-6.697l0.204-4.475c0.219,0,0.435,0.007,0.647,0.021
									c0.212,0.014,0.422,0.035,0.628,0.063c0.207,0.027,0.41,0.062,0.609,0.102s0.396,0.087,0.587,0.139
									c0.327,0.104,0.698,0.253,1.081,0.431s0.777,0.384,1.152,0.604c0.375,0.221,0.729,0.454,1.032,0.686
									c0.302,0.231,0.553,0.461,0.719,0.674c0.59,0.584,1.177,1.344,1.734,2.186c0.558,0.844,1.087,1.771,1.559,2.688
									c0.473,0.919,0.888,1.828,1.219,2.636c0.332,0.808,0.579,1.514,0.713,2.024c0.087,0.229,0.295,0.944,0.561,1.892
									c0.266,0.948,0.588,2.13,0.9,3.291c0.313,1.162,0.617,2.303,0.845,3.166c0.228,0.864,0.378,1.45,0.386,1.501
									c0.007,0.049,0.046,0.246,0.11,0.537c0.063,0.291,0.151,0.677,0.256,1.103c0.104,0.427,0.227,0.894,0.357,1.347
									s0.271,0.893,0.412,1.265c0.222,0.587,0.435,1.118,0.631,1.586c0.195,0.469,0.375,0.874,0.53,1.209
									c0.155,0.334,0.286,0.598,0.385,0.782s0.166,0.291,0.193,0.311l-2.353,1.339c-0.278-0.058-0.557-0.116-0.835-0.176
									c-0.278-0.059-0.556-0.118-0.833-0.18c-0.276-0.061-0.553-0.122-0.827-0.185s-0.548-0.127-0.819-0.192
									c0,0,0.001,0,0.002,0.001h0.001c0.001,0,0.001,0,0.001,0h0.001c0.009,0-0.988-0.262-2.628-0.658s-3.92-0.929-6.477-1.471
									c-2.555-0.542-5.387-1.094-8.13-1.529c-2.742-0.436-5.397-0.757-7.604-0.837c-0.271-0.01-0.538-0.019-0.8-0.025
									c-0.261-0.007-0.518-0.013-0.769-0.018c-0.252-0.005-0.499-0.008-0.742-0.011c-0.242-0.002-0.48-0.003-0.715-0.003
									c-1.073,0-2.059,0.023-2.979,0.064c-0.921,0.042-1.777,0.102-2.592,0.173c-0.813,0.071-1.586,0.155-2.339,0.246
									s-1.487,0.188-2.225,0.288c-3.75,0.624-7.385,1.621-10.83,2.864c-3.449,1.244-6.709,2.734-9.705,4.342
									c-3,1.609-5.735,3.336-8.125,5.05c-2.395,1.716-4.445,3.419-6.071,4.977c-0.425,0.343-0.857,0.749-1.266,1.166
									s-0.795,0.845-1.128,1.23c-0.333,0.386-0.613,0.728-0.81,0.975c-0.197,0.246-0.311,0.396-0.311,0.396
									s0.733-0.307,1.967-0.788c1.233-0.482,2.967-1.139,4.97-1.842c2.002-0.702,4.273-1.449,6.583-2.112
									c2.308-0.663,4.656-1.241,6.814-1.607c0.767-0.13,1.605-0.254,2.506-0.368s1.864-0.218,2.879-0.305s2.083-0.158,3.193-0.207
									s2.264-0.076,3.449-0.076c1.032,0,2.09,0.021,3.166,0.065c1.076,0.046,2.171,0.115,3.277,0.212
									c1.107,0.098,2.226,0.224,3.35,0.381c1.125,0.157,2.255,0.346,3.385,0.57c1.546,0.278,3.568,0.816,5.732,1.467
									c2.165,0.651,4.474,1.416,6.59,2.146c2.118,0.73,4.044,1.427,5.44,1.94c1.396,0.515,2.264,0.846,2.264,0.846l10.348-9.446
									c0,0,0.441-0.378,1.116-0.946c0.675-0.567,1.583-1.323,2.518-2.079c0.933-0.755,1.893-1.51,2.671-2.075
									s1.377-0.941,1.59-0.941c0.009,0,0.018,0.001,0.025,0.002c0.008,0.002,0.015,0.004,0.021,0.007
									c0.007,0.003,0.013,0.007,0.017,0.012c0.005,0.004,0.009,0.01,0.012,0.016c0.335,0.682,0.756,1.543,1.28,2.495
									c0.525,0.953,1.154,1.996,1.906,3.041c0.752,1.046,1.627,2.093,2.643,3.051c1.016,0.959,2.173,1.827,3.487,2.516
									c1.513,0.792,3.002,1.413,4.427,1.899c1.424,0.486,2.783,0.837,4.034,1.089s2.395,0.404,3.388,0.494
									s1.837,0.116,2.488,0.116c0.239,0,0.452-0.004,0.637-0.009c0.186-0.006,0.343-0.013,0.471-0.021
									c0.127-0.007,0.225-0.014,0.291-0.02c0.065-0.005,0.1-0.009,0.1-0.009s0.269-0.341,0.701-0.891
									c0.434-0.55,1.031-1.309,1.691-2.145c0.658-0.835,1.379-1.747,2.059-2.604c0.678-0.857,1.315-1.661,1.81-2.281
									c0.438-0.55,1.162-1.391,2.001-2.343c0.837-0.951,1.788-2.012,2.684-3.004c0.896-0.991,1.735-1.912,2.351-2.586
									c0.616-0.674,1.008-1.1,1.008-1.1c-0.815,0.286-1.561,0.537-2.251,0.753c-0.689,0.216-1.324,0.396-1.919,0.542
									s-1.148,0.255-1.677,0.328c-0.529,0.073-1.032,0.109-1.525,0.109c-0.211,0-0.419-0.007-0.628-0.02
									c-0.208-0.014-0.415-0.034-0.623-0.062s-0.416-0.062-0.626-0.103s-0.422-0.089-0.636-0.144
									c-0.786-0.2-1.426-0.414-1.975-0.668c-0.55-0.255-1.009-0.55-1.433-0.912c-0.424-0.361-0.813-0.791-1.224-1.315
									c-0.41-0.523-0.842-1.142-1.35-1.88c-0.118-0.177-0.604-1.251-1.266-2.765c-0.661-1.511-1.498-3.46-2.324-5.393
									c-0.824-1.93-1.637-3.843-2.252-5.292c-0.615-1.446-1.033-2.431-1.071-2.507c-0.477-0.967-1.065-2.116-1.767-3.354
									c-0.7-1.237-1.513-2.563-2.437-3.885c-0.924-1.32-1.958-2.637-3.104-3.857c-1.146-1.219-2.403-2.342-3.774-3.279
									c-0.218-0.147-0.649-0.428-1.201-0.765c-0.553-0.337-1.225-0.73-1.923-1.106c-0.698-0.375-1.423-0.731-2.08-0.994
									s-1.247-0.432-1.677-0.432c-0.042,0-0.082,0.002-0.121,0.005s-0.076,0.008-0.111,0.015s-0.069,0.016-0.101,0.025
									c-0.032,0.011-0.063,0.022-0.091,0.037c2.174-1.067,4.147-2.163,5.9-3.223c1.751-1.059,3.282-2.082,4.574-3.006
									c1.291-0.923,2.343-1.746,3.138-2.408c0.794-0.661,1.33-1.16,1.591-1.434c1.496-1.571,2.704-3.265,3.66-4.971
									c0.955-1.703,1.659-3.42,2.15-5.039c0.49-1.617,0.769-3.139,0.871-4.456c0.103-1.315,0.03-2.429-0.18-3.232
									c-0.005-0.019,0.002-0.892-0.271-2.273c-0.273-1.38-0.825-3.265-1.947-5.312c-1.12-2.042-2.807-4.243-5.352-6.262
									C315.762,278.535,312.367,276.701,307.827,275.384"/>
								<path opacity="0.4" d="M365.724,342.569l-6.031,0.521l1.637,40.42H199.875l1.231-33.371l-6.003-1.555l-1.555,39.015H367.68
									L365.724,342.569 M362.481,267.932H198.315l-2.168,54.421l5.927,1.517l1.929-52.29h152.794l1.903,47.009l5.959-0.509
									L362.481,267.932"/>
								<polyline opacity="0.302" fill="#CCCCCC" points="157.987,314.672 145.232,333.536 195.187,346.467 196.065,324.421 
									157.987,314.672 								"/>
								<path opacity="0.5804" fill="#CCCCCC" d="M201.999,325.94l-0.814,22.078l5.113,1.324l10.522-16.411
									c-0.006-0.008-0.013-0.017-0.019-0.025s-0.013-0.018-0.019-0.026c-0.006-0.009-0.013-0.019-0.019-0.027
									s-0.013-0.018-0.019-0.026c-0.173-0.249-0.333-0.512-0.478-0.784c-0.145-0.273-0.276-0.557-0.393-0.849
									c-0.117-0.293-0.22-0.594-0.31-0.9c-0.09-0.308-0.167-0.621-0.23-0.939L201.999,325.94"/>
								<path fill="#777777" d="M215.332,329.354c0.063,0.318,0.14,0.632,0.23,0.939c0.09,0.307,0.193,0.607,0.31,0.9
									c0.117,0.292,0.248,0.575,0.393,0.849c0.145,0.272,0.305,0.535,0.478,0.784c0.006,0.009,0.013,0.018,0.019,0.026
									s0.013,0.019,0.019,0.027c0.006,0.009,0.012,0.018,0.019,0.026s0.013,0.018,0.019,0.025l1.761-2.746L215.332,329.354"/>
								<polyline opacity="0.5804" fill="#6A6A6A" points="196.065,324.421 195.187,346.467 201.184,348.019 201.999,325.94 
									196.065,324.421 								"/>
								<polyline opacity="0.302" points="156.461,312.203 141.257,334.633 195.103,348.584 195.187,346.467 145.232,333.536 
									157.987,314.672 196.065,324.421 196.147,322.353 156.461,312.203 								"/>
								<path opacity="0.5804" fill="#626262" d="M216.819,332.932l-10.522,16.411l-5.113-1.324l-0.078,2.12l6.808,1.764
									L218.727,335c-0.152-0.123-0.307-0.258-0.464-0.405c-0.157-0.146-0.316-0.305-0.477-0.476
									c-0.161-0.172-0.322-0.355-0.484-0.553S216.979,333.158,216.819,332.932 M202.075,323.869l-0.076,2.071l13.333,3.413
									c-0.035-0.176-0.066-0.354-0.093-0.532c-0.027-0.179-0.051-0.357-0.07-0.538c-0.02-0.18-0.035-0.36-0.047-0.541
									s-0.02-0.362-0.023-0.543L202.075,323.869"/>
								<path fill="#393939" d="M215.099,327.199c0.004,0.181,0.012,0.362,0.023,0.543s0.027,0.361,0.047,0.541
									c0.019,0.181,0.042,0.359,0.07,0.538c0.027,0.179,0.058,0.356,0.093,0.532l3.248,0.832l-1.761,2.746
									c0.161,0.227,0.322,0.438,0.483,0.635s0.323,0.381,0.484,0.553c0.16,0.171,0.319,0.329,0.477,0.476
									c0.157,0.147,0.312,0.282,0.464,0.405l3.779-5.906L215.099,327.199"/>
								<path opacity="0.5804" d="M195.187,346.467l-0.084,2.117l6.003,1.555l0.078-2.12L195.187,346.467 M196.147,322.353
									l-0.083,2.068l5.934,1.52l0.076-2.071L196.147,322.353"/>
								<polyline opacity="0.302" fill="#CCCCCC" points="403.757,316.682 364.744,320.011 365.638,340.595 409.204,336.835 
									403.757,316.682 								"/>
								<polyline opacity="0.5804" fill="#CCCCCC" points="358.779,320.52 338.815,322.224 343.636,342.493 359.612,341.114 
									358.779,320.52 								"/>
								<polyline opacity="0.5804" fill="#6A6A6A" points="364.744,320.011 358.779,320.52 359.612,341.114 365.638,340.595 
									364.744,320.011 								"/>
								<polyline opacity="0.302" points="406.19,314.534 364.66,318.079 364.744,320.011 403.757,316.682 409.204,336.835 
									365.638,340.595 365.724,342.569 412.699,338.515 406.19,314.534 								"/>
								<polyline opacity="0.5804" fill="#626262" points="358.701,318.588 335.408,320.576 341.102,344.694 359.692,343.09 
									359.612,341.114 343.636,342.493 338.815,322.224 358.779,320.52 358.701,318.588 								"/>
								<path opacity="0.5804" d="M365.638,340.595l-6.025,0.52l0.08,1.976l6.031-0.521L365.638,340.595 M364.66,318.079
									l-5.959,0.509l0.078,1.932l5.965-0.509L364.66,318.079"/>
							</g>
						</g>
					</g>
				</g>
			</g>
		</g>
	</g>
</g>
</svg>
