<?xml version="1.0" encoding="utf-8"?>
<!-- Generator: Adobe Illustrator 16.0.0, SVG Export Plug-In . SVG Version: 6.00 Build 0)  -->
<!DOCTYPE svg PUBLIC "-//W3C//DTD SVG 1.1//EN" "http://www.w3.org/Graphics/SVG/1.1/DTD/svg11.dtd">
<svg version="1.1" id="Layer_1" xmlns="http://www.w3.org/2000/svg" xmlns:xlink="http://www.w3.org/1999/xlink" x="0px" y="0px"
	 width="500px" height="500px" viewBox="0 0 500 500" enable-background="new 0 0 500 500" xml:space="preserve">
<path fill="none" stroke="#507282" stroke-width="3" stroke-miterlimit="10" d="M364.938,64.902
	c6.313,0.743,9.318,19.33,6.709,41.515c-2.608,22.187-9.842,39.571-16.156,38.828"/>
<path fill="#828200" d="M200.808,121c0,0,114.092,10.04,143.805,19.383c3.282,1.032,14.5,3.182,15.601,6.44
	c1.102,3.262,2.674,12.22,5.823,13.611c4.488,1.983,11.157-9.607,12.985-14.162c2.067-5.148-0.36-19.272-7.375-25.272H200.808z"/>
<path fill="none" stroke="#507282" stroke-width="3" stroke-miterlimit="10" d="M335.055,61.307L126.885,36.829L82.908,64.475
	c-2.623,2.979-3.466,12.396-1.894,16.106l36.322,36.773l208.118,24.455"/>
<path fill="none" stroke="#507282" stroke-width="3" stroke-miterlimit="10" d="M345.025,103.613"/>
<path fill="none" stroke="#507282" stroke-width="3" stroke-miterlimit="10" d="M354.144,63.634"/>
<path fill="none" stroke="#507282" stroke-width="3" stroke-miterlimit="10" d="M363.746,64.762"/>
<path fill="none" stroke="#507282" stroke-width="3" stroke-miterlimit="10" d="M355.49,145.246
	c-6.314-0.743-9.319-19.33-6.711-41.517c2.609-22.185,9.844-39.569,16.158-38.827"/>
<path fill="none" stroke="#507282" stroke-width="3" stroke-miterlimit="10" d="M344.174,62.378l-2.104-0.247l-0.701-1.623
	l-3.361-0.396c-6.609-0.777-14.856,17.263-17.559,40.245l-0.005,0.041l-0.023,0.2c-2.702,22.982,1.149,42.325,7.758,43.102
	l3.362,0.395l1.059-1.417l2.104,0.249"/>
<path fill="none" stroke="#507282" stroke-width="3" stroke-miterlimit="10" d="M354.813,63.629l-2.5-0.293l-0.702-1.625
	l-3.36-0.395c-6.61-0.777-14.461,17.31-17.163,40.291l-0.005,0.041l-0.023,0.2c-2.703,22.982,0.752,42.279,7.362,43.056l3.361,0.395
	l1.06-1.417l2.499,0.294"/>
<path fill="none" stroke="#507282" stroke-width="3" stroke-miterlimit="10" d="M365.451,64.88l-2.896-0.339l-0.7-1.625
	l-3.361-0.395c-6.61-0.777-14.066,17.355-16.768,40.337l-0.006,0.041l-0.022,0.2c-2.703,22.982,0.357,42.232,6.967,43.009
	l3.362,0.395l1.058-1.417l2.896,0.341"/>
<g>
	<path fill="none" stroke="#507282" stroke-width="3" stroke-miterlimit="10" d="M303.027,114.203
		c-0.102-4.885,0.153-10.212,0.806-15.76c0.652-5.545,1.641-10.786,2.872-15.514"/>
	<path fill="none" stroke="#507282" stroke-width="3" stroke-miterlimit="10" d="M120.897,92.787
		c-0.1-4.885,0.155-10.211,0.807-15.758c0.652-5.547,1.64-10.788,2.87-15.515"/>
	<path fill="none" stroke="#507282" stroke-width="3" stroke-miterlimit="10" d="M241.432,106.96
		c-0.1-4.885,0.154-10.211,0.806-15.758c0.651-5.545,1.642-10.788,2.872-15.514"/>
	<path fill="none" stroke="#507282" stroke-width="3" stroke-miterlimit="10" d="M221.196,104.581
		c-0.102-4.885,0.153-10.211,0.806-15.758c0.652-5.547,1.64-10.788,2.872-15.515"/>
	<path fill="none" stroke="#507282" stroke-width="3" stroke-miterlimit="10" d="M200.96,102.202
		c-0.1-4.885,0.153-10.213,0.806-15.76c0.652-5.546,1.642-10.787,2.871-15.515"/>
	<path fill="none" stroke="#507282" stroke-width="3" stroke-miterlimit="10" d="M180.723,99.821
		c-0.101-4.883,0.153-10.211,0.806-15.758c0.652-5.546,1.64-10.788,2.872-15.515"/>
	<path fill="none" stroke="#507282" stroke-width="3" stroke-miterlimit="10" d="M160.486,97.442
		c-0.1-4.885,0.153-10.211,0.805-15.758c0.652-5.547,1.642-10.788,2.872-15.515"/>
	<path fill="none" stroke="#507282" stroke-width="3" stroke-miterlimit="10" d="M140.765,95.123
		c-0.099-4.884,0.155-10.211,0.808-15.758c0.652-5.545,1.64-10.788,2.87-15.514"/>
	<path fill="none" stroke="#507282" stroke-width="3" stroke-miterlimit="10" d="M281.904,111.72
		c-0.099-4.885,0.154-10.213,0.806-15.76c0.652-5.546,1.642-10.787,2.872-15.515"/>
	<path fill="none" stroke="#507282" stroke-width="3" stroke-miterlimit="10" d="M261.669,109.339
		c-0.101-4.883,0.153-10.211,0.806-15.758c0.652-5.546,1.641-10.787,2.871-15.515"/>
</g>
<path fill="#D9E021" d="M415.926,320.268c0-5.699-16.234-10.321-36.26-10.321s-36.259,4.622-36.259,10.321l-0.129,100.349
	l29.095,36.331c2.932,2.028,11.33,1.792,14.475,0l28.949-36.258L415.926,320.268z"/>
<path fill="none" stroke="#507282" stroke-width="3" stroke-miterlimit="10" d="M337.5,213v208.906l33.088,40.448
	c3.266,2.257,12.964,1.995,16.465,0l32.403-40.367l-0.448-209.202"/>
<path fill="none" stroke="#507282" stroke-width="3" stroke-miterlimit="10" d="M379.344,197.46"/>
<path fill="none" stroke="#507282" stroke-width="3" stroke-miterlimit="10" d="M338.573,193.073"/>
<path fill="none" stroke="#507282" stroke-width="3" stroke-miterlimit="10" d="M338.573,183.404"/>
<ellipse fill="none" stroke="#507282" stroke-width="3" stroke-miterlimit="10" cx="379.021" cy="182.205" rx="40.448" ry="11.513"/>
<path fill="none" stroke="#507282" stroke-width="3" stroke-miterlimit="10" d="M337.5,204v1.24l-1,0.886v3.385
	c0,6.654,19.341,12.989,42.481,12.989h0.04h0.201c23.142,0,41.277-6.334,41.277-12.989v-3.385l-1-0.886V204"/>
<path fill="none" stroke="#507282" stroke-width="3" stroke-miterlimit="10" d="M337.5,193v1.926l-1,0.888v3.383
	c0,6.656,19.341,13.303,42.481,13.303h0.04h0.201c23.142,0,41.277-6.647,41.277-13.303v-3.383l-1-0.888V193"/>
<path fill="none" stroke="#507282" stroke-width="3" stroke-miterlimit="10" d="M337.5,182v2.613l-1,0.886v3.385
	c0,6.655,19.341,12.616,42.481,12.616h0.04h0.201c23.142,0,41.277-5.961,41.277-12.616v-3.385l-1-0.886V182"/>
<g>
	<path fill="none" stroke="#507282" stroke-width="3" stroke-miterlimit="10" d="M394.767,237.934
		c-4.841,0.671-10.16,1.04-15.745,1.04s-10.905-0.369-15.744-1.04"/>
	<path fill="none" stroke="#507282" stroke-width="3" stroke-miterlimit="10" d="M394.767,421.319
		c-4.841,0.669-10.16,1.038-15.745,1.038s-10.905-0.369-15.744-1.038"/>
	<path fill="none" stroke="#507282" stroke-width="3" stroke-miterlimit="10" d="M394.767,299.953
		c-4.841,0.67-10.16,1.041-15.745,1.041s-10.905-0.371-15.744-1.041"/>
	<path fill="none" stroke="#507282" stroke-width="3" stroke-miterlimit="10" d="M394.767,320.329
		c-4.841,0.671-10.16,1.04-15.745,1.04s-10.905-0.369-15.744-1.04"/>
	<path fill="none" stroke="#507282" stroke-width="3" stroke-miterlimit="10" d="M394.767,340.705
		c-4.841,0.67-10.16,1.04-15.745,1.04s-10.905-0.37-15.744-1.04"/>
	<path fill="none" stroke="#507282" stroke-width="3" stroke-miterlimit="10" d="M394.767,361.081
		c-4.841,0.671-10.16,1.04-15.745,1.04s-10.905-0.369-15.744-1.04"/>
	<path fill="none" stroke="#507282" stroke-width="3" stroke-miterlimit="10" d="M394.767,381.458
		c-4.841,0.67-10.16,1.04-15.745,1.04s-10.905-0.37-15.744-1.04"/>
	<path fill="none" stroke="#507282" stroke-width="3" stroke-miterlimit="10" d="M394.767,401.313
		c-4.841,0.67-10.16,1.039-15.745,1.039s-10.905-0.369-15.744-1.039"/>
	<path fill="none" stroke="#507282" stroke-width="3" stroke-miterlimit="10" d="M394.767,259.202
		c-4.841,0.669-10.16,1.04-15.745,1.04s-10.905-0.371-15.744-1.04"/>
	<path fill="none" stroke="#507282" stroke-width="3" stroke-miterlimit="10" d="M394.767,279.578
		c-4.841,0.669-10.16,1.04-15.745,1.04s-10.905-0.371-15.744-1.04"/>
</g>
</svg>
