<?xml version="1.0" encoding="utf-8"?>
<!-- Generator: Adobe Illustrator 16.0.0, SVG Export Plug-In . SVG Version: 6.00 Build 0)  -->
<!DOCTYPE svg PUBLIC "-//W3C//DTD SVG 1.1//EN" "http://www.w3.org/Graphics/SVG/1.1/DTD/svg11.dtd">
<svg version="1.1" id="Layer_1" xmlns="http://www.w3.org/2000/svg" xmlns:xlink="http://www.w3.org/1999/xlink" x="0px" y="0px"
	 width="500px" height="500px" viewBox="0 0 500 500" enable-background="new 0 0 500 500" xml:space="preserve">
<path fill="none" stroke="#507282" stroke-width="3" stroke-miterlimit="10" d="M350.119,118.442
	c5.879,0.819,9.516,9.67,8.119,19.77c-1.395,10.099-7.292,17.623-13.173,16.807"/>
<path fill="#D2E9FF" d="M200.738,132.171c0,0,106.094,13.211,134.032,19.774c3.086,0.726,13.571,2.565,14.74,4.158
	c1.17,1.595,3.038,5.871,6.018,6.753c4.247,1.258,9.888-3.623,11.372-5.598c1.677-2.235-1.219-8.972-7.992-12.281L200.738,132.171z"
	/>
<path fill="none" stroke="#507282" stroke-width="3" stroke-miterlimit="10" d="M322.285,114.535L128.428,87.57l-39.446,9.531
	c-2.291,1.188-2.637,5.494-1.012,7.333l35.32,19.788l193.809,26.95"/>
<path fill="none" stroke="#507282" stroke-width="3" stroke-miterlimit="10" d="M333.464,134.915"/>
<path fill="none" stroke="#507282" stroke-width="3" stroke-miterlimit="10" d="M340.065,117.046"/>
<path fill="none" stroke="#507282" stroke-width="3" stroke-miterlimit="10" d="M349.008,118.289"/>
<path fill="none" stroke="#507282" stroke-width="3" stroke-miterlimit="10" d="M345.065,155.019
	c-5.88-0.819-9.516-9.67-8.122-19.77c1.396-10.099,7.295-17.624,13.176-16.807"/>
<path fill="none" stroke="#507282" stroke-width="3" stroke-miterlimit="10" d="M329.523,115.727l-0.73-0.103l-0.712-0.895
	l-2.703-0.422c-6.154-0.857-12.55,6.906-13.979,17.372l-0.004,0.018l-0.011,0.091c-1.435,10.463,2.185,19.508,8.341,20.362
	l3.127,0.435l0.91-0.524l1.328,0.304"/>
<path fill="none" stroke="#507282" stroke-width="3" stroke-miterlimit="10" d="M340.569,117.26l-2.235-0.311l-0.715-0.896
	l-3.054-0.471c-6.158-0.855-12.534,6.912-13.964,17.375l-0.003,0.019l-0.013,0.091c-1.432,10.463,2.52,19.552,8.676,20.405
	l3.131,0.435l0.908-0.524l2.261,0.433"/>
<path fill="none" stroke="#507282" stroke-width="3" stroke-miterlimit="10" d="M349.771,118.535l-1.899-0.263l-0.711-0.894
	l-3.562-0.519c-6.154-0.855-12.1,6.914-14.1,17.379v0.019l0.139,0.091c-1.434,10.463,2.931,19.596,9.086,20.45l3.171,0.435
	l0.926-0.522l2.29,0.435"/>
<g>
	<path fill="none" stroke="#507282" stroke-width="3" stroke-miterlimit="10" d="M295.067,136.68
		c-0.319-2.275-0.329-4.728,0.021-7.254c0.349-2.524,1.023-4.882,1.945-6.983"/>
	<path fill="none" stroke="#507282" stroke-width="3" stroke-miterlimit="10" d="M125.457,113.087
		c-0.317-2.273-0.326-4.726,0.023-7.252c0.35-2.524,1.023-4.882,1.943-6.984"/>
	<path fill="none" stroke="#507282" stroke-width="3" stroke-miterlimit="10" d="M237.706,128.701
		c-0.317-2.274-0.328-4.727,0.021-7.252c0.35-2.524,1.023-4.883,1.946-6.983"/>
	<path fill="none" stroke="#507282" stroke-width="3" stroke-miterlimit="10" d="M218.861,126.08
		c-0.319-2.273-0.329-4.726,0.02-7.251c0.35-2.526,1.023-4.884,1.946-6.984"/>
	<path fill="none" stroke="#507282" stroke-width="3" stroke-miterlimit="10" d="M200.016,123.459
		c-0.316-2.275-0.327-4.726,0.022-7.254c0.349-2.524,1.023-4.881,1.945-6.983"/>
	<path fill="none" stroke="#507282" stroke-width="3" stroke-miterlimit="10" d="M181.17,120.836
		c-0.319-2.273-0.327-4.726,0.02-7.252c0.349-2.524,1.023-4.881,1.946-6.983"/>
	<path fill="none" stroke="#507282" stroke-width="3" stroke-miterlimit="10" d="M162.325,118.215
		c-0.318-2.273-0.329-4.726,0.02-7.251c0.348-2.524,1.024-4.882,1.946-6.983"/>
	<path fill="none" stroke="#507282" stroke-width="3" stroke-miterlimit="10" d="M143.959,115.663
		c-0.315-2.275-0.325-4.728,0.023-7.254c0.349-2.524,1.022-4.882,1.945-6.983"/>
	<path fill="none" stroke="#507282" stroke-width="3" stroke-miterlimit="10" d="M275.396,133.944
		c-0.315-2.275-0.327-4.728,0.022-7.252c0.348-2.526,1.023-4.883,1.945-6.985"/>
	<path fill="none" stroke="#507282" stroke-width="3" stroke-miterlimit="10" d="M256.551,131.321
		c-0.317-2.273-0.329-4.726,0.022-7.252c0.348-2.523,1.023-4.881,1.943-6.983"/>
</g>
<path fill="#D9E021" d="M415.926,320.268c0-5.699-16.234-10.321-36.26-10.321s-36.259,4.622-36.259,10.321l-0.129,100.349
	l29.095,36.331c2.932,2.028,11.33,1.792,14.475,0l28.949-36.258L415.926,320.268z"/>
<path fill="none" stroke="#507282" stroke-width="3" stroke-miterlimit="10" d="M337.5,213v208.906l33.088,40.448
	c3.266,2.257,12.964,1.995,16.465,0l32.403-40.367l-0.448-209.202"/>
<path fill="none" stroke="#507282" stroke-width="3" stroke-miterlimit="10" d="M379.344,197.46"/>
<path fill="none" stroke="#507282" stroke-width="3" stroke-miterlimit="10" d="M338.573,193.073"/>
<path fill="none" stroke="#507282" stroke-width="3" stroke-miterlimit="10" d="M338.573,183.404"/>
<ellipse fill="none" stroke="#507282" stroke-width="3" stroke-miterlimit="10" cx="379.021" cy="182.205" rx="40.448" ry="11.513"/>
<path fill="none" stroke="#507282" stroke-width="3" stroke-miterlimit="10" d="M337.5,204v1.24l-1,0.886v3.385
	c0,6.654,19.341,12.989,42.481,12.989h0.04h0.201c23.142,0,41.277-6.334,41.277-12.989v-3.385l-1-0.886V204"/>
<path fill="none" stroke="#507282" stroke-width="3" stroke-miterlimit="10" d="M337.5,193v1.926l-1,0.888v3.383
	c0,6.656,19.341,13.303,42.481,13.303h0.04h0.201c23.142,0,41.277-6.647,41.277-13.303v-3.383l-1-0.888V193"/>
<path fill="none" stroke="#507282" stroke-width="3" stroke-miterlimit="10" d="M337.5,182v2.613l-1,0.886v3.385
	c0,6.655,19.341,12.616,42.481,12.616h0.04h0.201c23.142,0,41.277-5.961,41.277-12.616v-3.385l-1-0.886V182"/>
<g>
	<path fill="none" stroke="#507282" stroke-width="3" stroke-miterlimit="10" d="M394.767,237.934
		c-4.841,0.671-10.16,1.04-15.745,1.04s-10.905-0.369-15.744-1.04"/>
	<path fill="none" stroke="#507282" stroke-width="3" stroke-miterlimit="10" d="M394.767,421.319
		c-4.841,0.669-10.16,1.038-15.745,1.038s-10.905-0.369-15.744-1.038"/>
	<path fill="none" stroke="#507282" stroke-width="3" stroke-miterlimit="10" d="M394.767,299.953
		c-4.841,0.67-10.16,1.041-15.745,1.041s-10.905-0.371-15.744-1.041"/>
	<path fill="none" stroke="#507282" stroke-width="3" stroke-miterlimit="10" d="M394.767,320.329
		c-4.841,0.671-10.16,1.04-15.745,1.04s-10.905-0.369-15.744-1.04"/>
	<path fill="none" stroke="#507282" stroke-width="3" stroke-miterlimit="10" d="M394.767,340.705
		c-4.841,0.67-10.16,1.04-15.745,1.04s-10.905-0.37-15.744-1.04"/>
	<path fill="none" stroke="#507282" stroke-width="3" stroke-miterlimit="10" d="M394.767,361.081
		c-4.841,0.671-10.16,1.04-15.745,1.04s-10.905-0.369-15.744-1.04"/>
	<path fill="none" stroke="#507282" stroke-width="3" stroke-miterlimit="10" d="M394.767,381.458
		c-4.841,0.67-10.16,1.04-15.745,1.04s-10.905-0.37-15.744-1.04"/>
	<path fill="none" stroke="#507282" stroke-width="3" stroke-miterlimit="10" d="M394.767,401.313
		c-4.841,0.67-10.16,1.039-15.745,1.039s-10.905-0.369-15.744-1.039"/>
	<path fill="none" stroke="#507282" stroke-width="3" stroke-miterlimit="10" d="M394.767,259.202
		c-4.841,0.669-10.16,1.04-15.745,1.04s-10.905-0.371-15.744-1.04"/>
	<path fill="none" stroke="#507282" stroke-width="3" stroke-miterlimit="10" d="M394.767,279.578
		c-4.841,0.669-10.16,1.04-15.745,1.04s-10.905-0.371-15.744-1.04"/>
</g>
</svg>
