<?xml version="1.0" encoding="UTF-8" standalone="no"?>
<!-- Created with Inkscape (http://www.inkscape.org/) -->

<svg
   xmlns:dc="http://purl.org/dc/elements/1.1/"
   xmlns:cc="http://creativecommons.org/ns#"
   xmlns:rdf="http://www.w3.org/1999/02/22-rdf-syntax-ns#"
   xmlns:svg="http://www.w3.org/2000/svg"
   xmlns="http://www.w3.org/2000/svg"
   version="1.1"
   width="500"
   height="500"
   viewBox="0 0 500 500"
   id="Layer_1"
   xml:space="preserve"><metadata
   id="metadata51"><rdf:RDF><cc:Work
       rdf:about=""><dc:format>image/svg+xml</dc:format><dc:type
         rdf:resource="http://purl.org/dc/dcmitype/StillImage" /><dc:title></dc:title></cc:Work></rdf:RDF></metadata><defs
   id="defs49" />
<polygon
   points="251.376,286.344 244.238,294.367 235.74,301.58 235.243,302.953 236.811,305.931 239.197,305.721 251.739,294.565 309.957,246.601 316.051,241.189 428.212,135.741 429.159,134.847 441.235,131.744 460.921,112.728 463.285,110.724 421.137,109.721 417.062,122.969 302.842,229.827 "
   id="polygon3"
   style="fill:#769dff;fill-rule:evenodd" />
<path
   d="m 443.176,129.583 c 0.315,-0.514 0.545,-1.118 0.965,-1.525 3.685,-3.582 7.39,-7.145 11.114,-10.686 4.169,-3.96 8.361,-7.893 12.544,-11.836 5.547,-5.231 11.09,-10.469 16.65,-15.688 2.242,-2.103 4.492,-4.202 6.795,-6.241 3.54,-3.136 5.533,-6.895 5.625,-11.756 0.083,-4.431 -3.981,-10.682 -8.102,-12.281 -6.444,-2.499 -11.865,-1.098 -16.717,3.652 -3.238,3.171 -6.713,6.102 -10.007,9.221 -4.497,4.255 -8.888,8.624 -13.388,12.876 -5.349,5.052 -10.781,10.019 -16.152,15.05 -2.678,2.509 -5.281,5.099 -7.957,7.608 -0.792,0.741 -0.479,1.347 0.032,1.97 1.132,1.373 2.25,2.761 3.449,4.075 4.724,5.163 9.46,10.313 14.229,15.434 0.952,1.024 0.737,1.581 -0.491,1.945 -2.845,0.842 -5.66,1.807 -8.546,2.458 -2.392,0.54 -4.178,1.937 -5.884,3.483 -2.562,2.326 -5.012,4.771 -7.532,7.146 -3.391,3.197 -6.823,6.352 -10.197,9.566 -3.307,3.152 -6.541,6.376 -9.848,9.528 -4.073,3.888 -8.167,7.753 -12.287,11.59 -3.565,3.318 -7.224,6.536 -10.757,9.884 -8.539,8.091 -17.017,16.248 -25.544,24.353 -9.05,8.599 -18.146,17.15 -27.187,25.762 -3.83,3.65 -7.872,7.038 -12.021,10.316 -4.533,3.581 -8.917,7.35 -13.378,11.022 -4.623,3.806 -9.254,7.604 -13.891,11.39 -4.343,3.548 -8.688,7.092 -13.055,10.609 -5.172,4.167 -10.448,8.208 -15.526,12.485 -3.83,3.229 -7.424,6.735 -11.112,10.134 -1.584,1.458 -3.093,3.003 -4.745,4.377 -0.349,0.29 -1.179,0.063 -1.772,-0.029 -0.213,-0.033 -0.381,-0.362 -0.567,-0.561 -3.047,-3.229 -3.097,-2.947 0.272,-6.166 3.953,-3.778 8.054,-7.406 11.945,-11.245 2.262,-2.231 4.194,-4.79 6.351,-7.133 2.517,-2.731 5.13,-5.369 7.667,-8.082 2.253,-2.407 4.453,-4.861 6.686,-7.291 2.332,-2.541 4.694,-5.059 7.008,-7.622 2.347,-2.604 4.613,-5.283 6.983,-7.867 2.376,-2.589 4.85,-5.089 7.255,-7.652 1.396,-1.489 2.729,-3.034 4.109,-4.539 2.59,-2.829 5.129,-5.71 7.811,-8.45 2.405,-2.463 4.993,-4.745 7.466,-7.144 3.78,-3.669 7.496,-7.405 11.305,-11.043 2.025,-1.935 4.238,-3.67 6.277,-5.59 2.141,-2.014 4.14,-4.174 6.261,-6.208 1.865,-1.791 3.835,-3.471 5.715,-5.247 2.302,-2.175 4.545,-4.407 6.833,-6.595 0.93,-0.888 1.923,-1.708 2.861,-2.584 2.474,-2.313 4.941,-4.628 7.392,-6.963 2.527,-2.409 4.998,-4.878 7.557,-7.253 3.861,-3.583 7.813,-7.072 11.659,-10.673 3.578,-3.351 7.036,-6.834 10.607,-10.194 4.828,-4.542 9.736,-9 14.569,-13.539 2.835,-2.663 5.583,-5.413 8.381,-8.115 1.88,-1.819 3.963,-3.468 5.603,-5.479 1.18,-1.451 1.94,-3.315 2.606,-5.099 0.939,-2.521 1.605,-5.144 2.42,-7.713 0.107,-0.342 0.337,-0.686 0.601,-0.928 4.13,-3.841 8.303,-7.635 12.41,-11.498 6.76,-6.355 13.47,-12.761 20.214,-19.134 3.901,-3.685 7.816,-7.355 11.749,-11.007 2.655,-2.464 5.113,-5.239 8.088,-7.235 3.818,-2.56 8.143,-3.072 12.729,-1.598 3.678,1.18 6.427,3.448 8.296,6.559 2.154,3.585 2.786,7.431 1.596,11.803 -1.309,4.792 -4.792,7.589 -7.956,10.748 -3.816,3.808 -7.827,7.422 -11.771,11.102 -3.865,3.604 -7.778,7.154 -11.617,10.786 -5.341,5.05 -10.629,10.154 -15.942,15.232 -1.795,1.717 -3.597,3.428 -5.413,5.122 -0.248,0.232 -0.603,0.354 -0.906,0.528 -0.14,-0.109 -0.279,-0.217 -0.417,-0.325 z m -25.322,-7.162 c -1.264,1.312 -2.184,2.357 -3.198,3.301 -2.005,1.86 -4.091,3.632 -6.087,5.5 -2.638,2.468 -5.206,5.011 -7.838,7.489 -2.667,2.515 -5.387,4.972 -8.056,7.485 -2.267,2.135 -4.471,4.333 -6.736,6.468 -2.696,2.541 -5.461,5.011 -8.138,7.57 -3.04,2.905 -5.974,5.92 -9.029,8.806 -2.841,2.68 -5.837,5.2 -8.673,7.884 -3.788,3.589 -7.459,7.3 -11.235,10.901 -3.345,3.191 -6.766,6.3 -10.145,9.455 -0.9,0.84 -1.745,1.743 -2.657,2.572 -1.392,1.27 -2.844,2.473 -4.226,3.754 -2.24,2.079 -4.444,4.194 -6.659,6.301 -2.184,2.074 -4.366,4.15 -6.532,6.241 -1.822,1.754 -3.589,3.566 -5.439,5.292 -2.124,1.98 -4.429,3.778 -6.449,5.857 -3.87,3.988 -7.591,8.121 -11.381,12.187 -0.788,0.845 -1.641,1.633 -2.407,2.498 -2.467,2.773 -4.865,5.611 -7.371,8.348 -2.44,2.668 -5.022,5.203 -7.468,7.865 -2.99,3.255 -5.871,6.609 -8.858,9.867 -3.719,4.058 -7.477,8.082 -11.258,12.084 -4.189,4.433 -8.377,8.868 -12.655,13.216 -2.544,2.588 -5.226,5.044 -7.917,7.479 -1.043,0.944 -0.736,1.599 0.087,2.387 0.871,0.829 1.706,1.938 3.012,0.84 1.48,-1.245 2.841,-2.631 4.258,-3.95 3.314,-3.084 6.501,-6.319 9.972,-9.216 8.633,-7.207 17.388,-14.27 26.105,-21.373 6.024,-4.911 12.079,-9.784 18.1,-14.698 2.878,-2.348 5.688,-4.777 8.572,-7.117 1.465,-1.187 3.115,-2.157 4.529,-3.398 4.54,-3.986 9.056,-8.004 13.49,-12.109 3.5,-3.24 6.829,-6.671 10.304,-9.942 4.1,-3.858 8.32,-7.589 12.409,-11.461 8.823,-8.358 17.575,-16.791 26.396,-25.153 3.561,-3.375 7.253,-6.614 10.827,-9.974 2.843,-2.671 5.566,-5.474 8.411,-8.146 4.096,-3.853 8.283,-7.607 12.376,-11.465 3.614,-3.409 7.135,-6.917 10.729,-10.349 3.64,-3.473 7.282,-6.942 11,-10.33 1.005,-0.915 0.71,-1.527 -0.022,-2.275 -0.906,-0.927 -1.831,-1.838 -2.722,-2.78 -2.434,-2.583 -4.857,-5.178 -7.421,-7.911 z m 5.193,-11.822 c -0.377,0.524 -0.771,0.89 -0.94,1.342 -0.774,2.072 -1.304,4.257 -2.26,6.239 -1.601,3.315 -1.229,3.185 1.282,6.198 0.24,0.288 0.544,0.521 0.801,0.796 2.346,2.531 4.656,5.097 7.063,7.57 0.462,0.474 1.396,0.946 1.948,0.802 3.023,-0.785 6.004,-1.746 8.985,-2.683 1.288,-0.405 1.405,-0.948 0.458,-1.968 -0.996,-1.073 -2.044,-2.098 -3.039,-3.172 -4.344,-4.689 -8.672,-9.389 -13.018,-14.075 -0.318,-0.346 -0.731,-0.605 -1.28,-1.049 z"
   id="path5"
   style="fill-rule:evenodd" />
<path
   d="m 297.474,241.961 c 1.144,1.3 2.289,2.6 3.435,3.9 -0.166,0.165 -0.337,0.332 -0.503,0.497 -1.219,-1.234 -2.437,-2.47 -3.653,-3.704 0.24,-0.231 0.479,-0.462 0.721,-0.693 z"
   id="path7"
   style="fill-rule:evenodd" />
<g
   id="g9">
	
		<path
   d="m 313.219,384.338 c 0,31.982 -41.051,57.909 -91.688,57.909 -50.639,0 -91.689,-25.927 -91.689,-57.909 0,-31.983 41.05,-57.91 91.689,-57.91 50.637,0 91.688,25.926 91.688,57.91 z"
   id="path8792_3_"
   style="opacity:0.6;fill:none;stroke:#000000;stroke-linecap:round;stroke-linejoin:round" />
	<path
   d="m 130.986,369.226 c -1.919,-9.74 -0.069,-19.24 5.479,-28.117 10.861,-17.382 33.828,-30.14 62.638,-34.794 10.97,-1.773 24.648,-2.247 35.232,-1.226 24.595,2.38 45.075,9.978 59.934,22.237 14.581,12.031 20.833,26.837 17.771,42.097 -0.207,1.026 -0.448,1.938 -0.538,2.027 -0.09,0.09 -0.306,-0.277 -0.479,-0.817 -0.546,-1.702 -2.353,-5.366 -3.802,-7.711 -3.119,-5.047 -7.39,-9.806 -12.769,-14.229 -14.658,-12.052 -34.686,-19.553 -59.093,-22.133 -6.723,-0.712 -21.077,-0.708 -27.682,0.005 -20.744,2.242 -37.912,7.807 -51.822,16.793 -11.158,7.208 -19.356,16.315 -23.136,25.703 -0.552,1.373 -1.063,2.503 -1.136,2.513 -0.071,0.012 -0.34,-1.046 -0.597,-2.348 l 0,0 z"
   id="path9353_3_"
   style="opacity:0.07000002" />
	<path
   d="m 212.897,418.946 c -0.359,-0.056 -2.414,-0.248 -4.567,-0.429 -13.739,-1.152 -28.176,-4.814 -40.133,-10.179 -10.949,-4.913 -21.086,-12.265 -27.592,-20.013 -3.13,-3.728 -6.632,-9.681 -8.132,-13.818 l -0.513,-1.419 0.513,-1.42 c 0.976,-2.693 2.475,-5.614 4.491,-8.747 3.569,-5.55 7.154,-9.397 13.206,-14.178 14.624,-11.546 34.359,-18.732 58.067,-21.144 5.121,-0.521 21.404,-0.514 26.656,0.013 27.701,2.771 51.042,12.649 65.172,27.58 4.7,4.966 8.765,11.313 10.443,16.308 l 0.534,1.588 -0.534,1.586 c -0.294,0.875 -1.103,2.725 -1.797,4.113 -7.803,15.618 -25.571,28.312 -49.304,35.224 -6.08,1.771 -15.193,3.517 -22.929,4.395 -3.704,0.417 -21.695,0.83 -23.581,0.54 l 0,0 0,0 z"
   id="path9355_3_"
   style="opacity:0.07000002" />
	<g
   id="layer1_6_">
		<path
   d="m 217.831,365.9 c -0.686,0 -54.152,6.818 -55.523,14.319 -1.371,7.503 26.047,11.594 58.951,11.594 32.901,0 64.433,-4.774 64.433,-10.229 0,-5.455 -43.185,-16.364 -67.861,-15.684 z"
   id="path1888_8_"
   style="fill:#d9e021" />
		<path
   d="m 172.589,382.266 c 0,0 12.338,5.457 45.242,6.137 32.902,0.683 49.353,-6.137 49.353,-6.137 0,0 -18.507,2.729 -45.925,2.047 -27.42,-0.683 -47.984,-2.047 -48.67,-2.047 z"
   id="path1898_8_"
   style="fill:#8c8c17" />
	</g>
	<g
   id="layer1_5_">
		<path
   d="m 217.831,400.371 c -0.686,0 -54.152,6.818 -55.523,14.319 -1.371,7.501 26.047,11.592 58.951,11.592 32.901,0 64.433,-4.772 64.433,-10.228 0,-5.456 -43.185,-16.364 -67.861,-15.683 z"
   id="path1888_7_"
   style="fill:#d9e021" />
		<path
   d="m 172.589,416.737 c 0,0 12.338,5.454 45.242,6.137 32.902,0.682 49.353,-6.137 49.353,-6.137 0,0 -18.507,2.728 -45.925,2.046 -27.42,-0.682 -47.984,-2.046 -48.67,-2.046 z"
   id="path1898_7_"
   style="fill:#8c8c17" />
	</g>
	
		<linearGradient
   x1="-1499.2622"
   y1="1545.959"
   x2="-1405.731"
   y2="1545.959"
   id="path9351_1_"
   gradientUnits="userSpaceOnUse"
   gradientTransform="matrix(1,0,0,-1,1657.3564,1950.377)">
		<stop
   id="stop21"
   style="stop-color:#000000;stop-opacity:1"
   offset="0" />
		<stop
   id="stop23"
   style="stop-color:#ababab;stop-opacity:1"
   offset="0.48949999" />
		<stop
   id="stop25"
   style="stop-color:#000000;stop-opacity:1"
   offset="1" />
	</linearGradient>
	
		<path
   d="m 206.988,441.487 c -29.464,-3.182 -53.716,-14.571 -67.364,-31.404 -2.099,-2.59 -5.859,-8.698 -6.885,-11.484 -1.74,-4.726 -2.746,-9.589 -2.746,-13.857 0,-2.031 -0.289,-16.246 0.081,-16.842 0.113,-0.181 2.317,7.89 2.919,9.356 1.578,3.846 6.215,10.628 9.548,14.158 7.517,7.959 18.366,14.986 30.524,19.745 15.546,6.084 29.898,8.813 48.51,8.813 15.602,0 27.898,-2.079 40.96,-6.213 23.901,-7.563 40.462,-20.1 47.466,-36.502 l 3.105,-10.494 0.161,9.134 c 0.683,2.626 0.044,6.854 -0.121,10.259 -0.732,15.25 -11.42,30.151 -29.598,40.761 -10.649,6.216 -23.749,10.687 -38.286,13.256 -10.472,1.85 -27.295,2.478 -38.058,1.315 h -0.216 z"
   id="path9351_3_"
   style="opacity:0.12999998;fill:url(#path9351_1_)" />
	
		<path
   d="m 313.219,361.839 c 0,31.982 -41.051,57.909 -91.688,57.909 -50.639,0 -91.689,-25.927 -91.689,-57.909 0,-31.982 41.05,-57.91 91.689,-57.91 50.637,0 91.688,25.927 91.688,57.91 z"
   id="path8792-2_3_"
   style="opacity:0.6;fill:none;stroke:#000000;stroke-linecap:round;stroke-linejoin:round" />
</g>
<g
   id="g29">
	<path
   d="m 216.476,334.213 c -0.687,0 -54.153,6.819 -55.523,14.32 -1.371,7.5 26.047,11.591 58.95,11.591 32.902,0 64.434,-4.772 64.434,-10.228 -10e-4,-5.454 -43.185,-16.365 -67.861,-15.683 z"
   id="path1888_4_"
   style="fill:#769dff" />
	<path
   d="m 171.234,350.579 c 0,0 12.338,5.454 45.242,6.137 32.902,0.682 49.353,-6.137 49.353,-6.137 0,0 -18.507,2.729 -45.926,2.046 -27.419,-0.682 -47.984,-2.046 -48.669,-2.046 z"
   id="path1898_4_"
   style="fill:#3a5282" />
</g>
<g
   id="g33">
	
		<path
   d="m 187.225,323.34 c 4.238,32.73 -33.541,72.98 -84.381,89.901 -50.84,16.92 -95.49,4.102 -99.728,-28.627 -4.237,-32.732 33.542,-72.982 84.381,-89.901 50.841,-16.92 95.491,-4.103 99.728,28.627 z"
   id="path8792-4_2_"
   style="opacity:0.6;fill:none;stroke:#000000;stroke-width:0.97570002;stroke-linecap:round;stroke-linejoin:round" />
	
		<path
   d="m 188.632,334.142 c 4.237,32.732 -33.542,72.98 -84.382,89.9 -50.84,16.921 -95.49,4.104 -99.727,-28.628 -4.238,-32.729 33.541,-72.98 84.381,-89.899 50.84,-16.92 95.49,-4.103 99.728,28.627 z"
   id="path8792-4-4_2_"
   style="opacity:0.6;fill:none;stroke:#000000;stroke-width:0.97570002;stroke-linecap:round;stroke-linejoin:round" />
	<path
   d="M 4.651,396.51 3.217,385.11"
   id="path9415_2_"
   style="opacity:0.6;fill:none;stroke:#000000;stroke-width:0.99540001" />
	<path
   d="m 188.737,335.112 -1.436,-11.397"
   id="path9415-1_2_"
   style="opacity:0.6;fill:none;stroke:#000000;stroke-width:0.99540001" />
	
		<path
   d="M 97.347,414.239 C 55.558,426.44 17.814,418.413 6.671,394.956 -1.207,378.371 4.772,357.075 23.12,336.358 c 24.665,-27.845 67.784,-47.625 105.39,-48.342 21.338,-0.407 38.963,5.484 49.159,16.436 7.048,7.57 10.08,16.467 9.247,27.137 -0.423,5.429 -1.411,9.372 -3.879,15.488 -8.75,21.693 -31.099,42.946 -60.26,57.307 -4.321,2.127 -19.535,8.33 -21.519,8.774 -0.481,0.108 -2.24,0.594 -3.911,1.081 l 0,0 z"
   id="path9474_2_"
   style="opacity:0.05;stroke:#b3b2b2;stroke-width:0.99540001;stroke-linecap:round;stroke-linejoin:round" />
	
		<path
   d="m 99.766,424.804 c -1.751,0.539 -5.3,1.496 -7.885,2.124 -39.261,9.538 -73.18,1.024 -83.742,-21.022 -1.801,-3.759 -2.589,-6.373 -3.068,-10.172 l -0.376,-2.981 0.821,1.959 c 1.397,3.333 3.53,6.455 6.841,10.016 5.043,5.422 10.678,9.025 18.548,11.857 13.526,4.87 29.735,5.915 47.949,3.095 14.955,-2.315 32.876,-8.277 47.53,-15.811 34.136,-17.552 58.178,-45.125 61.209,-70.2 l 0.275,-2.265 0.398,3.926 c 0.436,4.29 0.277,7.867 -0.538,12.16 -1.775,9.343 -6.729,19.546 -14.046,28.934 -16.849,21.611 -43.382,38.978 -73.916,48.38 l 0,0 z"
   id="path9476_2_"
   style="opacity:0.05;stroke:#b3b2b2;stroke-width:0.99540001;stroke-linecap:round;stroke-linejoin:round" />
</g>
<g
   id="g41"><title
   id="title43">Layer 1</title>
	
	<path
   d="m 230.317,317.363 c 0.452,7.29 -1.118,10.152 -2.251,11.56 -3.068,3.815 -8.898,3.907 -12.509,0.667 -3.611,-3.242 -5.621,-9.325 -0.296,-15.91 5.324,-6.586 19.557,-8.033 19.557,-8.033 0,0 -4.953,4.427 -4.501,11.716 z"
   id="path45"
   style="fill:#769dff" />
</g>
</svg>