<?xml version="1.0" encoding="utf-8"?>
<!-- Generator: Adobe Illustrator 16.0.0, SVG Export Plug-In . SVG Version: 6.00 Build 0)  -->
<!DOCTYPE svg PUBLIC "-//W3C//DTD SVG 1.1//EN" "http://www.w3.org/Graphics/SVG/1.1/DTD/svg11.dtd">
<svg version="1.1" id="Layer_1" xmlns="http://www.w3.org/2000/svg" xmlns:xlink="http://www.w3.org/1999/xlink" x="0px" y="0px"
	 width="500px" height="500px" viewBox="0 0 500 500" enable-background="new 0 0 500 500" xml:space="preserve">
<g>
	<path id="path132" fill="none" stroke="#161413" stroke-linecap="round" stroke-linejoin="round" d="M352.173,373.635
		c0-6.94-14.98-13.061-37.774-16.682"/>
	<path id="path134" fill="none" stroke="#161413" stroke-linecap="round" stroke-linejoin="round" d="M288.941,354.209
		c-7.229-0.464-14.834-0.712-22.688-0.712c-47.452,0-85.919,9.015-85.919,20.138"/>
	<path id="path136" fill="none" stroke="#161413" stroke-linecap="round" stroke-linejoin="round" d="M301.01,337.873
		c-10.828-1.168-22.533-1.81-34.756-1.81c-40.82,0-75.929,7.114-91.507,17.316"/>
	<path id="path138" fill="none" stroke="#161413" stroke-linecap="round" stroke-linejoin="round" d="M357.76,353.38
		c-5.369-3.516-13.061-6.665-22.506-9.283"/>
</g>
<g>
	<path fill="#D9E021" d="M297.585,237.866c2.48-5.365-10.789-16.778-29.639-25.492c-18.85-8.715-36.141-11.43-38.62-6.065
		l-52.465,112.567l11.575,46.858c1.877,3.184,9.886,6.617,13.625,6.299l43.027-21.531L297.585,237.866z"/>
	<path fill="none" stroke="#507282" stroke-width="3" stroke-miterlimit="10" d="M260.496,127.687l-87.833,189.985l12.934,52.19
		c2.09,3.544,11.029,7.378,15.192,7.023l47.915-23.967l88.043-190.147"/>
	<path fill="none" stroke="#507282" stroke-width="3" stroke-miterlimit="10" d="M307.944,125.26"/>
	
		<ellipse transform="matrix(0.9077 0.4196 -0.4196 0.9077 75.5797 -121.7722)" fill="none" stroke="#507282" stroke-width="3" stroke-miterlimit="10" cx="314.579" cy="110.907" rx="50.134" ry="14.269"/>
	<path fill="none" stroke="#507282" stroke-width="3" stroke-miterlimit="10" d="M194.085,268.396"/>
	<path fill="none" stroke="#507282" stroke-width="3" stroke-miterlimit="10" d="M360.091,131.934l-12.72,27.215
		c-3.308,7.152-26.345,3.595-51.478-8.024c-25.132-11.618-42.901-26.868-39.595-34.021l12.674-27.413"/>
	<g>
		<path fill="none" stroke="#507282" stroke-width="3" stroke-miterlimit="10" d="M305.708,169.002
			c-4.846-1.476-10.016-3.442-15.271-5.873c-5.258-2.43-10.104-5.094-14.367-7.83"/>
		<path fill="none" stroke="#507282" stroke-width="3" stroke-miterlimit="10" d="M225.905,341.615
			c-4.846-1.475-10.015-3.441-15.271-5.872s-10.104-5.094-14.367-7.83"/>
		<path fill="none" stroke="#507282" stroke-width="3" stroke-miterlimit="10" d="M278.72,227.378
			c-4.846-1.476-10.016-3.442-15.271-5.873c-5.258-2.43-10.104-5.094-14.367-7.829"/>
		<path fill="none" stroke="#507282" stroke-width="3" stroke-miterlimit="10" d="M269.853,246.558
			c-4.846-1.476-10.016-3.442-15.271-5.873c-5.258-2.43-10.104-5.094-14.367-7.83"/>
		<path fill="none" stroke="#507282" stroke-width="3" stroke-miterlimit="10" d="M260.986,265.737
			c-4.847-1.476-10.016-3.442-15.272-5.873s-10.104-5.094-14.367-7.83"/>
		<path fill="none" stroke="#507282" stroke-width="3" stroke-miterlimit="10" d="M252.119,284.916
			c-4.847-1.476-10.016-3.442-15.272-5.873c-5.256-2.43-10.104-5.094-14.367-7.83"/>
		<path fill="none" stroke="#507282" stroke-width="3" stroke-miterlimit="10" d="M243.252,304.096
			c-4.846-1.476-10.015-3.442-15.272-5.873c-5.256-2.431-10.104-5.094-14.367-7.83"/>
		<path fill="none" stroke="#507282" stroke-width="3" stroke-miterlimit="10" d="M234.612,322.785
			c-4.848-1.476-10.017-3.442-15.273-5.873c-5.257-2.43-10.104-5.094-14.367-7.83"/>
		<path fill="none" stroke="#507282" stroke-width="3" stroke-miterlimit="10" d="M296.454,189.02
			c-4.847-1.476-10.016-3.442-15.272-5.873c-5.257-2.43-10.104-5.094-14.367-7.829"/>
		<path fill="none" stroke="#507282" stroke-width="3" stroke-miterlimit="10" d="M287.587,208.199
			c-4.846-1.476-10.016-3.442-15.272-5.873s-10.104-5.094-14.366-7.83"/>
	</g>
</g>
<path opacity="0.3" fill="#0000FF" stroke="#0000FF" stroke-miterlimit="10" d="M362.5,356.465l-0.154,7.561
	c0,14.046-11.43,33.475-95.695,33.475h-0.228c-84.266,0-95.788-19.429-95.788-33.475l-0.135-7.561V200.049v0.291
	c0-14.273,43.062-25.844,96-25.844c52.938,0,96,11.57,96,25.844"/>
<g>
	<path id="path116" fill="none" stroke="#161413" stroke-linecap="round" stroke-linejoin="round" d="M156.863,126.297
		c13.923-1.503,17.734,0.157,29.754,3.204c0.785,0.199,1.604,0.405,2.464,0.619"/>
	<path id="path118" fill="none" stroke="#161413" stroke-linecap="round" stroke-linejoin="round" d="M366.611,120.64
		c-18.516,11.387-57.916,17.529-100.357,17.529c-22.069,0-42.649-1.668-59.998-4.546"/>
	<path id="path120" fill="none" stroke="#161413" stroke-linecap="round" stroke-linejoin="round" d="M328.053,88.318
		c16.51,2.961,31.549,7.95,37.547,11.864c2.755,1.798,4.35,3.872,4.35,6.313"/>
	<path id="path122" fill="none" stroke="#161413" stroke-linecap="round" stroke-linejoin="round" d="M153.29,119.48
		c3.122-2.316,5.828-7.648,6.212-8.547c3.084-7.201,6.66-13.252,24.129-18.246c20.278-5.797,49.427-9.433,81.82-9.433
		c16.052,0,31.309,0.893,45.084,2.499"/>
	<path id="path124" fill="none" stroke="#161413" stroke-linecap="round" stroke-linejoin="round" d="M362.105,356.424V130.659
		c0-2.159,0.801-5.496,1.477-6.604"/>
	<path id="path126" fill="none" stroke="#161413" stroke-linecap="round" stroke-linejoin="round" d="M170.401,356.424
		c0,0,0-195.257,0-203.125c0-14.048-4.736-22.395-14.753-24.699"/>
	<path id="path128" fill="none" stroke="#161413" stroke-linecap="round" stroke-linejoin="round" d="M187.128,385.699
		c-13.599-6.565-16.712-14.886-16.712-21.908"/>
	<path id="path130" fill="none" stroke="#161413" stroke-linecap="round" stroke-linejoin="round" d="M361.979,363.791
		c0,14.046-12.366,33.281-95.668,33.281c-28.68,0-48.952-2.281-63.205-5.844"/>
	<path id="path140" fill="none" stroke="#161413" stroke-width="2" stroke-linecap="round" stroke-linejoin="round" d="
		M148.948,125.314c1.346-0.941,4.41-1.907,5.848-2.204c11.598-2.396,19.609-1.914,33.467,1.525
		c19.959,4.953,47.533,8.017,77.991,8.017c44.671,0,80.336-6.975,97.759-16.115c4.205-2.207,6.503-5.215,6.952-7.391"/>
	<path id="path142" fill="none" stroke="#161413" stroke-width="4" stroke-linecap="round" stroke-linejoin="round" d="
		M366.354,133.043v232.701c0,13.721-12.939,36.721-100.1,36.721c-87.161,0-100.1-23-100.1-36.721V153.896
		c0,0,1.195-19.451-16.207-22.142c-0.958-0.147-3.507,0.696-4.581,0.655c-4.908-0.185-5.611-6.947,2.038-14.136
		c10.427-9.798,5.531-20.559,26.256-27.873c19.848-7.004,53.786-12.493,92.593-12.493c60.914,0,110.295,12.453,110.295,27.372
		C376.548,116.088,366.354,117.189,366.354,133.043z"/>
	<g id="g150">
		<g id="g152">
			<path id="path154" fill="none" stroke="#161413" stroke-width="3" stroke-linecap="round" stroke-linejoin="round" d="
				M312.143,222.131c7.32-0.938,14.113-2.096,20.242-3.435"/>
			<path id="path156" fill="none" stroke="#161413" stroke-width="3" stroke-linecap="round" stroke-linejoin="round" d="
				M312.143,253.413c7.32-0.938,14.113-2.096,20.242-3.436"/>
			<path id="path158" fill="none" stroke="#161413" stroke-width="3" stroke-linecap="round" stroke-linejoin="round" d="
				M312.143,284.695c7.32-0.938,14.113-2.095,20.242-3.435"/>
			<path id="path160" fill="none" stroke="#161413" stroke-width="3" stroke-linecap="round" stroke-linejoin="round" d="
				M312.143,315.979c7.32-0.939,14.113-2.096,20.242-3.436"/>
			<path id="path162" fill="none" stroke="#161413" stroke-width="3" stroke-linecap="round" stroke-linejoin="round" d="
				M332.385,343.825c-6.129,1.34-12.922,2.496-20.242,3.436V190.849c7.32-0.939,14.113-2.096,20.242-3.436"/>
		</g>
	</g>
	<path fill="none" d="M170.416,177.139"/>
</g>
<path id="path128_2_" opacity="0.3" fill="#0000FF" d="M396.297,301.57"/>
<path opacity="0.3" fill="none" stroke="#0000FF" stroke-width="8.5039" stroke-miterlimit="10" d="M211.416,96.898
	c0-4.141-10.338-9.651-8.571-19.167c1.782-9.592,12.627-15.727,11.78-25.366c-0.67-7.627-8.709-8.456-8.709-18.885"/>
<path opacity="0.3" fill="none" stroke="#0000FF" stroke-width="8.5039" stroke-miterlimit="10" d="M296.218,87.666
	c0-4.141-10.339-9.651-8.571-19.166c1.782-9.592,12.627-15.727,11.78-25.367c-0.671-7.626-8.71-8.455-8.71-18.884"/>
<path opacity="0.3" fill="none" stroke="#0000FF" stroke-width="8.5039" stroke-miterlimit="10" d="M248.087,86.863
	c0-4.141-9.102-5.737-7.334-15.252c1.782-9.592,10.016-20.864,9.168-30.505c-0.67-7.626-7.334-14.056-7.334-24.483"/>
<path opacity="0.3" fill="none" stroke="#0000FF" stroke-width="8.5039" stroke-miterlimit="10" d="M341.599,97.299
	c0-4.14-9.102-5.737-7.335-15.252c1.783-9.592,10.016-20.864,9.168-30.505c-0.67-7.626-7.334-14.055-7.334-24.483"/>
</svg>
