<?xml version="1.0" encoding="UTF-8" standalone="no"?>
<!-- Generator: Adobe Illustrator 16.0.0, SVG Export Plug-In . SVG Version: 6.00 Build 0)  -->

<svg
   xmlns:dc="http://purl.org/dc/elements/1.1/"
   xmlns:cc="http://creativecommons.org/ns#"
   xmlns:rdf="http://www.w3.org/1999/02/22-rdf-syntax-ns#"
   xmlns:svg="http://www.w3.org/2000/svg"
   xmlns="http://www.w3.org/2000/svg"
   xmlns:sodipodi="http://sodipodi.sourceforge.net/DTD/sodipodi-0.dtd"
   xmlns:inkscape="http://www.inkscape.org/namespaces/inkscape"
   version="1.1"
   id="Layer_1"
   x="0px"
   y="0px"
   width="500px"
   height="500px"
   viewBox="0 0 500 500"
   enable-background="new 0 0 500 500"
   xml:space="preserve"
   inkscape:version="0.48.4 r9939"
   sodipodi:docname="boiling.svg"><metadata
   id="metadata81"><rdf:RDF><cc:Work
       rdf:about=""><dc:format>image/svg+xml</dc:format><dc:type
         rdf:resource="http://purl.org/dc/dcmitype/StillImage" /><dc:title></dc:title></cc:Work></rdf:RDF></metadata><defs
   id="defs79" /><sodipodi:namedview
   pagecolor="#ffffff"
   bordercolor="#666666"
   borderopacity="1"
   objecttolerance="10"
   gridtolerance="10"
   guidetolerance="10"
   inkscape:pageopacity="0"
   inkscape:pageshadow="2"
   inkscape:window-width="640"
   inkscape:window-height="480"
   id="namedview77"
   showgrid="false"
   inkscape:zoom="0.472"
   inkscape:cx="250"
   inkscape:cy="250"
   inkscape:window-x="0"
   inkscape:window-y="0"
   inkscape:window-maximized="0"
   inkscape:current-layer="Layer_1" />
<g
   id="g3">
	<path
   id="path132"
   d="M357.901,462.073   c0-9.002-19.429-16.941-48.993-21.639"
   stroke-linejoin="round"
   stroke-linecap="round"
   stroke="#161413"
   fill="none" />
	<path
   id="path134"
   d="M275.89,436.875   c-9.375-0.6-19.238-0.921-29.427-0.921c-61.547,0-111.439,11.69-111.439,26.119"
   stroke-linejoin="round"
   stroke-linecap="round"
   stroke="#161413"
   fill="none" />
	<path
   id="path136"
   d="M291.543,415.688   c-14.045-1.514-29.228-2.347-45.08-2.347c-52.943,0-98.479,9.227-118.686,22.458"
   stroke-linejoin="round"
   stroke-linecap="round"
   stroke="#161413"
   fill="none" />
	<path
   id="path138"
   d="M365.149,435.8   c-6.966-4.559-16.94-8.643-29.191-12.039"
   stroke-linejoin="round"
   stroke-linecap="round"
   stroke="#161413"
   fill="none" />
</g>
<g
   id="g9">
	<path
   d="M322.121,209.454c3.216-6.958-13.995-21.762-38.442-33.064c-24.447-11.302-46.874-14.824-50.09-7.865   L130.522,391.05l15.012,60.774c2.435,4.129,12.822,8.583,17.672,8.171l55.808-27.928L322.121,209.454z"
   id="path11"
   fill="#D9E021" />
	<path
   stroke-miterlimit="10"
   d="M238.998,143.073L125.076,389.487l16.776,67.691   c2.711,4.596,14.305,9.569,19.704,9.107l62.148-31.083l114.192-246.624"
   id="path13"
   stroke-width="3"
   stroke="#507282"
   fill="none" />
	<path
   stroke-miterlimit="10"
   d="M300.538,139.926"
   id="path15"
   stroke-width="3"
   stroke="#507282"
   fill="none" />
	
		<ellipse
   transform="matrix(0.9077 0.4196 -0.4196 0.9077 79.4422 -118.5293)"
   stroke-miterlimit="10"
   cx="309.143"
   cy="121.311"
   rx="65.024"
   ry="18.507"
   id="ellipse17"
   stroke-width="3"
   stroke="#507282"
   fill="none" />
	<path
   stroke-miterlimit="10"
   d="M152.862,325.576"
   id="path19"
   stroke-width="3"
   stroke="#507282"
   fill="none" />
	<path
   stroke-miterlimit="10"
   d="M368.173,148.583l-16.498,35.296   c-4.29,9.277-34.17,4.664-66.766-10.406c-32.598-15.07-55.645-34.849-51.355-44.126l16.438-35.556"
   id="path21"
   stroke-width="3"
   stroke="#507282"
   fill="none" />
	<g
   id="g23">
		<path
   stroke-miterlimit="10"
   d="M297.639,196.66    c-6.287-1.915-12.991-4.466-19.811-7.617c-6.816-3.151-13.104-6.607-18.634-10.155"
   id="path25"
   stroke-width="3"
   stroke="#507282"
   fill="none" />
		<path
   stroke-miterlimit="10"
   d="M194.133,420.541    c-6.285-1.911-12.991-4.463-19.809-7.615c-6.817-3.152-13.104-6.608-18.633-10.156"
   id="path27"
   stroke-width="3"
   stroke="#507282"
   fill="none" />
		<path
   stroke-miterlimit="10"
   d="M262.635,272.375    c-6.285-1.912-12.989-4.466-19.808-7.617c-6.819-3.152-13.107-6.606-18.638-10.155"
   id="path29"
   stroke-width="3"
   stroke="#507282"
   fill="none" />
		<path
   stroke-miterlimit="10"
   d="M251.133,297.251    c-6.285-1.914-12.989-4.465-19.808-7.616c-6.816-3.153-13.105-6.607-18.636-10.157"
   id="path31"
   stroke-width="3"
   stroke="#507282"
   fill="none" />
		<path
   stroke-miterlimit="10"
   d="M239.632,322.127    c-6.284-1.915-12.989-4.465-19.808-7.618c-6.817-3.151-13.105-6.607-18.635-10.155"
   id="path33"
   stroke-width="3"
   stroke="#507282"
   fill="none" />
		<path
   stroke-miterlimit="10"
   d="M228.133,347.003    c-6.288-1.914-12.992-4.466-19.81-7.617c-6.817-3.153-13.104-6.607-18.634-10.155"
   id="path35"
   stroke-width="3"
   stroke="#507282"
   fill="none" />
		<path
   stroke-miterlimit="10"
   d="M216.632,371.878    c-6.285-1.913-12.99-4.465-19.809-7.616c-6.817-3.153-13.104-6.606-18.634-10.155"
   id="path37"
   stroke-width="3"
   stroke="#507282"
   fill="none" />
		<path
   stroke-miterlimit="10"
   d="M205.425,396.118    c-6.287-1.913-12.992-4.464-19.809-7.616c-6.818-3.152-13.104-6.606-18.634-10.156"
   id="path39"
   stroke-width="3"
   stroke="#507282"
   fill="none" />
		<path
   stroke-miterlimit="10"
   d="M285.635,222.624    c-6.285-1.914-12.99-4.465-19.808-7.618c-6.818-3.152-13.105-6.605-18.636-10.156"
   id="path41"
   stroke-width="3"
   stroke="#507282"
   fill="none" />
		<path
   stroke-miterlimit="10"
   d="M274.134,247.5    c-6.284-1.914-12.988-4.465-19.808-7.617c-6.817-3.152-13.106-6.607-18.634-10.156"
   id="path43"
   stroke-width="3"
   stroke="#507282"
   fill="none" />
	</g>
</g>
<path
   stroke-miterlimit="10"
   d="M122.5,176.346c0-18.512,55.838-33.52,124.5-33.52  s124.5,15.008,124.5,33.52v0.15v263.307l-0.303,10.044c0,18.217-14.928,43.653-124.219,43.653h-0.296  c-109.292,0-124.122-25.437-124.122-43.653l-0.061-10.044V175.969V176.346z"
   id="path45"
   stroke="#0000FF"
   fill="#0000FF"
   opacity="0.3" />
<g
   id="g47">
	<path
   id="path116"
   d="M104.583,141.271   c18.059-1.951,23.001,0.203,38.592,4.154c1.018,0.26,2.081,0.527,3.195,0.803"
   stroke-linejoin="round"
   stroke-linecap="round"
   stroke="#161413"
   fill="none" />
	<path
   id="path118"
   d="M376.629,133.933   c-24.014,14.769-75.118,22.736-130.166,22.736c-28.623,0-55.316-2.163-77.817-5.896"
   stroke-linejoin="round"
   stroke-linecap="round"
   stroke="#161413"
   fill="none" />
	<path
   id="path120"
   d="M326.618,92.013   c21.414,3.839,40.919,10.312,48.698,15.388c3.572,2.332,5.641,5.022,5.641,8.188"
   stroke-linejoin="round"
   stroke-linecap="round"
   stroke="#161413"
   fill="none" />
	<path
   id="path122"
   d="M99.947,132.429   c4.049-3.004,7.559-9.918,8.058-11.085c4.001-9.339,8.637-17.186,31.295-23.665c26.301-7.519,64.109-12.234,106.122-12.234   c20.819,0,40.608,1.158,58.475,3.242"
   stroke-linejoin="round"
   stroke-linecap="round"
   stroke="#161413"
   fill="none" />
	<path
   id="path124"
   d="M370.784,439.749v-292.82   c0-2.799,1.04-7.128,1.916-8.566"
   stroke-linejoin="round"
   stroke-linecap="round"
   stroke="#161413"
   fill="none" />
	<path
   id="path126"
   d="M122.142,439.749   c0,0,0-253.25,0-263.457c0-18.22-6.142-29.044-19.134-32.034"
   stroke-linejoin="round"
   stroke-linecap="round"
   stroke="#161413"
   fill="none" />
	<path
   id="path128"
   d="M143.836,477.721   c-17.638-8.515-21.675-19.309-21.675-28.416"
   stroke-linejoin="round"
   stroke-linecap="round"
   stroke="#161413"
   fill="none" />
	<path
   id="path130"
   d="M370.62,449.305   c0,18.217-16.039,43.167-124.082,43.167c-37.2,0-63.493-2.96-81.979-7.581"
   stroke-linejoin="round"
   stroke-linecap="round"
   stroke="#161413"
   fill="none" />
	<path
   id="path140"
   d="   M94.317,139.996c1.746-1.22,5.72-2.473,7.584-2.857c15.043-3.108,25.434-2.482,43.408,1.977   c25.888,6.425,61.65,10.398,101.154,10.398c57.939,0,104.199-9.046,126.796-20.9c5.454-2.863,8.435-6.765,9.017-9.585"
   stroke-linejoin="round"
   stroke-linecap="round"
   stroke-width="2"
   stroke="#161413"
   fill="none" />
	<path
   id="path142"
   d="   M376.293,150.022v301.815c0,17.795-16.781,47.628-129.83,47.628c-113.048,0-129.831-29.831-129.831-47.628V177.066   c0,0,1.55-25.228-21.021-28.716c-1.241-0.192-4.549,0.901-5.941,0.85c-6.364-0.24-7.276-9.012,2.644-18.335   c13.525-12.708,7.174-26.664,34.055-36.15c25.743-9.086,69.761-16.206,120.094-16.206c79.009,0,143.054,16.153,143.054,35.504   C389.517,128.03,376.293,129.458,376.293,150.022z"
   stroke-linejoin="round"
   stroke-linecap="round"
   stroke-width="4"
   stroke="#161413"
   fill="none" />
	<g
   id="g150">
		<g
   id="g152">
			<path
   id="path154"
   d="     M305.981,265.57c9.497-1.22,18.306-2.719,26.254-4.456"
   stroke-linejoin="round"
   stroke-linecap="round"
   stroke-width="3"
   stroke="#161413"
   fill="none" />
			<path
   id="path156"
   d="     M305.981,306.143c9.497-1.219,18.306-2.717,26.254-4.456"
   stroke-linejoin="round"
   stroke-linecap="round"
   stroke-width="3"
   stroke="#161413"
   fill="none" />
			<path
   id="path158"
   d="     M305.981,346.716c9.497-1.219,18.306-2.718,26.254-4.454"
   stroke-linejoin="round"
   stroke-linecap="round"
   stroke-width="3"
   stroke="#161413"
   fill="none" />
			<path
   id="path160"
   d="     M305.981,387.291c9.497-1.218,18.306-2.719,26.254-4.456"
   stroke-linejoin="round"
   stroke-linecap="round"
   stroke-width="3"
   stroke="#161413"
   fill="none" />
			<path
   id="path162"
   d="     M332.235,423.408c-7.948,1.737-16.757,3.237-26.254,4.457v-202.87c9.497-1.218,18.306-2.718,26.254-4.456"
   stroke-linejoin="round"
   stroke-linecap="round"
   stroke-width="3"
   stroke="#161413"
   fill="none" />
		</g>
	</g>
	<path
   d="M122.161,207.214"
   id="path66"
   fill="none" />
</g>
<path
   id="path128_2_"
   d="M415.132,368.604"
   fill="#0000FF"
   opacity="0.3" />
<path
   stroke-miterlimit="10"
   d="M175.337,103.141  c0-5.37-13.409-12.518-11.117-24.859c2.312-12.441,16.378-20.397,15.279-32.901c-0.868-9.892-11.296-10.967-11.296-24.493"
   id="path69"
   stroke-width="8.5039"
   stroke="#0000FF"
   fill="none"
   opacity="0.3" />
<path
   stroke-miterlimit="10"
   d="M285.327,91.167  c0-5.37-13.41-12.518-11.117-24.858c2.312-12.441,16.377-20.398,15.28-32.902c-0.871-9.892-11.297-10.967-11.297-24.493"
   id="path71"
   stroke-width="8.5039"
   stroke="#0000FF"
   fill="none"
   opacity="0.3" />
<path
   stroke-miterlimit="10"
   d="M222.901,90.126  c0-5.37-11.806-7.442-9.513-19.783c2.312-12.441,12.991-27.062,11.891-39.566c-0.868-9.89-9.514-18.23-9.514-31.755"
   id="path73"
   stroke-width="8.5039"
   stroke="#0000FF"
   fill="none"
   opacity="0.3" />
<path
   stroke-miterlimit="10"
   d="M344.187,103.662  c0-5.371-11.804-7.443-9.513-19.784c2.312-12.441,12.989-27.061,11.89-39.564c-0.868-9.892-9.511-18.23-9.511-31.756"
   id="path75"
   stroke-width="8.5039"
   stroke="#0000FF"
   fill="none"
   opacity="0.3" />
</svg>