<?xml version="1.0" encoding="UTF-8" standalone="no"?>
<!-- Created with Inkscape (http://www.inkscape.org/) -->

<svg
   xmlns:dc="http://purl.org/dc/elements/1.1/"
   xmlns:cc="http://creativecommons.org/ns#"
   xmlns:rdf="http://www.w3.org/1999/02/22-rdf-syntax-ns#"
   xmlns:svg="http://www.w3.org/2000/svg"
   xmlns="http://www.w3.org/2000/svg"
   version="1.1"
   width="500"
   height="500"
   viewBox="0 0 500 500"
   id="Layer_1"
   xml:space="preserve"><metadata
   id="metadata44"><rdf:RDF><cc:Work
       rdf:about=""><dc:format>image/svg+xml</dc:format><dc:type
         rdf:resource="http://purl.org/dc/dcmitype/StillImage" /><dc:title></dc:title></cc:Work></rdf:RDF></metadata><defs
   id="defs42" />
<path
   d="m 251.921,320.661 c -0.424,-0.066 -2.85,-0.295 -5.392,-0.508 -16.219,-1.359 -33.262,-5.682 -47.378,-12.016 -12.926,-5.801 -24.893,-14.479 -32.573,-23.625 -3.694,-4.4 -7.829,-11.428 -9.599,-16.313 l -0.606,-1.676 0.606,-1.676 c 1.152,-3.182 2.921,-6.627 5.301,-10.326 4.213,-6.55 8.446,-11.093 15.59,-16.736 17.262,-13.631 40.561,-22.116 68.547,-24.96 6.046,-0.616 25.269,-0.605 31.469,0.014 32.701,3.272 60.257,14.932 76.937,32.559 5.546,5.859 10.344,13.354 12.327,19.25 l 0.631,1.875 -0.631,1.875 c -0.347,1.031 -1.301,3.215 -2.119,4.854 -9.213,18.438 -30.188,33.422 -58.206,41.582 -7.177,2.09 -17.936,4.152 -27.067,5.186 -4.37,0.495 -25.61,0.983 -27.837,0.641 l 0,0 0,0 z"
   id="path9355_4_"
   style="opacity:0.07000002" />
<path
   d="m 370.351,279.971 c 0,37.756 -48.46,68.363 -108.238,68.363 -59.779,0 -108.24,-30.607 -108.24,-68.363 0,-37.756 48.461,-68.363 108.24,-68.363 59.778,-0.001 108.238,30.607 108.238,68.363 z"
   id="path8792_4_"
   style="opacity:0.6;fill:none;stroke:#000000;stroke-linecap:round;stroke-linejoin:round" />
<path
   d="m 155.224,262.132 c -2.266,-11.5 -0.081,-22.715 6.468,-33.195 12.822,-20.518 39.935,-35.578 73.945,-41.074 12.95,-2.092 29.098,-2.653 41.591,-1.445 29.037,2.811 53.213,11.779 70.753,26.251 17.216,14.202 24.594,31.681 20.979,49.697 -0.242,1.211 -0.527,2.288 -0.635,2.392 -0.106,0.107 -0.361,-0.328 -0.564,-0.965 -0.645,-2.009 -2.776,-6.334 -4.487,-9.103 -3.685,-5.959 -8.726,-11.576 -15.075,-16.798 -17.303,-14.227 -40.945,-23.083 -69.76,-26.129 -7.936,-0.84 -24.881,-0.835 -32.679,0.006 -24.488,2.648 -44.754,9.216 -61.176,19.825 -13.172,8.51 -22.851,19.261 -27.312,30.343 -0.652,1.62 -1.256,2.956 -1.342,2.967 -0.086,0.012 -0.404,-1.234 -0.706,-2.772 l 0,0 z"
   id="path9353_4_"
   style="opacity:0.07000002" />
<path
   d="m 255.5,247.23 c -0.895,0 -70.51,13.568 -72.295,28.498 -1.785,14.926 33.915,23.067 76.756,23.067 42.841,0 83.896,-9.498 83.896,-20.356 -0.001,-10.853 -56.228,-32.565 -88.357,-31.209 z"
   id="path1888_11_"
   style="fill:#d9e021" />
<linearGradient
   x1="-1470.1313"
   y1="1646.7012"
   x2="-1359.7163"
   y2="1646.7012"
   id="path9351_1_"
   gradientUnits="userSpaceOnUse"
   gradientTransform="matrix(1,0,0,-1,1657.3564,1950.377)">
	<stop
   id="stop8"
   style="stop-color:#000000;stop-opacity:1"
   offset="0" />
	<stop
   id="stop10"
   style="stop-color:#ababab;stop-opacity:1"
   offset="0.48949999" />
	<stop
   id="stop12"
   style="stop-color:#000000;stop-opacity:1"
   offset="1" />
</linearGradient>
<path
   d="m 244.946,347.437 c -34.782,-3.756 -63.413,-17.202 -79.524,-37.073 -2.479,-3.056 -6.917,-10.269 -8.127,-13.557 -2.055,-5.579 -3.242,-11.32 -3.242,-16.36 0,-2.396 -0.341,-19.179 0.097,-19.882 0.133,-0.211 2.735,9.316 3.445,11.046 1.862,4.541 7.336,12.547 11.272,16.715 8.873,9.395 21.681,17.691 36.034,23.31 18.352,7.182 35.296,10.404 57.267,10.404 18.42,0 32.936,-2.455 48.354,-7.336 28.216,-8.929 47.767,-23.729 56.036,-43.091 l 3.664,-12.39 0.19,10.785 c 0.805,3.099 0.051,8.088 -0.144,12.107 -0.865,18.006 -13.482,35.596 -34.938,48.119 -12.573,7.339 -28.036,12.617 -45.198,15.648 -12.363,2.186 -32.223,2.927 -44.928,1.554 h -0.258 z"
   id="path9351_4_"
   style="opacity:0.12999998;fill:url(#path9351_1_)" />
<path
   d="m 370.351,253.41 c 0,37.756 -48.46,68.363 -108.238,68.363 -59.779,0 -108.24,-30.607 -108.24,-68.363 0,-37.754 48.461,-68.363 108.24,-68.363 59.778,0 108.238,30.609 108.238,68.363 z"
   id="path8792-2_4_"
   style="opacity:0.6;fill:none;stroke:#000000;stroke-linecap:round;stroke-linejoin:round" />
<g
   id="g16">
	<path
   d="m 305.37,369.259 c 1.645,-1.624 3.607,-1.353 5.261,-0.377 20.999,12.387 44.257,17.972 67.949,21.383 14.532,2.094 12.057,8.68 6.266,16.976 -15.316,21.944 -35.024,38.731 -59.531,49.728 -7.662,-1.757 -9.417,-7.086 -8.635,-14.077 1.091,-9.745 -4.065,-14.681 -13.151,-14.925 -23.142,-0.62 -43.861,-9.384 -64.347,-18.686 -46.348,-21.042 -83.928,-52.438 -114.534,-93.41 -9.506,-12.726 -14.558,-28.947 -28.378,-38.441 7.238,-8.255 17.936,-8.132 27.322,-11.013 4.949,-1.52 8.36,2.293 10.305,6.195 9.211,18.499 25.917,31.974 33.999,51.222 2.735,6.519 10.706,5.587 15.263,10.027 28.72,27.983 64.027,44.721 101.199,57.947 4.028,1.433 9.18,-0.298 13.81,-0.563 8.666,3.514 10.156,-1.714 9.145,-8.238 -0.712,-4.573 -2.85,-8.927 -1.943,-13.748 z"
   id="path18"
   style="fill:#828282;fill-rule:evenodd" />
	<path
   d="m 386.829,364.527 c -3.283,-1.345 -6.421,-3.021 -4.454,-7.307 17.896,-38.994 11.623,-77.681 -1.286,-116.318 -1.053,-3.156 -1.871,-6.393 -2.8,-9.591 0.305,-0.324 0.903,-0.886 0.863,-0.938 -0.484,-0.61 -1.065,-1.144 -1.621,-1.697 -2.912,-1.595 -3.621,-4 -2.595,-7.045 1.208,-7.554 -2.275,-14.637 -1.547,-22.573 0.596,-6.482 -4.574,-16.174 -11.232,-17.984 -4.884,-1.326 -15.004,0.562 -16.018,10.621 -5.893,6.018 -8.496,1.459 -9.969,-3.573 -7.006,-23.935 -19.248,-45.163 -33.893,-65.017 -3.629,-4.92 -1.222,-8.158 0.634,-11.665 2.434,-4.605 6.218,-4.612 11.081,-2.681 28.123,11.178 52.531,28.235 75.777,47.17 2.683,2.184 5.146,5.476 1.546,8.51 -8.612,7.254 -3.183,13.403 0.696,20.158 21.628,37.641 38.283,77.208 37.82,121.366 -0.188,17.842 0.16,36.276 -5.351,53.784 -1.669,5.303 -1.979,11.625 -8.198,14.446 -4.989,-4.295 -9.614,-9.142 -15.071,-12.723 -5.168,-3.393 -11.379,-6.246 -14.382,3.057 z"
   id="path20"
   style="fill:#828282;fill-rule:evenodd" />
	<path
   d="m 67.895,135.955 c 2.9,-16.299 6.248,-18.555 18.449,-9.781 9.662,6.949 14.385,4.051 20.664,-4.452 21.042,-28.487 49.684,-46.96 84.614,-50.117 20.386,-1.842 41.653,-4.629 62.489,0.054 19.851,4.464 19.897,4.259 20.537,26.681 -21.732,-0.768 -43.21,-7.846 -65.184,-2.625 -15.813,3.755 -32.589,5.506 -43.006,20.556 -11.427,6.402 -18.464,17.66 -28.406,25.686 -8.065,6.51 -8.232,12.036 1.371,17.041 2.55,1.328 4.819,3.187 7.33,4.606 6.599,3.728 8.285,7.644 1.001,12.542 -19.797,13.311 -33.273,32.011 -44.533,52.571 -1.764,-0.513 -4.5,-0.479 -5.145,-1.623 C 84.56,203.116 75.997,177.456 75.42,149.852 75.272,142.817 72.917,139.231 67.895,135.955 z"
   id="path22"
   style="fill:#828282;fill-rule:evenodd" />
	<path
   d="m 96.269,277.429 c 13.82,9.494 18.872,25.716 28.378,38.441 30.606,40.972 68.186,72.368 114.534,93.41 20.486,9.302 41.206,18.065 64.347,18.686 9.086,0.244 14.242,5.18 13.151,14.925 -0.782,6.991 0.973,12.32 8.635,14.077 -10.247,5.906 -17.339,6.461 -18.239,-8.668 -0.577,-9.708 -6.437,-12.776 -16.955,-14.238 -48.944,-6.809 -91.599,-28.313 -128.839,-60.492 -26.414,-22.823 -48.92,-49.025 -65.771,-79.794 -3.006,-5.488 -6.732,-11.241 0.759,-16.347 z"
   id="path24"
   style="fill:#494949;fill-rule:evenodd" />
	<path
   d="m 67.895,135.955 c 5.022,3.277 7.377,6.862 7.526,13.896 0.577,27.604 9.14,53.264 22.656,77.242 0.645,1.144 3.381,1.11 5.145,1.623 -1.333,3.082 -2.311,6.384 -4.069,9.202 -4.175,6.693 -7.661,5.677 -10.844,-1.141 C 77.458,213.529 69.808,189.293 68.008,163.69 67.366,154.576 60.979,145.159 67.895,135.955 z"
   id="path26"
   style="fill:#494949;fill-rule:evenodd" />
	<path
   d="m 166.458,116.271 c 10.417,-15.05 27.193,-16.801 43.006,-20.556 21.973,-5.221 43.451,1.857 65.184,2.625 -3.803,8.852 -9.019,12.142 -19.708,9.771 -26.658,-5.91 -53.274,-4.442 -78.83,6.256 -3.205,1.341 -6.252,2.183 -9.652,1.904 z"
   id="path28"
   style="fill:#494949;fill-rule:evenodd" />
	<path
   d="m 346.14,191.697 c 1.014,-10.059 11.134,-11.947 16.018,-10.621 6.658,1.81 11.828,11.501 11.232,17.984 -0.729,7.936 2.755,15.019 1.547,22.573 -5.367,-8.382 -10.983,-16.619 -16.016,-25.196 -3.168,-5.403 -6.789,-7.812 -12.781,-4.74 z"
   id="path30"
   style="fill:#494949;fill-rule:evenodd" />
	<path
   d="m 386.829,364.527 c 3.003,-9.304 9.214,-6.45 14.384,-3.054 5.457,3.581 10.082,8.428 15.071,12.723 -14.27,12.526 -17.925,-5.6 -26.606,-9.213 -0.89,-0.435 -1.816,-0.545 -2.781,-0.331 l -0.068,-0.125 z"
   id="path32"
   style="fill:#494949;fill-rule:evenodd" />
	<path
   d="m 305.37,369.259 c -0.907,4.821 1.23,9.175 1.94,13.748 1.012,6.524 -0.479,11.752 -9.145,8.238 -0.73,-8.355 -5.991,-18.193 7.205,-21.986 z"
   id="path34"
   style="fill:#494949;fill-rule:evenodd" />
	<path
   d="m 377.531,228.677 c 0.556,0.553 1.137,1.087 1.621,1.697 0.04,0.051 -0.559,0.613 -0.863,0.938 -0.436,-0.825 -0.69,-1.704 -0.758,-2.635 z"
   id="path36"
   style="fill:#494949;fill-rule:evenodd" />
	<path
   d="m 386.896,364.652 c 0.965,-0.214 1.892,-0.104 2.781,0.331 -0.723,0.605 -1.442,1.207 -2.165,1.812 -0.203,-0.714 -0.41,-1.429 -0.616,-2.143 z"
   id="path38"
   style="fill:#828282;fill-rule:evenodd" />
</g>
</svg>