<?xml version="1.0" encoding="UTF-8" standalone="no"?>
<!-- Created with Inkscape (http://www.inkscape.org/) -->

<svg
   xmlns:dc="http://purl.org/dc/elements/1.1/"
   xmlns:cc="http://creativecommons.org/ns#"
   xmlns:rdf="http://www.w3.org/1999/02/22-rdf-syntax-ns#"
   xmlns:svg="http://www.w3.org/2000/svg"
   xmlns="http://www.w3.org/2000/svg"
   version="1.1"
   width="387.84799"
   height="215.325"
   viewBox="0 0 387.848 215.325"
   id="svg2"
   xml:space="preserve"><metadata
   id="metadata299"><rdf:RDF><cc:Work
       rdf:about=""><dc:format>image/svg+xml</dc:format><dc:type
         rdf:resource="http://purl.org/dc/dcmitype/StillImage" /><dc:title></dc:title></cc:Work></rdf:RDF></metadata><defs
   id="defs297" />
<g
   id="Layer_1">
	<polyline
   fill-rule="evenodd"
   clip-rule="evenodd"
   fill="#F9ED12"
   points="12.324,155.909 28.908,159.765 21.197,192.935    4.699,188.707  "
   id="polyline5"
   style="fill:#f9ed12;fill-rule:evenodd" />
	
		<ellipse
   cx="20.549"
   cy="157.99699"
   rx="8.4519997"
   ry="1.191"
   transform="matrix(0.974,0.2264,-0.2264,0.974,36.3122,-0.549)"
   id="ellipse7"
   style="fill:#fff685;fill-rule:evenodd" />
	<g
   id="g9">
		<path
   d="m 55.518,45.817 c -0.01,-0.279 -0.077,-0.57 -0.019,-0.834 0.501,-2.324 1.018,-4.645 1.545,-6.963 0.592,-2.593 1.199,-5.182 1.802,-7.772 0.797,-3.435 1.592,-6.872 2.397,-10.305 0.325,-1.386 0.656,-2.77 1.02,-4.145 0.562,-2.115 0.366,-4.074 -0.844,-5.97 -1.102,-1.727 -4.268,-3.095 -6.265,-2.655 -3.122,0.686 -4.852,2.615 -5.505,5.686 -0.434,2.051 -1.023,4.071 -1.493,6.114 -0.642,2.791 -1.216,5.598 -1.862,8.389 -0.767,3.316 -1.586,6.622 -2.368,9.933 -0.389,1.653 -0.727,3.318 -1.117,4.97 -0.114,0.488 0.161,0.642 0.517,0.75 0.789,0.24 1.575,0.488 2.373,0.685 3.14,0.781 6.285,1.553 9.433,2.304 0.63,0.15 0.688,0.42 0.31,0.875 -0.88,1.053 -1.718,2.145 -2.663,3.135 -0.783,0.821 -1.113,1.815 -1.375,2.848 -0.39,1.552 -0.708,3.123 -1.071,4.681 -0.487,2.1 -1.001,4.194 -1.478,6.297 -0.468,2.061 -0.889,4.131 -1.354,6.191 -0.575,2.542 -1.163,5.079 -1.767,7.612 -0.525,2.189 -1.109,4.365 -1.613,6.561 -1.218,5.304 -2.396,10.617 -3.606,15.922 -1.284,5.631 -2.598,11.254 -3.876,16.885 -0.542,2.386 -1.231,4.727 -1.99,7.053 -0.83,2.539 -1.552,5.113 -2.33,7.672 -0.807,2.648 -1.619,5.296 -2.437,7.942 -0.764,2.48 -1.531,4.957 -2.312,7.43 -0.925,2.929 -1.924,5.838 -2.784,8.787 -0.649,2.222 -1.136,4.495 -1.687,6.749 -0.236,0.966 -0.421,1.949 -0.707,2.9 -0.061,0.201 -0.439,0.326 -0.689,0.442 -0.09,0.044 -0.24,-0.044 -0.362,-0.069 -2.001,-0.463 -1.948,-0.344 -1.474,-2.446 0.555,-2.467 1.205,-4.916 1.723,-7.392 0.299,-1.438 0.389,-2.918 0.621,-4.373 0.269,-1.696 0.6,-3.382 0.883,-5.076 0.25,-1.505 0.471,-3.013 0.708,-4.52 0.249,-1.578 0.513,-3.153 0.747,-4.731 0.239,-1.604 0.425,-3.217 0.678,-4.819 0.251,-1.605 0.564,-3.202 0.835,-4.805 0.157,-0.932 0.275,-1.868 0.421,-2.801 0.274,-1.753 0.514,-3.514 0.843,-5.255 0.298,-1.565 0.71,-3.107 1.048,-4.664 0.518,-2.382 0.992,-4.773 1.528,-7.148 0.284,-1.264 0.692,-2.5 0.986,-3.761 0.308,-1.323 0.526,-2.667 0.821,-3.994 0.262,-1.168 0.589,-2.319 0.858,-3.485 0.331,-1.427 0.623,-2.861 0.945,-4.29 0.13,-0.581 0.304,-1.15 0.439,-1.729 0.361,-1.523 0.719,-3.048 1.064,-4.575 0.357,-1.574 0.678,-3.158 1.055,-4.729 0.57,-2.369 1.2,-4.725 1.759,-7.097 0.521,-2.208 0.96,-4.434 1.476,-6.644 0.698,-2.986 1.448,-5.959 2.146,-8.945 0.411,-1.752 0.765,-3.517 1.15,-5.272 0.26,-1.183 0.639,-2.351 0.755,-3.545 0.084,-0.862 -0.101,-1.774 -0.301,-2.633 -0.283,-1.21 -0.697,-2.393 -1.044,-3.59 -0.044,-0.159 -0.044,-0.349 -0.004,-0.511 0.608,-2.537 1.244,-5.067 1.838,-7.607 0.975,-4.179 1.92,-8.365 2.886,-12.546 0.56,-2.418 1.127,-4.834 1.707,-7.249 0.391,-1.629 0.629,-3.327 1.264,-4.857 0.815,-1.964 2.351,-3.268 4.495,-3.876 1.717,-0.487 3.356,-0.317 4.874,0.403 1.748,0.829 2.977,2.15 3.635,4.139 0.726,2.181 0.099,4.149 -0.312,6.177 -0.495,2.444 -1.114,4.864 -1.692,7.291 -0.564,2.378 -1.165,4.748 -1.712,7.13 -0.764,3.312 -1.494,6.632 -2.241,9.95 -0.252,1.12 -0.508,2.241 -0.773,3.359 -0.037,0.153 -0.141,0.29 -0.214,0.436 -0.082,-0.007 -0.164,-0.014 -0.244,-0.02 z m -11.589,3.725 c -0.151,0.828 -0.237,1.467 -0.388,2.091 -0.295,1.229 -0.646,2.445 -0.936,3.676 -0.384,1.627 -0.723,3.265 -1.101,4.893 -0.384,1.65 -0.802,3.294 -1.188,4.947 -0.327,1.403 -0.612,2.813 -0.938,4.216 -0.388,1.669 -0.822,3.327 -1.197,5 -0.428,1.897 -0.786,3.81 -1.224,5.704 -0.408,1.761 -0.918,3.497 -1.323,5.257 -0.539,2.353 -1.004,4.723 -1.537,7.078 -0.471,2.084 -0.992,4.159 -1.487,6.239 -0.132,0.555 -0.227,1.119 -0.365,1.671 -0.21,0.845 -0.462,1.682 -0.666,2.529 -0.331,1.374 -0.64,2.753 -0.953,4.133 -0.309,1.357 -0.618,2.716 -0.918,4.075 -0.25,1.143 -0.469,2.294 -0.739,3.433 -0.312,1.307 -0.739,2.59 -0.983,3.908 -0.471,2.526 -0.846,5.07 -1.266,7.607 -0.087,0.528 -0.213,1.05 -0.288,1.58 -0.24,1.699 -0.437,3.407 -0.701,5.102 -0.257,1.652 -0.604,3.291 -0.864,4.943 -0.319,2.019 -0.569,4.049 -0.886,6.068 -0.394,2.516 -0.811,5.028 -1.242,7.538 -0.479,2.781 -0.956,5.562 -1.492,8.331 -0.317,1.648 -0.722,3.282 -1.136,4.91 -0.16,0.631 0.125,0.804 0.646,0.896 0.547,0.098 1.152,0.312 1.374,-0.446 0.252,-0.859 0.421,-1.742 0.63,-2.613 0.486,-2.036 0.887,-4.099 1.48,-6.103 1.481,-4.987 3.046,-9.949 4.585,-14.919 1.064,-3.433 2.147,-6.861 3.21,-10.296 0.508,-1.641 0.966,-3.296 1.478,-4.937 0.261,-0.833 0.65,-1.627 0.875,-2.468 0.727,-2.699 1.438,-5.402 2.098,-8.119 0.519,-2.146 0.921,-4.318 1.422,-6.469 0.591,-2.536 1.262,-5.055 1.845,-7.593 1.259,-5.478 2.472,-10.969 3.729,-16.448 0.508,-2.213 1.101,-4.404 1.617,-6.615 0.412,-1.757 0.744,-3.535 1.153,-5.292 0.593,-2.533 1.245,-5.053 1.833,-7.585 0.521,-2.239 0.977,-4.492 1.482,-6.734 0.513,-2.27 1.028,-4.54 1.595,-6.795 0.151,-0.611 -0.118,-0.77 -0.592,-0.871 -0.585,-0.126 -1.176,-0.241 -1.76,-0.375 -1.599,-0.373 -3.195,-0.75 -4.882,-1.147 z m -1.027,-5.885 c -0.011,0.299 -0.069,0.541 -0.019,0.758 0.233,0.997 0.589,1.973 0.727,2.981 0.232,1.688 0.343,1.542 2.082,2.06 0.167,0.049 0.342,0.062 0.511,0.103 1.553,0.373 3.1,0.771 4.661,1.107 0.3,0.063 0.78,0.006 0.956,-0.19 0.964,-1.078 1.864,-2.209 2.773,-3.334 0.393,-0.485 0.299,-0.725 -0.326,-0.876 -0.658,-0.159 -1.325,-0.286 -1.983,-0.443 -2.875,-0.695 -5.746,-1.397 -8.62,-2.09 -0.212,-0.052 -0.436,-0.045 -0.762,-0.076 z"
   id="path11"
   style="fill-rule:evenodd" />
		<path
   d="m 28.163,126.416 c 0.774,0.208 1.548,0.416 2.322,0.623 -0.022,0.108 -0.044,0.214 -0.067,0.32 -0.786,-0.164 -1.57,-0.328 -2.355,-0.492 0.034,-0.15 0.067,-0.301 0.1,-0.451 z"
   id="path13"
   style="fill-rule:evenodd" />
		<path
   d="m 34.894,97.796 c 0.768,0.176 1.536,0.352 2.3,0.543 0.042,0.011 0.088,0.183 0.062,0.252 -0.029,0.07 -0.161,0.167 -0.22,0.151 -0.743,-0.206 -1.481,-0.428 -2.22,-0.647 0.027,-0.098 0.052,-0.2 0.078,-0.299 z"
   id="path15"
   style="fill-rule:evenodd" />
		<path
   d="m 31.23,112.425 c 0.768,0.18 1.536,0.354 2.299,0.545 0.042,0.012 0.09,0.183 0.062,0.251 -0.028,0.072 -0.162,0.168 -0.219,0.153 -0.744,-0.207 -1.482,-0.43 -2.222,-0.647 0.028,-0.101 0.054,-0.2 0.08,-0.302 z"
   id="path17"
   style="fill-rule:evenodd" />
		<path
   d="m 40.34,85.14 c -0.797,-0.169 -1.596,-0.341 -2.394,-0.512 0.028,-0.124 0.056,-0.25 0.083,-0.376 0.787,0.193 1.572,0.386 2.359,0.579 -0.016,0.103 -0.032,0.206 -0.048,0.309 z"
   id="path19"
   style="fill-rule:evenodd" />
		<path
   d="m 40.605,72.737 c 0.767,0.176 1.534,0.352 2.3,0.526 -0.019,0.089 -0.037,0.179 -0.055,0.268 -0.771,-0.167 -1.542,-0.334 -2.313,-0.501 0.023,-0.098 0.045,-0.196 0.068,-0.293 z"
   id="path21"
   style="fill-rule:evenodd" />
		<path
   d="m 44.108,59.039 c 0.721,0.155 1.443,0.311 2.161,0.467 -0.024,0.111 -0.048,0.222 -0.073,0.332 -0.718,-0.159 -1.439,-0.32 -2.158,-0.479 0.022,-0.107 0.046,-0.213 0.07,-0.32 z"
   id="path23"
   style="fill-rule:evenodd" />
	</g>
	<path
   d="m 5.291,186.212 c 5.549,1.447 10.857,2.828 16.287,4.244 -0.327,1.256 -0.631,2.424 -0.953,3.658 -4.011,4.185 -8.363,5.293 -12.169,2.492 -2.426,-1.782 -4.714,-4.712 -3.165,-10.394 z"
   id="path25"
   style="fill:#f9ed12;fill-rule:evenodd" />
	<g
   id="g27">
		<path
   d="m 10.073,116.468 c -2.589,-4.632 -5.117,-9.158 -7.702,-13.784 0.016,-0.824 0.035,-1.775 0.055,-2.782 4.859,-2.715 9.671,-5.404 14.535,-8.121 1.208,0.612 2.063,1.648 2.759,2.931 2.253,4.158 4.593,8.268 6.948,12.485 -5.522,3.084 -10.926,6.104 -16.595,9.271 z"
   id="path29"
   style="fill:#6b6b6b;fill-rule:evenodd" />
		<path
   d="m 12.905,111.882 c -0.691,0.386 -1.382,0.772 -2.275,1.271 -2.015,-3.196 -3.837,-6.509 -5.523,-9.9 -0.041,-0.08 0.237,-0.317 0.367,-0.48 0.439,-0.899 1.105,-1.327 2.125,-1.036 2.625,2.931 4.869,6.066 5.306,10.145 z"
   id="path31"
   style="fill:#dd9500;fill-rule:evenodd" />
		<path
   d="m 16.471,109.889 c -0.792,0.443 -1.585,0.886 -2.378,1.329 -2.942,-2.762 -4.489,-6.336 -5.844,-10.027 0.494,-1.208 1.408,-1.705 2.686,-1.587 2.906,2.855 5.022,6.139 5.536,10.285 z"
   id="path33"
   style="fill:#dd9500;fill-rule:evenodd" />
		<path
   d="m 20.038,107.896 c -0.792,0.443 -1.585,0.886 -2.377,1.329 -2.943,-2.762 -4.49,-6.337 -5.844,-10.027 0.494,-1.208 1.408,-1.705 2.686,-1.587 2.905,2.855 5.021,6.139 5.535,10.285 z"
   id="path35"
   style="fill:#dd9500;fill-rule:evenodd" />
		<path
   d="m 17.959,95.797 c 1.847,3.307 3.694,6.614 5.646,10.106 -0.865,0.483 -1.621,0.906 -2.378,1.329 -2.943,-2.716 -4.399,-6.31 -5.847,-9.909 0.399,-1.288 1.329,-1.678 2.579,-1.526 z"
   id="path37"
   style="fill:#dd9500;fill-rule:evenodd" />
		<path
   d="m 5.072,100.657 c 3.765,-2.104 7.53,-4.207 11.295,-6.311 0.633,0.339 0.966,0.795 0.591,1.525 -3.54,2.192 -7.158,4.248 -10.896,6.089 -0.819,-0.062 -1.031,-0.586 -0.99,-1.303 z"
   id="path39"
   style="fill:#dd9500;fill-rule:evenodd" />
		<path
   d="m 8.446,101.111 c 1.883,3.369 3.765,6.738 5.646,10.106 -0.396,0.222 -0.792,0.443 -1.188,0.665 -1.882,-3.369 -3.765,-6.738 -5.647,-10.106 0.21,-0.556 0.607,-0.777 1.189,-0.665 z"
   id="path41"
   style="fill:#9d7a2f;fill-rule:evenodd" />
		<path
   d="m 12.014,99.119 c 1.882,3.368 3.764,6.737 5.647,10.106 -0.396,0.221 -0.793,0.443 -1.189,0.664 -1.882,-3.369 -3.765,-6.737 -5.647,-10.106 0.209,-0.556 0.606,-0.778 1.189,-0.664 z"
   id="path43"
   style="fill:#9d7a2f;fill-rule:evenodd" />
		<path
   d="m 15.581,97.126 c 1.882,3.368 3.764,6.737 5.646,10.106 -0.396,0.221 -0.792,0.443 -1.189,0.664 -1.882,-3.369 -3.764,-6.738 -5.646,-10.107 0.209,-0.555 0.606,-0.776 1.189,-0.663 z"
   id="path45"
   style="fill:#9d7a2f;fill-rule:evenodd" />
		<path
   d="m 15.581,97.126 c -0.396,0.221 -0.793,0.443 -1.189,0.664 -0.792,0.443 -1.586,0.886 -2.378,1.329 -0.396,0.221 -0.793,0.443 -1.189,0.665 -0.792,0.443 -1.584,0.886 -2.378,1.328 -0.396,0.221 -0.792,0.443 -1.189,0.665 -0.594,0.332 -1.189,0.665 -1.784,0.997 -0.11,-0.199 -0.221,-0.396 -0.332,-0.595 0.039,-0.398 0.236,-0.508 0.595,-0.332 3.765,-2.104 7.53,-4.208 11.295,-6.311 0.038,-0.4 0.236,-0.511 0.595,-0.332 0.111,0.198 0.221,0.396 0.333,0.595 -0.794,0.441 -1.586,0.884 -2.379,1.327 z"
   id="path47"
   style="fill:#89703d;fill-rule:evenodd" />
		<path
   d="m 5.737,101.846 c -0.199,0.111 -0.396,0.221 -0.595,0.332 -0.162,-0.5 -0.93,-0.973 -0.069,-1.521 0.22,0.396 0.442,0.792 0.664,1.189 z"
   id="path49"
   style="fill:#bd8717;fill-rule:evenodd" />
		<path
   d="m 17.626,95.203 c -0.198,0.111 -0.396,0.221 -0.595,0.332 -0.221,-0.396 -0.443,-0.792 -0.664,-1.188 0.919,-0.447 0.919,0.455 1.259,0.856 z"
   id="path51"
   style="fill:#bd8717;fill-rule:evenodd" />
	</g>
	<g
   id="g53">
		<path
   d="m 37.252,123.63 c -4.933,-1.165 -9.871,-2.33 -15.217,-3.591 0.201,2.931 -2.332,4.936 -1.652,7.711 0.043,0.174 -0.078,0.514 -0.222,0.59 -1.229,0.647 -0.875,1.968 -1.311,2.946 -0.077,0.173 -0.308,0.278 -0.591,0.52 -0.425,-0.101 -0.942,-0.222 -1.532,-0.361 -3.208,13.592 -6.303,27.077 -9.605,40.51 -1.277,5.198 -2.1,10.492 -4.192,15.533 -1.536,3.7 -1.983,7.853 -2.931,11.869 2.037,0.48 3.882,0.916 5.714,1.35 1.104,-0.928 2.186,-1.837 3.058,-2.569 1.683,0.396 3.089,0.729 4.328,1.021 0.659,1.439 1.235,2.699 1.677,3.666 2.14,0.505 3.884,0.916 5.619,1.326 5.376,-22.78 10.731,-45.469 16.113,-68.274 -0.677,-0.159 -1.197,-0.282 -1.891,-0.446 0.99,-2.694 0.729,-5.634 2.282,-7.497 0.141,-1.705 0.245,-2.971 0.353,-4.304 z m -17.384,71.102 c -3.162,2.531 -6.857,3.063 -10.377,1.1 -2.244,-1.25 -4.457,-3.234 -3.547,-6.832 4.932,1.164 9.647,2.275 14.471,3.416 -0.187,0.794 -0.362,1.535 -0.547,2.316 z m 1.71,-4.275 c -5.24,-1.236 -10.395,-2.452 -15.674,-3.699 0.873,-3.698 1.743,-7.386 2.641,-11.189 1.262,0.299 2.445,0.577 3.852,0.91 0.643,-2.729 1.261,-5.346 1.879,-7.963 1.342,-0.84 2.583,0.158 3.659,0.144 -0.997,-0.386 -2.506,-0.153 -3.346,-1.47 1.564,-6.629 3.128,-13.256 4.692,-19.884 1.342,-0.84 2.582,0.159 3.66,0.144 -0.997,-0.385 -2.507,-0.154 -3.347,-1.47 0.354,-1.496 0.741,-2.986 1.03,-4.495 0.054,-0.282 -0.284,-0.641 -0.441,-0.964 -0.267,0.129 -0.523,0.212 -0.773,0.268 0.209,0.113 0.416,0.241 0.617,0.395 -2.697,11.429 -5.394,22.857 -8.112,34.375 -1.326,-0.313 -2.508,-0.592 -3.977,-0.938 0.212,-0.9 0.438,-1.854 0.663,-2.81 2.338,-9.908 4.663,-19.818 7.047,-29.715 0.146,-0.605 -0.277,-1.769 1.065,-1.694 0.247,-0.049 0.488,-0.072 0.726,-0.079 -0.198,-0.162 -0.389,-0.35 -0.569,-0.584 0.442,-1.875 0.885,-3.75 1.384,-5.863 5.279,1.002 10.462,2.449 15.828,3.602 -4.186,17.73 -8.337,35.32 -12.504,52.979 z m 0.112,-58.792 c 1.978,0.208 3.912,-0.553 5.868,0.022 1.715,0.504 3.615,0.375 5.678,0.546 -0.141,0.788 -0.249,1.39 -0.371,2.069 -3.84,-0.907 -7.507,-1.772 -11.175,-2.637 z m 12.163,-1.514 c -3.914,0.597 -7.617,-1.073 -11.357,-0.758 -0.417,-1.655 0.315,-2.262 1.105,-2.583 3.57,0.486 6.959,0.949 10.588,1.442 -0.127,0.72 -0.22,1.243 -0.336,1.899 z m 0.993,-3.932 c -3.868,-0.424 -7.667,-0.84 -11.569,-1.268 0.152,-0.646 0.326,-1.382 0.567,-2.404 3.706,0.874 7.298,1.722 10.972,2.589 0.009,0.304 0.017,0.618 0.03,1.083 z"
   id="path55"
   style="fill:#6b6b6b;fill-rule:evenodd" />
		<path
   d="m 19.41,140.789 c -0.616,-0.332 -1.272,-0.487 -1.971,-0.465 0.581,0.473 1.238,0.627 1.971,0.465 z"
   id="path57"
   style="fill:#6b6b6b;fill-rule:evenodd" />
	</g>
	<path
   d="m 7.07,197.103 c -0.886,0.397 -1.688,0.76 -2.75,1.237 -0.257,-0.062 -0.911,-0.216 -1.721,-0.405 0.4,-1.696 0.8,-3.391 1.249,-5.291 1.02,1.412 1.983,2.743 3.222,4.459 z"
   id="path59"
   style="fill:#e2e2e2;fill-rule:evenodd" />
	<path
   d="m 15.918,200.964 c -0.129,-0.66 -0.229,-1.175 -0.363,-1.854 1.223,-0.478 2.582,-1.009 4.286,-1.675 -0.376,1.598 -0.669,2.842 -0.996,4.221 -0.854,-0.202 -1.822,-0.43 -2.927,-0.692 z"
   id="path61"
   style="fill:#e2e2e2;fill-rule:evenodd" />
	<path
   d="m 19.594,145.979 c 1.953,0.461 3.905,0.921 5.908,1.395 -0.121,0.513 -0.192,0.811 -0.313,1.326 -2.002,-0.473 -3.954,-0.934 -5.907,-1.395 0.103,-0.442 0.208,-0.884 0.312,-1.326 z"
   id="path63"
   style="fill:#b2b2b2;fill-rule:evenodd" />
	<path
   d="m 20.026,141.183 c -1.104,-0.26 -2.209,-0.521 -3.314,-0.781 0.053,-0.221 0.104,-0.442 0.157,-0.663 1.104,0.261 2.209,0.521 3.313,0.782 -0.051,0.221 -0.104,0.442 -0.156,0.662 z"
   id="path65"
   style="fill:#6b6b6b;fill-rule:evenodd" />
	<g
   id="g67">
		<path
   d="m 18.128,169.953 c -0.061,0.751 -0.121,1.502 -0.182,2.253 -0.081,0.856 -0.162,1.712 -0.242,2.567 -0.074,0.055 -0.084,0.125 -0.05,0.206 -0.064,0.282 -0.127,0.562 -0.19,0.845 -0.008,0.059 -0.02,0.119 -0.034,0.178 -0.009,0.057 -0.019,0.116 -0.028,0.174 0.162,0.873 -0.055,1.727 -0.147,2.584 -0.01,0.095 -0.062,0.197 -0.152,0.26 -0.047,0.202 -0.094,0.403 -0.142,0.605 -0.034,0.479 0.023,0.975 -0.217,1.424 -0.279,0.096 -0.505,0.057 -0.621,-0.252 -0.032,-0.061 -0.056,-0.121 -0.036,-0.192 0.011,-0.087 0.022,-0.173 0.033,-0.259 0.2,-1.351 0.399,-2.703 0.599,-4.055 -0.121,-0.337 -0.02,-0.662 0.055,-0.988 0.019,-0.116 0.038,-0.23 0.056,-0.346 0.044,-0.688 0.088,-1.376 0.132,-2.064 0.289,-0.521 0.491,-1.063 0.336,-1.67 -0.185,-0.718 0.122,-1.201 0.83,-1.27 z"
   id="path69"
   style="fill:#c19205;fill-rule:evenodd" />
		<path
   d="m 16.745,181.048 c 0.072,-0.475 0.145,-0.949 0.217,-1.424 -0.023,0.479 -0.047,0.959 -0.071,1.438 -0.048,-0.004 -0.097,-0.009 -0.146,-0.014 z"
   id="path71"
   style="fill:#a37701;fill-rule:evenodd" />
		<path
   d="m 16.088,180.604 c 0.012,0.063 0.024,0.128 0.036,0.192 -0.012,-0.064 -0.024,-0.129 -0.036,-0.192 z"
   id="path73"
   style="fill:#9b6e02;fill-rule:evenodd" />
		<path
   d="m 18.763,158.772 c 0.073,0.004 0.146,0.007 0.219,0.01 0.594,-0.05 1.096,0.233 1.603,0.473 0.209,0.098 0.282,0.273 0.124,0.531 -0.129,0.21 -0.23,0.454 -0.302,0.7 -0.081,0.225 -0.162,0.45 -0.243,0.676 -0.02,0.055 -0.036,0.11 -0.05,0.167 -0.12,0.245 -0.239,0.49 -0.359,0.735 -0.265,0.251 -0.123,0.668 -0.375,0.925 -0.021,0.083 -0.041,0.167 -0.062,0.25 -0.075,0.38 -0.262,0.741 -0.203,1.145 -0.096,0.431 -0.191,0.86 -0.287,1.291 -0.126,0.326 -0.182,0.684 -0.515,0.9 -0.3,0.197 -0.537,0.213 -0.715,-0.139 0.092,-0.496 0.093,-1.002 0.182,-1.499 0.02,-0.101 0.042,-0.202 0.057,-0.306 0.125,-0.786 0.125,-1.589 0.24,-2.37 0.086,-0.587 0.183,-1.205 0.472,-1.752 0.015,-0.055 0.03,-0.112 0.045,-0.167 -0.053,-0.093 -0.057,-0.185 0.004,-0.275 0.005,-0.273 0.01,-0.547 0.014,-0.819 0.051,-0.158 0.101,-0.317 0.151,-0.476 z"
   id="path75"
   style="fill:#d6b608;fill-rule:evenodd" />
		<path
   d="m 17.676,166.396 c 0.737,0.324 0.749,-0.512 1.153,-0.721 -0.042,0.324 -0.085,0.65 -0.128,0.975 -0.083,0.373 -0.166,0.746 -0.25,1.118 0.033,0.074 0.073,0.146 0.107,0.219 -0.006,0.026 -0.011,0.052 -0.015,0.079 -0.138,0.628 -0.277,1.258 -0.415,1.887 -1.165,0.582 -0.165,1.826 -0.786,2.57 -0.113,0.136 -0.252,0.246 -0.38,0.369 0.004,-0.029 0.01,-0.059 0.017,-0.088 0.04,-0.146 0.123,-0.291 0.039,-0.45 0.03,-0.269 0.06,-0.536 0.089,-0.802 0.009,-0.059 0.019,-0.117 0.025,-0.176 0.009,-0.149 0.019,-0.299 0.028,-0.449 -0.019,-0.543 0.08,-1.084 0.03,-1.628 0.059,-0.167 0.118,-0.335 0.177,-0.501 0.113,-0.197 -0.046,-0.338 -0.105,-0.499 -0.059,-0.167 -0.039,-0.314 0.125,-0.415 0.012,-0.055 0.024,-0.108 0.037,-0.163 0.033,-0.267 0.066,-0.533 0.099,-0.801 -0.037,-0.2 -0.048,-0.393 0.153,-0.524 z"
   id="path77"
   style="fill:#c99e04;fill-rule:evenodd" />
		<path
   d="m 20.406,160.487 c 0.645,-1.504 -0.627,-1.405 -1.425,-1.703 0.043,-0.047 0.087,-0.093 0.131,-0.139 0.422,0.125 0.844,0.251 1.266,0.378 0.178,0.105 0.356,0.211 0.534,0.316 0.021,0.065 0.043,0.131 0.065,0.197 -0.19,0.317 -0.381,0.633 -0.571,0.951 z"
   id="path79"
   style="fill:#c99e04;fill-rule:evenodd" />
		<path
   d="m 19.115,164.384 c 0.068,-0.381 0.135,-0.763 0.203,-1.145 -0.068,0.383 -0.135,0.764 -0.203,1.145 z"
   id="path81"
   style="fill:#c99e04;fill-rule:evenodd" />
		<path
   d="m 19.379,162.989 c 0.125,-0.308 0.25,-0.617 0.375,-0.925 -0.125,0.309 -0.25,0.617 -0.375,0.925 z"
   id="path83"
   style="fill:#c99e04;fill-rule:evenodd" />
		<path
   d="m 20.113,161.33 c 0.017,-0.056 0.033,-0.111 0.05,-0.167 -0.017,0.056 -0.033,0.111 -0.05,0.167 z"
   id="path85"
   style="fill:#c99e04;fill-rule:evenodd" />
		<path
   d="m 18.599,160.068 c -0.001,0.091 -0.002,0.184 -0.004,0.275 0.001,-0.092 0.002,-0.184 0.004,-0.275 z"
   id="path87"
   style="fill:#b19301;fill-rule:evenodd" />
		<path
   d="m 17.655,174.979 c 0.017,-0.068 0.033,-0.138 0.05,-0.206 -0.017,0.068 -0.034,0.138 -0.05,0.206 z"
   id="path89"
   style="fill:#a37701;fill-rule:evenodd" />
		<path
   d="m 17.431,176.001 c 0.011,-0.059 0.022,-0.119 0.034,-0.178 -0.012,0.059 -0.023,0.12 -0.034,0.178 z"
   id="path91"
   style="fill:#a37701;fill-rule:evenodd" />
		<path
   d="m 17.188,169.299 c -0.01,0.542 -0.02,1.086 -0.03,1.628 0.01,-0.542 0.02,-1.086 0.03,-1.628 z"
   id="path93"
   style="fill:#c19205;fill-rule:evenodd" />
		<path
   d="m 17.017,172.354 c -0.013,0.149 -0.025,0.302 -0.038,0.45 0.012,-0.148 0.025,-0.301 0.038,-0.45 z"
   id="path95"
   style="fill:#c19205;fill-rule:evenodd" />
		<path
   d="m 17.334,168.601 c 0.022,-0.086 0.044,-0.17 0.066,-0.254 -0.011,0.15 -0.023,0.301 -0.034,0.451 -0.011,-0.066 -0.022,-0.131 -0.032,-0.197 z"
   id="path97"
   style="fill:#c19205;fill-rule:evenodd" />
		<path
   d="m 17.131,171.376 c -0.008,0.059 -0.017,0.117 -0.025,0.176 0.008,-0.058 0.017,-0.117 0.025,-0.176 z"
   id="path99"
   style="fill:#c19205;fill-rule:evenodd" />
		<path
   d="m 18.558,167.987 c -0.036,-0.073 -0.071,-0.146 -0.107,-0.219 0.036,0.073 0.071,0.146 0.107,0.219 z"
   id="path101"
   style="fill:#b19301;fill-rule:evenodd" />
		<path
   d="m 17.979,164.943 c -0.008,-0.065 -0.016,-0.133 -0.024,-0.199 0.008,0.066 0.016,0.133 0.024,0.199 z"
   id="path103"
   style="fill:#c99e04;fill-rule:evenodd" />
	</g>
	<path
   d="m 14.589,167.189 c 1.952,0.461 3.905,0.922 5.907,1.394 -0.121,0.515 -0.191,0.812 -0.313,1.325 -2.002,-0.472 -3.955,-0.933 -5.907,-1.393 0.104,-0.442 0.208,-0.885 0.313,-1.326 z"
   id="path105"
   style="fill:#b2b2b2;fill-rule:evenodd" />
</g>
<g
   id="Layer_2">
	<g
   id="g108">
		<path
   d="m 248.001,101.217 74.204,-1.035 -0.604,81.074 -72.39,6.67 -1.21,-86.709 z"
   id="path8780"
   style="fill:#d3d7da;stroke:#000000" />
		
			<linearGradient
   x1="-1088.9209"
   y1="1637.7339"
   x2="-1084.7783"
   y2="1637.7339"
   id="path8712_1_"
   gradientUnits="userSpaceOnUse"
   gradientTransform="matrix(1,0,0,-1,1407.625,1821.9092)">
			<stop
   id="stop112"
   style="stop-color:#333333;stop-opacity:1"
   offset="0" />
			<stop
   id="stop114"
   style="stop-color:#4a4a4a;stop-opacity:1"
   offset="0.25" />
			<stop
   id="stop116"
   style="stop-color:#909090;stop-opacity:1"
   offset="0.5" />
			<stop
   id="stop118"
   style="stop-color:#4a4a4a;stop-opacity:1"
   offset="0.75" />
			<stop
   id="stop120"
   style="stop-color:#333333;stop-opacity:1"
   offset="1" />
		</linearGradient>
		<path
   d="m 319.023,182.509 -0.104,3.299 c 1.512,0.558 2.788,0.313 4.028,-0.06 v -3.534"
   id="path8712"
   style="fill:url(#path8712_1_);stroke:#000000" />
		
			<linearGradient
   x1="-1137.2192"
   y1="1587.0972"
   x2="-1131.0328"
   y2="1587.0972"
   id="path8728_1_"
   gradientUnits="userSpaceOnUse"
   gradientTransform="matrix(1,0,0,-1,1366.9004,1763.9092)">
			<stop
   id="stop124"
   style="stop-color:#333333;stop-opacity:1"
   offset="0" />
			<stop
   id="stop126"
   style="stop-color:#4a4a4a;stop-opacity:1"
   offset="0.25" />
			<stop
   id="stop128"
   style="stop-color:#909090;stop-opacity:1"
   offset="0.5" />
			<stop
   id="stop130"
   style="stop-color:#4a4a4a;stop-opacity:1"
   offset="0.75" />
			<stop
   id="stop132"
   style="stop-color:#333333;stop-opacity:1"
   offset="1" />
		</linearGradient>
		<path
   d="m 229.883,175.237 0.205,2.827 c 1.859,0.429 3.719,0.492 5.578,-0.177 l -0.206,-2.532"
   id="path8728"
   style="fill:url(#path8728_1_);stroke:#000000" />
		
			<linearGradient
   x1="-1161.521"
   y1="1632.1313"
   x2="-1155.3328"
   y2="1632.1313"
   id="path8710_1_"
   gradientUnits="userSpaceOnUse"
   gradientTransform="matrix(1,0,0,-1,1407.625,1821.9092)">
			<stop
   id="stop136"
   style="stop-color:#333333;stop-opacity:1"
   offset="0" />
			<stop
   id="stop138"
   style="stop-color:#4a4a4a;stop-opacity:1"
   offset="0.25" />
			<stop
   id="stop140"
   style="stop-color:#909090;stop-opacity:1"
   offset="0.5" />
			<stop
   id="stop142"
   style="stop-color:#4a4a4a;stop-opacity:1"
   offset="0.75" />
			<stop
   id="stop144"
   style="stop-color:#333333;stop-opacity:1"
   offset="1" />
		</linearGradient>
		<path
   d="m 246.232,187.827 0.28,3.577 c 1.859,0.43 3.718,0.492 5.577,-0.176 l 0.159,-2.7"
   id="path8710"
   style="fill:url(#path8710_1_);stroke:#000000" />
		<path
   d="m 250.553,187.101 72.745,-6.956 0.146,2.291 -72.892,6.831"
   id="path8596"
   style="fill:#a6a4a7;stroke:#000000" />
		<path
   d="m 251.025,104.034 2.117,-1.207 63.518,-0.805 2.319,0.92 -0.202,73.829 -2.117,2.07 -62.407,5.692 -2.118,-0.806 -1.11,-79.693 z"
   id="path8427"
   style="fill:#f9f9f9;stroke:#000000" />
		<path
   d="m 249.286,95.363 76.636,1.648 -0.251,11.093 -76.646,-1.261"
   id="path8425"
   style="fill:#a6a4a7;stroke:#000000" />
		
			<path
   d="m 250.724,187.121 69.868,-6.611 -0.1,2.126 -69.971,6.671 0.203,-2.186 z"
   id="path8419"
   style="opacity:0.2;fill:none;stroke:#000000" />
		<path
   d="m 246.384,97.172 -19.211,1.278 2.208,80.479 19.138,10.628"
   id="path8423"
   style="fill:#656064;stroke:#000000" />
		<path
   d="m 311.267,137.065 -19.609,-6.169 -40.43,1.935 0.021,8.015"
   id="path8431"
   style="fill:#cccccc;stroke:#000000" />
		<path
   d="m 311.396,171.206 -19.738,-7.896 -40.285,2.302 0.049,11.072"
   id="path8435"
   style="fill:#cccccc;stroke:#000000" />
		<path
   d="m 291.549,107.333 0.143,55.977"
   id="path8437"
   style="fill:none;stroke:#000000" />
		<path
   d="m 320.915,99.268 v 84.234 l 61.575,10.186 1.503,-92.846 -63.078,-1.574 z"
   id="path8447"
   style="fill:#847e83;stroke:#000000" />
		<path
   d="m 251.566,176.663 59.687,-5.42 v 1.718 l -59.66,5.437"
   id="path8433"
   style="fill:#e6e6e6;stroke:#000000" />
		<path
   d="m 248.47,189.542 2.915,-0.177 -1.979,-92.171 h -3.019 l 2.083,92.348 z"
   id="path8421"
   style="fill:#7e7b7e;stroke:#000000" />
		<path
   d="m 322.182,100.285 58.408,1.558 -1.107,90.786 -57.617,-9.519 0.316,-82.825 z"
   id="path8468"
   style="fill:#b3b3b3;stroke:#000000" />
		<path
   d="m 326.5,102.848 50.702,1.496 -1.566,86.277 -52.493,-8.738 -0.112,-79.125 3.469,0.09 z"
   id="path8472"
   style="fill:#cccccc;stroke:#000000" />
		<path
   d="M 352.791,180.191"
   id="path8500_1_"
   style="fill:#97aab0;stroke:#000000" />
		<path
   d="M 374.755,208.901"
   id="path8502_1_"
   style="fill:#97aab0;stroke:#000000" />
		<path
   d="M 248,89.111 247.923,95 331.659,97.243 331.735,91.354 248,89.111 z"
   id="path8640"
   style="fill:#a5a0a4;stroke:#000000" />
		<path
   d="m 247.77,88.924 -20.597,5.516 0.037,6.683 19.308,-3.957 -0.02,-2.116 1.308,-0.003 -0.036,-6.123 z"
   id="path8642"
   style="fill:#656064;stroke:#000000" />
		<path
   d="m 331.649,97.327 -6.253,2.294 -78.91,-2.38 -0.056,-2.247"
   id="path8669"
   style="fill:#333333;stroke:#000000" />
		<path
   d="m 252.159,182.435 56.312,-4.832 2.776,-2.499 0.511,-67.152"
   id="path8708"
   style="fill:none;stroke:#000000" />
		<path
   d="m 251.397,140.798 59.718,-3.709 v 1.807 l -59.718,3.355"
   id="path8429"
   style="fill:#e6e6e6;stroke:#000000" />
	</g>
	<path
   d="m 211.893,171.303 c -0.651,-3.182 -10.242,-3.905 -21.423,-1.615 -11.179,2.289 -19.713,6.725 -19.061,9.906 l 2.129,10.76 20.396,16.956 c 1.869,0.796 6.53,-0.295 8.081,-1.654 l 12.016,-23.552 -2.138,-10.801 z"
   id="path167"
   style="fill:#d9e021" />
	<g
   id="g169">
		<path
   d="M 197.738,169.047"
   id="path171"
   style="fill:#d9e021" />
		<path
   d="M 202.562,191.46"
   id="path173"
   style="fill:#d9e021" />
		<path
   d="M 177.979,172.804"
   id="path175"
   style="fill:#d9e021" />
		<path
   d="m 169.839,40.23 c -0.15,-0.274 -0.368,-0.536 -0.437,-0.828 -0.619,-2.564 -1.22,-5.131 -1.81,-7.7 -0.655,-2.875 -1.292,-5.754 -1.934,-8.632 -0.852,-3.815 -1.712,-7.633 -2.557,-11.449 -0.341,-1.541 -0.675,-3.082 -0.967,-4.63 -0.45,-2.381 -1.642,-4.256 -3.898,-5.597 -2.053,-1.223 -6.16,-1.127 -8.102,0.239 -3.033,2.136 -3.941,4.872 -3.114,8.256 0.556,2.259 0.928,4.558 1.441,6.826 0.7,3.097 1.482,6.179 2.178,9.278 0.826,3.682 1.594,7.377 2.401,11.062 0.405,1.838 0.873,3.665 1.275,5.501 0.121,0.544 0.496,0.57 0.935,0.515 0.975,-0.126 1.947,-0.241 2.908,-0.412 3.787,-0.673 7.575,-1.356 11.354,-2.061 0.757,-0.142 0.956,0.101 0.773,0.733 -0.426,1.464 -0.786,2.947 -1.316,4.379 -0.436,1.188 -0.296,2.338 -0.063,3.495 0.354,1.737 0.793,3.46 1.18,5.192 0.523,2.332 1.014,4.671 1.549,7.002 0.523,2.283 1.104,4.556 1.629,6.838 0.647,2.815 1.28,5.633 1.894,8.456 0.526,2.438 0.98,4.892 1.533,7.329 1.332,5.885 2.714,11.759 4.056,17.643 1.427,6.244 2.815,12.494 4.245,18.736 0.607,2.644 1.031,5.312 1.372,7.997 0.372,2.931 0.877,5.848 1.313,8.774 0.45,3.03 0.896,6.064 1.334,9.098 0.412,2.842 0.821,5.682 1.214,8.525 0.462,3.366 0.835,6.748 1.38,10.105 0.406,2.528 1.016,5.035 1.547,7.551 0.227,1.077 0.517,2.15 0.685,3.237 0.034,0.229 -0.311,0.529 -0.524,0.765 -0.075,0.084 -0.284,0.065 -0.428,0.097 -2.396,0.462 -2.277,0.559 -2.815,-1.771 -0.634,-2.732 -1.154,-5.491 -1.829,-8.214 -0.396,-1.581 -1.041,-3.108 -1.516,-4.675 -0.557,-1.825 -1.039,-3.67 -1.581,-5.5 -0.48,-1.627 -0.996,-3.242 -1.493,-4.863 -0.519,-1.699 -1.021,-3.4 -1.556,-5.092 -0.544,-1.721 -1.147,-3.426 -1.676,-5.15 -0.53,-1.725 -0.988,-3.473 -1.499,-5.207 -0.295,-1.008 -0.633,-2.002 -0.941,-3.002 -0.58,-1.887 -1.199,-3.764 -1.715,-5.662 -0.46,-1.709 -0.783,-3.448 -1.197,-5.168 -0.629,-2.627 -1.311,-5.246 -1.917,-7.878 -0.325,-1.399 -0.501,-2.829 -0.813,-4.231 -0.328,-1.47 -0.765,-2.918 -1.108,-4.386 -0.301,-1.293 -0.52,-2.6 -0.813,-3.895 -0.354,-1.585 -0.756,-3.159 -1.12,-4.741 -0.15,-0.643 -0.248,-1.295 -0.388,-1.938 -0.371,-1.695 -0.748,-3.391 -1.137,-5.082 -0.4,-1.746 -0.846,-3.483 -1.222,-5.232 -0.567,-2.643 -1.063,-5.297 -1.644,-7.936 -0.54,-2.455 -1.178,-4.893 -1.724,-7.348 -0.737,-3.318 -1.412,-6.649 -2.15,-9.969 -0.431,-1.947 -0.929,-3.883 -1.391,-5.82 -0.31,-1.309 -0.482,-2.656 -0.953,-3.908 -0.34,-0.904 -0.996,-1.733 -1.642,-2.502 -0.912,-1.082 -1.95,-2.076 -2.924,-3.117 -0.126,-0.139 -0.222,-0.33 -0.261,-0.511 -0.61,-2.827 -1.187,-5.659 -1.813,-8.483 -1.034,-4.644 -2.104,-9.281 -3.148,-13.923 -0.603,-2.685 -1.196,-5.372 -1.775,-8.063 -0.39,-1.815 -0.981,-3.63 -1.06,-5.458 -0.101,-2.349 0.91,-4.369 2.926,-5.973 1.614,-1.285 3.472,-1.873 5.474,-1.854 2.305,0.021 4.293,0.776 6,2.465 1.874,1.853 2.179,4.118 2.749,6.342 0.686,2.681 1.225,5.396 1.812,8.098 0.579,2.647 1.114,5.302 1.71,7.947 0.83,3.677 1.699,7.345 2.55,11.021 0.288,1.24 0.57,2.483 0.841,3.728 0.038,0.17 -0.007,0.356 -0.013,0.536 -0.09,0.033 -0.184,0.064 -0.274,0.095 z m -10.674,9.108 c 0.252,0.9 0.479,1.581 0.627,2.277 0.296,1.37 0.522,2.753 0.825,4.122 0.397,1.811 0.849,3.609 1.254,5.418 0.409,1.834 0.777,3.676 1.187,5.514 0.348,1.557 0.744,3.105 1.092,4.664 0.415,1.854 0.773,3.717 1.204,5.57 0.485,2.1 1.055,4.185 1.527,6.288 0.437,1.956 0.753,3.935 1.196,5.888 0.594,2.61 1.273,5.203 1.874,7.813 0.532,2.309 1.006,4.631 1.509,6.947 0.135,0.617 0.315,1.227 0.442,1.846 0.193,0.945 0.339,1.901 0.542,2.846 0.328,1.53 0.684,3.058 1.035,4.588 0.345,1.503 0.688,3.01 1.043,4.514 0.3,1.263 0.638,2.519 0.915,3.785 0.315,1.455 0.495,2.94 0.89,4.377 0.753,2.752 1.617,5.479 2.433,8.219 0.168,0.569 0.294,1.151 0.476,1.717 0.591,1.814 1.232,3.619 1.793,5.441 0.547,1.777 0.991,3.582 1.534,5.361 0.665,2.174 1.409,4.325 2.076,6.498 0.832,2.707 1.636,5.42 2.422,8.138 0.872,3.011 1.747,6.021 2.551,9.049 0.48,1.798 0.858,3.625 1.226,5.451 0.141,0.706 0.536,0.748 1.146,0.599 0.64,-0.154 1.4,-0.222 1.262,-1.086 -0.157,-0.977 -0.416,-1.941 -0.624,-2.911 -0.491,-2.268 -1.089,-4.523 -1.45,-6.81 -0.889,-5.69 -1.676,-11.391 -2.495,-17.09 -0.563,-3.936 -1.106,-7.881 -1.673,-11.818 -0.27,-1.881 -0.602,-3.753 -0.869,-5.637 -0.133,-0.956 -0.108,-1.933 -0.286,-2.88 -0.561,-3.044 -1.144,-6.087 -1.785,-9.118 -0.513,-2.394 -1.162,-4.758 -1.695,-7.147 -0.63,-2.818 -1.162,-5.655 -1.799,-8.473 -1.376,-6.079 -2.808,-12.149 -4.187,-18.228 -0.557,-2.455 -1.011,-4.93 -1.557,-7.387 -0.431,-1.953 -0.961,-3.889 -1.397,-5.842 -0.623,-2.816 -1.179,-5.646 -1.806,-8.459 -0.557,-2.488 -1.189,-4.959 -1.764,-7.442 -0.58,-2.515 -1.154,-5.03 -1.671,-7.556 -0.142,-0.684 -0.512,-0.718 -1.075,-0.6 -0.695,0.146 -1.392,0.305 -2.09,0.439 -1.919,0.37 -3.833,0.732 -5.858,1.115 z m -4.05,-5.426 c 0.138,0.305 0.195,0.574 0.357,0.769 0.751,0.892 1.623,1.706 2.276,2.655 1.095,1.584 1.142,1.387 3.281,1.101 0.204,-0.027 0.401,-0.097 0.604,-0.134 1.865,-0.346 3.738,-0.664 5.595,-1.049 0.356,-0.076 0.846,-0.354 0.938,-0.635 0.506,-1.527 0.912,-3.08 1.333,-4.629 0.185,-0.67 -0.038,-0.867 -0.789,-0.729 -0.793,0.146 -1.577,0.328 -2.367,0.475 -3.455,0.635 -6.913,1.262 -10.369,1.898 -0.252,0.046 -0.491,0.157 -0.859,0.278 z"
   id="path177"
   style="fill-rule:evenodd" />
		<path
   d="m 180.525,133.761 c 0.943,-0.149 1.884,-0.299 2.824,-0.452 0.03,0.12 0.06,0.237 0.087,0.352 -0.93,0.202 -1.862,0.401 -2.793,0.601 -0.038,-0.168 -0.077,-0.334 -0.118,-0.501 z"
   id="path179"
   style="fill-rule:evenodd" />
		<path
   d="m 173.507,101.933 c 0.917,-0.179 1.836,-0.359 2.759,-0.521 0.052,-0.008 0.188,0.143 0.193,0.225 0.003,0.084 -0.092,0.242 -0.163,0.254 -0.905,0.139 -1.815,0.258 -2.727,0.379 -0.018,-0.112 -0.043,-0.227 -0.062,-0.337 z"
   id="path181"
   style="fill-rule:evenodd" />
		<path
   d="m 176.854,118.305 c 0.92,-0.175 1.838,-0.356 2.758,-0.518 0.052,-0.009 0.19,0.142 0.194,0.223 0.005,0.085 -0.093,0.243 -0.16,0.255 -0.908,0.137 -1.818,0.256 -2.727,0.379 -0.022,-0.113 -0.042,-0.225 -0.065,-0.339 z"
   id="path183"
   style="fill-rule:evenodd" />
		<path
   d="m 173.072,86.712 c -0.947,0.199 -1.896,0.398 -2.846,0.596 -0.031,-0.137 -0.063,-0.276 -0.098,-0.416 0.946,-0.17 1.893,-0.34 2.841,-0.512 0.035,0.112 0.07,0.221 0.103,0.332 z"
   id="path185"
   style="fill-rule:evenodd" />
		<path
   d="m 167.162,74.148 c 0.916,-0.18 1.835,-0.359 2.75,-0.539 0.024,0.1 0.052,0.197 0.075,0.295 -0.918,0.189 -1.836,0.379 -2.752,0.569 -0.024,-0.11 -0.049,-0.218 -0.073,-0.325 z"
   id="path187"
   style="fill-rule:evenodd" />
		<path
   d="m 164.105,58.783 c 0.857,-0.178 1.716,-0.355 2.571,-0.533 0.031,0.123 0.059,0.244 0.087,0.367 -0.856,0.173 -1.718,0.346 -2.573,0.519 -0.03,-0.117 -0.057,-0.234 -0.085,-0.353 z"
   id="path189"
   style="fill-rule:evenodd" />
		<path
   d="M 183.681,94.81"
   id="path191"
   style="fill:none;stroke:#507282;stroke-width:2.83470011;stroke-miterlimit:10" />
		<path
   d="M 204.403,191.046"
   id="path193"
   style="fill:none;stroke:#507282;stroke-width:2.83470011;stroke-miterlimit:10" />
		<path
   d="M 160.309,98.957"
   id="path195"
   style="fill:none;stroke:#507282;stroke-width:2.83470011;stroke-miterlimit:10" />
		<path
   d="M 170.431,90.273"
   id="path197"
   style="fill:none;stroke:#507282;stroke-width:2.83470011;stroke-miterlimit:10" />
		<path
   d="M 160.096,99.175"
   id="path199"
   style="fill:none;stroke:#507282;stroke-width:2.83470011;stroke-miterlimit:10" />
		<path
   d="M 159.137,94.742"
   id="path201"
   style="fill:none;stroke:#507282;stroke-width:2.83470011;stroke-miterlimit:10" />
	</g>
	<g
   id="g203">
		<path
   d="m 120.376,50.779 c -4.32,-3.686 -5.699,-3.554 -7.019,1.43 -1.045,3.946 -2.928,4.207 -6.444,3.324 -11.782,-2.963 -23.395,-1.615 -33.337,5.16 -5.802,3.954 -12.043,7.851 -16.542,13.632 -4.287,5.507 -4.343,5.463 0.373,11.542 5.59,-4.939 9.738,-11.494 16.696,-14.899 5.007,-2.451 9.833,-5.643 15.873,-3.926 4.422,-0.794 8.739,0.656 13.123,0.615 3.555,-0.033 4.804,1.395 3.35,4.813 -0.386,0.907 -0.582,1.895 -0.938,2.817 -0.937,2.425 -0.529,3.83 2.468,3.541 8.145,-0.788 15.789,1.229 23.253,4.223 0.354,-0.521 1.087,-1.107 1.009,-1.551 -1.646,-9.298 -4.968,-17.961 -10.83,-25.401 -1.493,-1.894 -1.651,-3.357 -1.035,-5.32 z"
   id="path205"
   style="fill:#828282;fill-rule:evenodd" />
		<path
   d="m 120.376,50.779 c -0.617,1.963 -0.458,3.426 1.034,5.321 5.862,7.439 9.185,16.103 10.83,25.401 0.078,0.443 -0.654,1.03 -1.009,1.551 1.024,0.526 2.003,1.188 3.082,1.552 2.564,0.863 3.268,-0.167 2.625,-2.666 -2.191,-8.523 -5.445,-16.611 -10.548,-23.786 -1.816,-2.555 -2.176,-6.441 -6.014,-7.373 z"
   id="path207"
   style="fill:#494949;fill-rule:evenodd" />
		<path
   d="m 89.976,67.042 c -6.04,-1.717 -10.866,1.475 -15.873,3.926 -6.958,3.405 -11.106,9.96 -16.696,14.899 2.936,1.517 5.035,1.251 7.351,-1.706 5.773,-7.374 13.145,-12.785 22.247,-15.519 1.141,-0.344 2.131,-0.785 2.971,-1.6 z"
   id="path209"
   style="fill:#494949;fill-rule:evenodd" />
	</g>
	<path
   d="m 146.975,74.849 23.92,116.796 22.879,18.844 c 2.08,0.886 7.356,-0.347 9.083,-1.86 l 13.421,-26.23 -23.999,-116.864"
   id="path211"
   style="fill:none;stroke:#507282;stroke-width:3;stroke-miterlimit:10" />
	<path
   d="M 168.156,61.649"
   id="path213"
   style="fill:none;stroke:#507282;stroke-width:3;stroke-miterlimit:10" />
	<path
   d="M 144.894,63.861"
   id="path215"
   style="fill:none;stroke:#507282;stroke-width:3;stroke-miterlimit:10" />
	<path
   d="M 143.788,58.463"
   id="path217"
   style="fill:none;stroke:#507282;stroke-width:3;stroke-miterlimit:10" />
	
		<ellipse
   cx="166.23199"
   cy="53.169998"
   rx="23.049999"
   ry="6.5599999"
   transform="matrix(0.9797,-0.2006,0.2006,0.9797,-7.2875,34.4326)"
   id="ellipse219"
   style="fill:none;stroke:#507282;stroke-width:3;stroke-miterlimit:10" />
	<path
   d="m 145.768,68.957 0.354,1.73 -0.635,0.646 0.386,1.889 c 0.762,3.716 11.885,4.407 24.804,1.762 l 0.021,-0.005 0.113,-0.023 C 183.73,72.31 193.77,67.285 193.01,63.569 l -0.388,-1.889 -0.837,-0.344 -0.355,-1.73"
   id="path221"
   style="fill:none;stroke:#507282;stroke-width:3;stroke-miterlimit:10" />
	<path
   d="m 144.712,63.801 0.23,1.128 -0.636,0.646 0.388,1.89 c 0.761,3.716 11.856,4.272 24.775,1.626 l 0.021,-0.004 0.113,-0.023 c 12.919,-2.646 22.987,-7.537 22.227,-11.252 l -0.387,-1.89 -0.839,-0.344 -0.23,-1.128"
   id="path223"
   style="fill:none;stroke:#507282;stroke-width:3;stroke-miterlimit:10" />
	<path
   d="m 143.505,57.909 0.258,1.262 -0.635,0.646 0.387,1.89 c 0.762,3.715 11.98,4.874 24.899,2.229 l 0.021,-0.004 0.113,-0.023 c 12.919,-2.646 22.864,-8.139 22.104,-11.855 l -0.388,-1.89 -0.838,-0.344 -0.259,-1.262"
   id="path225"
   style="fill:none;stroke:#507282;stroke-width:3;stroke-miterlimit:10" />
	<g
   id="g227">
		<path
   d="m 181.395,82.482 c -2.626,0.927 -5.554,1.742 -8.672,2.38 -3.117,0.639 -6.13,1.041 -8.908,1.22"
   id="path229"
   style="fill:none;stroke:#507282;stroke-width:3;stroke-miterlimit:10" />
		<path
   d="m 202.361,184.859 c -2.625,0.928 -5.553,1.742 -8.671,2.382 -3.117,0.638 -6.13,1.04 -8.908,1.219"
   id="path231"
   style="fill:none;stroke:#507282;stroke-width:3;stroke-miterlimit:10" />
		<path
   d="m 188.484,117.105 c -2.624,0.928 -5.553,1.741 -8.67,2.38 -3.117,0.639 -6.131,1.041 -8.909,1.22"
   id="path233"
   style="fill:none;stroke:#507282;stroke-width:3;stroke-miterlimit:10" />
		<path
   d="m 190.814,128.48 c -2.625,0.927 -5.553,1.742 -8.671,2.381 -3.117,0.639 -6.13,1.04 -8.908,1.22"
   id="path235"
   style="fill:none;stroke:#507282;stroke-width:3;stroke-miterlimit:10" />
		<path
   d="m 193.145,139.855 c -2.625,0.927 -5.554,1.742 -8.671,2.381 -3.118,0.639 -6.131,1.04 -8.908,1.22"
   id="path237"
   style="fill:none;stroke:#507282;stroke-width:3;stroke-miterlimit:10" />
		<path
   d="m 195.475,151.231 c -2.625,0.928 -5.554,1.742 -8.672,2.38 -3.117,0.639 -6.13,1.041 -8.908,1.221"
   id="path239"
   style="fill:none;stroke:#507282;stroke-width:3;stroke-miterlimit:10" />
		<path
   d="m 197.804,162.606 c -2.625,0.927 -5.554,1.742 -8.672,2.381 -3.116,0.638 -6.129,1.04 -8.907,1.22"
   id="path241"
   style="fill:none;stroke:#507282;stroke-width:3;stroke-miterlimit:10" />
		<path
   d="m 200.074,173.691 c -2.625,0.928 -5.553,1.742 -8.671,2.38 -3.117,0.639 -6.131,1.041 -8.909,1.221"
   id="path243"
   style="fill:none;stroke:#507282;stroke-width:3;stroke-miterlimit:10" />
		<path
   d="m 183.825,94.354 c -2.625,0.928 -5.553,1.742 -8.671,2.381 -3.117,0.639 -6.13,1.04 -8.908,1.22"
   id="path245"
   style="fill:none;stroke:#507282;stroke-width:3;stroke-miterlimit:10" />
		<path
   d="m 186.155,105.73 c -2.625,0.926 -5.554,1.742 -8.672,2.381 -3.116,0.638 -6.129,1.039 -8.907,1.219"
   id="path247"
   style="fill:none;stroke:#507282;stroke-width:3;stroke-miterlimit:10" />
	</g>
	<g
   id="g249">
		<path
   d="m 271.634,50.328 c -4.32,-3.686 -5.699,-3.554 -7.02,1.43 -1.045,3.947 -2.928,4.207 -6.444,3.324 -11.782,-2.963 -23.396,-1.615 -33.337,5.16 -5.803,3.953 -12.043,7.85 -16.543,13.632 -4.286,5.507 -4.343,5.464 0.373,11.542 5.591,-4.938 9.738,-11.493 16.697,-14.898 5.007,-2.451 9.833,-5.643 15.873,-3.926 4.422,-0.794 8.738,0.656 13.122,0.615 3.556,-0.033 4.804,1.395 3.35,4.813 -0.386,0.907 -0.582,1.895 -0.938,2.817 -0.936,2.425 -0.529,3.83 2.469,3.541 8.145,-0.788 15.789,1.229 23.254,4.223 0.354,-0.521 1.086,-1.107 1.008,-1.551 -1.645,-9.298 -4.968,-17.961 -10.83,-25.4 -1.493,-1.896 -1.651,-3.358 -1.034,-5.322 z"
   id="path251"
   style="fill:#828282;fill-rule:evenodd" />
		<path
   d="m 271.634,50.328 c -0.617,1.964 -0.459,3.426 1.033,5.322 5.862,7.439 9.186,16.103 10.83,25.4 0.078,0.443 -0.654,1.03 -1.008,1.551 1.023,0.525 2.002,1.188 3.082,1.552 2.564,0.862 3.268,-0.167 2.625,-2.666 -2.191,-8.523 -5.445,-16.611 -10.549,-23.786 -1.816,-2.555 -2.175,-6.44 -6.013,-7.373 z"
   id="path253"
   style="fill:#494949;fill-rule:evenodd" />
		<path
   d="m 241.233,66.592 c -6.04,-1.717 -10.866,1.475 -15.873,3.926 -6.959,3.405 -11.106,9.96 -16.697,14.898 2.937,1.518 5.035,1.252 7.352,-1.705 5.773,-7.374 13.145,-12.785 22.246,-15.52 1.141,-0.343 2.133,-0.784 2.972,-1.599 z"
   id="path255"
   style="fill:#494949;fill-rule:evenodd" />
	</g>
	<path
   d="M 131.894,236.811"
   id="path257"
   style="fill:#ffffff" />
	<g
   id="g259">
		<polyline
   fill="#D9E021"
   points="259.03,167.464 260.146,168.325 283.602,168.632 283.264,167.504   "
   id="polyline261"
   style="fill:#d9e021" />
		<path
   d="m 283.515,159.158 h -23.439 l -4.719,3.835 c -0.263,0.382 -0.233,1.501 0,1.91 l 4.71,3.773 23.522,-0.028"
   id="path263"
   style="fill:none;stroke:#507282;stroke-miterlimit:10" />
		<path
   d="M 286.118,163.991"
   id="path265"
   style="fill:none;stroke:#507282;stroke-width:0.7087;stroke-miterlimit:10" />
		
			<ellipse
   cx="287.896"
   cy="163.99001"
   rx="1.605"
   ry="5.6409998"
   id="ellipse267"
   style="fill:none;stroke:#507282;stroke-width:0.7087;stroke-miterlimit:10" />
		<path
   d="M 266.121,159.12"
   id="path269"
   style="fill:none;stroke:#507282;stroke-width:0.7087;stroke-miterlimit:10" />
		<path
   d="m 287.7,170.046 -3.281,-0.222 c -0.887,0 -1.561,-2.21 -1.561,-5.326 0,-3.115 0.767,-5.341 1.653,-5.341 h 3.003"
   id="path271"
   style="fill:none;stroke:#507282;stroke-miterlimit:10" />
		<g
   id="g273">
			<path
   d="m 281.543,165.828 c -0.077,-0.564 -0.12,-1.186 -0.12,-1.837 0,-0.652 0.043,-1.273 0.12,-1.837"
   id="path275"
   style="fill:none;stroke:#507282;stroke-width:0.7087;stroke-miterlimit:10" />
			<path
   d="m 260.146,165.828 c -0.079,-0.564 -0.122,-1.186 -0.122,-1.837 0,-0.652 0.043,-1.273 0.122,-1.837"
   id="path277"
   style="fill:none;stroke:#507282;stroke-width:0.7087;stroke-miterlimit:10" />
			<path
   d="m 274.307,165.828 c -0.078,-0.564 -0.12,-1.186 -0.12,-1.837 0,-0.652 0.042,-1.273 0.12,-1.837"
   id="path279"
   style="fill:none;stroke:#507282;stroke-width:0.7087;stroke-miterlimit:10" />
			<path
   d="m 271.929,165.828 c -0.077,-0.564 -0.12,-1.186 -0.12,-1.837 0,-0.652 0.043,-1.273 0.12,-1.837"
   id="path281"
   style="fill:none;stroke:#507282;stroke-width:0.7087;stroke-miterlimit:10" />
			<path
   d="m 269.551,165.828 c -0.077,-0.564 -0.12,-1.186 -0.12,-1.837 0,-0.652 0.043,-1.273 0.12,-1.837"
   id="path283"
   style="fill:none;stroke:#507282;stroke-width:0.7087;stroke-miterlimit:10" />
			<path
   d="m 267.175,165.828 c -0.079,-0.564 -0.122,-1.186 -0.122,-1.837 0,-0.652 0.043,-1.273 0.122,-1.837"
   id="path285"
   style="fill:none;stroke:#507282;stroke-width:0.7087;stroke-miterlimit:10" />
			<path
   d="m 264.796,165.828 c -0.077,-0.564 -0.121,-1.186 -0.121,-1.837 0,-0.652 0.044,-1.273 0.121,-1.837"
   id="path287"
   style="fill:none;stroke:#507282;stroke-width:0.7087;stroke-miterlimit:10" />
			<path
   d="m 262.479,165.828 c -0.078,-0.564 -0.121,-1.186 -0.121,-1.837 0,-0.652 0.043,-1.273 0.121,-1.837"
   id="path289"
   style="fill:none;stroke:#507282;stroke-width:0.7087;stroke-miterlimit:10" />
			<path
   d="m 279.063,165.828 c -0.077,-0.564 -0.121,-1.186 -0.121,-1.837 0,-0.652 0.044,-1.273 0.121,-1.837"
   id="path291"
   style="fill:none;stroke:#507282;stroke-width:0.7087;stroke-miterlimit:10" />
			<path
   d="m 276.685,165.828 c -0.078,-0.564 -0.121,-1.186 -0.121,-1.837 0,-0.652 0.043,-1.273 0.121,-1.837"
   id="path293"
   style="fill:none;stroke:#507282;stroke-width:0.7087;stroke-miterlimit:10" />
		</g>
	</g>
</g>
</svg>