<?xml version="1.0" encoding="UTF-8" standalone="no"?>
<!-- Created with Inkscape (http://www.inkscape.org/) -->

<svg
   xmlns:dc="http://purl.org/dc/elements/1.1/"
   xmlns:cc="http://creativecommons.org/ns#"
   xmlns:rdf="http://www.w3.org/1999/02/22-rdf-syntax-ns#"
   xmlns:svg="http://www.w3.org/2000/svg"
   xmlns="http://www.w3.org/2000/svg"
   version="1.1"
   width="100"
   height="300"
   viewBox="0 0 100 300"
   id="svg2"
   xml:space="preserve"><metadata
   id="metadata112"><rdf:RDF><cc:Work
       rdf:about=""><dc:format>image/svg+xml</dc:format><dc:type
         rdf:resource="http://purl.org/dc/dcmitype/StillImage" /><dc:title></dc:title></cc:Work></rdf:RDF></metadata><defs
   id="defs110" />
<g
   transform="translate(-84.745763,-43.220339)"
   id="Layer_1">
	<polyline
   clip-rule="evenodd"
   points="115.58,247.131 139.93,252.793 128.608,301.494    104.385,295.287  "
   id="polyline5"
   style="fill:#f9ed12;fill-rule:evenodd" />
	
		<ellipse
   cx="127.656"
   cy="250.19701"
   rx="12.41"
   ry="1.749"
   transform="matrix(0.974,0.2264,-0.2264,0.974,59.9667,-22.4068)"
   id="ellipse7"
   style="fill:#fff685;fill-rule:evenodd" />
	<g
   id="g9">
		<path
   d="m 164.186,120.97 c -0.011,-0.301 -0.083,-0.616 -0.021,-0.901 0.542,-2.513 1.101,-5.022 1.67,-7.529 0.641,-2.803 1.297,-5.603 1.949,-8.403 0.862,-3.713 1.721,-7.43 2.591,-11.143 0.351,-1.499 0.709,-2.995 1.103,-4.481 0.607,-2.287 0.396,-4.405 -0.913,-6.455 -1.191,-1.867 -4.615,-3.346 -6.774,-2.871 -3.375,0.742 -5.246,2.827 -5.953,6.148 -0.47,2.218 -1.106,4.402 -1.614,6.611 -0.695,3.017 -1.315,6.053 -2.014,9.07 -0.83,3.585 -1.715,7.159 -2.561,10.74 -0.421,1.787 -0.786,3.587 -1.208,5.373 -0.123,0.528 0.174,0.695 0.56,0.812 0.853,0.259 1.702,0.527 2.565,0.741 3.396,0.844 6.796,1.679 10.199,2.491 0.681,0.163 0.745,0.454 0.334,0.946 -0.951,1.139 -1.857,2.319 -2.879,3.39 -0.847,0.888 -1.204,1.962 -1.486,3.08 -0.422,1.678 -0.767,3.376 -1.158,5.061 -0.527,2.271 -1.083,4.535 -1.598,6.809 -0.506,2.228 -0.961,4.467 -1.464,6.694 -0.621,2.748 -1.257,5.491 -1.91,8.231 -0.567,2.367 -1.2,4.72 -1.744,7.094 -1.317,5.734 -2.59,11.479 -3.899,17.216 -1.388,6.088 -2.809,12.168 -4.191,18.257 -0.585,2.581 -1.331,5.111 -2.151,7.626 -0.897,2.745 -1.678,5.529 -2.519,8.295 -0.873,2.864 -1.751,5.727 -2.634,8.588 -0.827,2.682 -1.656,5.36 -2.5,8.034 -1,3.167 -2.081,6.312 -3.01,9.5 -0.702,2.403 -1.229,4.861 -1.824,7.297 -0.255,1.044 -0.456,2.108 -0.764,3.137 -0.066,0.217 -0.475,0.353 -0.746,0.478 -0.097,0.047 -0.26,-0.047 -0.392,-0.076 -2.164,-0.501 -2.106,-0.372 -1.593,-2.645 0.6,-2.668 1.302,-5.315 1.863,-7.993 0.323,-1.554 0.42,-3.155 0.671,-4.728 0.291,-1.834 0.649,-3.657 0.955,-5.489 0.271,-1.627 0.509,-3.258 0.766,-4.887 0.269,-1.706 0.555,-3.409 0.808,-5.115 0.258,-1.735 0.46,-3.479 0.733,-5.211 0.271,-1.736 0.61,-3.462 0.902,-5.195 0.17,-1.008 0.298,-2.02 0.456,-3.028 0.296,-1.896 0.556,-3.799 0.912,-5.682 0.322,-1.692 0.768,-3.359 1.133,-5.043 0.56,-2.575 1.073,-5.161 1.653,-7.729 0.307,-1.367 0.749,-2.703 1.066,-4.067 0.333,-1.43 0.568,-2.884 0.888,-4.318 0.283,-1.262 0.637,-2.507 0.928,-3.768 0.358,-1.543 0.674,-3.094 1.022,-4.638 0.141,-0.628 0.328,-1.244 0.475,-1.869 0.391,-1.647 0.777,-3.296 1.151,-4.947 0.386,-1.702 0.732,-3.415 1.14,-5.113 0.617,-2.562 1.298,-5.108 1.902,-7.673 0.563,-2.387 1.039,-4.794 1.596,-7.183 0.754,-3.229 1.565,-6.444 2.32,-9.672 0.445,-1.895 0.827,-3.802 1.244,-5.7 0.281,-1.279 0.69,-2.542 0.817,-3.833 0.091,-0.933 -0.109,-1.919 -0.326,-2.847 -0.306,-1.309 -0.754,-2.587 -1.129,-3.882 -0.048,-0.172 -0.047,-0.378 -0.005,-0.553 0.657,-2.743 1.345,-5.479 1.988,-8.225 1.054,-4.518 2.076,-9.045 3.121,-13.565 0.605,-2.615 1.219,-5.228 1.846,-7.838 0.423,-1.761 0.68,-3.597 1.367,-5.252 0.881,-2.124 2.542,-3.534 4.86,-4.191 1.857,-0.527 3.629,-0.343 5.27,0.436 1.89,0.896 3.218,2.324 3.931,4.475 0.784,2.358 0.107,4.487 -0.337,6.679 -0.535,2.643 -1.205,5.259 -1.83,7.883 -0.61,2.572 -1.259,5.134 -1.852,7.709 -0.826,3.582 -1.615,7.171 -2.423,10.759 -0.273,1.211 -0.549,2.423 -0.836,3.632 -0.04,0.166 -0.152,0.313 -0.231,0.471 -0.09,-0.011 -0.179,-0.018 -0.266,-0.025 z m -12.53,4.028 c -0.163,0.896 -0.257,1.586 -0.419,2.261 -0.319,1.329 -0.699,2.644 -1.012,3.975 -0.415,1.759 -0.781,3.53 -1.19,5.29 -0.415,1.785 -0.868,3.562 -1.284,5.349 -0.353,1.516 -0.662,3.042 -1.014,4.558 -0.419,1.805 -0.889,3.597 -1.294,5.406 -0.462,2.051 -0.849,4.119 -1.323,6.167 -0.441,1.904 -0.993,3.781 -1.43,5.685 -0.583,2.544 -1.086,5.107 -1.662,7.652 -0.509,2.254 -1.073,4.497 -1.608,6.747 -0.143,0.6 -0.245,1.209 -0.395,1.807 -0.227,0.914 -0.5,1.818 -0.719,2.734 -0.357,1.485 -0.692,2.977 -1.031,4.468 -0.333,1.468 -0.668,2.937 -0.993,4.407 -0.271,1.236 -0.507,2.48 -0.799,3.711 -0.337,1.413 -0.799,2.801 -1.063,4.226 -0.509,2.731 -0.915,5.482 -1.369,8.226 -0.095,0.571 -0.231,1.135 -0.312,1.708 -0.259,1.836 -0.472,3.683 -0.757,5.516 -0.278,1.786 -0.652,3.558 -0.934,5.345 -0.345,2.184 -0.615,4.378 -0.958,6.562 -0.426,2.72 -0.877,5.437 -1.343,8.15 -0.518,3.007 -1.034,6.014 -1.613,9.008 -0.343,1.782 -0.78,3.548 -1.229,5.308 -0.172,0.682 0.136,0.87 0.699,0.969 0.591,0.105 1.246,0.336 1.485,-0.483 0.272,-0.928 0.456,-1.884 0.681,-2.825 0.526,-2.202 0.959,-4.432 1.601,-6.599 1.601,-5.393 3.293,-10.757 4.957,-16.131 1.151,-3.712 2.322,-7.419 3.471,-11.133 0.549,-1.774 1.045,-3.564 1.598,-5.337 0.283,-0.901 0.703,-1.76 0.947,-2.669 0.786,-2.918 1.555,-5.841 2.269,-8.778 0.561,-2.321 0.997,-4.668 1.538,-6.994 0.639,-2.743 1.364,-5.465 1.995,-8.21 1.361,-5.923 2.673,-11.86 4.031,-17.784 0.549,-2.393 1.19,-4.762 1.749,-7.152 0.446,-1.9 0.804,-3.821 1.247,-5.722 0.641,-2.738 1.346,-5.463 1.982,-8.202 0.563,-2.421 1.056,-4.857 1.603,-7.281 0.555,-2.455 1.112,-4.908 1.724,-7.348 0.164,-0.66 -0.128,-0.833 -0.64,-0.941 -0.633,-0.136 -1.272,-0.26 -1.903,-0.405 -1.733,-0.404 -3.459,-0.812 -5.283,-1.241 z m -1.111,-6.363 c -0.012,0.323 -0.075,0.585 -0.021,0.819 0.252,1.078 0.637,2.134 0.786,3.224 0.251,1.825 0.371,1.667 2.25,2.227 0.18,0.054 0.371,0.067 0.553,0.111 1.679,0.403 3.352,0.833 5.039,1.197 0.324,0.068 0.843,0.007 1.034,-0.206 1.043,-1.165 2.015,-2.389 2.999,-3.605 0.425,-0.525 0.324,-0.784 -0.353,-0.947 -0.712,-0.172 -1.433,-0.309 -2.144,-0.479 -3.108,-0.751 -6.213,-1.51 -9.32,-2.26 -0.228,-0.055 -0.47,-0.048 -0.823,-0.081 z"
   id="path11"
   style="fill-rule:evenodd" />
		<path
   d="m 134.608,208.118 c 0.837,0.225 1.674,0.45 2.511,0.674 -0.024,0.116 -0.048,0.231 -0.072,0.346 -0.85,-0.177 -1.698,-0.354 -2.547,-0.532 0.037,-0.162 0.074,-0.325 0.108,-0.488 z"
   id="path13"
   style="fill-rule:evenodd" />
		<path
   d="m 141.887,177.173 c 0.83,0.191 1.661,0.38 2.487,0.587 0.046,0.012 0.096,0.198 0.067,0.272 -0.031,0.076 -0.174,0.181 -0.238,0.164 -0.803,-0.222 -1.601,-0.462 -2.401,-0.7 0.03,-0.106 0.057,-0.216 0.085,-0.323 z"
   id="path15"
   style="fill-rule:evenodd" />
		<path
   d="m 137.926,192.991 c 0.83,0.194 1.661,0.383 2.486,0.589 0.045,0.013 0.098,0.197 0.067,0.272 -0.031,0.078 -0.175,0.182 -0.236,0.165 -0.805,-0.223 -1.603,-0.465 -2.402,-0.7 0.028,-0.109 0.056,-0.216 0.085,-0.326 z"
   id="path17"
   style="fill-rule:evenodd" />
		<path
   d="m 147.775,163.489 c -0.862,-0.184 -1.726,-0.368 -2.589,-0.554 0.03,-0.134 0.061,-0.271 0.09,-0.407 0.851,0.208 1.7,0.417 2.551,0.625 -0.017,0.113 -0.034,0.224 -0.052,0.336 z"
   id="path19"
   style="fill-rule:evenodd" />
		<path
   d="m 148.063,150.078 c 0.829,0.19 1.659,0.38 2.487,0.569 -0.02,0.096 -0.04,0.193 -0.06,0.29 -0.833,-0.182 -1.667,-0.362 -2.501,-0.542 0.025,-0.107 0.048,-0.212 0.074,-0.317 z"
   id="path21"
   style="fill-rule:evenodd" />
		<path
   d="m 151.85,135.267 c 0.779,0.168 1.56,0.336 2.337,0.504 -0.026,0.121 -0.052,0.24 -0.08,0.359 -0.776,-0.172 -1.556,-0.346 -2.333,-0.519 0.023,-0.113 0.05,-0.229 0.076,-0.344 z"
   id="path23"
   style="fill-rule:evenodd" />
	</g>
	<path
   d="m 105.253,291.624 c 8.148,2.124 15.94,4.153 23.913,6.232 -0.479,1.843 -0.927,3.559 -1.399,5.37 -5.888,6.145 -12.279,7.772 -17.867,3.66 -3.562,-2.618 -6.921,-6.92 -4.647,-15.262 z"
   id="path25"
   style="fill:#f9ed12;fill-rule:evenodd" />
	<g
   id="g27">
		<path
   d="m 112.275,189.222 c -3.801,-6.801 -7.513,-13.446 -11.309,-20.239 0.023,-1.209 0.051,-2.606 0.08,-4.084 7.134,-3.986 14.2,-7.935 21.34,-11.924 1.773,0.898 3.03,2.419 4.051,4.303 3.309,6.104 6.744,12.14 10.202,18.331 -8.106,4.528 -16.04,8.962 -24.364,13.613 z"
   id="path29"
   style="fill:#6b6b6b;fill-rule:evenodd" />
		<path
   d="m 116.433,182.489 c -1.016,0.567 -2.029,1.134 -3.34,1.866 -2.958,-4.692 -5.634,-9.557 -8.109,-14.537 -0.059,-0.117 0.349,-0.466 0.539,-0.706 0.645,-1.32 1.623,-1.949 3.12,-1.521 3.854,4.305 7.149,8.908 7.79,14.898 z"
   id="path31"
   style="fill:#dd9500;fill-rule:evenodd" />
		<path
   d="m 121.669,179.562 c -1.163,0.651 -2.327,1.301 -3.492,1.951 -4.32,-4.055 -6.592,-9.304 -8.581,-14.722 0.726,-1.775 2.068,-2.504 3.944,-2.331 4.267,4.193 7.375,9.015 8.129,15.102 z"
   id="path33"
   style="fill:#dd9500;fill-rule:evenodd" />
		<path
   d="m 126.907,176.636 c -1.164,0.651 -2.327,1.301 -3.491,1.951 -4.321,-4.055 -6.593,-9.304 -8.581,-14.723 0.725,-1.774 2.067,-2.503 3.943,-2.331 4.267,4.194 7.374,9.016 8.129,15.103 z"
   id="path35"
   style="fill:#dd9500;fill-rule:evenodd" />
		<path
   d="m 123.854,158.872 c 2.712,4.856 5.425,9.711 8.291,14.838 -1.27,0.709 -2.38,1.33 -3.492,1.952 -4.321,-3.988 -6.459,-9.265 -8.585,-14.55 0.584,-1.891 1.95,-2.465 3.786,-2.24 z"
   id="path37"
   style="fill:#dd9500;fill-rule:evenodd" />
		<path
   d="m 104.933,166.006 c 5.528,-3.088 11.056,-6.177 16.585,-9.265 0.929,0.497 1.418,1.167 0.868,2.239 -5.198,3.219 -10.51,6.236 -15.998,8.94 -1.205,-0.091 -1.516,-0.861 -1.455,-1.914 z"
   id="path39"
   style="fill:#dd9500;fill-rule:evenodd" />
		<path
   d="m 109.887,166.674 c 2.765,4.946 5.527,9.893 8.291,14.838 -0.582,0.326 -1.164,0.651 -1.744,0.976 -2.764,-4.947 -5.528,-9.893 -8.292,-14.839 0.307,-0.816 0.889,-1.141 1.745,-0.975 z"
   id="path41"
   style="fill:#9d7a2f;fill-rule:evenodd" />
		<path
   d="m 115.125,163.748 c 2.763,4.946 5.527,9.893 8.292,14.839 -0.582,0.325 -1.165,0.65 -1.747,0.975 -2.763,-4.946 -5.527,-9.892 -8.291,-14.838 0.307,-0.816 0.89,-1.142 1.746,-0.976 z"
   id="path43"
   style="fill:#9d7a2f;fill-rule:evenodd" />
		<path
   d="m 120.362,160.822 c 2.763,4.946 5.527,9.892 8.29,14.839 -0.582,0.325 -1.164,0.65 -1.746,0.975 -2.763,-4.946 -5.527,-9.893 -8.291,-14.839 0.308,-0.816 0.89,-1.14 1.747,-0.975 z"
   id="path45"
   style="fill:#9d7a2f;fill-rule:evenodd" />
		<path
   d="m 120.362,160.822 c -0.582,0.325 -1.165,0.65 -1.746,0.975 -1.164,0.651 -2.329,1.301 -3.492,1.951 -0.582,0.325 -1.164,0.65 -1.746,0.976 -1.164,0.65 -2.327,1.301 -3.492,1.951 -0.582,0.325 -1.163,0.65 -1.746,0.976 -0.872,0.487 -1.746,0.976 -2.619,1.463 -0.162,-0.292 -0.324,-0.582 -0.487,-0.873 0.056,-0.584 0.347,-0.746 0.874,-0.487 5.527,-3.089 11.056,-6.178 16.583,-9.267 0.055,-0.587 0.346,-0.75 0.874,-0.487 0.163,0.291 0.324,0.582 0.488,0.873 -1.164,0.649 -2.327,1.298 -3.491,1.949 z"
   id="path47"
   style="fill:#89703d;fill-rule:evenodd" />
		<path
   d="m 105.909,167.752 c -0.292,0.163 -0.583,0.324 -0.874,0.487 -0.238,-0.735 -1.366,-1.429 -0.102,-2.233 0.325,0.582 0.65,1.164 0.976,1.746 z"
   id="path49"
   style="fill:#bd8717;fill-rule:evenodd" />
		<path
   d="m 123.366,157.999 c -0.291,0.163 -0.582,0.324 -0.874,0.487 -0.325,-0.581 -0.65,-1.164 -0.975,-1.745 1.348,-0.656 1.348,0.669 1.849,1.258 z"
   id="path51"
   style="fill:#bd8717;fill-rule:evenodd" />
	</g>
	<g
   id="g53">
		<path
   d="m 152.181,199.737 c -7.243,-1.709 -14.493,-3.42 -22.342,-5.273 0.296,4.303 -3.423,7.247 -2.425,11.323 0.063,0.256 -0.115,0.754 -0.326,0.866 -1.805,0.951 -1.284,2.89 -1.925,4.326 -0.113,0.253 -0.452,0.408 -0.868,0.763 -0.625,-0.147 -1.384,-0.327 -2.25,-0.531 -4.71,19.957 -9.254,39.755 -14.103,59.479 -1.875,7.633 -3.083,15.406 -6.154,22.808 -2.255,5.433 -2.912,11.529 -4.303,17.427 2.99,0.706 5.7,1.345 8.39,1.98 1.621,-1.361 3.208,-2.696 4.49,-3.771 2.471,0.582 4.535,1.07 6.355,1.499 0.967,2.113 1.813,3.963 2.462,5.382 3.143,0.741 5.703,1.345 8.25,1.946 7.894,-33.446 15.756,-66.76 23.659,-100.244 -0.994,-0.233 -1.757,-0.414 -2.776,-0.654 1.453,-3.955 1.07,-8.272 3.351,-11.007 0.204,-2.502 0.355,-4.362 0.515,-6.319 z m -25.524,104.397 c -4.643,3.716 -10.069,4.497 -15.237,1.613 -3.294,-1.836 -6.543,-4.749 -5.208,-10.031 7.241,1.709 14.165,3.342 21.248,5.016 -0.275,1.166 -0.532,2.254 -0.803,3.402 z m 2.51,-6.279 c -7.694,-1.815 -15.261,-3.601 -23.013,-5.431 1.282,-5.431 2.56,-10.845 3.877,-16.429 1.854,0.438 3.59,0.847 5.655,1.335 0.944,-4.005 1.852,-7.849 2.759,-11.691 1.971,-1.233 3.792,0.232 5.373,0.211 -1.464,-0.566 -3.68,-0.225 -4.914,-2.158 2.297,-9.732 4.593,-19.463 6.89,-29.194 1.971,-1.234 3.792,0.233 5.374,0.211 -1.464,-0.565 -3.681,-0.226 -4.915,-2.158 0.519,-2.196 1.087,-4.384 1.512,-6.599 0.08,-0.415 -0.416,-0.941 -0.647,-1.415 -0.392,0.19 -0.768,0.311 -1.135,0.393 0.308,0.166 0.611,0.354 0.906,0.58 -3.959,16.78 -7.92,33.56 -11.911,50.471 -1.947,-0.458 -3.682,-0.868 -5.839,-1.377 0.312,-1.321 0.643,-2.722 0.973,-4.124 3.434,-14.548 6.846,-29.098 10.347,-43.629 0.214,-0.889 -0.407,-2.598 1.564,-2.488 0.363,-0.072 0.717,-0.105 1.066,-0.115 -0.291,-0.237 -0.571,-0.513 -0.836,-0.858 0.649,-2.753 1.299,-5.506 2.032,-8.609 7.75,1.472 15.361,3.596 23.239,5.288 -6.144,26.032 -12.238,51.86 -18.357,77.786 z m 0.166,-86.321 c 2.904,0.305 5.743,-0.813 8.615,0.032 2.518,0.74 5.308,0.551 8.337,0.801 -0.206,1.157 -0.366,2.041 -0.545,3.038 -5.638,-1.33 -11.023,-2.6 -16.407,-3.871 z m 17.857,-2.222 c -5.747,0.876 -11.184,-1.575 -16.676,-1.113 -0.612,-2.43 0.462,-3.321 1.623,-3.793 5.242,0.714 10.218,1.394 15.546,2.118 -0.186,1.057 -0.322,1.824 -0.493,2.788 z m 1.458,-5.773 c -5.68,-0.623 -11.258,-1.233 -16.987,-1.861 0.224,-0.949 0.479,-2.03 0.833,-3.53 5.442,1.284 10.715,2.528 16.109,3.801 0.014,0.447 0.025,0.906 0.045,1.59 z"
   id="path55"
   style="fill:#6b6b6b;fill-rule:evenodd" />
		<path
   d="m 125.983,224.93 c -0.904,-0.487 -1.868,-0.715 -2.894,-0.683 0.854,0.695 1.819,0.921 2.894,0.683 z"
   id="path57"
   style="fill:#6b6b6b;fill-rule:evenodd" />
	</g>
	<path
   d="m 107.866,307.613 c -1.3,0.585 -2.479,1.116 -4.038,1.817 -0.377,-0.09 -1.338,-0.317 -2.527,-0.596 0.587,-2.489 1.175,-4.978 1.833,-7.767 1.499,2.075 2.912,4.028 4.732,6.546 z"
   id="path59"
   style="fill:#e2e2e2;fill-rule:evenodd" />
	<path
   d="m 120.857,313.283 c -0.189,-0.97 -0.337,-1.725 -0.533,-2.723 1.795,-0.701 3.791,-1.481 6.293,-2.458 -0.553,2.346 -0.983,4.172 -1.462,6.196 -1.254,-0.296 -2.675,-0.63 -4.298,-1.015 z"
   id="path61"
   style="fill:#e2e2e2;fill-rule:evenodd" />
	<path
   d="m 126.254,232.552 c 2.868,0.677 5.734,1.353 8.674,2.047 -0.178,0.754 -0.282,1.191 -0.46,1.947 -2.939,-0.694 -5.805,-1.371 -8.673,-2.047 0.153,-0.649 0.306,-1.299 0.459,-1.947 z"
   id="path63"
   style="fill:#b2b2b2;fill-rule:evenodd" />
	<path
   d="m 126.889,225.51 c -1.622,-0.382 -3.244,-0.765 -4.866,-1.147 0.077,-0.325 0.153,-0.649 0.23,-0.974 1.622,0.383 3.244,0.766 4.865,1.149 -0.076,0.323 -0.153,0.648 -0.229,0.972 z"
   id="path65"
   style="fill:#6b6b6b;fill-rule:evenodd" />
	<g
   id="g67">
		<path
   d="m 124.103,267.751 c -0.089,1.103 -0.177,2.205 -0.267,3.308 -0.119,1.258 -0.238,2.513 -0.356,3.769 -0.109,0.081 -0.124,0.184 -0.073,0.304 -0.094,0.414 -0.187,0.825 -0.279,1.239 -0.012,0.087 -0.029,0.175 -0.05,0.261 -0.014,0.085 -0.028,0.172 -0.042,0.257 0.238,1.282 -0.081,2.534 -0.215,3.794 -0.015,0.139 -0.091,0.288 -0.223,0.381 -0.069,0.297 -0.138,0.592 -0.208,0.889 -0.05,0.704 0.034,1.432 -0.319,2.092 -0.41,0.139 -0.741,0.082 -0.912,-0.371 -0.047,-0.089 -0.082,-0.179 -0.053,-0.282 0.016,-0.127 0.033,-0.254 0.048,-0.38 0.293,-1.983 0.586,-3.969 0.879,-5.954 -0.177,-0.494 -0.03,-0.972 0.081,-1.451 0.027,-0.17 0.055,-0.338 0.082,-0.508 0.064,-1.01 0.129,-2.02 0.194,-3.029 0.423,-0.766 0.721,-1.563 0.493,-2.452 -0.272,-1.056 0.179,-1.765 1.22,-1.867 z"
   id="path69"
   style="fill:#c19205;fill-rule:evenodd" />
		<path
   d="m 122.071,284.043 c 0.106,-0.697 0.212,-1.395 0.319,-2.092 -0.034,0.704 -0.069,1.407 -0.104,2.111 -0.071,-0.006 -0.143,-0.013 -0.215,-0.019 z"
   id="path71"
   style="fill:#a37701;fill-rule:evenodd" />
		<path
   d="m 121.106,283.39 c 0.018,0.094 0.036,0.188 0.053,0.282 -0.017,-0.094 -0.035,-0.189 -0.053,-0.282 z"
   id="path73"
   style="fill:#9b6e02;fill-rule:evenodd" />
		<path
   d="m 125.034,251.335 c 0.107,0.006 0.214,0.011 0.322,0.016 0.873,-0.073 1.609,0.343 2.353,0.693 0.307,0.145 0.414,0.401 0.181,0.78 -0.19,0.309 -0.337,0.667 -0.443,1.028 -0.119,0.33 -0.238,0.661 -0.357,0.992 -0.029,0.08 -0.053,0.162 -0.073,0.245 -0.176,0.359 -0.352,0.719 -0.527,1.079 -0.389,0.368 -0.18,0.98 -0.551,1.357 -0.03,0.122 -0.06,0.245 -0.09,0.368 -0.111,0.558 -0.385,1.088 -0.297,1.68 -0.141,0.633 -0.281,1.264 -0.421,1.896 -0.185,0.479 -0.267,1.005 -0.756,1.323 -0.441,0.289 -0.788,0.313 -1.05,-0.205 0.135,-0.727 0.136,-1.471 0.266,-2.2 0.029,-0.147 0.061,-0.297 0.084,-0.448 0.184,-1.154 0.185,-2.333 0.353,-3.479 0.126,-0.862 0.268,-1.77 0.693,-2.573 0.022,-0.081 0.044,-0.164 0.066,-0.245 -0.078,-0.137 -0.083,-0.271 0.006,-0.404 0.007,-0.401 0.015,-0.803 0.021,-1.202 0.074,-0.234 0.146,-0.468 0.22,-0.701 z"
   id="path75"
   style="fill:#d6b608;fill-rule:evenodd" />
		<path
   d="m 123.438,262.529 c 1.082,0.475 1.1,-0.753 1.692,-1.06 -0.062,0.477 -0.125,0.955 -0.188,1.432 -0.122,0.548 -0.244,1.095 -0.367,1.642 0.049,0.109 0.108,0.214 0.157,0.321 -0.009,0.038 -0.016,0.076 -0.021,0.115 -0.203,0.923 -0.407,1.849 -0.609,2.771 -1.71,0.854 -0.242,2.682 -1.154,3.774 -0.166,0.198 -0.371,0.361 -0.558,0.542 0.006,-0.043 0.015,-0.087 0.024,-0.129 0.058,-0.217 0.181,-0.429 0.057,-0.662 0.043,-0.394 0.087,-0.786 0.131,-1.177 0.014,-0.087 0.027,-0.173 0.036,-0.259 0.014,-0.219 0.027,-0.438 0.041,-0.658 -0.028,-0.798 0.117,-1.593 0.043,-2.392 0.086,-0.245 0.174,-0.491 0.261,-0.735 0.166,-0.289 -0.068,-0.495 -0.154,-0.732 -0.086,-0.246 -0.057,-0.462 0.184,-0.61 0.018,-0.08 0.036,-0.158 0.054,-0.238 0.048,-0.392 0.097,-0.783 0.145,-1.176 -0.053,-0.294 -0.069,-0.576 0.226,-0.769 z"
   id="path77"
   style="fill:#c99e04;fill-rule:evenodd" />
		<path
   d="m 127.447,253.853 c 0.946,-2.208 -0.921,-2.063 -2.092,-2.501 0.064,-0.068 0.128,-0.137 0.192,-0.204 0.62,0.185 1.239,0.369 1.858,0.555 0.261,0.155 0.523,0.31 0.784,0.465 0.032,0.096 0.063,0.192 0.096,0.289 -0.28,0.465 -0.559,0.93 -0.838,1.396 z"
   id="path79"
   style="fill:#c99e04;fill-rule:evenodd" />
		<path
   d="m 125.552,259.574 c 0.099,-0.56 0.198,-1.119 0.297,-1.68 -0.099,0.561 -0.198,1.121 -0.297,1.68 z"
   id="path81"
   style="fill:#c99e04;fill-rule:evenodd" />
		<path
   d="m 125.939,257.526 c 0.183,-0.452 0.367,-0.905 0.551,-1.357 -0.184,0.452 -0.368,0.905 -0.551,1.357 z"
   id="path83"
   style="fill:#c99e04;fill-rule:evenodd" />
		<path
   d="m 127.017,255.09 c 0.024,-0.082 0.048,-0.163 0.073,-0.245 -0.025,0.082 -0.049,0.163 -0.073,0.245 z"
   id="path85"
   style="fill:#c99e04;fill-rule:evenodd" />
		<path
   d="m 124.793,253.237 c -0.002,0.134 -0.004,0.27 -0.006,0.404 0.002,-0.134 0.004,-0.27 0.006,-0.404 z"
   id="path87"
   style="fill:#b19301;fill-rule:evenodd" />
		<path
   d="m 123.407,275.131 c 0.024,-0.101 0.049,-0.203 0.073,-0.304 -0.024,0.101 -0.049,0.203 -0.073,0.304 z"
   id="path89"
   style="fill:#a37701;fill-rule:evenodd" />
		<path
   d="m 123.078,276.631 c 0.017,-0.086 0.033,-0.175 0.05,-0.261 -0.017,0.086 -0.033,0.175 -0.05,0.261 z"
   id="path91"
   style="fill:#a37701;fill-rule:evenodd" />
		<path
   d="m 122.722,266.791 c -0.015,0.797 -0.029,1.595 -0.043,2.392 0.014,-0.797 0.029,-1.595 0.043,-2.392 z"
   id="path93"
   style="fill:#c19205;fill-rule:evenodd" />
		<path
   d="m 122.471,271.276 c -0.019,0.22 -0.037,0.442 -0.056,0.662 0.018,-0.219 0.037,-0.442 0.056,-0.662 z"
   id="path95"
   style="fill:#c19205;fill-rule:evenodd" />
		<path
   d="m 122.936,265.766 c 0.033,-0.125 0.064,-0.248 0.097,-0.372 -0.017,0.221 -0.034,0.441 -0.05,0.662 -0.016,-0.097 -0.032,-0.193 -0.047,-0.29 z"
   id="path97"
   style="fill:#c19205;fill-rule:evenodd" />
		<path
   d="m 122.638,269.841 c -0.012,0.086 -0.024,0.173 -0.036,0.259 0.012,-0.086 0.024,-0.173 0.036,-0.259 z"
   id="path99"
   style="fill:#c19205;fill-rule:evenodd" />
		<path
   d="m 124.733,264.864 c -0.053,-0.106 -0.105,-0.213 -0.157,-0.321 0.052,0.108 0.105,0.215 0.157,0.321 z"
   id="path101"
   style="fill:#b19301;fill-rule:evenodd" />
		<path
   d="m 123.883,260.396 c -0.012,-0.097 -0.024,-0.196 -0.036,-0.293 0.012,0.096 0.024,0.196 0.036,0.293 z"
   id="path103"
   style="fill:#c99e04;fill-rule:evenodd" />
	</g>
	<path
   d="m 118.905,263.692 c 2.867,0.677 5.733,1.354 8.673,2.047 -0.178,0.755 -0.28,1.191 -0.459,1.946 -2.94,-0.693 -5.806,-1.37 -8.673,-2.046 0.153,-0.649 0.305,-1.298 0.459,-1.947 z"
   id="path105"
   style="fill:#b2b2b2;fill-rule:evenodd" />
</g>
<g
   transform="translate(0,-200)"
   id="Layer_2">
</g>
</svg>