<?xml version="1.0" encoding="UTF-8" standalone="no"?>
<!-- Created with Inkscape (http://www.inkscape.org/) -->

<svg
   xmlns:dc="http://purl.org/dc/elements/1.1/"
   xmlns:cc="http://creativecommons.org/ns#"
   xmlns:rdf="http://www.w3.org/1999/02/22-rdf-syntax-ns#"
   xmlns:svg="http://www.w3.org/2000/svg"
   xmlns="http://www.w3.org/2000/svg"
   version="1.1"
   width="500"
   height="500"
   viewBox="0 0 500 500"
   id="svg2"
   xml:space="preserve"><metadata
   id="metadata188"><rdf:RDF><cc:Work
       rdf:about=""><dc:format>image/svg+xml</dc:format><dc:type
         rdf:resource="http://purl.org/dc/dcmitype/StillImage" /><dc:title></dc:title></cc:Work></rdf:RDF></metadata><defs
   id="defs186" />
<g
   transform="matrix(1.7406604,0,0,1.7406604,-146.45842,-101.14)"
   id="Layer_1">
	<polyline
   clip-rule="evenodd"
   points="112.809,243.251 129.394,247.107 121.683,280.277    105.185,276.049  "
   id="polyline5"
   style="fill:#f9ed12;fill-rule:evenodd" />
	
		<ellipse
   cx="121.034"
   cy="245.339"
   rx="8.4519997"
   ry="1.191"
   transform="matrix(0.974,0.2264,-0.2264,0.974,58.7012,-21.0349)"
   id="ellipse7"
   style="fill:#fff685;fill-rule:evenodd" />
	<g
   id="g9">
		<path
   d="m 156.003,133.159 c -0.01,-0.279 -0.077,-0.57 -0.019,-0.834 0.501,-2.324 1.018,-4.645 1.545,-6.963 0.592,-2.593 1.199,-5.182 1.802,-7.772 0.797,-3.435 1.592,-6.872 2.397,-10.305 0.325,-1.386 0.656,-2.77 1.02,-4.145 0.562,-2.115 0.366,-4.074 -0.844,-5.97 -1.102,-1.727 -4.268,-3.095 -6.265,-2.655 -3.122,0.686 -4.852,2.615 -5.505,5.686 -0.434,2.051 -1.023,4.071 -1.493,6.114 -0.642,2.791 -1.216,5.598 -1.862,8.389 -0.767,3.316 -1.586,6.622 -2.368,9.933 -0.389,1.653 -0.727,3.318 -1.117,4.97 -0.114,0.488 0.161,0.642 0.517,0.75 0.789,0.24 1.575,0.488 2.373,0.685 3.14,0.781 6.285,1.553 9.433,2.304 0.63,0.15 0.688,0.42 0.31,0.875 -0.88,1.053 -1.718,2.145 -2.663,3.135 -0.783,0.821 -1.113,1.815 -1.375,2.848 -0.39,1.552 -0.708,3.123 -1.071,4.681 -0.487,2.1 -1.001,4.194 -1.478,6.297 -0.468,2.061 -0.889,4.131 -1.354,6.191 -0.575,2.542 -1.163,5.079 -1.767,7.612 -0.525,2.189 -1.109,4.365 -1.613,6.561 -1.218,5.304 -2.396,10.617 -3.606,15.922 -1.284,5.631 -2.598,11.254 -3.876,16.885 -0.542,2.386 -1.231,4.727 -1.99,7.053 -0.83,2.539 -1.552,5.113 -2.33,7.672 -0.807,2.648 -1.619,5.296 -2.437,7.942 -0.764,2.48 -1.531,4.957 -2.312,7.43 -0.925,2.929 -1.924,5.838 -2.784,8.787 -0.649,2.222 -1.136,4.495 -1.687,6.749 -0.236,0.966 -0.421,1.949 -0.707,2.9 -0.061,0.201 -0.439,0.326 -0.689,0.442 -0.09,0.044 -0.24,-0.044 -0.362,-0.069 -2.001,-0.463 -1.948,-0.344 -1.474,-2.446 0.555,-2.467 1.205,-4.916 1.723,-7.392 0.299,-1.438 0.389,-2.918 0.621,-4.373 0.269,-1.696 0.6,-3.382 0.883,-5.076 0.25,-1.505 0.471,-3.013 0.708,-4.52 0.249,-1.578 0.513,-3.153 0.747,-4.731 0.239,-1.604 0.425,-3.217 0.678,-4.819 0.251,-1.605 0.564,-3.202 0.835,-4.805 0.157,-0.932 0.275,-1.868 0.421,-2.801 0.274,-1.753 0.514,-3.514 0.843,-5.255 0.298,-1.565 0.71,-3.107 1.048,-4.664 0.518,-2.382 0.992,-4.773 1.528,-7.148 0.284,-1.264 0.692,-2.5 0.986,-3.761 0.308,-1.323 0.526,-2.667 0.821,-3.994 0.262,-1.168 0.589,-2.319 0.858,-3.485 0.331,-1.427 0.623,-2.861 0.945,-4.29 0.13,-0.581 0.304,-1.15 0.439,-1.729 0.361,-1.523 0.719,-3.048 1.064,-4.575 0.357,-1.574 0.678,-3.158 1.055,-4.729 0.57,-2.369 1.2,-4.725 1.759,-7.097 0.521,-2.208 0.96,-4.434 1.476,-6.644 0.698,-2.986 1.448,-5.959 2.146,-8.945 0.411,-1.752 0.765,-3.517 1.15,-5.272 0.26,-1.183 0.639,-2.351 0.755,-3.545 0.084,-0.862 -0.101,-1.774 -0.301,-2.633 -0.283,-1.21 -0.697,-2.393 -1.044,-3.59 -0.044,-0.159 -0.044,-0.349 -0.004,-0.511 0.608,-2.537 1.244,-5.067 1.838,-7.607 0.975,-4.179 1.92,-8.365 2.886,-12.546 0.56,-2.418 1.127,-4.834 1.707,-7.249 0.391,-1.629 0.629,-3.327 1.264,-4.857 0.815,-1.964 2.351,-3.268 4.495,-3.876 1.717,-0.487 3.356,-0.317 4.874,0.403 1.748,0.829 2.977,2.15 3.635,4.139 0.726,2.181 0.099,4.149 -0.312,6.177 -0.495,2.444 -1.114,4.864 -1.692,7.291 -0.564,2.378 -1.165,4.748 -1.712,7.13 -0.764,3.312 -1.494,6.632 -2.241,9.95 -0.252,1.12 -0.508,2.241 -0.773,3.359 -0.037,0.153 -0.141,0.29 -0.214,0.436 -0.081,-0.007 -0.164,-0.014 -0.244,-0.02 z m -11.589,3.725 c -0.151,0.828 -0.237,1.467 -0.388,2.091 -0.295,1.229 -0.646,2.445 -0.936,3.676 -0.384,1.627 -0.723,3.265 -1.101,4.893 -0.384,1.65 -0.802,3.294 -1.188,4.947 -0.327,1.403 -0.612,2.813 -0.938,4.216 -0.388,1.669 -0.822,3.327 -1.197,5 -0.428,1.897 -0.786,3.81 -1.224,5.704 -0.408,1.761 -0.918,3.497 -1.323,5.257 -0.539,2.353 -1.004,4.723 -1.537,7.078 -0.471,2.084 -0.992,4.159 -1.487,6.239 -0.132,0.555 -0.227,1.119 -0.365,1.671 -0.21,0.845 -0.462,1.682 -0.666,2.529 -0.331,1.374 -0.64,2.753 -0.953,4.133 -0.309,1.357 -0.618,2.716 -0.918,4.075 -0.25,1.143 -0.469,2.294 -0.739,3.433 -0.312,1.307 -0.739,2.59 -0.983,3.908 -0.471,2.526 -0.846,5.07 -1.266,7.607 -0.087,0.528 -0.213,1.05 -0.288,1.58 -0.24,1.699 -0.437,3.407 -0.701,5.102 -0.257,1.652 -0.604,3.291 -0.864,4.943 -0.319,2.019 -0.569,4.049 -0.886,6.068 -0.394,2.516 -0.811,5.028 -1.242,7.538 -0.479,2.781 -0.956,5.562 -1.492,8.331 -0.317,1.648 -0.722,3.282 -1.136,4.91 -0.16,0.631 0.125,0.804 0.646,0.896 0.547,0.098 1.152,0.312 1.374,-0.446 0.252,-0.859 0.421,-1.742 0.63,-2.613 0.486,-2.036 0.887,-4.099 1.48,-6.103 1.481,-4.987 3.046,-9.949 4.585,-14.919 1.064,-3.433 2.147,-6.861 3.21,-10.296 0.508,-1.641 0.966,-3.296 1.478,-4.937 0.261,-0.833 0.65,-1.627 0.875,-2.468 0.727,-2.699 1.438,-5.402 2.098,-8.119 0.519,-2.146 0.921,-4.318 1.422,-6.469 0.591,-2.536 1.262,-5.055 1.845,-7.593 1.259,-5.478 2.472,-10.969 3.729,-16.448 0.508,-2.213 1.101,-4.404 1.617,-6.615 0.412,-1.757 0.744,-3.535 1.153,-5.292 0.593,-2.533 1.245,-5.053 1.833,-7.585 0.521,-2.239 0.977,-4.492 1.482,-6.734 0.513,-2.27 1.028,-4.54 1.595,-6.795 0.151,-0.611 -0.118,-0.77 -0.592,-0.871 -0.585,-0.126 -1.176,-0.241 -1.76,-0.375 -1.598,-0.372 -3.194,-0.75 -4.882,-1.147 z M 143.387,131 c -0.011,0.299 -0.069,0.541 -0.019,0.758 0.233,0.997 0.589,1.973 0.727,2.981 0.232,1.688 0.343,1.542 2.082,2.06 0.167,0.049 0.342,0.062 0.511,0.103 1.553,0.373 3.1,0.771 4.661,1.107 0.3,0.063 0.78,0.006 0.956,-0.19 0.964,-1.078 1.864,-2.209 2.773,-3.334 0.393,-0.485 0.299,-0.725 -0.326,-0.876 -0.658,-0.159 -1.325,-0.286 -1.983,-0.443 -2.875,-0.695 -5.746,-1.397 -8.62,-2.09 -0.212,-0.053 -0.436,-0.046 -0.762,-0.076 z"
   id="path11"
   style="fill-rule:evenodd" />
		<path
   d="m 128.648,213.758 c 0.774,0.208 1.548,0.416 2.322,0.623 -0.022,0.108 -0.044,0.214 -0.067,0.32 -0.786,-0.164 -1.57,-0.328 -2.355,-0.492 0.034,-0.149 0.068,-0.3 0.1,-0.451 z"
   id="path13"
   style="fill-rule:evenodd" />
		<path
   d="m 135.379,185.139 c 0.768,0.176 1.536,0.352 2.3,0.543 0.042,0.011 0.088,0.183 0.062,0.252 -0.029,0.07 -0.161,0.167 -0.22,0.151 -0.743,-0.206 -1.481,-0.428 -2.22,-0.647 0.027,-0.099 0.053,-0.201 0.078,-0.299 z"
   id="path15"
   style="fill-rule:evenodd" />
		<path
   d="m 131.716,199.768 c 0.768,0.18 1.536,0.354 2.299,0.545 0.042,0.012 0.09,0.183 0.062,0.251 -0.028,0.072 -0.162,0.168 -0.219,0.153 -0.744,-0.207 -1.482,-0.43 -2.222,-0.647 0.027,-0.102 0.053,-0.201 0.08,-0.302 z"
   id="path17"
   style="fill-rule:evenodd" />
		<path
   d="m 140.825,172.482 c -0.797,-0.169 -1.596,-0.341 -2.394,-0.512 0.028,-0.124 0.056,-0.25 0.083,-0.376 0.787,0.193 1.572,0.386 2.359,0.579 -0.016,0.103 -0.031,0.206 -0.048,0.309 z"
   id="path19"
   style="fill-rule:evenodd" />
		<path
   d="m 141.091,160.08 c 0.767,0.176 1.534,0.352 2.3,0.526 -0.019,0.089 -0.037,0.179 -0.055,0.268 -0.771,-0.167 -1.542,-0.334 -2.313,-0.501 0.022,-0.099 0.044,-0.197 0.068,-0.293 z"
   id="path21"
   style="fill-rule:evenodd" />
		<path
   d="m 144.593,146.381 c 0.721,0.155 1.443,0.311 2.161,0.467 -0.024,0.111 -0.048,0.222 -0.073,0.332 -0.718,-0.159 -1.439,-0.32 -2.158,-0.479 0.022,-0.106 0.046,-0.213 0.07,-0.32 z"
   id="path23"
   style="fill-rule:evenodd" />
	</g>
	<path
   d="m 105.776,273.555 c 5.549,1.447 10.857,2.828 16.287,4.244 -0.327,1.256 -0.631,2.424 -0.953,3.658 -4.011,4.185 -8.363,5.293 -12.169,2.492 -2.426,-1.783 -4.713,-4.713 -3.165,-10.394 z"
   id="path25"
   style="fill:#f9ed12;fill-rule:evenodd" />
	<g
   id="g27">
		<path
   d="m 110.558,203.811 c -2.589,-4.632 -5.117,-9.158 -7.702,-13.784 0.016,-0.824 0.035,-1.775 0.055,-2.782 4.859,-2.715 9.671,-5.404 14.535,-8.121 1.208,0.612 2.063,1.648 2.759,2.931 2.253,4.158 4.593,8.268 6.948,12.485 -5.522,3.083 -10.925,6.103 -16.595,9.271 z"
   id="path29"
   style="fill:#6b6b6b;fill-rule:evenodd" />
		<path
   d="m 113.39,199.225 c -0.691,0.386 -1.382,0.772 -2.275,1.271 -2.015,-3.196 -3.837,-6.509 -5.523,-9.9 -0.041,-0.08 0.237,-0.317 0.367,-0.48 0.439,-0.899 1.105,-1.327 2.125,-1.036 2.625,2.931 4.869,6.066 5.306,10.145 z"
   id="path31"
   style="fill:#dd9500;fill-rule:evenodd" />
		<path
   d="m 116.957,197.231 c -0.792,0.443 -1.585,0.886 -2.378,1.329 -2.942,-2.762 -4.489,-6.336 -5.844,-10.027 0.494,-1.208 1.408,-1.705 2.686,-1.587 2.905,2.856 5.021,6.139 5.536,10.285 z"
   id="path33"
   style="fill:#dd9500;fill-rule:evenodd" />
		<path
   d="m 120.523,195.239 c -0.792,0.443 -1.585,0.886 -2.377,1.329 -2.943,-2.762 -4.49,-6.337 -5.844,-10.027 0.494,-1.208 1.408,-1.705 2.686,-1.587 2.906,2.855 5.022,6.139 5.535,10.285 z"
   id="path35"
   style="fill:#dd9500;fill-rule:evenodd" />
		<path
   d="m 118.444,183.14 c 1.847,3.307 3.694,6.614 5.646,10.106 -0.865,0.483 -1.621,0.906 -2.378,1.329 -2.943,-2.716 -4.399,-6.31 -5.847,-9.909 0.399,-1.289 1.329,-1.679 2.579,-1.526 z"
   id="path37"
   style="fill:#dd9500;fill-rule:evenodd" />
		<path
   d="m 105.558,187.999 c 3.765,-2.104 7.53,-4.207 11.295,-6.311 0.633,0.339 0.966,0.795 0.591,1.525 -3.54,2.192 -7.158,4.248 -10.896,6.089 -0.82,-0.062 -1.032,-0.586 -0.99,-1.303 z"
   id="path39"
   style="fill:#dd9500;fill-rule:evenodd" />
		<path
   d="m 108.932,188.454 c 1.883,3.369 3.765,6.738 5.646,10.106 -0.396,0.222 -0.792,0.443 -1.188,0.665 -1.882,-3.369 -3.765,-6.738 -5.647,-10.106 0.209,-0.556 0.606,-0.778 1.189,-0.665 z"
   id="path41"
   style="fill:#9d7a2f;fill-rule:evenodd" />
		<path
   d="m 112.499,186.461 c 1.882,3.368 3.764,6.737 5.647,10.106 -0.396,0.221 -0.793,0.443 -1.189,0.664 -1.882,-3.369 -3.765,-6.737 -5.647,-10.106 0.21,-0.556 0.606,-0.777 1.189,-0.664 z"
   id="path43"
   style="fill:#9d7a2f;fill-rule:evenodd" />
		<path
   d="m 116.066,184.468 c 1.882,3.368 3.764,6.737 5.646,10.106 -0.396,0.221 -0.792,0.443 -1.189,0.664 -1.882,-3.369 -3.764,-6.738 -5.646,-10.107 0.209,-0.554 0.606,-0.776 1.189,-0.663 z"
   id="path45"
   style="fill:#9d7a2f;fill-rule:evenodd" />
		<path
   d="m 116.066,184.468 c -0.396,0.221 -0.793,0.443 -1.189,0.664 -0.792,0.443 -1.586,0.886 -2.378,1.329 -0.396,0.221 -0.793,0.443 -1.189,0.665 -0.792,0.443 -1.584,0.886 -2.378,1.328 -0.396,0.221 -0.792,0.443 -1.189,0.665 -0.594,0.332 -1.189,0.665 -1.784,0.997 -0.11,-0.199 -0.221,-0.396 -0.332,-0.595 0.039,-0.398 0.236,-0.508 0.595,-0.332 3.765,-2.104 7.53,-4.208 11.295,-6.311 0.038,-0.4 0.236,-0.511 0.595,-0.332 0.111,0.198 0.221,0.396 0.333,0.595 -0.794,0.442 -1.586,0.884 -2.379,1.327 z"
   id="path47"
   style="fill:#89703d;fill-rule:evenodd" />
		<path
   d="m 106.222,189.188 c -0.199,0.111 -0.396,0.221 -0.595,0.332 -0.162,-0.5 -0.93,-0.973 -0.069,-1.521 0.221,0.397 0.442,0.793 0.664,1.189 z"
   id="path49"
   style="fill:#bd8717;fill-rule:evenodd" />
		<path
   d="m 118.112,182.545 c -0.198,0.111 -0.396,0.221 -0.595,0.332 -0.221,-0.396 -0.443,-0.792 -0.664,-1.188 0.918,-0.447 0.918,0.455 1.259,0.856 z"
   id="path51"
   style="fill:#bd8717;fill-rule:evenodd" />
	</g>
	<g
   id="g53">
		<path
   d="m 137.737,210.972 c -4.933,-1.165 -9.871,-2.33 -15.217,-3.591 0.201,2.931 -2.332,4.936 -1.652,7.711 0.043,0.174 -0.078,0.514 -0.222,0.59 -1.229,0.647 -0.875,1.968 -1.311,2.946 -0.077,0.173 -0.308,0.278 -0.591,0.52 -0.425,-0.101 -0.942,-0.222 -1.532,-0.361 -3.208,13.592 -6.303,27.077 -9.605,40.51 -1.277,5.198 -2.1,10.492 -4.192,15.533 -1.536,3.7 -1.983,7.853 -2.931,11.869 2.037,0.48 3.882,0.916 5.714,1.35 1.104,-0.928 2.186,-1.837 3.058,-2.569 1.683,0.396 3.089,0.729 4.328,1.021 0.659,1.439 1.235,2.699 1.677,3.666 2.14,0.505 3.884,0.916 5.619,1.326 5.376,-22.78 10.731,-45.469 16.113,-68.274 -0.677,-0.159 -1.197,-0.282 -1.891,-0.446 0.99,-2.694 0.729,-5.634 2.282,-7.497 0.141,-1.704 0.245,-2.971 0.353,-4.304 z m -17.383,71.102 c -3.162,2.531 -6.857,3.063 -10.377,1.1 -2.244,-1.25 -4.457,-3.234 -3.547,-6.832 4.932,1.164 9.647,2.275 14.471,3.416 -0.188,0.795 -0.363,1.535 -0.547,2.316 z m 1.709,-4.275 c -5.24,-1.236 -10.395,-2.452 -15.674,-3.699 0.873,-3.698 1.743,-7.386 2.641,-11.189 1.262,0.299 2.445,0.577 3.852,0.91 0.643,-2.729 1.261,-5.346 1.879,-7.963 1.342,-0.84 2.583,0.158 3.659,0.144 -0.997,-0.386 -2.506,-0.153 -3.346,-1.47 1.564,-6.629 3.128,-13.256 4.692,-19.884 1.342,-0.84 2.582,0.159 3.66,0.144 -0.997,-0.385 -2.507,-0.154 -3.347,-1.47 0.354,-1.496 0.741,-2.986 1.03,-4.495 0.054,-0.282 -0.284,-0.641 -0.441,-0.964 -0.267,0.129 -0.523,0.212 -0.773,0.268 0.209,0.113 0.416,0.241 0.617,0.395 -2.697,11.429 -5.394,22.857 -8.112,34.375 -1.326,-0.313 -2.508,-0.592 -3.977,-0.938 0.212,-0.9 0.438,-1.854 0.663,-2.81 2.338,-9.908 4.663,-19.818 7.047,-29.715 0.146,-0.605 -0.277,-1.769 1.065,-1.694 0.247,-0.049 0.488,-0.072 0.726,-0.079 -0.198,-0.162 -0.389,-0.35 -0.569,-0.584 0.442,-1.875 0.885,-3.75 1.384,-5.863 5.279,1.002 10.462,2.449 15.828,3.602 -4.186,17.73 -8.337,35.321 -12.504,52.979 z m 0.113,-58.792 c 1.978,0.208 3.912,-0.553 5.868,0.022 1.715,0.504 3.615,0.375 5.678,0.546 -0.141,0.788 -0.249,1.39 -0.371,2.069 -3.84,-0.907 -7.508,-1.771 -11.175,-2.637 z m 12.162,-1.514 c -3.914,0.597 -7.617,-1.073 -11.357,-0.758 -0.417,-1.655 0.315,-2.262 1.105,-2.583 3.57,0.486 6.959,0.949 10.588,1.442 -0.127,0.72 -0.219,1.243 -0.336,1.899 z m 0.993,-3.931 c -3.868,-0.424 -7.667,-0.84 -11.569,-1.268 0.152,-0.646 0.326,-1.382 0.567,-2.404 3.706,0.874 7.298,1.722 10.972,2.589 0.009,0.304 0.017,0.617 0.03,1.083 z"
   id="path55"
   style="fill:#6b6b6b;fill-rule:evenodd" />
		<path
   d="m 119.895,228.131 c -0.616,-0.332 -1.272,-0.487 -1.971,-0.465 0.581,0.473 1.239,0.627 1.971,0.465 z"
   id="path57"
   style="fill:#6b6b6b;fill-rule:evenodd" />
	</g>
	<path
   d="m 107.556,284.445 c -0.886,0.397 -1.688,0.76 -2.75,1.237 -0.257,-0.062 -0.911,-0.216 -1.721,-0.405 0.4,-1.696 0.8,-3.391 1.249,-5.291 1.02,1.412 1.982,2.743 3.222,4.459 z"
   id="path59"
   style="fill:#e2e2e2;fill-rule:evenodd" />
	<path
   d="m 116.404,288.307 c -0.129,-0.66 -0.229,-1.175 -0.363,-1.854 1.223,-0.478 2.582,-1.009 4.286,-1.675 -0.376,1.598 -0.669,2.842 -0.996,4.221 -0.854,-0.203 -1.822,-0.431 -2.927,-0.692 z"
   id="path61"
   style="fill:#e2e2e2;fill-rule:evenodd" />
	<path
   d="m 120.079,233.322 c 1.953,0.461 3.905,0.921 5.908,1.395 -0.121,0.513 -0.192,0.811 -0.313,1.326 -2.002,-0.473 -3.954,-0.934 -5.907,-1.395 0.104,-0.442 0.208,-0.885 0.312,-1.326 z"
   id="path63"
   style="fill:#b2b2b2;fill-rule:evenodd" />
	<path
   d="m 120.512,228.525 c -1.104,-0.26 -2.209,-0.521 -3.314,-0.781 0.053,-0.221 0.104,-0.442 0.157,-0.663 1.104,0.261 2.209,0.521 3.313,0.782 -0.052,0.221 -0.105,0.442 -0.156,0.662 z"
   id="path65"
   style="fill:#6b6b6b;fill-rule:evenodd" />
	<g
   id="g67">
		<path
   d="m 118.614,257.295 c -0.061,0.751 -0.121,1.502 -0.182,2.253 -0.081,0.856 -0.162,1.712 -0.242,2.567 -0.074,0.055 -0.084,0.125 -0.05,0.206 -0.064,0.282 -0.127,0.562 -0.19,0.845 -0.008,0.059 -0.02,0.119 -0.034,0.178 -0.009,0.057 -0.019,0.116 -0.028,0.174 0.162,0.873 -0.055,1.727 -0.147,2.584 -0.01,0.095 -0.062,0.197 -0.152,0.26 -0.047,0.202 -0.094,0.403 -0.142,0.605 -0.034,0.479 0.023,0.975 -0.217,1.424 -0.279,0.096 -0.505,0.057 -0.621,-0.252 -0.032,-0.061 -0.056,-0.121 -0.036,-0.192 0.011,-0.087 0.022,-0.173 0.033,-0.259 0.2,-1.351 0.399,-2.703 0.599,-4.055 -0.121,-0.337 -0.02,-0.662 0.055,-0.988 0.019,-0.116 0.038,-0.23 0.056,-0.346 0.044,-0.688 0.088,-1.376 0.132,-2.064 0.289,-0.521 0.491,-1.063 0.336,-1.67 -0.186,-0.717 0.121,-1.201 0.83,-1.27 z"
   id="path69"
   style="fill:#c19205;fill-rule:evenodd" />
		<path
   d="m 117.23,268.391 c 0.072,-0.475 0.145,-0.949 0.217,-1.424 -0.023,0.479 -0.047,0.959 -0.071,1.438 -0.048,-0.005 -0.097,-0.009 -0.146,-0.014 z"
   id="path71"
   style="fill:#a37701;fill-rule:evenodd" />
		<path
   d="m 116.573,267.946 c 0.012,0.063 0.024,0.128 0.036,0.192 -0.012,-0.064 -0.024,-0.128 -0.036,-0.192 z"
   id="path73"
   style="fill:#9b6e02;fill-rule:evenodd" />
		<path
   d="m 119.248,246.115 c 0.073,0.004 0.146,0.007 0.219,0.01 0.594,-0.05 1.096,0.233 1.603,0.473 0.209,0.098 0.282,0.273 0.124,0.531 -0.129,0.21 -0.23,0.454 -0.302,0.7 -0.081,0.225 -0.162,0.45 -0.243,0.676 -0.02,0.055 -0.036,0.11 -0.05,0.167 -0.12,0.245 -0.239,0.49 -0.359,0.735 -0.265,0.251 -0.123,0.668 -0.375,0.925 -0.021,0.083 -0.041,0.167 -0.062,0.25 -0.075,0.38 -0.262,0.741 -0.203,1.145 -0.096,0.431 -0.191,0.86 -0.287,1.291 -0.126,0.326 -0.182,0.684 -0.515,0.9 -0.3,0.197 -0.537,0.213 -0.715,-0.139 0.092,-0.496 0.093,-1.002 0.182,-1.499 0.02,-0.101 0.042,-0.202 0.057,-0.306 0.125,-0.786 0.125,-1.589 0.24,-2.37 0.086,-0.587 0.183,-1.205 0.472,-1.752 0.015,-0.055 0.03,-0.112 0.045,-0.167 -0.053,-0.093 -0.057,-0.185 0.004,-0.275 0.005,-0.273 0.01,-0.547 0.014,-0.819 0.051,-0.158 0.101,-0.318 0.151,-0.476 z"
   id="path75"
   style="fill:#d6b608;fill-rule:evenodd" />
		<path
   d="m 118.161,253.738 c 0.737,0.324 0.749,-0.512 1.153,-0.721 -0.042,0.324 -0.085,0.65 -0.128,0.975 -0.083,0.373 -0.166,0.746 -0.25,1.118 0.033,0.074 0.073,0.146 0.107,0.219 -0.006,0.026 -0.011,0.052 -0.015,0.079 -0.138,0.628 -0.277,1.258 -0.415,1.887 -1.165,0.582 -0.165,1.826 -0.786,2.57 -0.113,0.136 -0.252,0.246 -0.38,0.369 0.004,-0.029 0.01,-0.059 0.017,-0.088 0.04,-0.146 0.123,-0.291 0.039,-0.45 0.03,-0.269 0.06,-0.536 0.089,-0.802 0.009,-0.059 0.019,-0.117 0.025,-0.176 0.009,-0.149 0.019,-0.299 0.028,-0.449 -0.019,-0.543 0.08,-1.084 0.03,-1.628 0.059,-0.167 0.118,-0.335 0.177,-0.501 0.113,-0.197 -0.046,-0.338 -0.105,-0.499 -0.059,-0.167 -0.039,-0.314 0.125,-0.415 0.012,-0.055 0.024,-0.108 0.037,-0.163 0.033,-0.267 0.066,-0.533 0.099,-0.801 -0.037,-0.199 -0.048,-0.393 0.153,-0.524 z"
   id="path77"
   style="fill:#c99e04;fill-rule:evenodd" />
		<path
   d="m 120.892,247.829 c 0.645,-1.504 -0.627,-1.405 -1.425,-1.703 0.043,-0.047 0.087,-0.093 0.131,-0.139 0.422,0.125 0.844,0.251 1.266,0.378 0.178,0.105 0.356,0.211 0.534,0.316 0.021,0.065 0.043,0.131 0.065,0.197 -0.191,0.317 -0.381,0.634 -0.571,0.951 z"
   id="path79"
   style="fill:#c99e04;fill-rule:evenodd" />
		<path
   d="m 119.601,251.727 c 0.068,-0.381 0.135,-0.763 0.203,-1.145 -0.068,0.382 -0.136,0.764 -0.203,1.145 z"
   id="path81"
   style="fill:#c99e04;fill-rule:evenodd" />
		<path
   d="m 119.865,250.332 c 0.125,-0.308 0.25,-0.617 0.375,-0.925 -0.126,0.308 -0.251,0.616 -0.375,0.925 z"
   id="path83"
   style="fill:#c99e04;fill-rule:evenodd" />
		<path
   d="m 120.599,248.672 c 0.017,-0.056 0.033,-0.111 0.05,-0.167 -0.017,0.056 -0.034,0.111 -0.05,0.167 z"
   id="path85"
   style="fill:#c99e04;fill-rule:evenodd" />
		<path
   d="m 119.084,247.41 c -0.001,0.091 -0.002,0.184 -0.004,0.275 0.001,-0.091 0.003,-0.184 0.004,-0.275 z"
   id="path87"
   style="fill:#b19301;fill-rule:evenodd" />
		<path
   d="m 118.14,262.321 c 0.017,-0.068 0.033,-0.138 0.05,-0.206 -0.017,0.069 -0.033,0.138 -0.05,0.206 z"
   id="path89"
   style="fill:#a37701;fill-rule:evenodd" />
		<path
   d="m 117.916,263.344 c 0.011,-0.059 0.022,-0.119 0.034,-0.178 -0.012,0.059 -0.023,0.119 -0.034,0.178 z"
   id="path91"
   style="fill:#a37701;fill-rule:evenodd" />
		<path
   d="m 117.674,256.642 c -0.01,0.542 -0.02,1.086 -0.03,1.628 0.01,-0.542 0.02,-1.086 0.03,-1.628 z"
   id="path93"
   style="fill:#c19205;fill-rule:evenodd" />
		<path
   d="m 117.502,259.696 c -0.013,0.149 -0.025,0.302 -0.038,0.45 0.013,-0.148 0.026,-0.3 0.038,-0.45 z"
   id="path95"
   style="fill:#c19205;fill-rule:evenodd" />
		<path
   d="m 117.819,255.943 c 0.022,-0.086 0.044,-0.17 0.066,-0.254 -0.011,0.15 -0.023,0.301 -0.034,0.451 -0.01,-0.066 -0.021,-0.13 -0.032,-0.197 z"
   id="path97"
   style="fill:#c19205;fill-rule:evenodd" />
		<path
   d="m 117.616,258.719 c -0.008,0.059 -0.017,0.117 -0.025,0.176 0.009,-0.059 0.017,-0.118 0.025,-0.176 z"
   id="path99"
   style="fill:#c19205;fill-rule:evenodd" />
		<path
   d="m 119.043,255.329 c -0.036,-0.073 -0.071,-0.146 -0.107,-0.219 0.036,0.074 0.071,0.146 0.107,0.219 z"
   id="path101"
   style="fill:#b19301;fill-rule:evenodd" />
		<path
   d="m 118.464,252.285 c -0.008,-0.065 -0.016,-0.133 -0.024,-0.199 0.008,0.066 0.016,0.134 0.024,0.199 z"
   id="path103"
   style="fill:#c99e04;fill-rule:evenodd" />
	</g>
	<path
   d="m 115.074,254.531 c 1.952,0.461 3.905,0.922 5.907,1.394 -0.121,0.515 -0.191,0.812 -0.313,1.325 -2.002,-0.472 -3.955,-0.933 -5.907,-1.393 0.105,-0.442 0.208,-0.884 0.313,-1.326 z"
   id="path105"
   style="fill:#b2b2b2;fill-rule:evenodd" />
</g>
<g
   transform="matrix(1.7406604,0,0,1.7406604,-146.45842,-101.14)"
   id="Layer_2">
	<g
   id="g108">
		<g
   id="g110">
			<path
   d="m 318.465,268.146 4.826,22.302 c 1.065,4.923 5.971,11.949 12.616,10.71 7.174,-1.336 8.196,-9.674 7.14,-14.355 l -4.823,-22.413"
   id="path112"
   style="fill:#d9e021" />
			<path
   d="m 338.229,264.42 c 0.631,2.914 -3.313,6.107 -8.807,7.13 -5.495,1.024 -10.463,-0.511 -11.093,-3.426 -0.63,-2.914 3.312,-6.106 8.808,-7.13 5.494,-1.023 10.46,0.51 11.092,3.426 z"
   id="path114"
   style="fill:#d9e021" />
		</g>
		<path
   d="m 299.504,189.535 c -0.632,-2.914 4.093,-6.254 10.552,-7.456 6.457,-1.203 12.205,0.186 12.835,3.102"
   id="path116"
   style="fill:none;stroke:#507282;stroke-width:2.83459997;stroke-miterlimit:10" />
		<g
   id="g118">
			<path
   d="m 310.324,135.573 c -0.15,-0.274 -0.368,-0.536 -0.437,-0.828 -0.619,-2.564 -1.22,-5.131 -1.81,-7.7 -0.655,-2.875 -1.292,-5.754 -1.934,-8.632 -0.852,-3.815 -1.712,-7.633 -2.557,-11.449 -0.341,-1.541 -0.675,-3.082 -0.967,-4.63 -0.45,-2.381 -1.642,-4.256 -3.898,-5.597 -2.053,-1.223 -6.16,-1.127 -8.102,0.239 -3.033,2.136 -3.941,4.872 -3.114,8.256 0.556,2.259 0.928,4.558 1.441,6.826 0.7,3.097 1.482,6.179 2.178,9.278 0.826,3.682 1.594,7.377 2.401,11.062 0.405,1.838 0.873,3.665 1.275,5.502 0.121,0.543 0.496,0.57 0.935,0.514 0.975,-0.125 1.947,-0.241 2.908,-0.412 3.787,-0.673 7.575,-1.356 11.354,-2.061 0.757,-0.142 0.956,0.101 0.773,0.733 -0.426,1.464 -0.786,2.947 -1.316,4.379 -0.436,1.187 -0.296,2.337 -0.063,3.495 0.354,1.738 0.793,3.46 1.18,5.192 0.523,2.332 1.014,4.671 1.549,7.001 0.523,2.284 1.104,4.556 1.629,6.839 0.647,2.815 1.28,5.633 1.894,8.456 0.526,2.439 0.98,4.892 1.533,7.329 1.332,5.885 2.714,11.759 4.056,17.643 1.427,6.244 2.815,12.494 4.245,18.736 0.607,2.644 1.031,5.312 1.372,7.998 0.372,2.931 0.877,5.848 1.313,8.774 0.45,3.03 0.896,6.064 1.334,9.098 0.412,2.842 0.821,5.682 1.214,8.525 0.462,3.367 0.835,6.749 1.38,10.106 0.406,2.528 1.016,5.035 1.547,7.551 0.227,1.077 0.517,2.15 0.685,3.237 0.034,0.229 -0.311,0.529 -0.524,0.765 -0.075,0.084 -0.284,0.065 -0.428,0.097 -2.396,0.462 -2.277,0.559 -2.815,-1.771 -0.634,-2.732 -1.154,-5.491 -1.829,-8.214 -0.396,-1.581 -1.041,-3.108 -1.516,-4.675 -0.557,-1.825 -1.039,-3.67 -1.581,-5.5 -0.48,-1.627 -0.996,-3.242 -1.493,-4.863 -0.519,-1.7 -1.021,-3.401 -1.556,-5.092 -0.544,-1.721 -1.147,-3.426 -1.676,-5.151 -0.53,-1.725 -0.988,-3.472 -1.499,-5.207 -0.295,-1.007 -0.633,-2.001 -0.941,-3.002 -0.58,-1.886 -1.199,-3.763 -1.715,-5.662 -0.46,-1.709 -0.783,-3.448 -1.197,-5.167 -0.629,-2.628 -1.311,-5.247 -1.917,-7.878 -0.325,-1.4 -0.501,-2.829 -0.813,-4.231 -0.328,-1.47 -0.765,-2.919 -1.108,-4.386 -0.301,-1.293 -0.52,-2.6 -0.813,-3.895 -0.354,-1.585 -0.756,-3.159 -1.12,-4.741 -0.15,-0.643 -0.248,-1.295 -0.388,-1.938 -0.371,-1.696 -0.748,-3.391 -1.137,-5.083 -0.4,-1.745 -0.846,-3.483 -1.222,-5.232 -0.567,-2.642 -1.063,-5.296 -1.644,-7.935 -0.54,-2.456 -1.178,-4.893 -1.724,-7.349 -0.737,-3.318 -1.412,-6.649 -2.15,-9.968 -0.431,-1.948 -0.929,-3.882 -1.391,-5.821 -0.31,-1.308 -0.482,-2.655 -0.953,-3.908 -0.34,-0.904 -0.996,-1.733 -1.642,-2.501 -0.912,-1.083 -1.95,-2.077 -2.924,-3.117 -0.126,-0.139 -0.222,-0.33 -0.261,-0.511 -0.61,-2.827 -1.187,-5.659 -1.813,-8.483 -1.034,-4.644 -2.104,-9.281 -3.148,-13.923 -0.603,-2.685 -1.196,-5.372 -1.775,-8.063 -0.39,-1.815 -0.981,-3.63 -1.06,-5.458 -0.101,-2.349 0.91,-4.369 2.926,-5.973 1.614,-1.285 3.472,-1.873 5.474,-1.854 2.305,0.021 4.293,0.776 6,2.465 1.874,1.853 2.179,4.118 2.749,6.342 0.686,2.681 1.225,5.396 1.812,8.098 0.579,2.647 1.114,5.302 1.71,7.947 0.83,3.677 1.699,7.345 2.55,11.021 0.288,1.24 0.57,2.483 0.841,3.728 0.038,0.17 -0.007,0.356 -0.013,0.536 -0.089,0.03 -0.184,0.062 -0.274,0.093 z m -10.674,9.108 c 0.252,0.9 0.479,1.581 0.627,2.277 0.296,1.37 0.522,2.752 0.825,4.122 0.397,1.811 0.849,3.61 1.254,5.418 0.409,1.833 0.777,3.676 1.187,5.514 0.348,1.557 0.744,3.105 1.092,4.664 0.415,1.854 0.773,3.718 1.204,5.57 0.485,2.101 1.055,4.185 1.527,6.289 0.437,1.956 0.753,3.934 1.196,5.888 0.594,2.61 1.273,5.203 1.874,7.812 0.532,2.31 1.006,4.631 1.509,6.948 0.135,0.617 0.315,1.227 0.442,1.845 0.193,0.945 0.339,1.901 0.542,2.845 0.328,1.531 0.684,3.058 1.035,4.588 0.345,1.503 0.688,3.01 1.043,4.514 0.3,1.263 0.638,2.519 0.915,3.786 0.315,1.455 0.495,2.94 0.89,4.376 0.753,2.751 1.617,5.479 2.433,8.218 0.168,0.57 0.294,1.152 0.476,1.718 0.591,1.813 1.232,3.619 1.793,5.441 0.547,1.776 0.991,3.581 1.534,5.36 0.665,2.174 1.409,4.326 2.076,6.499 0.832,2.707 1.636,5.42 2.422,8.138 0.872,3.011 1.747,6.021 2.551,9.049 0.48,1.798 0.858,3.625 1.226,5.451 0.141,0.706 0.536,0.748 1.146,0.599 0.64,-0.154 1.4,-0.222 1.262,-1.086 -0.157,-0.977 -0.416,-1.941 -0.624,-2.911 -0.491,-2.268 -1.089,-4.523 -1.45,-6.81 -0.889,-5.69 -1.676,-11.391 -2.495,-17.09 -0.563,-3.936 -1.106,-7.88 -1.673,-11.818 -0.27,-1.881 -0.602,-3.753 -0.869,-5.637 -0.133,-0.956 -0.108,-1.933 -0.286,-2.88 -0.561,-3.044 -1.144,-6.086 -1.785,-9.118 -0.513,-2.394 -1.162,-4.758 -1.695,-7.147 -0.63,-2.818 -1.162,-5.655 -1.799,-8.473 -1.376,-6.08 -2.808,-12.15 -4.187,-18.228 -0.557,-2.455 -1.011,-4.929 -1.557,-7.386 -0.431,-1.953 -0.961,-3.889 -1.397,-5.842 -0.623,-2.816 -1.179,-5.646 -1.806,-8.459 -0.557,-2.488 -1.189,-4.959 -1.764,-7.442 -0.58,-2.515 -1.154,-5.031 -1.671,-7.556 -0.142,-0.683 -0.512,-0.717 -1.075,-0.599 -0.695,0.146 -1.392,0.304 -2.09,0.439 -1.919,0.369 -3.832,0.73 -5.858,1.114 z m -4.049,-5.428 c 0.138,0.305 0.195,0.575 0.357,0.769 0.751,0.892 1.623,1.707 2.276,2.655 1.095,1.585 1.142,1.388 3.281,1.101 0.204,-0.027 0.401,-0.096 0.604,-0.134 1.865,-0.346 3.738,-0.664 5.595,-1.049 0.356,-0.076 0.846,-0.354 0.938,-0.634 0.506,-1.527 0.912,-3.08 1.333,-4.629 0.185,-0.669 -0.038,-0.866 -0.789,-0.728 -0.793,0.146 -1.577,0.329 -2.367,0.475 -3.455,0.635 -6.913,1.262 -10.369,1.898 -0.253,0.045 -0.491,0.156 -0.859,0.276 z"
   id="path120"
   style="fill-rule:evenodd" />
			<path
   d="m 321.011,229.103 c 0.943,-0.149 1.884,-0.298 2.824,-0.452 0.03,0.12 0.06,0.237 0.087,0.352 -0.93,0.202 -1.862,0.401 -2.793,0.6 -0.038,-0.166 -0.077,-0.332 -0.118,-0.5 z"
   id="path122"
   style="fill-rule:evenodd" />
			<path
   d="m 313.992,197.275 c 0.917,-0.178 1.836,-0.359 2.759,-0.521 0.052,-0.007 0.188,0.143 0.193,0.225 0.003,0.084 -0.092,0.242 -0.163,0.254 -0.905,0.138 -1.815,0.257 -2.727,0.379 -0.018,-0.112 -0.042,-0.226 -0.062,-0.337 z"
   id="path124"
   style="fill-rule:evenodd" />
			<path
   d="m 317.34,213.647 c 0.92,-0.175 1.838,-0.356 2.758,-0.518 0.052,-0.008 0.19,0.141 0.194,0.223 0.005,0.085 -0.093,0.244 -0.16,0.254 -0.908,0.138 -1.818,0.256 -2.727,0.38 -0.022,-0.112 -0.043,-0.225 -0.065,-0.339 z"
   id="path126"
   style="fill-rule:evenodd" />
			<path
   d="m 313.558,182.055 c -0.947,0.2 -1.896,0.398 -2.846,0.596 -0.031,-0.137 -0.063,-0.277 -0.098,-0.417 0.946,-0.17 1.893,-0.34 2.841,-0.512 0.034,0.112 0.069,0.222 0.103,0.333 z"
   id="path128"
   style="fill-rule:evenodd" />
			<path
   d="m 307.647,169.49 c 0.916,-0.179 1.835,-0.358 2.75,-0.538 0.024,0.099 0.052,0.196 0.075,0.295 -0.918,0.188 -1.836,0.378 -2.752,0.569 -0.024,-0.11 -0.049,-0.218 -0.073,-0.326 z"
   id="path130"
   style="fill-rule:evenodd" />
			<path
   d="m 304.591,154.125 c 0.857,-0.179 1.716,-0.356 2.571,-0.534 0.031,0.123 0.059,0.245 0.087,0.368 -0.856,0.173 -1.718,0.346 -2.573,0.519 -0.03,-0.117 -0.058,-0.234 -0.085,-0.353 z"
   id="path132"
   style="fill-rule:evenodd" />
		</g>
		<path
   d="m 300.794,194.299 20.86,96.376 c 1.262,5.823 6.968,14.154 14.832,12.689 8.488,-1.582 9.65,-11.438 8.402,-16.977 l -20.723,-96.236"
   id="path134"
   style="fill:none;stroke:#507282;stroke-width:2.83459997;stroke-miterlimit:10" />
		<path
   d="M 310.916,185.616"
   id="path136"
   style="fill:none;stroke:#507282;stroke-width:2.83459997;stroke-miterlimit:10" />
		<path
   d="M 300.581,194.518"
   id="path138"
   style="fill:none;stroke:#507282;stroke-width:2.83459997;stroke-miterlimit:10" />
		<path
   d="M 299.622,190.084"
   id="path140"
   style="fill:none;stroke:#507282;stroke-width:2.83459997;stroke-miterlimit:10" />
		<path
   d="m 322.891,185.181 c 0.631,2.915 -4.093,6.253 -10.551,7.455 -6.459,1.203 -12.206,-0.186 -12.836,-3.101"
   id="path142"
   style="fill:none;stroke:#507282;stroke-width:2.83459997;stroke-miterlimit:10" />
		<path
   d="m 299.924,190.291 0.228,1.04 -0.992,0.608 0.353,1.961 c 0.66,3.051 6.975,3.599 13.726,3.599 h 0.011 l 0.042,-0.422 c 6.69,-1.247 11.721,-4.956 11.06,-8.008 l -0.338,-1.655 -1.17,-0.256 -0.229,-1.066"
   id="path144"
   style="fill:none;stroke:#507282;stroke-width:3;stroke-miterlimit:10" />
		<g
   id="g146">
			<path
   d="M 343.201,162.691"
   id="path148"
   style="fill:none;stroke:#507282;stroke-width:2.83459997;stroke-miterlimit:10" />
			<path
   d="m 360.842,163.178 c -3.181,3.799 -10.797,3.247 -17.017,-1.231 -6.219,-4.479 -8.686,-11.188 -5.505,-14.985 3.177,-3.799 10.799,-3.249 17.017,1.231 6.221,4.478 8.684,11.187 5.505,14.985 z"
   id="path150"
   style="fill:none;stroke:#507282;stroke-width:2.83459997;stroke-miterlimit:10" />
			<path
   d="m 360.868,163.19 -12.157,14.449 c -3.182,3.799 -10.793,3.289 -17.014,-1.189 -6.219,-4.479 -8.686,-11.188 -5.505,-14.986 l 12.178,-14.551"
   id="path152"
   style="fill:none;stroke:#507282;stroke-width:2.83459997;stroke-miterlimit:10" />
		</g>
		<g
   id="g154">
			<path
   d="m 319.393,203.344 c -1.333,0.568 -2.833,1.024 -4.448,1.324 -1.613,0.301 -3.188,0.418 -4.654,0.371"
   id="path156"
   style="fill:none;stroke:#507282;stroke-width:2.83459997;stroke-miterlimit:10" />
			<path
   d="m 337.594,287.429 c -1.334,0.566 -2.835,1.022 -4.449,1.323 -1.615,0.301 -3.189,0.417 -4.654,0.371"
   id="path158"
   style="fill:none;stroke:#507282;stroke-width:2.83459997;stroke-miterlimit:10" />
			<path
   d="m 325.548,231.78 c -1.334,0.567 -2.835,1.024 -4.448,1.324 -1.614,0.301 -3.188,0.418 -4.654,0.372"
   id="path160"
   style="fill:none;stroke:#507282;stroke-width:2.83459997;stroke-miterlimit:10" />
			<path
   d="m 327.568,241.122 c -1.331,0.569 -2.832,1.025 -4.447,1.326 -1.614,0.301 -3.189,0.417 -4.655,0.369"
   id="path162"
   style="fill:none;stroke:#507282;stroke-width:2.83459997;stroke-miterlimit:10" />
			<path
   d="m 329.593,250.466 c -1.334,0.567 -2.836,1.022 -4.449,1.323 -1.613,0.303 -3.189,0.418 -4.655,0.37"
   id="path164"
   style="fill:none;stroke:#507282;stroke-width:2.83459997;stroke-miterlimit:10" />
			<path
   d="m 331.613,259.809 c -1.332,0.565 -2.833,1.023 -4.447,1.323 -1.614,0.302 -3.188,0.418 -4.656,0.371"
   id="path166"
   style="fill:none;stroke:#507282;stroke-width:2.83459997;stroke-miterlimit:10" />
			<path
   d="m 333.636,269.15 c -1.331,0.567 -2.832,1.025 -4.448,1.325 -1.613,0.302 -3.188,0.417 -4.653,0.371"
   id="path168"
   style="fill:none;stroke:#507282;stroke-width:2.83459997;stroke-miterlimit:10" />
			<path
   d="m 335.607,278.256 c -1.333,0.567 -2.834,1.023 -4.449,1.324 -1.614,0.301 -3.189,0.417 -4.655,0.37"
   id="path170"
   style="fill:none;stroke:#507282;stroke-width:2.83459997;stroke-miterlimit:10" />
			<path
   d="m 321.503,213.095 c -1.332,0.568 -2.835,1.023 -4.447,1.324 -1.614,0.301 -3.189,0.417 -4.656,0.371"
   id="path172"
   style="fill:none;stroke:#507282;stroke-width:2.83459997;stroke-miterlimit:10" />
			<path
   d="m 323.525,222.439 c -1.334,0.567 -2.835,1.022 -4.448,1.323 -1.616,0.302 -3.188,0.417 -4.654,0.372"
   id="path174"
   style="fill:none;stroke:#507282;stroke-width:2.83459997;stroke-miterlimit:10" />
		</g>
	</g>
	<g
   id="g176">
		<path
   d="m 261.99,145.937 c -6.986,-5.961 -9.217,-5.748 -11.353,2.313 -1.69,6.383 -4.735,6.805 -10.423,5.376 -19.057,-4.792 -37.84,-2.612 -53.92,8.346 -9.385,6.396 -19.479,12.697 -26.757,22.049 -6.933,8.908 -7.024,8.837 0.604,18.669 9.042,-7.988 15.75,-18.59 27.005,-24.098 8.1,-3.964 15.905,-9.127 25.674,-6.35 7.152,-1.284 14.135,1.061 21.225,0.995 5.75,-0.053 7.77,2.256 5.418,7.785 -0.625,1.468 -0.941,3.064 -1.518,4.558 -1.515,3.922 -0.855,6.194 3.992,5.727 13.174,-1.274 25.538,1.989 37.61,6.83 0.574,-0.842 1.759,-1.791 1.632,-2.508 -2.66,-15.039 -8.035,-29.052 -17.517,-41.084 -2.413,-3.067 -2.669,-5.433 -1.672,-8.608 z"
   id="path178"
   style="fill:#828282;fill-rule:evenodd" />
		<path
   d="m 261.99,145.937 c -0.997,3.176 -0.741,5.541 1.673,8.607 9.481,12.032 14.856,26.045 17.517,41.084 0.127,0.717 -1.058,1.666 -1.632,2.508 1.657,0.851 3.24,1.921 4.986,2.51 4.147,1.396 5.283,-0.27 4.244,-4.312 -3.544,-13.786 -8.808,-26.868 -17.061,-38.473 -2.937,-4.131 -3.519,-10.417 -9.727,-11.924 z"
   id="path180"
   style="fill:#494949;fill-rule:evenodd" />
		<path
   d="m 212.82,172.241 c -9.769,-2.777 -17.574,2.386 -25.674,6.35 -11.255,5.508 -17.963,16.109 -27.005,24.098 4.749,2.453 8.144,2.024 11.89,-2.759 9.338,-11.927 21.261,-20.679 35.981,-25.102 1.847,-0.556 3.45,-1.267 4.808,-2.587 z"
   id="path182"
   style="fill:#494949;fill-rule:evenodd" />
	</g>
</g>
</svg>