<?xml version="1.0" encoding="UTF-8" standalone="no"?>
<!-- Created with Inkscape (http://www.inkscape.org/) -->

<svg
   xmlns:dc="http://purl.org/dc/elements/1.1/"
   xmlns:cc="http://creativecommons.org/ns#"
   xmlns:rdf="http://www.w3.org/1999/02/22-rdf-syntax-ns#"
   xmlns:svg="http://www.w3.org/2000/svg"
   xmlns="http://www.w3.org/2000/svg"
   version="1.1"
   width="500"
   height="500"
   viewBox="0 0 500 500"
   id="Layer_1"
   xml:space="preserve"><metadata
   id="metadata44"><rdf:RDF><cc:Work
       rdf:about=""><dc:format>image/svg+xml</dc:format><dc:type
         rdf:resource="http://purl.org/dc/dcmitype/StillImage" /><dc:title></dc:title></cc:Work></rdf:RDF></metadata><defs
   id="defs42" />
<path
   d="m 496.991,276.704 c 0,79.67 -110.591,144.256 -247.017,144.256 -136.422,0 -247.018,-64.586 -247.018,-144.256 0,-79.672 110.595,-144.26 247.018,-144.26 136.426,0 247.017,64.588 247.017,144.26 z"
   id="path8792"
   style="opacity:0.6;fill:none;stroke:#000000;stroke-linecap:round;stroke-linejoin:round" />
<path
   d="m 496.991,220.656 c 0,79.67 -110.591,144.257 -247.017,144.257 C 113.552,364.913 2.956,300.326 2.956,220.656 2.956,140.986 113.552,76.4 249.975,76.4 c 136.425,0 247.016,64.585 247.016,144.256 z"
   id="path8792-2"
   style="opacity:0.6;fill:none;stroke:#000000;stroke-linecap:round;stroke-linejoin:round" />
<path
   d="M 2.982,280.359 V 220.015"
   id="path9326"
   style="opacity:0.6;fill:none;stroke:#000000" />
<linearGradient
   x1="-1748.6436"
   y1="2246.8252"
   x2="-1747.9553"
   y2="2246.8252"
   id="path9351_1_"
   gradientUnits="userSpaceOnUse"
   gradientTransform="matrix(366.1751,0,0,-93.6406,640388.5,210720.75)">
	<stop
   id="stop7"
   style="stop-color:#000000;stop-opacity:1"
   offset="0" />
	<stop
   id="stop9"
   style="stop-color:#ababab;stop-opacity:1"
   offset="0.48949999" />
	<stop
   id="stop11"
   style="stop-color:#000000;stop-opacity:1"
   offset="1" />
</linearGradient>
<path
   d="M 210.8,419.065 C 131.422,411.14 66.082,382.767 29.314,340.835 23.659,334.387 13.529,319.169 10.765,312.228 6.078,300.457 3.369,288.341 3.369,277.706 c 0,-5.059 -0.78,-40.471 0.219,-41.949 0.304,-0.452 6.243,19.653 7.862,23.305 4.251,9.583 16.744,26.476 25.724,35.269 20.249,19.822 49.479,37.335 82.235,49.187 41.882,15.156 80.549,21.956 130.69,21.956 42.034,0 75.161,-5.181 110.351,-15.479 64.393,-18.842 109.011,-50.072 127.881,-90.929 l 8.362,-26.144 0.436,22.76 c 1.834,6.538 0.113,17.068 -0.327,25.548 -1.975,37.992 -30.768,75.112 -79.734,101.54 -28.696,15.483 -63.982,26.621 -103.151,33.019 -28.212,4.609 -73.534,6.176 -102.53,3.279 H 210.8 z"
   id="path9351"
   style="opacity:0.12999998;fill:url(#path9351_1_)" />
<path
   d="M 6.04,239.06 C 0.871,214.793 5.858,191.127 20.803,169.012 50.064,125.714 111.937,93.936 189.554,82.34 c 29.556,-4.415 66.405,-5.598 94.918,-3.05 66.265,5.928 121.438,24.854 161.467,55.392 39.286,29.97 56.123,66.853 47.878,104.868 -0.555,2.555 -1.21,4.829 -1.449,5.052 -0.246,0.223 -0.824,-0.696 -1.291,-2.039 -1.47,-4.241 -6.335,-13.367 -10.245,-19.211 -8.401,-12.571 -19.907,-24.421 -34.399,-35.44 -39.488,-30.023 -93.441,-48.71 -159.199,-55.141 -18.109,-1.771 -56.783,-1.763 -74.576,0.016 -55.888,5.586 -102.139,19.444 -139.612,41.83 -30.063,17.957 -52.148,40.646 -62.331,64.03 -1.487,3.421 -2.864,6.235 -3.061,6.261 -0.196,0.028 -0.922,-2.606 -1.614,-5.848 l 0,0 0,0 z"
   id="path9353"
   style="opacity:0.07000002" />
<path
   d="m 226.716,362.912 c -0.967,-0.136 -6.502,-0.617 -12.303,-1.068 C 177.4,358.977 138.505,349.856 106.29,336.488 76.791,324.253 49.482,305.934 31.955,286.636 23.523,277.355 14.087,262.523 10.049,252.216 l -1.384,-3.537 1.384,-3.538 c 2.629,-6.708 6.667,-13.983 12.095,-21.788 9.619,-13.821 19.279,-23.41 35.583,-35.316 39.395,-28.763 92.564,-46.667 156.436,-52.671 13.797,-1.295 57.663,-1.275 71.817,0.033 74.623,6.903 137.513,31.51 175.578,68.704 12.657,12.365 23.608,28.178 28.132,40.619 l 1.439,3.957 -1.439,3.957 c -0.791,2.174 -2.966,6.783 -4.839,10.244 -21.023,38.906 -68.893,70.524 -132.834,87.746 -16.377,4.409 -40.927,8.757 -61.771,10.941 -9.977,1.04 -58.445,2.075 -63.53,1.345 l 0,0 0,0 z"
   id="path9355"
   style="opacity:0.07000002" />
<path
   d="m 3.537,266.452 c 0.607,-5.279 2.105,-11.536 3.619,-16.478"
   id="path9367"
   style="fill:none;stroke:#c1c1c1" />
<ellipse
   cx="250.687"
   cy="274.81699"
   rx="245.968"
   ry="141.248"
   id="svg_3"
   style="opacity:0.45;fill:#005dff;stroke:#00007f" />
<g
   id="g18">
	<path
   d="m 295.408,297.729 c -0.425,-0.067 -2.85,-0.294 -5.392,-0.509 -16.214,-1.359 -33.253,-5.681 -47.364,-12.013 -12.922,-5.797 -24.885,-14.474 -32.564,-23.617 -3.693,-4.398 -7.827,-11.426 -9.596,-16.309 l -0.605,-1.675 0.605,-1.676 c 1.151,-3.179 2.92,-6.625 5.3,-10.323 4.212,-6.55 8.444,-11.091 15.586,-16.731 17.258,-13.627 40.55,-22.109 68.529,-24.954 6.045,-0.615 25.261,-0.605 31.46,0.014 32.692,3.271 60.24,14.929 76.916,32.55 5.545,5.86 10.342,13.352 12.324,19.246 l 0.631,1.875 -0.631,1.873 c -0.348,1.031 -1.301,3.214 -2.119,4.853 -9.21,18.433 -30.18,33.413 -58.19,41.572 -7.175,2.089 -17.931,4.149 -27.06,5.185 -4.371,0.493 -25.603,0.981 -27.83,0.639 l 0,0 0,0 z"
   id="path9355_6_"
   style="opacity:0.07000002" />
	<path
   d="m 405.855,256.74 c 0,34.546 -44.738,62.528 -99.926,62.528 -55.188,0 -99.926,-27.982 -99.926,-62.528 0,-34.54 44.738,-62.523 99.926,-62.523 55.188,0 99.926,27.983 99.926,62.523 z"
   id="path21"
   style="opacity:0.8;fill:#fcffbd" />
	
		<path
   d="m 413.807,256.885 c 0,37.744 -48.448,68.342 -108.211,68.342 -59.762,0 -108.21,-30.598 -108.21,-68.342 0,-37.747 48.448,-68.346 108.21,-68.346 59.762,0 108.211,30.599 108.211,68.346 z"
   id="path8792_5_"
   style="opacity:0.6;fill:none;stroke:#000000;stroke-linecap:round;stroke-linejoin:round" />
	<path
   d="m 198.736,239.049 c -2.265,-11.496 -0.081,-22.708 6.467,-33.185 12.818,-20.514 39.924,-35.569 73.925,-41.063 12.947,-2.092 29.089,-2.652 41.581,-1.445 29.028,2.809 53.196,11.775 70.733,26.244 17.209,14.199 24.586,31.672 20.973,49.684 -0.244,1.21 -0.529,2.288 -0.636,2.392 -0.106,0.106 -0.36,-0.329 -0.565,-0.966 -0.643,-2.009 -2.774,-6.333 -4.486,-9.101 -3.683,-5.957 -8.721,-11.571 -15.069,-16.792 -17.299,-14.222 -40.935,-23.077 -69.74,-26.123 -7.935,-0.839 -24.876,-0.835 -32.671,0.007 -24.481,2.646 -44.743,9.212 -61.159,19.819 -13.169,8.507 -22.844,19.255 -27.305,30.334 -0.652,1.62 -1.255,2.955 -1.341,2.967 -0.086,0.012 -0.404,-1.235 -0.707,-2.772 l 0,0 z"
   id="path9353_6_"
   style="opacity:0.07000002" />
	
		<linearGradient
   x1="-366.62741"
   y1="2201.7949"
   x2="-256.24249"
   y2="2201.7949"
   id="path9351_2_"
   gradientUnits="userSpaceOnUse"
   gradientTransform="matrix(1,0,0,-1,597.3564,2482.377)">
		<stop
   id="stop26"
   style="stop-color:#000000;stop-opacity:0.60000002"
   offset="0" />
		<stop
   id="stop28"
   style="stop-color:#4d4d4d;stop-opacity:0.60000002"
   offset="0.2217" />
		<stop
   id="stop30"
   style="stop-color:#ababab;stop-opacity:0.60000002"
   offset="0.48949999" />
		<stop
   id="stop32"
   style="stop-color:#000000;stop-opacity:0.60000002"
   offset="1" />
	</linearGradient>
	
		<path
   d="m 288.434,324.331 c -34.772,-3.755 -63.395,-17.198 -79.502,-37.063 -2.478,-3.056 -6.915,-10.266 -8.125,-13.553 -2.054,-5.578 -3.24,-11.318 -3.24,-16.357 0,-2.396 -0.342,-19.172 0.096,-19.875 0.133,-0.212 2.735,9.313 3.444,11.041 1.862,4.541 7.334,12.543 11.269,16.71 8.871,9.394 21.675,17.688 36.024,23.304 18.348,7.181 35.287,10.402 57.25,10.402 18.415,0 32.927,-2.455 48.342,-7.335 28.209,-8.928 47.755,-23.721 56.021,-43.08 l 3.662,-12.385 0.19,10.782 c 0.805,3.099 0.051,8.087 -0.143,12.105 -0.865,17.999 -13.478,35.585 -34.93,48.105 -12.569,7.338 -28.028,12.613 -45.185,15.645 -12.36,2.185 -32.215,2.925 -44.917,1.554 h -0.256 z"
   id="path9351_6_"
   style="opacity:0.12999998;fill:url(#path9351_2_)" />
	
		<path
   d="m 413.807,230.33 c 0,37.745 -48.448,68.345 -108.211,68.345 -59.762,0 -108.21,-30.601 -108.21,-68.345 0,-37.744 48.448,-68.344 108.21,-68.344 59.762,0 108.211,30.6 108.211,68.344 z"
   id="path8792-2_5_"
   style="opacity:0.6;fill:none;stroke:#000000;stroke-linecap:round;stroke-linejoin:round" />
</g>
<path
   d="m 59.355,291.588 c -3.017,-7.543 -9.05,-78.434 -3.017,-87.484 6.033,-9.05 66.367,-16.592 76.925,-7.542 10.559,9.05 42.233,21.116 43.742,28.658 1.508,7.542 9.05,69.384 1.508,78.432 -7.542,9.051 -69.383,22.627 -76.925,19.61 -7.542,-3.017 -42.233,-31.674 -42.233,-31.674 z"
   id="path9031"
   style="fill:#005dff" />
<path
   d="m 104.605,300.638 c -6.033,-7.543 -7.542,-46.759 -3.017,-55.809 4.525,-9.05 45.25,-9.05 46.758,-3.017 1.509,6.033 6.034,7.541 -6.033,10.558 -12.067,3.017 -25.642,0 -30.167,6.033 -4.525,6.033 -4.525,49.775 -4.525,49.775 l -3.016,-7.54 z"
   id="path7511"
   style="fill:#f0ffff" />
<path
   d="m 62.123,259.162 c -3.028,-8.164 -3.785,-36.949 -1.514,-41.362 2.271,-4.415 22.711,14.215 23.469,19.228 0.757,5.012 3.028,8.163 -3.028,4.804 -6.056,-3.358 -12.87,-11.729 -15.141,-9.477 -2.271,2.253 -2.271,33.589 -2.271,33.589 l -1.515,-6.782 z"
   id="path8271"
   style="fill:#f0ffff" />
<path
   d="m 62.372,207.83 c 0,0 13.457,7.476 19.438,14.951 5.98,7.476 8.224,8.971 14.951,9.719 6.729,0.747 48.593,-5.233 53.079,-7.477 4.485,-2.242 -38.127,5.981 -47.845,4.487 -9.719,-1.496 -13.457,-6.729 -22.428,-11.962 -8.972,-5.233 -17.195,-9.718 -17.195,-9.718 z"
   id="path16750"
   style="fill:#0050c4" />
</svg>