<?xml version="1.0" encoding="UTF-8" standalone="no"?>
<!-- Created with Inkscape (http://www.inkscape.org/) -->

<svg
   xmlns:dc="http://purl.org/dc/elements/1.1/"
   xmlns:cc="http://creativecommons.org/ns#"
   xmlns:rdf="http://www.w3.org/1999/02/22-rdf-syntax-ns#"
   xmlns:svg="http://www.w3.org/2000/svg"
   xmlns="http://www.w3.org/2000/svg"
   version="1.1"
   width="500"
   height="500"
   viewBox="0 0 500 500"
   id="Layer_1"
   xml:space="preserve"><metadata
   id="metadata59"><rdf:RDF><cc:Work
       rdf:about=""><dc:format>image/svg+xml</dc:format><dc:type
         rdf:resource="http://purl.org/dc/dcmitype/StillImage" /><dc:title></dc:title></cc:Work></rdf:RDF></metadata><defs
   id="defs57" />
<g
   id="g3">
	<polygon
   points="250.896,289.477 243.759,297.729 235.261,305.146 234.763,306.557 236.332,309.619 238.718,309.403 251.26,297.932 309.479,248.604 315.57,243.042 427.733,134.604 428.681,133.684 440.757,130.492 460.44,110.938 462.806,108.875 420.656,107.845 416.581,121.469 302.361,231.356 "
   id="polygon5"
   style="fill:#d9e021;fill-rule:evenodd" />
	<path
   d="m 442.696,128.271 c 0.317,-0.528 0.545,-1.149 0.964,-1.568 3.686,-3.685 7.391,-7.347 11.117,-10.989 4.167,-4.072 8.358,-8.116 12.543,-12.171 5.548,-5.379 11.089,-10.765 16.649,-16.132 2.242,-2.165 4.494,-4.321 6.796,-6.418 3.539,-3.226 5.532,-7.09 5.625,-12.091 0.084,-4.555 -3.98,-10.983 -8.104,-12.627 -6.441,-2.571 -11.864,-1.13 -16.715,3.755 -3.239,3.26 -6.713,6.275 -10.008,9.482 -4.496,4.376 -8.886,8.869 -13.388,13.241 -5.35,5.196 -10.78,10.304 -16.151,15.478 -2.679,2.58 -5.28,5.242 -7.958,7.823 -0.792,0.763 -0.479,1.386 0.033,2.026 1.131,1.413 2.25,2.84 3.448,4.19 4.724,5.309 9.461,10.606 14.228,15.873 0.955,1.052 0.74,1.625 -0.49,2 -2.843,0.866 -5.658,1.858 -8.545,2.529 -2.391,0.555 -4.178,1.99 -5.883,3.581 -2.563,2.393 -5.014,4.907 -7.532,7.348 -3.391,3.288 -6.823,6.532 -10.196,9.838 -3.307,3.239 -6.543,6.556 -9.848,9.797 -4.074,3.997 -8.171,7.972 -12.29,11.917 -3.563,3.413 -7.222,6.722 -10.755,10.165 -8.539,8.321 -17.018,16.708 -25.545,25.043 -9.05,8.844 -18.147,17.637 -27.185,26.494 -3.832,3.753 -7.873,7.235 -12.024,10.607 -4.532,3.684 -8.915,7.559 -13.376,11.335 -4.625,3.915 -9.253,7.817 -13.892,11.713 -4.343,3.648 -8.688,7.293 -13.054,10.91 -5.172,4.284 -10.449,8.439 -15.527,12.839 -3.83,3.319 -7.424,6.928 -11.112,10.422 -1.583,1.499 -3.093,3.088 -4.744,4.5 -0.349,0.299 -1.179,0.065 -1.772,-0.027 -0.213,-0.034 -0.382,-0.376 -0.567,-0.577 -3.047,-3.32 -3.096,-3.032 0.272,-6.342 3.953,-3.886 8.054,-7.615 11.945,-11.564 2.26,-2.294 4.195,-4.925 6.352,-7.334 2.514,-2.809 5.129,-5.523 7.666,-8.312 2.252,-2.477 4.455,-5 6.683,-7.497 2.335,-2.615 4.696,-5.203 7.009,-7.841 2.351,-2.676 4.615,-5.431 6.986,-8.089 2.374,-2.662 4.848,-5.232 7.254,-7.87 1.395,-1.531 2.729,-3.118 4.108,-4.666 2.59,-2.91 5.129,-5.872 7.809,-8.691 2.407,-2.531 4.995,-4.878 7.467,-7.345 3.781,-3.773 7.499,-7.616 11.307,-11.357 2.025,-1.989 4.238,-3.773 6.278,-5.748 2.139,-2.07 4.14,-4.291 6.261,-6.383 1.864,-1.841 3.835,-3.568 5.715,-5.395 2.3,-2.236 4.545,-4.532 6.833,-6.783 0.928,-0.913 1.921,-1.756 2.858,-2.658 2.474,-2.377 4.942,-4.759 7.394,-7.159 2.528,-2.477 4.998,-5.017 7.557,-7.458 3.861,-3.687 7.813,-7.272 11.659,-10.976 3.579,-3.446 7.035,-7.027 10.608,-10.485 4.827,-4.67 9.735,-9.254 14.568,-13.922 2.834,-2.737 5.583,-5.567 8.379,-8.346 1.881,-1.87 3.964,-3.566 5.604,-5.636 1.181,-1.491 1.94,-3.407 2.605,-5.242 0.94,-2.594 1.605,-5.29 2.421,-7.933 0.107,-0.35 0.336,-0.704 0.601,-0.955 4.129,-3.948 8.303,-7.849 12.41,-11.823 6.759,-6.537 13.47,-13.125 20.215,-19.677 3.899,-3.789 7.815,-7.563 11.749,-11.318 2.654,-2.535 5.112,-5.388 8.088,-7.441 3.817,-2.632 8.143,-3.159 12.729,-1.645 3.676,1.214 6.427,3.546 8.296,6.745 2.152,3.688 2.785,7.644 1.594,12.14 -1.307,4.928 -4.79,7.804 -7.955,11.051 -3.816,3.917 -7.827,7.632 -11.771,11.417 -3.864,3.707 -7.778,7.358 -11.618,11.091 -5.338,5.194 -10.627,10.444 -15.94,15.666 -1.797,1.766 -3.599,3.524 -5.413,5.267 -0.25,0.24 -0.602,0.364 -0.906,0.542 -0.139,-0.112 -0.279,-0.224 -0.419,-0.334 z m -25.321,-7.365 c -1.262,1.349 -2.184,2.423 -3.198,3.394 -2.004,1.914 -4.091,3.735 -6.088,5.656 -2.638,2.539 -5.206,5.154 -7.835,7.702 -2.669,2.585 -5.388,5.112 -8.059,7.698 -2.265,2.194 -4.469,4.457 -6.734,6.651 -2.696,2.612 -5.462,5.152 -8.139,7.785 -3.038,2.986 -5.972,6.088 -9.029,9.055 -2.841,2.757 -5.835,5.347 -8.673,8.11 -3.789,3.69 -7.46,7.506 -11.234,11.209 -3.344,3.281 -6.767,6.479 -10.145,9.724 -0.901,0.864 -1.746,1.792 -2.656,2.643 -1.394,1.306 -2.847,2.544 -4.227,3.861 -2.24,2.138 -4.445,4.314 -6.661,6.48 -2.183,2.134 -4.364,4.268 -6.532,6.419 -1.82,1.805 -3.588,3.668 -5.438,5.442 -2.125,2.036 -4.43,3.886 -6.449,6.023 -3.87,4.101 -7.591,8.352 -11.38,12.531 -0.79,0.87 -1.642,1.681 -2.409,2.569 -2.466,2.852 -4.862,5.77 -7.369,8.585 -2.441,2.744 -5.023,5.352 -7.471,8.089 -2.989,3.346 -5.871,6.794 -8.857,10.146 -3.719,4.173 -7.476,8.312 -11.257,12.427 -4.19,4.56 -8.377,9.122 -12.654,13.592 -2.545,2.659 -5.227,5.185 -7.919,7.689 -1.043,0.971 -0.735,1.645 0.089,2.454 0.87,0.854 1.707,1.994 3.013,0.864 1.479,-1.28 2.839,-2.706 4.258,-4.063 3.313,-3.173 6.501,-6.497 9.97,-9.478 8.632,-7.412 17.39,-14.674 26.107,-21.979 6.024,-5.049 12.079,-10.061 18.1,-15.114 2.878,-2.415 5.688,-4.913 8.572,-7.319 1.465,-1.222 3.113,-2.217 4.528,-3.495 4.54,-4.1 9.057,-8.23 13.49,-12.451 3.503,-3.333 6.828,-6.86 10.304,-10.225 4.099,-3.968 8.32,-7.806 12.408,-11.787 8.823,-8.597 17.577,-17.269 26.396,-25.868 3.562,-3.47 7.25,-6.8 10.827,-10.254 2.844,-2.749 5.567,-5.63 8.409,-8.38 4.098,-3.96 8.286,-7.822 12.377,-11.789 3.616,-3.505 7.136,-7.114 10.73,-10.644 3.639,-3.571 7.281,-7.139 11,-10.62 1.005,-0.942 0.709,-1.571 -0.022,-2.341 -0.907,-0.954 -1.832,-1.889 -2.723,-2.859 -2.434,-2.655 -4.856,-5.322 -7.42,-8.132 z m 5.193,-12.159 c -0.376,0.539 -0.772,0.916 -0.94,1.379 -0.775,2.132 -1.303,4.379 -2.261,6.417 -1.6,3.408 -1.228,3.276 1.283,6.375 0.24,0.295 0.544,0.536 0.8,0.818 2.347,2.602 4.656,5.241 7.063,7.784 0.462,0.489 1.396,0.975 1.949,0.827 3.022,-0.808 6.001,-1.797 8.984,-2.76 1.288,-0.417 1.405,-0.976 0.46,-2.024 -0.997,-1.103 -2.045,-2.158 -3.04,-3.263 -4.344,-4.821 -8.673,-9.656 -13.021,-14.474 -0.317,-0.355 -0.729,-0.621 -1.277,-1.079 z"
   id="path7"
   style="fill-rule:evenodd" />
	<path
   d="m 296.995,243.835 c 1.146,1.337 2.289,2.674 3.435,4.012 -0.168,0.169 -0.337,0.338 -0.503,0.509 -1.221,-1.27 -2.437,-2.539 -3.655,-3.809 0.242,-0.236 0.482,-0.474 0.723,-0.712 z"
   id="path9"
   style="fill-rule:evenodd" />
	<path
   d="m 343.364,199.129 c 1.168,1.274 2.342,2.542 3.486,3.835 0.064,0.073 -0.058,0.449 -0.187,0.543 -0.138,0.098 -0.491,0.113 -0.577,0.011 -1.094,-1.294 -2.155,-2.616 -3.225,-3.932 0.168,-0.152 0.335,-0.303 0.503,-0.457 z"
   id="path11"
   style="fill-rule:evenodd" />
	<path
   d="m 319.26,221.709 c 1.168,1.274 2.342,2.542 3.486,3.836 0.065,0.072 -0.057,0.45 -0.187,0.542 -0.138,0.097 -0.491,0.113 -0.577,0.011 -1.093,-1.294 -2.155,-2.616 -3.224,-3.932 0.167,-0.152 0.334,-0.304 0.502,-0.457 z"
   id="path13"
   style="fill-rule:evenodd" />
	<path
   d="m 368.313,182.399 c -1.233,-1.297 -2.465,-2.594 -3.698,-3.894 0.202,-0.198 0.4,-0.396 0.601,-0.594 1.187,1.325 2.372,2.649 3.559,3.974 -0.156,0.172 -0.309,0.345 -0.462,0.514 z"
   id="path15"
   style="fill-rule:evenodd" />
	<path
   d="m 383.632,159.762 c 1.171,1.269 2.343,2.538 3.515,3.808 -0.141,0.141 -0.281,0.283 -0.421,0.423 -1.189,-1.257 -2.377,-2.515 -3.564,-3.773 0.157,-0.154 0.313,-0.306 0.47,-0.458 z"
   id="path17"
   style="fill-rule:evenodd" />
	<path
   d="m 406.331,138.708 c 1.111,1.177 2.225,2.353 3.337,3.527 -0.178,0.175 -0.355,0.35 -0.531,0.524 -1.105,-1.181 -2.211,-2.363 -3.313,-3.545 0.167,-0.167 0.339,-0.336 0.507,-0.506 z"
   id="path19"
   style="fill-rule:evenodd" />
</g>
<g
   id="g21">
	
		<path
   d="m 312.738,358.655 c 0,32.889 -41.049,59.552 -91.688,59.552 -50.638,0 -91.689,-26.663 -91.689,-59.552 0,-32.89 41.051,-59.551 91.689,-59.551 50.639,0 91.688,26.662 91.688,59.551 z"
   id="path8792_2_"
   style="opacity:0.6;fill:none;stroke:#000000;stroke-linecap:round;stroke-linejoin:round" />
	<path
   d="m 130.507,343.114 c -1.92,-10.016 -0.068,-19.786 5.479,-28.915 10.861,-17.874 33.828,-30.993 62.638,-35.779 10.97,-1.824 24.647,-2.312 35.231,-1.261 24.596,2.448 45.075,10.261 59.934,22.866 14.582,12.374 20.833,27.599 17.771,43.292 -0.206,1.055 -0.448,1.994 -0.537,2.085 -0.09,0.093 -0.307,-0.286 -0.478,-0.842 -0.547,-1.75 -2.353,-5.518 -3.803,-7.93 -3.12,-5.189 -7.39,-10.082 -12.77,-14.632 -14.656,-12.392 -34.686,-20.107 -59.093,-22.762 -6.722,-0.73 -21.077,-0.729 -27.682,0.006 -20.743,2.307 -37.911,8.028 -51.822,17.271 -11.158,7.41 -19.356,16.776 -23.135,26.431 -0.553,1.411 -1.065,2.575 -1.137,2.585 -0.07,0.011 -0.34,-1.076 -0.596,-2.415 l 0,0 z"
   id="path9353_2_"
   style="opacity:0.07000002" />
	<path
   d="m 212.417,394.244 c -0.358,-0.058 -2.414,-0.256 -4.567,-0.441 -13.737,-1.185 -28.175,-4.949 -40.133,-10.468 -10.948,-5.051 -21.086,-12.611 -27.591,-20.579 -3.13,-3.832 -6.633,-9.954 -8.132,-14.21 l -0.513,-1.461 0.513,-1.459 c 0.976,-2.77 2.475,-5.773 4.49,-8.995 3.57,-5.705 7.156,-9.663 13.207,-14.577 14.624,-11.875 34.359,-19.267 58.066,-21.745 5.122,-0.534 21.405,-0.525 26.657,0.014 27.699,2.85 51.042,13.007 65.171,28.362 4.699,5.106 8.766,11.633 10.443,16.769 l 0.536,1.632 -0.536,1.633 c -0.293,0.899 -1.1,2.803 -1.795,4.231 -7.806,16.059 -25.573,29.113 -49.307,36.222 -6.077,1.82 -15.191,3.616 -22.927,4.518 -3.703,0.429 -21.694,0.853 -23.582,0.554 l 0,0 0,0 z"
   id="path9355_2_"
   style="opacity:0.07000002" />
	<g
   id="layer1_4_">
		<path
   d="m 217.353,339.694 c -0.687,0 -54.153,7.013 -55.524,14.726 -1.372,7.716 26.047,11.921 58.951,11.921 32.902,0 64.434,-4.908 64.434,-10.518 0,-5.61 -43.187,-16.828 -67.861,-16.129 z"
   id="path1888_6_"
   style="fill:#d9e021" />
		<path
   d="m 172.11,356.525 c 0,0 12.338,5.61 45.242,6.31 32.901,0.702 49.352,-6.31 49.352,-6.31 0,0 -18.508,2.805 -45.924,2.104 -27.419,-0.702 -47.985,-2.104 -48.67,-2.104 z"
   id="path1898_6_"
   style="fill:#8c8c17" />
	</g>
	<g
   id="layer1_3_">
		<path
   d="m 217.353,375.143 c -0.687,0 -54.153,7.014 -55.524,14.727 -1.372,7.715 26.047,11.921 58.951,11.921 32.902,0 64.434,-4.909 64.434,-10.52 0,-5.609 -43.187,-16.829 -67.861,-16.128 z"
   id="path1888_5_"
   style="fill:#d9e021" />
		<path
   d="m 172.11,391.974 c 0,0 12.338,5.61 45.242,6.31 32.901,0.702 49.352,-6.31 49.352,-6.31 0,0 -18.508,2.804 -45.924,2.104 -27.419,-0.703 -47.985,-2.104 -48.67,-2.104 z"
   id="path1898_5_"
   style="fill:#8c8c17" />
	</g>
	
		<linearGradient
   x1="-1499.7417"
   y1="1571.0713"
   x2="-1406.2104"
   y2="1571.0713"
   id="path9351_1_"
   gradientUnits="userSpaceOnUse"
   gradientTransform="matrix(1,0,0,-1,1657.3564,1950.377)">
		<stop
   id="stop33"
   style="stop-color:#000000;stop-opacity:1"
   offset="0" />
		<stop
   id="stop35"
   style="stop-color:#ababab;stop-opacity:1"
   offset="0.48949999" />
		<stop
   id="stop37"
   style="stop-color:#000000;stop-opacity:1"
   offset="1" />
	</linearGradient>
	
		<path
   d="m 206.509,417.426 c -29.464,-3.271 -53.716,-14.985 -67.364,-32.294 -2.1,-2.664 -5.859,-8.947 -6.885,-11.812 -1.741,-4.86 -2.746,-9.861 -2.746,-14.252 0,-2.088 -0.289,-16.706 0.082,-17.318 0.113,-0.185 2.318,8.115 2.918,9.621 1.578,3.957 6.216,10.93 9.548,14.561 7.517,8.185 18.366,15.412 30.524,20.306 15.546,6.257 29.898,9.064 48.51,9.064 15.603,0 27.898,-2.139 40.959,-6.391 23.901,-7.779 40.464,-20.671 47.467,-37.538 l 3.105,-10.791 0.161,9.394 c 0.682,2.699 0.042,7.048 -0.121,10.548 -0.734,15.685 -11.421,31.008 -29.597,41.917 -10.652,6.393 -23.75,10.99 -38.288,13.632 -10.471,1.903 -27.293,2.548 -38.057,1.354 h -0.216 z"
   id="path9351_2_"
   style="opacity:0.12999998;fill:url(#path9351_1_)" />
	
		<path
   d="m 312.738,335.518 c 0,32.891 -41.049,59.552 -91.688,59.552 -50.638,0 -91.689,-26.661 -91.689,-59.552 0,-32.889 41.051,-59.551 91.689,-59.551 50.639,0 91.688,26.662 91.688,59.551 z"
   id="path8792-2_2_"
   style="opacity:0.6;fill:none;stroke:#000000;stroke-linecap:round;stroke-linejoin:round" />
</g>
<g
   id="g41">
	
		<path
   d="m 186.747,295.928 c 4.238,33.657 -33.542,75.05 -84.382,92.449 -50.84,17.399 -95.489,4.22 -99.727,-29.438 -4.237,-33.659 33.542,-75.051 84.381,-92.45 50.84,-17.4 95.49,-4.219 99.728,29.439 z"
   id="path8792-4_1_"
   style="opacity:0.6;fill:none;stroke:#000000;stroke-width:0.97570002;stroke-linecap:round;stroke-linejoin:round" />
	
		<path
   d="m 188.153,307.037 c 4.237,33.659 -33.542,75.049 -84.382,92.448 -50.84,17.4 -95.49,4.22 -99.728,-29.438 -4.237,-33.659 33.542,-75.05 84.382,-92.45 50.84,-17.401 95.489,-4.22 99.728,29.44 z"
   id="path8792-4-4_1_"
   style="opacity:0.6;fill:none;stroke:#000000;stroke-width:0.97570002;stroke-linecap:round;stroke-linejoin:round" />
	<path
   d="M 4.173,371.17 2.738,359.449"
   id="path9415_1_"
   style="opacity:0.6;fill:none;stroke:#000000;stroke-width:0.99540001" />
	<path
   d="m 188.258,308.032 -1.435,-11.721"
   id="path9415-1_1_"
   style="opacity:0.6;fill:none;stroke:#000000;stroke-width:0.99540001" />
	
		<path
   d="m 96.868,389.406 c -41.789,12.546 -79.534,4.291 -90.676,-19.831 -7.879,-17.056 -1.9,-38.957 16.449,-60.26 24.666,-28.636 67.785,-48.976 105.391,-49.714 21.338,-0.418 38.962,5.642 49.158,16.902 7.048,7.786 10.08,16.934 9.247,27.906 -0.423,5.583 -1.411,9.639 -3.878,15.927 -8.751,22.31 -31.099,44.166 -60.261,58.932 -4.32,2.188 -19.534,8.567 -21.518,9.023 -0.482,0.112 -2.242,0.613 -3.912,1.115 l 0,0 z"
   id="path9474_1_"
   style="opacity:0.05;stroke:#b3b2b2;stroke-width:0.99540001;stroke-linecap:round;stroke-linejoin:round" />
	
		<path
   d="m 99.287,400.27 c -1.751,0.555 -5.3,1.536 -7.885,2.184 -39.26,9.809 -73.179,1.053 -83.742,-21.618 -1.801,-3.866 -2.589,-6.554 -3.069,-10.462 l -0.375,-3.065 0.821,2.016 c 1.397,3.427 3.53,6.637 6.842,10.301 5.042,5.574 10.677,9.279 18.547,12.194 13.527,5.005 29.734,6.08 47.949,3.18 14.956,-2.381 32.876,-8.512 47.531,-16.258 34.136,-18.05 58.178,-46.405 61.21,-72.19 l 0.274,-2.329 0.398,4.034 c 0.436,4.415 0.277,8.092 -0.538,12.507 -1.774,9.607 -6.729,20.102 -14.046,29.756 -16.85,22.221 -43.384,40.081 -73.917,49.75 l 0,0 z"
   id="path9476_1_"
   style="opacity:0.05;stroke:#b3b2b2;stroke-width:0.99540001;stroke-linecap:round;stroke-linejoin:round" />
</g>
<g
   id="g49"><title
   id="title51">Layer 1</title>
	
	<path
   d="m 229.838,321.375 c 0.453,7.497 -1.119,10.441 -2.251,11.89 -3.069,3.922 -8.897,4.017 -12.509,0.684 -3.611,-3.334 -5.621,-9.591 -0.296,-16.362 5.325,-6.771 19.556,-8.259 19.556,-8.259 0,0 -4.951,4.552 -4.5,12.047 z"
   id="path53"
   style="fill:#d9e021" />
</g>
</svg>