<?xml version="1.0" encoding="UTF-8" standalone="no"?>
<!-- Created with Inkscape (http://www.inkscape.org/) -->

<svg
   xmlns:dc="http://purl.org/dc/elements/1.1/"
   xmlns:cc="http://creativecommons.org/ns#"
   xmlns:rdf="http://www.w3.org/1999/02/22-rdf-syntax-ns#"
   xmlns:svg="http://www.w3.org/2000/svg"
   xmlns="http://www.w3.org/2000/svg"
   version="1.1"
   width="500"
   height="500"
   viewBox="0 0 500 500"
   id="Layer_1"
   xml:space="preserve"><metadata
   id="metadata59"><rdf:RDF><cc:Work
       rdf:about=""><dc:format>image/svg+xml</dc:format><dc:type
         rdf:resource="http://purl.org/dc/dcmitype/StillImage" /><dc:title></dc:title></cc:Work></rdf:RDF></metadata><defs
   id="defs57" />
<path
   d="m 148.052,266.65 c 0.336,-3.162 1.166,-6.907 2.003,-9.867"
   id="path9367_1_"
   style="fill:none;stroke:#c1c1c1" />
<path
   d="m 418.944,256.821 c 0.798,2.49 1.494,6.538 1.937,9.142"
   id="path9369_1_"
   style="fill:none;stroke:#b3b2b2" />
<g
   id="g5">
	<g
   id="g7">
		
			<path
   d="m 411.518,267.929 c 0,47.708 -61.233,86.383 -136.771,86.383 -75.536,0 -136.771,-38.675 -136.771,-86.383 0,-47.708 61.234,-86.383 136.771,-86.383 75.537,-0.001 136.771,38.675 136.771,86.383 z"
   id="path8792_4_"
   style="opacity:0.6;fill:none;stroke:#000000;stroke-linecap:round;stroke-linejoin:round" />
		<path
   d="m 139.684,245.387 c -2.863,-14.53 -0.102,-28.701 8.173,-41.944 16.202,-25.927 50.46,-44.957 93.436,-51.901 16.364,-2.645 36.768,-3.352 52.556,-1.826 36.689,3.55 67.238,14.883 89.401,33.169 21.753,17.947 31.076,40.033 26.508,62.797 -0.307,1.53 -0.667,2.892 -0.802,3.024 -0.135,0.134 -0.456,-0.416 -0.714,-1.221 -0.813,-2.539 -3.508,-8.003 -5.671,-11.502 -4.653,-7.529 -11.023,-14.625 -19.047,-21.225 -21.864,-17.977 -51.739,-29.167 -88.148,-33.017 -10.027,-1.061 -31.439,-1.057 -41.292,0.008 -30.943,3.346 -56.552,11.645 -77.302,25.049 -16.646,10.752 -28.874,24.339 -34.511,38.341 -0.824,2.048 -1.587,3.734 -1.695,3.75 -0.108,0.017 -0.51,-1.559 -0.892,-3.502 l 0,0 z"
   id="path9353_4_"
   style="opacity:0.07000002" />
		<path
   d="m 261.87,319.555 c -0.535,-0.084 -3.601,-0.371 -6.813,-0.641 -20.494,-1.72 -42.029,-7.182 -59.867,-15.185 -16.333,-7.328 -31.454,-18.294 -41.159,-29.852 -4.668,-5.559 -9.893,-14.439 -12.129,-20.613 l -0.766,-2.116 0.766,-2.118 c 1.456,-4.019 3.691,-8.374 6.699,-13.047 5.324,-8.278 10.673,-14.019 19.699,-21.148 21.813,-17.224 51.253,-27.945 86.617,-31.54 7.64,-0.777 31.928,-0.766 39.764,0.018 41.32,4.135 76.139,18.87 97.216,41.141 7.009,7.407 13.072,16.875 15.578,24.325 l 0.796,2.369 -0.796,2.368 c -0.438,1.303 -1.644,4.063 -2.679,6.134 -11.643,23.298 -38.146,42.231 -73.549,52.543 -9.069,2.641 -22.663,5.245 -34.202,6.554 -5.523,0.624 -32.36,1.241 -35.175,0.808 l 0,0 0,0 z"
   id="path9355_4_"
   style="opacity:0.07000002" />
		<g
   id="layer1_8_">
			<path
   d="m 269.229,240.427 c -1.022,0 -80.778,10.171 -82.823,21.361 -2.045,11.188 38.854,17.291 87.936,17.291 49.082,0 96.116,-7.12 96.116,-15.257 0,-8.137 -64.418,-24.412 -101.229,-23.395 z"
   id="path1888_11_"
   style="fill:#d9e021" />
			<path
   d="m 201.744,264.839 c 0,0 18.405,8.138 67.486,9.154 49.08,1.017 73.619,-9.154 73.619,-9.154 0,0 -27.607,4.068 -68.507,3.052 -40.9,-1.018 -71.576,-3.052 -72.598,-3.052 z"
   id="path1898_11_"
   style="fill:#8c8c17" />
		</g>
		<g
   id="layer1_7_">
			<path
   d="m 269.229,291.846 c -1.022,0 -80.778,10.171 -82.823,21.36 -2.045,11.19 38.854,17.292 87.936,17.292 49.082,0 96.116,-7.119 96.116,-15.257 0,-8.138 -64.418,-24.412 -101.229,-23.395 z"
   id="path1888_10_"
   style="fill:#d9e021" />
			<path
   d="m 201.744,316.259 c 0,0 18.405,8.138 67.486,9.154 49.08,1.017 73.619,-9.154 73.619,-9.154 0,0 -27.607,4.068 -68.507,3.051 -40.9,-1.018 -71.576,-3.051 -72.598,-3.051 z"
   id="path1898_10_"
   style="fill:#8c8c17" />
		</g>
		
			<linearGradient
   x1="-1477.2358"
   y1="1652.4941"
   x2="-1337.7158"
   y2="1652.4941"
   id="path9351_1_"
   gradientUnits="userSpaceOnUse"
   gradientTransform="matrix(1,0,0,-1,1657.3564,1950.377)">
			<stop
   id="stop19"
   style="stop-color:#000000;stop-opacity:1"
   offset="0" />
			<stop
   id="stop21"
   style="stop-color:#ababab;stop-opacity:1"
   offset="0.48949999" />
			<stop
   id="stop23"
   style="stop-color:#000000;stop-opacity:1"
   offset="1" />
		</linearGradient>
		
			<path
   d="m 253.056,353.178 c -43.95,-4.745 -80.127,-21.736 -100.486,-46.846 -3.131,-3.861 -8.739,-12.976 -10.27,-17.131 -2.596,-7.049 -4.096,-14.303 -4.096,-20.672 0,-3.028 -0.432,-24.234 0.121,-25.121 0.168,-0.269 3.457,11.771 4.354,13.956 2.354,5.738 9.271,15.854 14.243,21.119 11.212,11.872 27.396,22.356 45.532,29.455 23.189,9.074 44.6,13.147 72.362,13.147 23.274,0 41.616,-3.104 61.101,-9.27 35.652,-11.284 60.356,-29.982 70.806,-54.45 l 4.631,-15.655 0.24,13.627 c 1.017,3.917 0.063,10.222 -0.181,15.3 -1.095,22.751 -17.036,44.978 -44.149,60.803 -15.888,9.273 -35.426,15.943 -57.111,19.773 -15.622,2.761 -40.717,3.697 -56.771,1.963 h -0.326 z"
   id="path9351_4_"
   style="opacity:0.12999998;fill:url(#path9351_1_)" />
		
			<path
   d="m 411.518,234.367 c 0,47.708 -61.233,86.383 -136.771,86.383 -75.536,0 -136.771,-38.675 -136.771,-86.383 0,-47.707 61.234,-86.383 136.771,-86.383 75.537,0 136.771,38.677 136.771,86.383 z"
   id="path8792-2_4_"
   style="opacity:0.6;fill:none;stroke:#000000;stroke-linecap:round;stroke-linejoin:round" />
	</g>
	<g
   id="g27">
		<path
   d="m 267.208,193.159 c -1.023,0 -80.779,10.171 -82.824,21.36 -2.045,11.19 38.854,17.292 87.935,17.292 49.081,0 96.116,-7.12 96.116,-15.257 0,-8.137 -64.418,-24.412 -101.227,-23.395 z"
   id="path1888_9_"
   style="fill:#769dff" />
		<path
   d="m 199.722,217.571 c 0,0 18.405,8.138 67.486,9.154 49.079,1.017 73.618,-9.154 73.618,-9.154 0,0 -27.606,4.069 -68.507,3.052 -40.9,-1.018 -71.575,-3.052 -72.597,-3.052 z"
   id="path1898_9_"
   style="fill:#3a5282" />
	</g>
</g>
<g
   id="g31">
	<path
   d="m 329.407,380.752 c 2.079,-2.053 4.559,-1.707 6.647,-0.476 26.535,15.652 55.924,22.708 85.861,27.02 18.363,2.646 15.234,10.969 7.918,21.449 -19.355,27.729 -44.258,48.941 -75.224,62.836 -9.683,-2.221 -11.899,-8.953 -10.911,-17.786 1.378,-12.316 -5.138,-18.553 -16.619,-18.86 C 297.838,454.15 271.658,443.077 245.771,431.324 187.206,404.736 139.72,365.064 101.045,313.29 89.034,297.212 82.65,276.714 65.187,264.718 c 9.146,-10.431 22.663,-10.275 34.524,-13.916 6.253,-1.921 10.564,2.896 13.021,7.828 11.639,23.375 32.75,40.402 42.96,64.725 3.457,8.236 13.529,7.061 19.287,12.669 36.29,35.359 80.903,56.51 127.874,73.222 5.09,1.812 11.6,-0.377 17.449,-0.71 10.951,4.438 12.834,-2.166 11.555,-10.41 -0.893,-5.781 -3.595,-11.281 -2.45,-17.374 z"
   id="path33"
   style="fill:#828282;fill-rule:evenodd" />
	<path
   d="m 432.338,374.774 c -4.148,-1.7 -8.112,-3.817 -5.626,-9.234 22.612,-49.271 14.685,-98.156 -1.625,-146.978 -1.333,-3.988 -2.366,-8.078 -3.538,-12.119 0.382,-0.41 1.141,-1.119 1.089,-1.186 -0.611,-0.771 -1.347,-1.445 -2.048,-2.144 -3.68,-2.015 -4.575,-5.053 -3.277,-8.901 1.525,-9.545 -2.877,-18.495 -1.956,-28.523 0.753,-8.191 -5.777,-20.437 -14.192,-22.724 -6.172,-1.675 -18.959,0.71 -20.24,13.42 -7.445,7.604 -10.734,1.845 -12.596,-4.516 -8.854,-30.243 -24.322,-57.067 -42.827,-82.153 -4.585,-6.218 -1.543,-10.309 0.801,-14.74 3.075,-5.819 7.857,-5.828 14.002,-3.387 35.535,14.125 66.377,35.678 95.753,59.604 3.389,2.759 6.501,6.92 1.952,10.754 -10.883,9.166 -4.02,16.936 0.881,25.471 27.329,47.563 48.372,97.56 47.788,153.356 -0.236,22.545 0.205,45.84 -6.76,67.964 -2.109,6.7 -2.501,14.689 -10.36,18.253 -6.304,-5.427 -12.149,-11.552 -19.044,-16.077 -6.533,-4.29 -14.382,-7.896 -18.177,3.86 z"
   id="path35"
   style="fill:#828282;fill-rule:evenodd" />
	<path
   d="M 29.336,85.95 C 33,65.355 37.231,62.505 52.648,73.592 c 12.208,8.78 18.176,5.118 26.11,-5.625 26.589,-35.996 62.779,-59.339 106.917,-63.328 25.76,-2.328 52.632,-5.849 78.961,0.07 25.083,5.64 25.142,5.381 25.95,33.712 -27.461,-0.969 -54.6,-9.914 -82.365,-3.317 -19.981,4.746 -41.18,6.958 -54.343,25.975 -14.439,8.09 -23.33,22.315 -35.893,32.457 -10.191,8.228 -10.402,15.208 1.732,21.531 3.222,1.679 6.09,4.029 9.263,5.82 8.338,4.71 10.468,9.66 1.264,15.849 -25.015,16.819 -42.043,40.448 -56.271,66.429 -2.228,-0.649 -5.687,-0.606 -6.5,-2.051 C 50.394,170.815 39.574,138.39 38.845,103.51 38.658,94.623 35.682,90.091 29.336,85.95 z"
   id="path37"
   style="fill:#828282;fill-rule:evenodd" />
	<path
   d="m 65.189,264.717 c 17.463,11.996 23.847,32.494 35.858,48.572 38.675,51.774 86.16,91.446 144.726,118.034 25.887,11.753 52.066,22.826 81.308,23.611 11.481,0.308 17.997,6.544 16.619,18.86 -0.988,8.833 1.229,15.565 10.911,17.786 -12.948,7.464 -21.909,8.163 -23.048,-10.953 -0.729,-12.266 -8.133,-16.144 -21.424,-17.992 -61.845,-8.603 -115.745,-35.775 -162.8,-76.437 -33.376,-28.84 -61.815,-61.948 -83.108,-100.825 -3.799,-6.935 -8.507,-14.203 0.958,-20.656 z"
   id="path39"
   style="fill:#494949;fill-rule:evenodd" />
	<path
   d="m 29.336,85.95 c 6.346,4.141 9.321,8.673 9.509,17.56 0.729,34.88 11.549,67.305 28.628,97.604 0.814,1.444 4.272,1.401 6.5,2.051 -1.685,3.895 -2.92,8.066 -5.142,11.626 -5.275,8.457 -9.68,7.173 -13.702,-1.441 C 41.417,183.974 31.751,153.348 29.476,120.996 28.667,109.48 20.597,97.582 29.336,85.95 z"
   id="path41"
   style="fill:#494949;fill-rule:evenodd" />
	<path
   d="m 153.879,61.078 c 13.163,-19.017 34.362,-21.229 54.343,-25.975 27.765,-6.596 54.904,2.348 82.365,3.317 -4.805,11.185 -11.396,15.342 -24.904,12.347 C 232,43.3 198.367,45.154 166.075,58.673 c -4.049,1.695 -7.898,2.759 -12.196,2.405 z"
   id="path43"
   style="fill:#494949;fill-rule:evenodd" />
	<path
   d="m 380.924,156.386 c 1.281,-12.71 14.068,-15.096 20.24,-13.42 8.415,2.287 14.945,14.533 14.192,22.724 -0.921,10.028 3.481,18.978 1.956,28.523 -6.784,-10.591 -13.88,-20.998 -20.237,-31.838 -4.005,-6.827 -8.578,-9.87 -16.151,-5.989 z"
   id="path45"
   style="fill:#494949;fill-rule:evenodd" />
	<path
   d="m 432.338,374.774 c 3.795,-11.757 11.645,-8.15 18.176,-3.86 6.895,4.525 12.74,10.65 19.044,16.077 -18.031,15.829 -22.649,-7.075 -33.619,-11.642 -1.123,-0.549 -2.294,-0.688 -3.515,-0.418 l -0.086,-0.157 z"
   id="path47"
   style="fill:#494949;fill-rule:evenodd" />
	<path
   d="m 329.407,380.752 c -1.146,6.093 1.557,11.593 2.452,17.372 1.279,8.244 -0.604,14.849 -11.555,10.41 -0.924,-10.558 -7.571,-22.989 9.103,-27.782 z"
   id="path49"
   style="fill:#494949;fill-rule:evenodd" />
	<path
   d="m 420.59,203.114 c 0.701,0.699 1.437,1.374 2.048,2.144 0.052,0.066 -0.707,0.776 -1.089,1.186 -0.553,-1.043 -0.873,-2.153 -0.959,-3.33 z"
   id="path51"
   style="fill:#494949;fill-rule:evenodd" />
	<path
   d="m 432.424,374.932 c 1.221,-0.27 2.392,-0.131 3.515,0.418 -0.912,0.764 -1.822,1.525 -2.735,2.289 -0.259,-0.901 -0.52,-1.805 -0.78,-2.707 z"
   id="path53"
   style="fill:#828282;fill-rule:evenodd" />
</g>
</svg>