<?xml version="1.0" encoding="utf-8"?>
<!-- Generator: Adobe Illustrator 16.0.0, SVG Export Plug-In . SVG Version: 6.00 Build 0)  -->
<!DOCTYPE svg PUBLIC "-//W3C//DTD SVG 1.1//EN" "http://www.w3.org/Graphics/SVG/1.1/DTD/svg11.dtd">
<svg version="1.1" id="Layer_1" xmlns="http://www.w3.org/2000/svg" xmlns:xlink="http://www.w3.org/1999/xlink" x="0px" y="0px"
	 width="500px" height="500px" viewBox="0 0 500 500" enable-background="new 0 0 500 500" xml:space="preserve">
<g>
	<path fill-rule="evenodd" clip-rule="evenodd" fill="#828282" d="M97.158,142.65c2.592-14.565,5.584-16.582,16.489-8.74
		c8.635,6.21,12.855,3.619,18.468-3.979c18.806-25.46,44.403-41.97,75.622-44.792c18.22-1.646,37.228-4.138,55.85,0.049
		c17.74,3.988,17.782,3.806,18.354,23.845c-19.424-0.686-38.618-7.013-58.257-2.346c-14.132,3.356-29.126,4.921-38.437,18.372
		c-10.213,5.722-16.501,15.783-25.387,22.957c-7.208,5.819-7.357,10.756,1.225,15.228c2.279,1.188,4.308,2.851,6.552,4.117
		c5.897,3.332,7.404,6.833,0.895,11.21c-17.693,11.895-29.738,28.608-39.801,46.985c-1.576-0.459-4.022-0.429-4.598-1.452
		c-12.08-21.43-19.733-44.364-20.249-69.035C103.752,148.785,101.647,145.58,97.158,142.65z"/>
	<path fill-rule="evenodd" clip-rule="evenodd" fill="#494949" d="M97.158,142.65c4.489,2.93,6.594,6.135,6.727,12.42
		c0.516,24.671,8.169,47.605,20.249,69.035c0.576,1.022,3.021,0.992,4.598,1.452c-1.191,2.754-2.065,5.706-3.637,8.224
		c-3.731,5.98-6.847,5.072-9.691-1.02c-9.699-20.777-16.536-42.439-18.145-65.322C96.686,159.294,90.978,150.877,97.158,142.65z"/>
	<path fill-rule="evenodd" clip-rule="evenodd" fill="#494949" d="M185.248,125.059c9.311-13.451,24.304-15.015,38.437-18.372
		c19.639-4.667,38.833,1.66,58.257,2.346c-3.398,7.911-8.061,10.852-17.614,8.733c-23.825-5.283-47.613-3.97-70.453,5.591
		C191.01,124.557,188.288,125.309,185.248,125.059z"/>
</g>
<g>
	<path fill-rule="evenodd" clip-rule="evenodd" fill="#828282" d="M382.201,346.937c-2.933-1.203-5.738-2.701-3.979-6.532
		c15.994-34.849,10.388-69.426-1.149-103.958c-0.941-2.82-1.672-5.712-2.501-8.571c0.271-0.29,0.806-0.792,0.769-0.838
		c-0.432-0.545-0.951-1.022-1.446-1.517c-2.604-1.425-3.238-3.574-2.318-6.296c1.078-6.752-2.035-13.081-1.385-20.174
		c0.533-5.794-4.086-14.456-10.039-16.073c-4.363-1.184-13.408,0.502-14.314,9.492c-5.267,5.378-7.593,1.305-8.909-3.193
		c-6.263-21.391-17.203-40.365-30.292-58.107c-3.243-4.398-1.092-7.292,0.567-10.426c2.175-4.116,5.557-4.121,9.902-2.395
		c25.134,9.991,46.948,25.234,67.727,42.157c2.396,1.951,4.6,4.895,1.38,7.607c-7.697,6.483-2.843,11.978,0.624,18.015
		c19.329,33.642,34.215,69.004,33.801,108.468c-0.168,15.946,0.144,32.423-4.781,48.071c-1.492,4.738-1.771,10.39-7.328,12.91
		c-4.459-3.839-8.593-8.171-13.471-11.371C390.438,341.172,384.885,338.62,382.201,346.937z"/>
	<path fill-rule="evenodd" clip-rule="evenodd" fill="#494949" d="M345.837,192.47c0.906-8.99,9.951-10.676,14.314-9.492
		c5.953,1.617,10.572,10.279,10.039,16.073c-0.65,7.093,2.463,13.422,1.385,20.174c-4.8-7.491-9.818-14.852-14.315-22.519
		C354.429,191.878,351.192,189.725,345.837,192.47z"/>
	<path fill-rule="evenodd" clip-rule="evenodd" fill="#494949" d="M382.201,346.937c2.684-8.316,8.236-5.765,12.855-2.73
		c4.878,3.2,9.012,7.532,13.471,11.371c-12.754,11.195-16.021-5.005-23.779-8.234c-0.794-0.388-1.622-0.486-2.486-0.295
		L382.201,346.937z"/>
	<path fill-rule="evenodd" clip-rule="evenodd" fill="#494949" d="M373.894,225.521c0.495,0.494,1.015,0.971,1.446,1.517
		c0.037,0.046-0.498,0.548-0.769,0.838C374.18,227.138,373.954,226.353,373.894,225.521z"/>
</g>
<path fill="#FFFFFF" stroke="#507282" stroke-width="3" stroke-miterlimit="10" d="M408.777,147.588L232.533,412.993l-77.541,24.945
	c-6.34-0.428-18.887-8.256-21.211-14.064l-7.377-81.419L302.297,77.246l21.37,21.087l24,20l32,18L408.777,147.588"/>
<path fill="#D9E021" d="M335.573,251.389c4.968-7.489-12.336-27.707-38.649-45.156c-26.313-17.451-51.67-25.525-56.637-18.037
	L135.436,345.236l6.569,73.091c2.083,5.218,13.326,12.229,19.019,12.613l69.635-22.413L335.573,251.389z"/>
<path fill="none" stroke="#507282" stroke-width="3" stroke-miterlimit="10" d="M377.16,84.563"/>
<ellipse transform="matrix(0.8334 0.5527 -0.5527 0.8334 100.7212 -205.0498)" fill="none" stroke="#507282" stroke-width="3" stroke-miterlimit="10" cx="390.447" cy="64.527" rx="76.225" ry="21.696"/>
<path fill="none" stroke="#507282" stroke-width="3" stroke-miterlimit="10" d="M426.982,387.354"/>
<path fill="none" stroke="#507282" stroke-width="3" stroke-miterlimit="10" d="M453.982,106.641l-25.403,37.958
	c-6.622,9.983-40.421-0.685-75.505-23.953c-35.083-23.266-58.264-50.29-51.641-60.275l25.381-38.267"/>
<g>
	<path fill="none" stroke="#507282" stroke-width="3" stroke-miterlimit="10" d="M363.693,149.779
		c-6.941-3.337-14.257-7.486-21.593-12.354c-7.34-4.867-14.008-9.99-19.782-15.086"/>
	<path fill="none" stroke="#507282" stroke-width="3" stroke-miterlimit="10" d="M203.884,390.738
		c-6.941-3.334-14.256-7.485-21.594-12.353c-7.336-4.867-14.006-9.989-19.78-15.087"/>
	<path fill="none" stroke="#507282" stroke-width="3" stroke-miterlimit="10" d="M309.647,231.27
		c-6.941-3.338-14.258-7.486-21.594-12.355c-7.338-4.865-14.006-9.988-19.78-15.084"/>
	<path fill="none" stroke="#507282" stroke-width="3" stroke-miterlimit="10" d="M291.891,258.043
		c-6.941-3.337-14.256-7.486-21.594-12.354c-7.34-4.866-14.006-9.988-19.78-15.087"/>
	<path fill="none" stroke="#507282" stroke-width="3" stroke-miterlimit="10" d="M274.135,284.817
		c-6.942-3.338-14.256-7.488-21.594-12.354c-7.338-4.867-14.007-9.99-19.783-15.087"/>
	<path fill="none" stroke="#507282" stroke-width="3" stroke-miterlimit="10" d="M256.379,311.59
		c-6.943-3.337-14.256-7.488-21.594-12.355c-7.34-4.864-14.008-9.989-19.781-15.085"/>
	<path fill="none" stroke="#507282" stroke-width="3" stroke-miterlimit="10" d="M238.621,338.365
		c-6.94-3.338-14.255-7.489-21.594-12.356c-7.337-4.867-14.006-9.988-19.781-15.086"/>
	<path fill="none" stroke="#507282" stroke-width="3" stroke-miterlimit="10" d="M221.319,364.454
		c-6.944-3.339-14.259-7.489-21.597-12.354c-7.338-4.867-14.006-9.99-19.779-15.087"/>
	<path fill="none" stroke="#507282" stroke-width="3" stroke-miterlimit="10" d="M345.16,177.724
		c-6.942-3.338-14.254-7.486-21.595-12.354c-7.338-4.867-14.006-9.99-19.78-15.084"/>
	<path fill="none" stroke="#507282" stroke-width="3" stroke-miterlimit="10" d="M327.403,204.497
		c-6.941-3.336-14.255-7.487-21.595-12.354c-7.338-4.867-14.004-9.99-19.778-15.086"/>
</g>
<path fill-rule="evenodd" clip-rule="evenodd" fill="#828282" d="M309.399,351.164c1.47-1.451,3.224-1.208,4.702-0.336
	c18.768,11.07,39.554,16.062,60.729,19.11c12.987,1.87,10.775,7.759,5.601,15.171c-13.69,19.613-31.303,34.617-53.206,44.443
	c-6.847-1.569-8.415-6.332-7.718-12.58c0.976-8.711-3.633-13.122-11.755-13.339c-20.682-0.556-39.198-8.387-57.508-16.7
	c-41.423-18.806-75.01-46.867-102.365-83.485c-8.496-11.372-13.011-25.872-25.362-34.356c6.469-7.377,16.03-7.268,24.419-9.843
	c4.422-1.358,7.472,2.05,9.209,5.538c8.232,16.533,23.164,28.575,30.387,45.78c2.444,5.824,9.568,4.992,13.641,8.959
	c25.667,25.011,57.223,39.97,90.444,51.791c3.601,1.281,8.205-0.268,12.343-0.503c7.745,3.141,9.077-1.531,8.173-7.362
	C310.5,359.364,308.588,355.474,309.399,351.164z"/>
<path fill-rule="evenodd" clip-rule="evenodd" fill="#494949" d="M122.517,269.092c12.352,8.484,16.867,22.984,25.362,34.356
	c27.354,36.618,60.941,64.68,102.365,83.485c18.31,8.313,36.826,16.145,57.508,16.7c8.122,0.217,12.73,4.628,11.755,13.339
	c-0.697,6.248,0.871,11.011,7.718,12.58c-9.157,5.28-15.497,5.774-16.301-7.746c-0.516-8.677-5.753-11.419-15.152-12.727
	c-43.745-6.084-81.867-25.304-115.15-54.063c-23.606-20.398-43.721-43.816-58.782-71.313
	C119.153,278.798,115.822,273.657,122.517,269.092z"/>
<path fill-rule="evenodd" clip-rule="evenodd" fill="#494949" d="M309.399,351.164c-0.812,4.31,1.101,8.2,1.734,12.288
	c0.904,5.831-0.428,10.503-8.173,7.362C302.307,363.348,297.605,354.555,309.399,351.164z"/>
<path fill-rule="evenodd" clip-rule="evenodd" fill="#828282" d="M382.262,347.048c0.864-0.191,1.692-0.093,2.486,0.295
	c-0.645,0.541-1.288,1.08-1.935,1.62C382.631,348.324,382.446,347.686,382.262,347.048z"/>
</svg>
