<?xml version="1.0" encoding="UTF-8" standalone="no"?>
<!-- Created with Inkscape (http://www.inkscape.org/) -->

<svg
   xmlns:dc="http://purl.org/dc/elements/1.1/"
   xmlns:cc="http://creativecommons.org/ns#"
   xmlns:rdf="http://www.w3.org/1999/02/22-rdf-syntax-ns#"
   xmlns:svg="http://www.w3.org/2000/svg"
   xmlns="http://www.w3.org/2000/svg"
   version="1.1"
   width="500"
   height="300"
   viewBox="0 0 500 300"
   id="Layer_1"
   xml:space="preserve"><metadata
   id="metadata33"><rdf:RDF><cc:Work
       rdf:about=""><dc:format>image/svg+xml</dc:format><dc:type
         rdf:resource="http://purl.org/dc/dcmitype/StillImage" /><dc:title></dc:title></cc:Work></rdf:RDF></metadata><defs
   id="defs31" />
<g
   transform="translate(10.59322,-132.67797)"
   id="g3">
	<path
   d="m 302.414,358.074 c -0.52,-0.081 -3.493,-0.359 -6.609,-0.621 -19.883,-1.668 -40.777,-6.967 -58.083,-14.731 -15.846,-7.11 -30.517,-17.749 -39.933,-28.963 -4.529,-5.394 -9.599,-14.01 -11.768,-19.999 l -0.743,-2.054 0.743,-2.056 c 1.413,-3.898 3.581,-8.124 6.499,-12.658 5.166,-8.031 10.355,-13.601 19.113,-20.518 21.164,-16.711 49.727,-27.112 84.038,-30.601 7.412,-0.755 30.977,-0.743 38.578,0.017 40.09,4.012 73.873,18.308 94.322,39.916 6.799,7.187 12.682,16.373 15.113,23.601 l 0.772,2.299 -0.772,2.297 c -0.426,1.265 -1.595,3.942 -2.6,5.952 -11.295,22.604 -37.01,40.974 -71.357,50.979 -8.799,2.562 -21.988,5.088 -33.184,6.358 -5.359,0.604 -31.397,1.203 -34.129,0.782 l 0,0 0,0 z"
   id="path9355_6_"
   style="opacity:0.07000002" />
	<path
   d="m 437.855,307.813 c 0,42.363 -54.861,76.678 -122.537,76.678 -67.677,0 -122.539,-34.314 -122.539,-76.678 0,-42.357 54.862,-76.673 122.539,-76.673 67.676,0 122.537,34.315 122.537,76.673 z"
   id="path6"
   style="opacity:0.8;fill:#fcffbd" />
	
		<path
   d="m 447.605,307.987 c 0,46.286 -59.41,83.81 -132.697,83.81 -73.287,0 -132.697,-37.523 -132.697,-83.81 0,-46.288 59.411,-83.812 132.697,-83.812 73.287,10e-4 132.697,37.524 132.697,83.812 z"
   id="path8792_5_"
   style="opacity:0.6;fill:none;stroke:#000000;stroke-linecap:round;stroke-linejoin:round" />
	<path
   d="m 183.867,286.116 c -2.778,-14.097 -0.099,-27.847 7.93,-40.694 15.719,-25.156 48.958,-43.618 90.653,-50.355 15.878,-2.566 35.673,-3.252 50.99,-1.772 35.597,3.444 65.235,14.439 86.739,32.182 21.105,17.412 30.15,38.841 25.719,60.927 -0.298,1.484 -0.646,2.806 -0.778,2.934 -0.13,0.13 -0.442,-0.403 -0.692,-1.185 -0.789,-2.463 -3.404,-7.766 -5.502,-11.159 -4.516,-7.305 -10.695,-14.19 -18.48,-20.593 -21.213,-17.441 -50.197,-28.299 -85.522,-32.034 -9.729,-1.029 -30.504,-1.025 -40.063,0.008 -30.021,3.246 -54.868,11.298 -75,24.304 -16.149,10.433 -28.014,23.614 -33.483,37.199 -0.799,1.987 -1.54,3.624 -1.645,3.638 -0.105,0.014 -0.494,-1.514 -0.866,-3.4 l 0,0 z"
   id="path9353_6_"
   style="opacity:0.07000002" />
	
		<linearGradient
   x1="-374.25629"
   y1="2145.3281"
   x2="-238.8918"
   y2="2145.3281"
   id="path9351_1_"
   gradientUnits="userSpaceOnUse"
   gradientTransform="matrix(1,0,0,-1,597.3564,2482.377)">
		<stop
   id="stop11"
   style="stop-color:#000000;stop-opacity:0.60000002"
   offset="0" />
		<stop
   id="stop13"
   style="stop-color:#4d4d4d;stop-opacity:0.60000002"
   offset="0.2217" />
		<stop
   id="stop15"
   style="stop-color:#ababab;stop-opacity:0.60000002"
   offset="0.48949999" />
		<stop
   id="stop17"
   style="stop-color:#000000;stop-opacity:0.60000002"
   offset="1" />
	</linearGradient>
	
		<path
   d="m 293.863,390.697 c -42.643,-4.604 -77.742,-21.09 -97.494,-45.45 -3.038,-3.746 -8.479,-12.59 -9.964,-16.621 -2.519,-6.84 -3.974,-13.878 -3.974,-20.057 0,-2.938 -0.418,-23.513 0.118,-24.373 0.163,-0.261 3.354,11.42 4.224,13.54 2.283,5.567 8.994,15.382 13.818,20.491 10.878,11.519 26.581,21.689 44.176,28.577 22.5,8.805 43.271,12.755 70.207,12.755 22.582,0 40.378,-3.01 59.281,-8.992 34.591,-10.948 58.56,-29.09 68.697,-52.829 l 4.492,-15.188 0.233,13.222 c 0.987,3.8 0.063,9.918 -0.175,14.845 -1.063,22.073 -16.529,43.638 -42.834,58.991 -15.414,8.998 -34.371,15.468 -55.412,19.185 -15.156,2.679 -39.502,3.587 -55.08,1.905 h -0.313 z"
   id="path9351_6_"
   style="opacity:0.12999998;fill:url(#path9351_1_)" />
	
		<path
   d="m 447.605,275.425 c 0,46.287 -59.41,83.81 -132.697,83.81 -73.287,0 -132.697,-37.522 -132.697,-83.81 0,-46.286 59.411,-83.811 132.697,-83.811 73.287,0 132.697,37.525 132.697,83.811 z"
   id="path8792-2_5_"
   style="opacity:0.6;fill:none;stroke:#000000;stroke-linecap:round;stroke-linejoin:round" />
</g>
<g
   transform="translate(10.59322,-132.67797)"
   id="g21">
	
		<path
   d="m 302.947,220.499 c 6.135,47.369 -48.541,105.621 -122.121,130.109 -73.579,24.487 -138.198,5.937 -144.332,-41.431 -6.133,-47.372 48.542,-105.623 122.121,-130.11 73.581,-24.487 138.2,-5.937 144.332,41.432 z"
   id="path8792-4_2_"
   style="opacity:0.6;fill:none;stroke:#000000;stroke-width:0.97570002;stroke-linecap:round;stroke-linejoin:round" />
	
		<path
   d="M 304.983,236.132 C 311.115,283.503 256.44,341.754 182.861,366.241 109.282,390.729 44.663,372.18 38.53,324.81 32.397,277.441 87.072,219.188 160.652,194.702 c 73.578,-24.489 138.198,-5.939 144.331,41.43 z"
   id="path8792-4-4_2_"
   style="opacity:0.6;fill:none;stroke:#000000;stroke-width:0.97570002;stroke-linecap:round;stroke-linejoin:round" />
	<path
   d="M 38.717,326.393 36.64,309.898"
   id="path9415_2_"
   style="opacity:0.6;fill:none;stroke:#000000;stroke-width:0.99540001" />
	<path
   d="M 305.137,237.536 303.059,221.04"
   id="path9415-1_2_"
   style="opacity:0.6;fill:none;stroke:#000000;stroke-width:0.99540001" />
	
		<path
   d="M 172.871,352.055 C 112.392,369.712 57.766,358.095 41.64,324.146 30.238,300.143 38.89,269.322 65.446,239.34 c 35.697,-40.301 98.102,-68.925 152.528,-69.964 30.881,-0.589 56.39,7.938 71.146,23.788 10.199,10.955 14.587,23.829 13.381,39.272 -0.611,7.856 -2.041,13.564 -5.611,22.415 -12.666,31.398 -45.01,62.156 -87.214,82.938 -6.252,3.079 -28.271,12.057 -31.143,12.699 -0.698,0.157 -3.244,0.861 -5.662,1.567 l 0,0 z"
   id="path9474_2_"
   style="opacity:0.05;stroke:#b3b2b2;stroke-width:0.99540001;stroke-linecap:round;stroke-linejoin:round" />
	
		<path
   d="m 176.371,367.344 c -2.534,0.78 -7.67,2.163 -11.411,3.072 -56.821,13.807 -105.91,1.483 -121.198,-30.423 -2.606,-5.44 -3.747,-9.224 -4.44,-14.723 l -0.544,-4.314 1.188,2.836 c 2.022,4.823 5.108,9.341 9.901,14.496 7.297,7.846 15.453,13.06 26.844,17.16 19.576,7.046 43.033,8.559 69.395,4.478 21.644,-3.351 47.58,-11.978 68.789,-22.882 49.404,-25.401 84.199,-65.307 88.586,-101.598 l 0.396,-3.277 0.577,5.68 c 0.631,6.211 0.401,11.387 -0.779,17.601 -2.568,13.521 -9.737,28.288 -20.328,41.874 -24.383,31.278 -62.784,56.413 -106.976,70.02 l 0,0 z"
   id="path9476_2_"
   style="opacity:0.05;stroke:#b3b2b2;stroke-width:0.99540001;stroke-linecap:round;stroke-linejoin:round" />
</g>
</svg>