<?xml version="1.0" encoding="UTF-8" standalone="no"?>
<!-- Created with Inkscape (http://www.inkscape.org/) -->

<svg
   xmlns:dc="http://purl.org/dc/elements/1.1/"
   xmlns:cc="http://creativecommons.org/ns#"
   xmlns:rdf="http://www.w3.org/1999/02/22-rdf-syntax-ns#"
   xmlns:svg="http://www.w3.org/2000/svg"
   xmlns="http://www.w3.org/2000/svg"
   xmlns:xlink="http://www.w3.org/1999/xlink"
   version="1.1"
   width="500"
   height="500"
   viewBox="0 0 500 500"
   id="Layer_1"
   xml:space="preserve"><metadata
   id="metadata154"><rdf:RDF><cc:Work
       rdf:about=""><dc:format>image/svg+xml</dc:format><dc:type
         rdf:resource="http://purl.org/dc/dcmitype/StillImage" /><dc:title></dc:title></cc:Work></rdf:RDF></metadata><defs
   id="defs152" />
<g
   id="g3">
	<path
   d="M 69.112,69.832 303.335,66.564 301.426,322.473 72.93,343.525 69.112,69.832 z"
   id="path8780"
   style="fill:#d3d7da;stroke:#000000" />
	
		<linearGradient
   x1="-1115.3408"
   y1="1664.9062"
   x2="-1102.2654"
   y2="1664.9062"
   id="path8712_1_"
   gradientUnits="userSpaceOnUse"
   gradientTransform="matrix(1,0,0,-1,1407.625,1996.5938)">
		<stop
   id="stop7"
   style="stop-color:#333333;stop-opacity:1"
   offset="0" />
		<stop
   id="stop9"
   style="stop-color:#4a4a4a;stop-opacity:1"
   offset="0.25" />
		<stop
   id="stop11"
   style="stop-color:#909090;stop-opacity:1"
   offset="0.5" />
		<stop
   id="stop13"
   style="stop-color:#4a4a4a;stop-opacity:1"
   offset="0.75" />
		<stop
   id="stop15"
   style="stop-color:#333333;stop-opacity:1"
   offset="1" />
	</linearGradient>
	<path
   d="m 293.29,326.428 -0.325,10.411 c 4.771,1.763 8.802,0.991 12.715,-0.185 v -11.156"
   id="path8712"
   style="fill:url(#path8712_1_);stroke:#000000" />
	
		<linearGradient
   x1="-1355.6187"
   y1="1630.1475"
   x2="-1336.0875"
   y2="1630.1475"
   id="path8728_1_"
   gradientUnits="userSpaceOnUse"
   gradientTransform="matrix(1,0,0,-1,1366.9004,1938.5938)">
		<stop
   id="stop19"
   style="stop-color:#333333;stop-opacity:1"
   offset="0" />
		<stop
   id="stop21"
   style="stop-color:#4a4a4a;stop-opacity:1"
   offset="0.25" />
		<stop
   id="stop23"
   style="stop-color:#909090;stop-opacity:1"
   offset="0.5" />
		<stop
   id="stop25"
   style="stop-color:#4a4a4a;stop-opacity:1"
   offset="0.75" />
		<stop
   id="stop27"
   style="stop-color:#333333;stop-opacity:1"
   offset="1" />
	</linearGradient>
	<path
   d="m 11.918,303.473 0.652,8.925 c 5.869,1.353 11.738,1.552 17.606,-0.558 l -0.652,-7.995"
   id="path8728"
   style="fill:url(#path8728_1_);stroke:#000000" />
	
		<linearGradient
   x1="-1344.5029"
   y1="1647.2246"
   x2="-1324.9709"
   y2="1647.2246"
   id="path8710_1_"
   gradientUnits="userSpaceOnUse"
   gradientTransform="matrix(1,0,0,-1,1407.625,1996.5938)">
		<stop
   id="stop31"
   style="stop-color:#333333;stop-opacity:1"
   offset="0" />
		<stop
   id="stop33"
   style="stop-color:#4a4a4a;stop-opacity:1"
   offset="0.25" />
		<stop
   id="stop35"
   style="stop-color:#909090;stop-opacity:1"
   offset="0.5" />
		<stop
   id="stop37"
   style="stop-color:#4a4a4a;stop-opacity:1"
   offset="0.75" />
		<stop
   id="stop39"
   style="stop-color:#333333;stop-opacity:1"
   offset="1" />
	</linearGradient>
	<path
   d="m 63.528,343.212 0.883,11.292 c 5.869,1.354 11.737,1.551 17.606,-0.558 l 0.501,-8.521"
   id="path8710"
   style="fill:url(#path8710_1_);stroke:#000000" />
	<path
   d="m 77.163,340.921 229.622,-21.956 0.462,7.231 -230.084,21.564"
   id="path8596"
   style="fill:#a6a4a7;stroke:#000000" />
	<path
   d="m 78.658,78.724 6.683,-3.81 200.491,-2.542 7.319,2.905 -0.637,233.039 -6.683,6.534 -196.99,17.969 -6.683,-2.541 -3.5,-251.554 z"
   id="path8427"
   style="fill:#f9f9f9;stroke:#000000" />
	<path
   d="M 73.168,51.352 315.064,56.555 314.273,91.57 72.34,87.589"
   id="path8425"
   style="fill:#a6a4a7;stroke:#000000" />
	<path
   d="m 77.704,340.984 220.54,-20.872 -0.318,6.716 -220.859,21.054 0.637,-6.898 z"
   id="path8419"
   style="opacity:0.2;fill:none;stroke:#000000" />
	<path
   d="m 64.007,57.063 -60.64,4.033 6.97,254.029 60.408,33.548"
   id="path8423"
   style="fill:#656064;stroke:#000000" />
	<path
   d="m 268.806,182.983 -61.897,-19.474 -127.613,6.11 0.065,25.298"
   id="path8431"
   style="fill:#cccccc;stroke:#000000" />
	<path
   d="m 269.214,290.748 -62.306,-24.924 -127.157,7.267 0.153,34.95"
   id="path8435"
   style="fill:#cccccc;stroke:#000000" />
	<path
   d="m 206.568,89.137 0.45,176.687"
   id="path8437"
   style="fill:none;stroke:#000000" />
	<path
   d="m 299.264,63.678 v 265.88 L 493.623,361.71 498.367,68.644 299.264,63.678 z"
   id="path8447"
   style="fill:#847e83;stroke:#000000" />
	<path
   d="m 80.366,307.974 188.399,-17.11 v 5.424 L 80.447,313.446"
   id="path8433"
   style="fill:#e6e6e6;stroke:#000000" />
	<path
   d="m 70.59,348.625 9.2,-0.559 -6.244,-290.934 h -9.528 l 6.572,291.493 z"
   id="path8421"
   style="fill:#7e7b7e;stroke:#000000" />
	<path
   d="M 303.261,66.888 487.625,71.807 484.128,358.37 302.262,328.326 303.261,66.888 z"
   id="path8468"
   style="fill:#b3b3b3;stroke:#000000" />
	<path
   d="m 316.891,74.977 160.043,4.722 -4.946,272.33 -165.696,-27.581 -0.353,-249.757 10.952,0.286 z"
   id="path8472"
   style="fill:#cccccc;stroke:#000000" />
	<path
   d="M 399.879,319.112"
   id="path8500_1_"
   style="fill:#97aab0;stroke:#000000" />
	<path
   d="M 469.209,409.731"
   id="path8502_1_"
   style="fill:#97aab0;stroke:#000000" />
	<path
   d="M 69.107,31.62 68.863,50.209 333.175,57.291 333.419,38.702 69.107,31.62 z"
   id="path8640"
   style="fill:#a5a0a4;stroke:#000000" />
	<path
   d="M 68.38,31.029 3.367,48.438 3.482,69.534 64.43,57.043 64.365,50.364 68.496,50.354 68.38,31.029 z"
   id="path8642"
   style="fill:#656064;stroke:#000000" />
	<path
   d="M 333.145,57.553 313.408,64.795 64.328,57.284 64.156,50.19"
   id="path8669"
   style="fill:#333333;stroke:#000000" />
	<path
   d="m 82.234,326.195 177.75,-15.252 8.761,-7.89 1.613,-211.966"
   id="path8708"
   style="fill:none;stroke:#000000" />
	<path
   d="M 79.833,194.766 268.33,183.059 v 5.702 l -188.497,10.59"
   id="path8429"
   style="fill:#e6e6e6;stroke:#000000" />
</g>
<g
   id="g62">
	<g
   id="g64">
		
			<path
   d="m 139.527,338.338 c 0,-48.227 61.9,-87.322 138.258,-87.322 76.358,0 138.259,39.096 138.259,87.322 0,48.228 -61.901,87.322 -138.259,87.322 -76.358,0 -138.258,-39.095 -138.258,-87.322 z"
   id="path8792_1_"
   style="opacity:0.6;fill:none;stroke:#000000;stroke-linecap:round;stroke-linejoin:round" />
		<path
   d="m 414.317,361.125 c 2.894,14.688 0.103,29.014 -8.262,42.4 -16.379,26.21 -51.009,45.445 -94.451,52.465 -16.543,2.674 -37.168,3.388 -53.128,1.847 -37.088,-3.589 -67.969,-15.046 -90.374,-33.53 -21.989,-18.142 -31.413,-40.468 -26.797,-63.479 0.311,-1.547 0.675,-2.924 0.812,-3.057 0.135,-0.136 0.46,0.42 0.721,1.234 0.822,2.566 3.546,8.091 5.733,11.627 4.704,7.61 11.144,14.784 19.254,21.456 22.101,18.171 52.301,29.483 89.105,33.375 10.137,1.073 31.782,1.068 41.743,-0.008 31.278,-3.383 57.166,-11.772 78.141,-25.322 16.826,-10.869 29.188,-24.604 34.887,-38.758 0.833,-2.07 1.604,-3.775 1.714,-3.79 0.109,-0.018 0.516,1.575 0.902,3.54 l 0,0 z"
   id="path9353_1_"
   style="opacity:0.07000002" />
		<path
   d="m 290.803,286.151 c 0.541,0.085 3.64,0.374 6.886,0.647 20.718,1.738 42.488,7.259 60.519,15.349 16.511,7.408 31.796,18.493 41.605,30.177 4.719,5.618 10.001,14.597 12.262,20.837 l 0.772,2.14 -0.772,2.142 c -1.472,4.062 -3.731,8.465 -6.771,13.188 -5.382,8.368 -10.789,14.171 -19.913,21.378 -22.052,17.412 -51.811,28.249 -87.56,31.882 -7.723,0.786 -32.275,0.774 -40.195,-0.017 -41.77,-4.18 -76.968,-19.074 -98.274,-41.589 -7.084,-7.486 -13.213,-17.059 -15.747,-24.589 l -0.805,-2.396 0.805,-2.394 c 0.443,-1.317 1.662,-4.106 2.708,-6.2 11.768,-23.552 38.561,-42.691 74.349,-53.116 9.167,-2.669 22.909,-5.301 34.573,-6.624 5.583,-0.629 32.713,-1.252 35.558,-0.815 l 0,0 0,0 z"
   id="path9355_1_"
   style="opacity:0.07000002" />
		
			<linearGradient
   x1="-74.189003"
   y1="1630.6113"
   x2="66.847702"
   y2="1630.6113"
   id="path9351_2_"
   gradientUnits="userSpaceOnUse"
   gradientTransform="matrix(-1,0,0,1,299.252,-1322.5527)">
			<stop
   id="stop70"
   style="stop-color:#000000;stop-opacity:0.60000002"
   offset="0" />
			<stop
   id="stop72"
   style="stop-color:#4d4d4d;stop-opacity:0.60000002"
   offset="0.2217" />
			<stop
   id="stop74"
   style="stop-color:#ababab;stop-opacity:0.60000002"
   offset="0.48949999" />
			<stop
   id="stop76"
   style="stop-color:#000000;stop-opacity:0.60000002"
   offset="1" />
		</linearGradient>
		
			<path
   d="m 299.713,252.162 c 44.428,4.796 80.999,21.973 101.578,47.354 3.165,3.903 8.836,13.116 10.381,17.317 2.625,7.127 4.142,14.46 4.142,20.897 0,3.061 0.436,24.497 -0.123,25.394 -0.17,0.271 -3.494,-11.897 -4.401,-14.106 -2.378,-5.801 -9.371,-16.027 -14.397,-21.351 -11.333,-12 -27.694,-22.599 -46.027,-29.775 -23.441,-9.173 -45.084,-13.289 -73.148,-13.289 -23.527,0 -42.07,3.137 -61.764,9.369 -36.041,11.407 -61.014,30.31 -71.577,55.043 l -4.681,15.825 -0.243,-13.775 c -1.028,-3.959 -0.065,-10.334 0.182,-15.468 1.106,-22.997 17.222,-45.466 44.629,-61.463 16.06,-9.374 35.812,-16.115 57.733,-19.989 15.791,-2.79 41.157,-3.737 57.388,-1.983 h 0.328 z"
   id="path9351_1_"
   style="opacity:0.12999998;fill:url(#path9351_2_)" />
		
			<path
   d="m 139.527,372.265 c 0,-48.227 61.9,-87.321 138.258,-87.321 76.358,0 138.259,39.095 138.259,87.321 0,48.226 -61.901,87.321 -138.259,87.321 -76.358,0 -138.258,-39.096 -138.258,-87.321 z"
   id="path8792-2_1_"
   style="opacity:0.6;fill:none;stroke:#000000;stroke-linecap:round;stroke-linejoin:round" />
		<path
   d="m 149.686,338.52 c 0,-44.138 57.161,-79.892 127.672,-79.892 70.513,0 127.673,35.754 127.673,79.892 0,44.133 -57.16,79.886 -127.673,79.886 -70.511,-0.001 -127.672,-35.754 -127.672,-79.886 z"
   id="path80"
   style="opacity:0.8;fill:#fcffbd" />
	</g>
	<g
   id="g82">
		
			<path
   d="m 424.182,389.946 c 0,46.91 -65.737,84.939 -146.829,84.939 -81.093,0 -146.832,-38.029 -146.832,-84.939 0,-46.911 65.739,-84.94 146.832,-84.94 81.091,0 146.829,38.029 146.829,84.94 z"
   id="path8792_6_"
   style="opacity:0.6;fill:none;stroke:#000000;stroke-linecap:round;stroke-linejoin:round" />
		<path
   d="m 131.214,372.861 c -3.074,-13.339 -0.109,-26.347 8.774,-38.504 17.394,-23.802 49.965,-45.124 96.102,-51.499 17.569,-2.428 43.679,-4.069 60.628,-2.669 39.388,3.26 74.501,16.386 98.295,33.173 23.352,16.475 33.239,38.742 28.336,59.641 -0.329,1.404 -0.633,3.833 -0.779,3.955 -0.144,0.122 -1.139,-3.087 -1.416,-3.825 -0.873,-2.33 -1.412,-5.525 -3.733,-8.736 -4.996,-6.912 -11.594,-17.464 -20.207,-23.521 -23.472,-16.502 -56.781,-31.104 -95.868,-34.638 -10.765,-0.974 -38.622,-0.978 -49.199,0 -33.219,3.071 -61.789,14.218 -84.065,26.523 -17.869,9.87 -28.037,27.02 -34.089,39.875 -0.885,1.878 -1.704,3.427 -1.819,3.441 -0.117,0.016 -0.548,-1.431 -0.96,-3.216 l 0,0 z"
   id="path9353_5_"
   style="opacity:0.07000002" />
		<path
   d="m 263.419,449.275 c -0.582,-0.089 -3.914,-0.392 -7.405,-0.679 -22.279,-1.815 -45.69,-7.063 -65.081,-15.524 -16.33,-6.667 -34.473,-18.258 -45.526,-31.369 -5.075,-5.876 -9.972,-15.982 -12.403,-22.508 l -0.831,-2.237 0.831,-2.241 c 1.583,-4.248 4.013,-8.853 7.282,-13.793 5.788,-8.751 11.602,-14.82 21.415,-22.356 23.713,-18.21 55.716,-29.544 94.161,-33.345 8.305,-0.821 34.708,-0.81 43.226,0.019 44.919,4.372 82.771,19.949 105.685,43.495 7.617,7.829 14.208,17.84 16.932,25.717 l 0.866,2.505 -0.866,2.501 c -0.476,1.379 -1.786,4.296 -2.911,6.485 -12.011,26.445 -41.469,44.647 -79.954,55.549 -9.858,2.791 -24.637,5.545 -37.181,6.93 -6.005,0.658 -35.18,1.308 -38.24,0.851 l 0,0 0,0 z"
   id="path9355_5_"
   style="opacity:0.07000002" />
		
			<linearGradient
   x1="-1481.7969"
   y1="1528.9131"
   x2="-1332.1587"
   y2="1528.9131"
   id="path9351_3_"
   gradientUnits="userSpaceOnUse"
   gradientTransform="matrix(1,0,0,-1,1657.3564,1950.377)">
			<stop
   id="stop88"
   style="stop-color:#000000;stop-opacity:1"
   offset="0" />
			<stop
   id="stop90"
   style="stop-color:#ababab;stop-opacity:1"
   offset="0.48949999" />
			<stop
   id="stop92"
   style="stop-color:#000000;stop-opacity:1"
   offset="1" />
		</linearGradient>
		
			<path
   d="m 254.115,473.806 c -47.184,-4.666 -81.601,-16.439 -103.457,-41.13 -3.362,-3.796 -10.659,-11.589 -12.301,-15.674 -3.401,-6.791 -7.468,-17.093 -7.468,-23.355 0,-2.978 -0.84,-25.389 -0.247,-26.261 0.181,-0.263 1.759,16.086 6.143,21.189 3.891,6.902 10.21,14.995 15.548,20.175 12.037,11.673 27.986,20.802 47.457,27.783 24.895,8.924 47.986,12.804 77.79,12.804 24.986,0 44.572,-2.95 65.488,-9.014 26.653,-6.438 63.455,-26.929 75.455,-52.258 1.965,-4.146 5.529,-17.35 5.529,-17.35 l 0.259,17.574 c 0,0 0,6.772 -0.771,11.444 -2.005,14.637 -21.28,42.578 -53.042,55.98 -17.057,9.12 -31.81,12.557 -55.091,16.324 -16.771,2.715 -28.171,4.552 -45.406,2.847 l -15.886,-1.078 z"
   id="path9351_5_"
   style="opacity:0.12999998;fill:url(#path9351_3_)" />
		
			<path
   d="m 424.182,364.396 c -0.673,47.638 -65.737,84.94 -146.829,84.94 -81.093,0 -146.832,-38.029 -146.832,-84.94 0,-46.909 65.739,-84.939 146.832,-84.939 81.091,0 147.491,38.034 146.829,84.939 z"
   id="path8792-2_6_"
   style="opacity:0.6;fill:none;stroke:#000000;stroke-linecap:round;stroke-linejoin:round" />
	</g>
	<g
   id="g96">
		<g
   id="g98">
			<g
   id="g100">
				<defs
   id="defs102">
					<polygon
   points="145.694,267.932 408.004,267.932 415.965,387.599 137.733,387.599 "
   id="SVGID_1_" />
				</defs>
				<clipPath
   id="SVGID_2_">
					<use
   id="use106"
   style="overflow:visible"
   x="0"
   y="0"
   width="500"
   height="500"
   xlink:href="#SVGID_1_" />
				</clipPath>
				<g
   clip-path="url(#SVGID_2_)"
   id="g108">
					<g
   id="g110">
						<g
   id="g112">
							<g
   id="g114">
								<path
   d="m 296.526,284.596 c 0,0 -0.523,0.166 -1.336,0.465 -0.813,0.3 -1.915,0.734 -3.069,1.27 -1.155,0.536 -2.364,1.175 -3.391,1.884 -1.027,0.709 -1.871,1.488 -2.296,2.306 l -0.105,17.135 c 0,0 0.005,0.925 0.015,2.35 0.01,1.428 0.024,3.358 0.046,5.369 0.021,2.014 0.049,4.106 0.084,5.849 0.034,1.745 0.076,3.138 0.127,3.743 0.007,0.088 0.039,0.165 0.095,0.23 0.056,0.066 0.135,0.122 0.236,0.166 0.102,0.045 0.225,0.078 0.367,0.101 0.142,0.023 0.307,0.033 0.487,0.033 1.067,0 2.769,-0.387 4.748,-1.179 1.977,-0.791 4.229,-1.986 6.401,-3.602 2.168,-1.613 4.254,-3.645 5.903,-6.11 1.646,-2.459 2.855,-5.348 3.278,-8.682 0.096,-0.462 0.172,-0.786 0.228,-1.058 0.056,-0.272 0.092,-0.493 0.105,-0.748 0.014,-0.256 0.006,-0.546 -0.025,-0.958 -0.03,-0.411 -0.084,-0.944 -0.163,-1.684 -0.077,-0.535 -0.163,-1.684 -0.422,-3.148 -0.258,-1.463 -0.688,-3.241 -1.452,-5.04 -0.763,-1.796 -1.858,-3.612 -3.448,-5.157 -1.588,-1.545 -3.671,-2.819 -6.413,-3.535 m -17.386,-8.177 0,0 c 0.001,-10e-4 0.002,-10e-4 0.002,-10e-4 l 0,0 c 0,0 0,0 10e-4,-0.001 l 0,0 c 0,0 0,0 0,0.001 h -10e-4 c 0,0 -10e-4,0 -0.002,10e-4 0.001,0 0.001,0 0,0 -0.009,0.017 -0.338,0.588 -0.915,1.478 -0.577,0.891 -1.402,2.1 -2.406,3.391 -1.005,1.293 -2.188,2.669 -3.476,3.887 -1.29,1.221 -2.686,2.283 -4.113,2.947 -0.556,0.252 -1.275,0.606 -2.191,1.001 -0.916,0.395 -2.027,0.83 -3.366,1.244 -1.339,0.415 -2.904,0.809 -4.728,1.12 -1.824,0.311 -3.904,0.541 -6.272,0.626 -0.115,0.004 -0.229,0.008 -0.344,0.011 -0.115,0.003 -0.229,0.006 -0.343,0.008 -0.114,0.002 -0.228,0.004 -0.341,0.005 -0.113,10e-4 -0.227,10e-4 -0.34,10e-4 -1.602,0 -3.154,-0.097 -4.64,-0.256 -1.485,-0.159 -2.903,-0.38 -4.234,-0.628 -1.331,-0.249 -2.575,-0.524 -3.714,-0.792 -1.139,-0.268 -2.172,-0.527 -3.082,-0.745 0,0 -0.051,-0.014 -0.147,-0.037 -0.096,-0.024 -0.236,-0.059 -0.416,-0.101 -0.18,-0.041 -0.4,-0.09 -0.654,-0.141 -0.254,-0.052 -0.542,-0.107 -0.859,-0.162 -0.32,-0.056 -0.67,-0.111 -1.045,-0.163 -0.375,-0.052 -0.774,-0.1 -1.194,-0.142 -0.419,-0.041 -0.858,-0.075 -1.312,-0.1 -0.454,-0.025 -0.922,-0.038 -1.399,-0.038 -0.281,0 -0.566,0.005 -0.853,0.016 -0.287,0.01 -0.576,0.025 -0.866,0.048 -0.291,0.021 -0.582,0.05 -0.874,0.085 -0.292,0.035 -0.583,0.077 -0.875,0.126 -0.97,0.166 -1.992,0.523 -2.986,0.972 -0.995,0.447 -1.962,0.985 -2.822,1.512 -0.861,0.527 -1.614,1.043 -2.18,1.446 -0.566,0.402 -0.945,0.691 -1.056,0.766 l 0.027,-0.89 c 0,0 0.015,-0.156 0.042,-0.403 0.028,-0.248 0.068,-0.588 0.12,-0.955 0.052,-0.368 0.115,-0.765 0.187,-1.125 0.072,-0.361 0.153,-0.688 0.242,-0.914 1.077,-3.023 2.666,-5.315 4.493,-7.054 1.824,-1.735 3.889,-2.921 5.923,-3.73 2.033,-0.809 4.036,-1.243 5.74,-1.476 1.704,-0.232 3.108,-0.263 3.942,-0.263 0.063,0 0.123,0 0.179,0 0.057,10e-4 0.109,10e-4 0.159,10e-4 0.049,10e-4 0.095,10e-4 0.138,0.002 0.042,0 0.081,0 0.116,10e-4 0.397,0.002 0.945,0.023 1.584,0.061 0.639,0.038 1.37,0.091 2.132,0.16 0.762,0.069 1.556,0.153 2.323,0.253 0.767,0.098 1.506,0.211 2.159,0.336 0.473,0.091 1.491,0.336 2.878,0.653 1.388,0.318 3.145,0.708 5.094,1.087 1.951,0.379 4.094,0.747 6.253,1.02 2.16,0.273 4.335,0.452 6.347,0.452 0.325,0 0.646,-0.005 0.962,-0.015 0.316,-0.01 0.627,-0.024 0.932,-0.044 0.305,-0.021 0.604,-0.046 0.896,-0.077 0.293,-0.031 0.579,-0.067 0.857,-0.11 1.232,-0.152 2.488,-0.496 3.68,-0.927 1.191,-0.432 2.318,-0.95 3.294,-1.451 0.975,-0.502 1.799,-0.986 2.385,-1.35 0.587,-0.365 0.935,-0.608 0.959,-0.627 m -21.154,76.992 c 1.487,-0.695 2.594,-1.404 3.418,-2.092 0.822,-0.687 1.364,-1.351 1.724,-1.957 0.358,-0.606 0.536,-1.154 0.63,-1.609 0.095,-0.455 0.107,-0.815 0.136,-1.048 0.007,-0.057 0.032,-1.568 0.065,-3.8 0.032,-2.227 0.074,-5.165 0.114,-8.089 0.04,-2.916 0.079,-5.816 0.108,-7.984 0.029,-2.163 0.049,-3.6 0.049,-3.6 l 0.141,-22.717 c 0.001,-0.019 0.021,-0.315 0.083,-0.787 0.063,-0.471 0.167,-1.115 0.339,-1.828 0.171,-0.712 0.408,-1.492 0.734,-2.235 0.326,-0.742 0.741,-1.448 1.27,-2.013 0.396,-0.423 0.785,-0.802 1.189,-1.151 0.405,-0.349 0.824,-0.668 1.282,-0.971 0.457,-0.303 0.952,-0.59 1.507,-0.874 0.555,-0.285 1.17,-0.567 1.866,-0.862 l 17.655,-7.378 17.53,-7.032 c 4.54,1.317 7.935,3.151 10.475,5.167 2.545,2.019 4.231,4.22 5.352,6.262 1.122,2.047 1.674,3.932 1.947,5.312 0.272,1.382 0.266,2.255 0.271,2.273 0.21,0.804 0.282,1.917 0.18,3.232 -0.103,1.317 -0.381,2.839 -0.871,4.456 -0.491,1.619 -1.195,3.336 -2.15,5.039 -0.956,1.706 -2.164,3.399 -3.66,4.971 -0.261,0.273 -0.797,0.772 -1.591,1.434 -0.795,0.662 -1.847,1.485 -3.138,2.408 -1.292,0.924 -2.823,1.947 -4.574,3.006 -1.753,1.06 -3.727,2.155 -5.9,3.223 0.028,-0.015 0.059,-0.026 0.091,-0.037 0.031,-0.01 0.065,-0.019 0.101,-0.025 0.036,-0.006 0.072,-0.012 0.111,-0.015 0.039,-0.003 0.079,-0.005 0.121,-0.005 0.43,0 1.02,0.169 1.677,0.432 0.657,0.263 1.382,0.619 2.08,0.994 0.698,0.376 1.37,0.77 1.923,1.106 0.552,0.337 0.983,0.617 1.201,0.765 1.371,0.938 2.629,2.061 3.774,3.279 1.146,1.221 2.181,2.537 3.104,3.857 0.924,1.321 1.736,2.647 2.437,3.885 0.701,1.238 1.29,2.388 1.767,3.354 0.038,0.076 0.456,1.061 1.071,2.507 0.615,1.449 1.428,3.362 2.252,5.292 0.826,1.933 1.663,3.882 2.324,5.393 0.662,1.514 1.147,2.588 1.266,2.765 0.508,0.738 0.939,1.356 1.35,1.88 0.41,0.524 0.8,0.954 1.224,1.315 0.424,0.362 0.883,0.657 1.433,0.912 0.549,0.254 1.188,0.468 1.975,0.668 0.214,0.055 0.426,0.103 0.636,0.144 0.21,0.041 0.418,0.075 0.626,0.103 0.208,0.028 0.415,0.048 0.623,0.062 0.209,0.013 0.417,0.02 0.628,0.02 0.493,0 0.996,-0.036 1.525,-0.109 0.528,-0.073 1.082,-0.183 1.677,-0.328 0.595,-0.145 1.229,-0.326 1.919,-0.542 0.69,-0.216 1.436,-0.467 2.251,-0.753 0,0 -0.392,0.426 -1.008,1.1 -0.615,0.674 -1.455,1.595 -2.351,2.586 -0.896,0.992 -1.847,2.053 -2.684,3.004 -0.839,0.952 -1.563,1.793 -2.001,2.343 -0.494,0.62 -1.132,1.424 -1.81,2.281 -0.68,0.857 -1.4,1.77 -2.059,2.604 -0.66,0.836 -1.258,1.595 -1.691,2.145 -0.433,0.55 -0.701,0.891 -0.701,0.891 0,0 -0.034,0.004 -0.1,0.009 -0.066,0.006 -0.164,0.013 -0.291,0.02 -0.128,0.008 -0.285,0.015 -0.471,0.021 -0.185,0.005 -0.397,0.009 -0.637,0.009 -0.651,0 -1.495,-0.026 -2.488,-0.116 -0.993,-0.09 -2.137,-0.242 -3.388,-0.494 -1.251,-0.252 -2.61,-0.603 -4.034,-1.089 -1.425,-0.486 -2.914,-1.107 -4.427,-1.899 -1.314,-0.688 -2.472,-1.557 -3.487,-2.516 -1.016,-0.958 -1.891,-2.005 -2.643,-3.051 -0.752,-1.045 -1.381,-2.088 -1.906,-3.041 -0.524,-0.952 -0.945,-1.813 -1.28,-2.495 -0.003,-0.006 -0.007,-0.012 -0.012,-0.016 -0.004,-0.005 -0.01,-0.009 -0.017,-0.012 -0.006,-0.003 -0.013,-0.005 -0.021,-0.007 -0.008,-10e-4 -0.017,-0.002 -0.025,-0.002 -0.213,0 -0.812,0.376 -1.59,0.941 -0.778,0.565 -1.738,1.32 -2.671,2.075 -0.935,0.756 -1.843,1.512 -2.518,2.079 -0.675,0.568 -1.116,0.946 -1.116,0.946 l -10.348,9.446 c 0,0 -0.867,-0.331 -2.264,-0.846 -1.396,-0.514 -3.322,-1.21 -5.44,-1.94 -2.116,-0.73 -4.425,-1.495 -6.59,-2.146 -2.164,-0.65 -4.187,-1.188 -5.732,-1.467 -1.13,-0.225 -2.26,-0.413 -3.385,-0.57 -1.124,-0.157 -2.242,-0.283 -3.35,-0.381 -1.106,-0.097 -2.201,-0.166 -3.277,-0.212 -1.076,-0.045 -2.134,-0.065 -3.166,-0.065 -1.186,0 -2.339,0.027 -3.449,0.076 -1.11,0.049 -2.178,0.12 -3.193,0.207 -1.015,0.087 -1.979,0.19 -2.879,0.305 -0.9,0.115 -1.739,0.238 -2.506,0.368 -2.158,0.366 -4.506,0.944 -6.814,1.607 -2.31,0.663 -4.581,1.41 -6.583,2.112 -2.003,0.703 -3.737,1.359 -4.97,1.842 -1.234,0.481 -1.967,0.788 -1.967,0.788 0,0 0.114,-0.15 0.311,-0.396 0.197,-0.247 0.477,-0.589 0.81,-0.975 0.333,-0.386 0.719,-0.813 1.128,-1.23 0.409,-0.417 0.841,-0.823 1.266,-1.166 1.626,-1.558 3.676,-3.261 6.071,-4.977 2.391,-1.714 5.125,-3.44 8.125,-5.05 2.995,-1.607 6.256,-3.098 9.705,-4.342 3.445,-1.243 7.08,-2.24 10.83,-2.864 0.737,-0.1 1.472,-0.197 2.225,-0.288 0.753,-0.091 1.525,-0.175 2.339,-0.246 0.814,-0.071 1.671,-0.131 2.592,-0.173 0.921,-0.041 1.906,-0.064 2.979,-0.064 0.234,0 0.473,10e-4 0.715,0.003 0.243,0.003 0.49,0.006 0.742,0.011 0.251,0.005 0.508,0.011 0.769,0.018 0.262,0.007 0.528,0.016 0.8,0.025 2.206,0.08 4.861,0.401 7.604,0.837 2.743,0.436 5.575,0.987 8.13,1.529 2.557,0.542 4.837,1.074 6.477,1.471 1.64,0.397 2.637,0.658 2.628,0.658 h -0.001 c 0,0 0,0 -10e-4,0 h -10e-4 c -0.001,-0.001 -0.002,-0.001 -0.002,-0.001 0.271,0.065 0.545,0.13 0.819,0.192 0.274,0.062 0.551,0.124 0.827,0.185 0.277,0.062 0.555,0.121 0.833,0.18 0.278,0.06 0.557,0.118 0.835,0.176 l 2.353,-1.339 c -0.027,-0.02 -0.095,-0.126 -0.193,-0.311 -0.098,-0.185 -0.229,-0.448 -0.385,-0.782 -0.155,-0.335 -0.335,-0.74 -0.53,-1.209 -0.196,-0.468 -0.409,-0.999 -0.631,-1.586 -0.142,-0.372 -0.281,-0.812 -0.412,-1.265 -0.131,-0.453 -0.253,-0.92 -0.357,-1.347 -0.104,-0.426 -0.192,-0.812 -0.256,-1.103 -0.064,-0.291 -0.104,-0.488 -0.11,-0.537 -0.008,-0.051 -0.158,-0.637 -0.386,-1.501 -0.228,-0.863 -0.531,-2.004 -0.845,-3.166 -0.313,-1.161 -0.635,-2.343 -0.9,-3.291 -0.266,-0.947 -0.474,-1.662 -0.561,-1.892 -0.134,-0.511 -0.381,-1.217 -0.713,-2.024 -0.331,-0.808 -0.746,-1.717 -1.219,-2.636 -0.472,-0.917 -1.001,-1.844 -1.559,-2.688 -0.558,-0.842 -1.145,-1.602 -1.734,-2.186 -0.166,-0.213 -0.417,-0.442 -0.719,-0.674 -0.303,-0.231 -0.657,-0.465 -1.032,-0.686 -0.375,-0.22 -0.77,-0.426 -1.152,-0.604 -0.382,-0.178 -0.754,-0.326 -1.081,-0.431 -0.191,-0.052 -0.388,-0.099 -0.587,-0.139 -0.199,-0.04 -0.402,-0.074 -0.609,-0.102 -0.206,-0.027 -0.416,-0.049 -0.628,-0.063 -0.213,-0.015 -0.429,-0.021 -0.647,-0.021 l -0.204,4.475 0.05,6.697 c 10e-4,0.188 -0.015,0.514 -0.092,0.924 -0.077,0.409 -0.216,0.904 -0.462,1.432 -0.246,0.528 -0.599,1.088 -1.104,1.63 -0.507,0.542 -1.165,1.065 -2.022,1.518 -1.292,0.903 -2.774,1.735 -4.303,2.482 -1.529,0.748 -3.104,1.411 -4.584,1.978 -1.479,0.567 -2.861,1.037 -4.003,1.399 -1.142,0.361 -2.042,0.614 -2.558,0.746 -0.983,0.298 -2.037,0.541 -3.071,0.739 -1.034,0.199 -2.049,0.354 -2.951,0.479 -0.903,0.123 -1.696,0.215 -2.286,0.287 -0.595,0.071 -0.984,0.124 -1.08,0.169 m 98.812,-81.832 H 204.003 l -1.929,52.29 13.024,3.33 c -0.013,-0.57 0.011,-1.14 0.071,-1.695 0.06,-0.557 0.155,-1.1 0.284,-1.619 0.128,-0.519 0.291,-1.014 0.484,-1.473 0.194,-0.46 0.419,-0.884 0.674,-1.261 0.655,-0.974 1.46,-1.703 2.364,-2.248 0.903,-0.545 1.905,-0.907 2.955,-1.148 1.049,-0.24 2.145,-0.359 3.237,-0.419 1.092,-0.059 2.179,-0.058 3.209,-0.058 0.45,0 1.131,-0.006 1.9,-0.016 0.769,-0.011 1.625,-0.024 2.424,-0.039 0.8,-0.016 1.543,-0.033 2.086,-0.05 0.543,-0.016 0.887,-0.031 0.887,-0.045 0.034,-2.768 0.059,-4.81 0.078,-6.345 0.019,-1.532 0.031,-2.561 0.041,-3.298 0.01,-0.737 0.016,-1.185 0.022,-1.555 0.006,-0.37 0.012,-0.663 0.021,-1.091 0.027,-1.313 0.706,-2.443 1.717,-3.401 1.009,-0.957 2.35,-1.742 3.703,-2.368 1.352,-0.625 2.715,-1.09 3.772,-1.407 1.056,-0.316 1.807,-0.484 1.931,-0.516 l 12.92,-3.346 c -0.029,0.057 -0.154,0.237 -0.341,0.525 -0.186,0.288 -0.431,0.684 -0.701,1.167 -0.27,0.483 -0.563,1.057 -0.845,1.7 -0.282,0.643 -0.551,1.358 -0.771,2.126 -0.061,0.206 -0.119,0.558 -0.172,0.971 -0.053,0.413 -0.102,0.887 -0.144,1.335 -0.042,0.449 -0.077,0.871 -0.104,1.183 -0.027,0.311 -0.045,0.509 -0.052,0.509 -10e-4,0 -0.002,-0.002 -0.002,-0.006 -10e-4,-0.004 -10e-4,-0.01 -0.002,-0.019 0,-0.009 0,-0.02 0,-0.032 0,-0.012 0,-0.028 0,-0.046 l -0.198,19.786 -0.202,20.185 c 0,0.02 0.067,0.385 0.04,0.993 -0.027,0.607 -0.15,1.458 -0.532,2.446 -0.383,0.989 -1.025,2.117 -2.091,3.278 -1.068,1.162 -2.561,2.358 -4.643,3.482 -2.518,1.361 -4.867,2.522 -6.992,3.507 -2.128,0.985 -4.032,1.792 -5.66,2.442 -1.629,0.651 -2.981,1.146 -4.003,1.504 -1.023,0.359 -1.716,0.584 -2.028,0.694 -0.028,0.012 -0.053,0.022 -0.075,0.031 -0.022,0.009 -0.041,0.017 -0.057,0.022 -0.016,0.005 -0.028,0.011 -0.036,0.015 -0.008,0.003 -0.013,0.005 -0.014,0.006 0.004,-0.003 0.011,-0.007 0.021,-0.012 0.01,-0.005 0.022,-0.011 0.038,-0.017 0.016,-0.006 0.033,-0.013 0.053,-0.021 0.02,-0.008 0.044,-0.016 0.069,-0.025 0.209,-0.088 0.582,-0.257 1.024,-0.521 0.442,-0.264 0.954,-0.624 1.442,-1.095 0.488,-0.47 0.952,-1.049 1.299,-1.753 0.347,-0.702 0.577,-1.529 0.596,-2.493 l 0.476,-23.277 c 0,0 -0.176,0 -0.463,-0.001 -0.287,-10e-4 -0.687,-0.002 -1.133,-0.004 -0.447,-0.001 -0.941,-0.002 -1.418,-0.003 -0.478,-10e-4 -0.939,-0.002 -1.319,-0.002 -0.126,0 -0.245,0 -0.351,0 -0.106,0 -0.201,0.001 -0.283,0.001 -0.081,10e-4 -0.149,10e-4 -0.2,0.002 -0.052,0 -0.087,10e-4 -0.104,0.002 -0.085,-0.003 -0.169,-0.005 -0.253,-0.006 -0.083,-0.002 -0.166,-0.003 -0.248,-0.004 -0.082,-10e-4 -0.163,-0.002 -0.244,-0.003 -0.081,0 -0.16,0 -0.239,0 -2.436,0 -4.14,0.247 -5.327,0.619 -1.188,0.372 -1.857,0.868 -2.222,1.365 -0.366,0.496 -0.426,0.993 -0.396,1.366 0.03,0.373 0.153,0.622 0.153,0.622 0,0 -0.069,-0.014 -0.195,-0.052 -0.126,-0.038 -0.308,-0.1 -0.534,-0.198 -0.226,-0.098 -0.495,-0.23 -0.794,-0.41 -0.299,-0.18 -0.629,-0.406 -0.976,-0.689 l -10.813,16.902 -6.808,-1.764 -1.231,33.371 h 161.454 l -1.637,-40.42 -18.591,1.604 -5.693,-24.118 23.293,-1.988 -1.901,-47.004"
   id="path116"
   style="opacity:0.4;fill:#cccccc" />
								<path
   d="m 230.436,361.534 c -0.025,0.01 -0.049,0.018 -0.069,0.025 -0.02,0.007 -0.038,0.015 -0.053,0.021 -0.015,0.006 -0.028,0.012 -0.038,0.017 -0.01,0.005 -0.017,0.009 -0.021,0.012 0.001,-10e-4 0.006,-0.003 0.014,-0.006 0.008,-0.004 0.021,-0.009 0.036,-0.015 0.015,-0.006 0.035,-0.014 0.057,-0.022 0.022,-0.008 0.046,-0.02 0.074,-0.032 m 29.443,-67.731 -12.92,3.346 c -0.125,0.031 -0.875,0.199 -1.931,0.516 -1.057,0.317 -2.42,0.782 -3.772,1.407 -1.353,0.626 -2.693,1.411 -3.703,2.368 -1.011,0.958 -1.69,2.088 -1.717,3.401 -0.009,0.428 -0.015,0.721 -0.021,1.091 -0.006,0.37 -0.012,0.817 -0.022,1.555 -0.009,0.737 -0.022,1.766 -0.041,3.298 -0.019,1.535 -0.043,3.577 -0.078,6.345 0,0.014 -0.344,0.029 -0.887,0.045 -0.543,0.017 -1.287,0.034 -2.086,0.05 -0.799,0.015 -1.655,0.028 -2.424,0.039 -0.769,0.01 -1.45,0.016 -1.9,0.016 -1.031,0 -2.118,-10e-4 -3.209,0.058 -1.092,0.06 -2.188,0.179 -3.237,0.419 -1.049,0.241 -2.051,0.604 -2.955,1.148 -0.904,0.545 -1.709,1.274 -2.364,2.248 -0.255,0.377 -0.48,0.801 -0.674,1.261 -0.194,0.459 -0.356,0.954 -0.484,1.473 -0.129,0.52 -0.224,1.063 -0.284,1.619 -0.06,0.556 -0.084,1.125 -0.071,1.695 l 7.407,1.895 -3.779,5.904 c 0.347,0.283 0.677,0.51 0.976,0.689 0.299,0.179 0.568,0.313 0.794,0.41 0.226,0.099 0.408,0.16 0.534,0.198 0.126,0.038 0.195,0.052 0.195,0.052 0,0 -0.122,-0.249 -0.153,-0.622 -0.031,-0.373 0.03,-0.87 0.396,-1.366 0.365,-0.497 1.035,-0.993 2.222,-1.365 1.187,-0.372 2.892,-0.619 5.327,-0.619 0.079,0 0.158,0 0.239,0 0.081,10e-4 0.162,0.002 0.244,0.003 0.082,10e-4 0.165,0.002 0.248,0.004 0.084,10e-4 0.168,0.003 0.253,0.006 0.017,-10e-4 0.052,-0.002 0.104,-0.002 0.051,-10e-4 0.119,-10e-4 0.2,-0.002 0.082,0 0.176,-0.001 0.283,-0.001 0.107,0 0.225,0 0.351,0 0.38,0 0.841,0.001 1.319,0.002 0.478,10e-4 0.972,0.002 1.418,0.003 0.447,0.002 0.846,0.003 1.133,0.004 0.287,10e-4 0.463,10e-4 0.463,10e-4 l -0.476,23.277 c -0.02,0.964 -0.25,1.791 -0.596,2.493 -0.347,0.704 -0.811,1.283 -1.299,1.753 -0.488,0.471 -1,0.83 -1.442,1.095 -0.442,0.265 -0.815,0.434 -1.024,0.521 0.312,-0.11 1.005,-0.335 2.028,-0.694 1.022,-0.358 2.375,-0.853 4.003,-1.504 1.628,-0.65 3.532,-1.457 5.66,-2.442 2.125,-0.984 4.474,-2.146 6.992,-3.507 2.083,-1.124 3.575,-2.32 4.643,-3.482 1.065,-1.161 1.708,-2.289 2.091,-3.278 0.382,-0.988 0.505,-1.839 0.532,-2.446 0.027,-0.608 -0.04,-0.974 -0.04,-0.993 l 0.202,-20.185 0.198,-19.786 c 0,0.018 0,0.033 0,0.046 0,0.013 0,0.023 0,0.032 10e-4,0.009 10e-4,0.015 0.002,0.019 0,0.004 10e-4,0.006 0.002,0.006 0.007,0 0.024,-0.198 0.052,-0.509 0.026,-0.312 0.062,-0.733 0.104,-1.183 0.042,-0.448 0.091,-0.922 0.144,-1.335 0.053,-0.413 0.111,-0.765 0.172,-0.971 0.221,-0.768 0.49,-1.482 0.771,-2.126 0.281,-0.644 0.575,-1.217 0.845,-1.7 0.271,-0.483 0.516,-0.879 0.701,-1.167 0.187,-0.289 0.312,-0.47 0.341,-0.526 m 19.261,-17.384 c -0.023,0.019 -0.372,0.262 -0.958,0.626 -0.586,0.363 -1.41,0.848 -2.385,1.35 -0.976,0.501 -2.103,1.02 -3.294,1.451 -1.191,0.431 -2.447,0.774 -3.68,0.927 -0.278,0.043 -0.564,0.079 -0.857,0.11 -0.292,0.031 -0.592,0.057 -0.896,0.077 -0.305,0.02 -0.616,0.034 -0.932,0.044 -0.316,0.01 -0.637,0.015 -0.962,0.015 -2.012,0 -4.187,-0.179 -6.347,-0.452 -2.159,-0.272 -4.302,-0.641 -6.253,-1.02 -1.949,-0.379 -3.707,-0.769 -5.094,-1.087 -1.387,-0.317 -2.405,-0.563 -2.878,-0.653 -0.653,-0.125 -1.392,-0.238 -2.159,-0.336 -0.767,-0.1 -1.561,-0.184 -2.323,-0.253 -0.763,-0.069 -1.493,-0.123 -2.132,-0.16 -0.639,-0.037 -1.187,-0.059 -1.584,-0.061 -0.035,-0.001 -0.074,-0.001 -0.116,-0.001 -0.042,-10e-4 -0.088,-10e-4 -0.138,-0.002 -0.049,0 -0.102,0 -0.159,-0.001 -0.057,0 -0.116,0 -0.179,0 -0.833,0 -2.238,0.03 -3.942,0.263 -1.704,0.232 -3.708,0.667 -5.74,1.476 -2.034,0.81 -4.099,1.995 -5.923,3.73 -1.827,1.738 -3.416,4.03 -4.493,7.054 -0.088,0.227 -0.17,0.553 -0.242,0.914 -0.072,0.36 -0.135,0.757 -0.187,1.125 -0.052,0.367 -0.092,0.707 -0.12,0.955 -0.027,0.247 -0.042,0.403 -0.042,0.403 l -0.027,0.89 c 0.111,-0.074 0.489,-0.363 1.056,-0.766 0.566,-0.403 1.319,-0.919 2.18,-1.446 0.86,-0.526 1.827,-1.064 2.822,-1.512 0.994,-0.448 2.016,-0.806 2.986,-0.972 0.291,-0.049 0.583,-0.091 0.875,-0.126 0.292,-0.035 0.583,-0.063 0.874,-0.085 0.29,-0.022 0.579,-0.038 0.866,-0.048 0.287,-0.011 0.572,-0.016 0.853,-0.016 0.478,0 0.946,0.014 1.399,0.038 0.453,0.024 0.893,0.059 1.312,0.1 0.419,0.042 0.819,0.09 1.194,0.142 0.375,0.052 0.725,0.107 1.045,0.163 0.317,0.055 0.605,0.11 0.859,0.162 0.254,0.051 0.474,0.1 0.654,0.141 0.18,0.042 0.32,0.076 0.416,0.101 0.096,0.023 0.146,0.037 0.147,0.037 0.91,0.218 1.943,0.478 3.082,0.745 1.139,0.268 2.384,0.543 3.714,0.792 1.332,0.248 2.749,0.469 4.234,0.628 1.486,0.159 3.039,0.256 4.64,0.256 0.113,0 0.227,0 0.34,-10e-4 0.113,-0.001 0.227,-0.003 0.341,-0.005 0.114,-0.002 0.229,-0.005 0.343,-0.008 0.114,-0.003 0.229,-0.007 0.344,-0.011 2.368,-0.085 4.449,-0.314 6.272,-0.626 1.823,-0.312 3.389,-0.705 4.728,-1.12 1.339,-0.414 2.45,-0.85 3.366,-1.244 0.916,-0.394 1.636,-0.749 2.191,-1.001 1.428,-0.664 2.823,-1.727 4.113,-2.947 1.288,-1.218 2.471,-2.594 3.476,-3.887 1.004,-1.291 1.829,-2.5 2.406,-3.391 0.576,-0.889 0.905,-1.46 0.914,-1.477 m 0.003,-0.002 0,0 c -10e-4,0.001 -10e-4,0.001 0,0 l 0,0 c -10e-4,0.001 -0.002,0.001 -0.002,0.002 h -0.001 c 0.001,0 0.001,0 0.001,0 0,-10e-4 10e-4,-10e-4 0.002,-0.002 l 0,0 c 0,0 0,0 0,0 m 8.643,49.078 c -0.181,0 -0.345,-0.011 -0.487,-0.033 -0.142,-0.022 -0.266,-0.056 -0.367,-0.101 -0.102,-0.044 -0.181,-0.1 -0.236,-0.166 -0.056,-0.065 -0.088,-0.143 -0.095,-0.23 -0.051,-0.605 -0.093,-1.998 -0.127,-3.743 -0.035,-1.742 -0.063,-3.835 -0.084,-5.849 -0.021,-2.011 -0.036,-3.941 -0.046,-5.369 -0.01,-1.425 -0.015,-2.35 -0.015,-2.35 l 0.105,-17.135 c 0.425,-0.817 1.269,-1.597 2.296,-2.306 1.026,-0.709 2.235,-1.348 3.391,-1.884 1.154,-0.535 2.256,-0.97 3.069,-1.27 0.813,-0.299 1.336,-0.465 1.336,-0.465 2.741,0.716 4.824,1.99 6.413,3.534 1.59,1.545 2.686,3.361 3.448,5.157 0.765,1.799 1.194,3.577 1.452,5.04 0.259,1.465 0.345,2.613 0.422,3.148 0.079,0.739 0.133,1.272 0.163,1.684 0.031,0.412 0.039,0.702 0.025,0.958 -0.014,0.255 -0.05,0.476 -0.105,0.748 -0.056,0.271 -0.132,0.596 -0.228,1.058 -0.423,3.334 -1.633,6.223 -3.278,8.682 -1.649,2.466 -3.735,4.497 -5.903,6.11 -2.172,1.615 -4.425,2.811 -6.401,3.602 -1.979,0.793 -3.68,1.18 -4.748,1.18 m 20.041,-50.111 -17.53,7.032 -17.655,7.378 c -0.696,0.295 -1.312,0.577 -1.866,0.862 -0.555,0.284 -1.05,0.571 -1.507,0.874 -0.458,0.303 -0.877,0.622 -1.282,0.971 -0.404,0.35 -0.793,0.729 -1.189,1.151 -0.528,0.564 -0.943,1.271 -1.27,2.013 -0.326,0.743 -0.563,1.523 -0.734,2.235 -0.172,0.713 -0.276,1.357 -0.339,1.828 -0.063,0.472 -0.082,0.769 -0.083,0.787 l -0.141,22.717 c 0,0 -0.02,1.437 -0.049,3.6 -0.029,2.168 -0.068,5.068 -0.108,7.984 -0.04,2.924 -0.082,5.862 -0.114,8.089 -0.033,2.231 -0.059,3.743 -0.065,3.8 -0.028,0.232 -0.041,0.593 -0.136,1.048 -0.094,0.455 -0.271,1.003 -0.63,1.609 -0.359,0.606 -0.901,1.271 -1.724,1.957 -0.824,0.688 -1.931,1.396 -3.418,2.092 0.096,-0.045 0.484,-0.098 1.075,-0.17 0.59,-0.072 1.383,-0.164 2.286,-0.287 0.902,-0.124 1.917,-0.279 2.951,-0.479 1.034,-0.198 2.088,-0.441 3.071,-0.739 0.516,-0.132 1.416,-0.385 2.558,-0.746 1.142,-0.362 2.523,-0.832 4.003,-1.399 1.479,-0.566 3.055,-1.229 4.584,-1.978 1.528,-0.747 3.011,-1.579 4.303,-2.482 0.857,-0.452 1.516,-0.976 2.022,-1.518 0.506,-0.542 0.858,-1.103 1.104,-1.63 0.246,-0.527 0.385,-1.022 0.462,-1.432 0.077,-0.41 0.093,-0.735 0.092,-0.924 l -0.05,-6.697 0.204,-4.475 c 0.219,0 0.435,0.007 0.647,0.021 0.212,0.014 0.422,0.035 0.628,0.063 0.207,0.027 0.41,0.062 0.609,0.102 0.199,0.04 0.396,0.087 0.587,0.139 0.327,0.104 0.698,0.253 1.081,0.431 0.383,0.178 0.777,0.384 1.152,0.604 0.375,0.221 0.729,0.454 1.032,0.686 0.302,0.231 0.553,0.461 0.719,0.674 0.59,0.584 1.177,1.344 1.734,2.186 0.558,0.844 1.087,1.771 1.559,2.688 0.473,0.919 0.888,1.828 1.219,2.636 0.332,0.808 0.579,1.514 0.713,2.024 0.087,0.229 0.295,0.944 0.561,1.892 0.266,0.948 0.588,2.13 0.9,3.291 0.313,1.162 0.617,2.303 0.845,3.166 0.228,0.864 0.378,1.45 0.386,1.501 0.007,0.049 0.046,0.246 0.11,0.537 0.063,0.291 0.151,0.677 0.256,1.103 0.104,0.427 0.227,0.894 0.357,1.347 0.13,0.453 0.271,0.893 0.412,1.265 0.222,0.587 0.435,1.118 0.631,1.586 0.195,0.469 0.375,0.874 0.53,1.209 0.155,0.334 0.286,0.598 0.385,0.782 0.099,0.184 0.166,0.291 0.193,0.311 l -2.353,1.339 c -0.278,-0.058 -0.557,-0.116 -0.835,-0.176 -0.278,-0.059 -0.556,-0.118 -0.833,-0.18 -0.276,-0.061 -0.553,-0.122 -0.827,-0.185 -0.274,-0.063 -0.548,-0.127 -0.819,-0.192 0,0 0.001,0 0.002,10e-4 h 10e-4 c 0.001,0 0.001,0 0.001,0 h 10e-4 c 0.009,0 -0.988,-0.262 -2.628,-0.658 -1.64,-0.396 -3.92,-0.929 -6.477,-1.471 -2.555,-0.542 -5.387,-1.094 -8.13,-1.529 -2.742,-0.436 -5.397,-0.757 -7.604,-0.837 -0.271,-0.01 -0.538,-0.019 -0.8,-0.025 -0.261,-0.007 -0.518,-0.013 -0.769,-0.018 -0.252,-0.005 -0.499,-0.008 -0.742,-0.011 -0.242,-0.002 -0.48,-0.003 -0.715,-0.003 -1.073,0 -2.059,0.023 -2.979,0.064 -0.921,0.042 -1.777,0.102 -2.592,0.173 -0.813,0.071 -1.586,0.155 -2.339,0.246 -0.753,0.091 -1.487,0.188 -2.225,0.288 -3.75,0.624 -7.385,1.621 -10.83,2.864 -3.449,1.244 -6.709,2.734 -9.705,4.342 -3,1.609 -5.735,3.336 -8.125,5.05 -2.395,1.716 -4.445,3.419 -6.071,4.977 -0.425,0.343 -0.857,0.749 -1.266,1.166 -0.409,0.417 -0.795,0.845 -1.128,1.23 -0.333,0.386 -0.613,0.728 -0.81,0.975 -0.197,0.246 -0.311,0.396 -0.311,0.396 0,0 0.733,-0.307 1.967,-0.788 1.233,-0.482 2.967,-1.139 4.97,-1.842 2.002,-0.702 4.273,-1.449 6.583,-2.112 2.308,-0.663 4.656,-1.241 6.814,-1.607 0.767,-0.13 1.605,-0.254 2.506,-0.368 0.901,-0.114 1.864,-0.218 2.879,-0.305 1.015,-0.087 2.083,-0.158 3.193,-0.207 1.11,-0.049 2.264,-0.076 3.449,-0.076 1.032,0 2.09,0.021 3.166,0.065 1.076,0.046 2.171,0.115 3.277,0.212 1.107,0.098 2.226,0.224 3.35,0.381 1.125,0.157 2.255,0.346 3.385,0.57 1.546,0.278 3.568,0.816 5.732,1.467 2.165,0.651 4.474,1.416 6.59,2.146 2.118,0.73 4.044,1.427 5.44,1.94 1.396,0.515 2.264,0.846 2.264,0.846 l 10.348,-9.446 c 0,0 0.441,-0.378 1.116,-0.946 0.675,-0.567 1.583,-1.323 2.518,-2.079 0.933,-0.755 1.893,-1.51 2.671,-2.075 0.778,-0.565 1.377,-0.941 1.59,-0.941 0.009,0 0.018,10e-4 0.025,0.002 0.008,0.002 0.015,0.004 0.021,0.007 0.007,0.003 0.013,0.007 0.017,0.012 0.005,0.004 0.009,0.01 0.012,0.016 0.335,0.682 0.756,1.543 1.28,2.495 0.525,0.953 1.154,1.996 1.906,3.041 0.752,1.046 1.627,2.093 2.643,3.051 1.016,0.959 2.173,1.827 3.487,2.516 1.513,0.792 3.002,1.413 4.427,1.899 1.424,0.486 2.783,0.837 4.034,1.089 1.251,0.252 2.395,0.404 3.388,0.494 0.993,0.09 1.837,0.116 2.488,0.116 0.239,0 0.452,-0.004 0.637,-0.009 0.186,-0.006 0.343,-0.013 0.471,-0.021 0.127,-0.007 0.225,-0.014 0.291,-0.02 0.065,-0.005 0.1,-0.009 0.1,-0.009 0,0 0.269,-0.341 0.701,-0.891 0.434,-0.55 1.031,-1.309 1.691,-2.145 0.658,-0.835 1.379,-1.747 2.059,-2.604 0.678,-0.857 1.315,-1.661 1.81,-2.281 0.438,-0.55 1.162,-1.391 2.001,-2.343 0.837,-0.951 1.788,-2.012 2.684,-3.004 0.896,-0.991 1.735,-1.912 2.351,-2.586 0.616,-0.674 1.008,-1.1 1.008,-1.1 -0.815,0.286 -1.561,0.537 -2.251,0.753 -0.689,0.216 -1.324,0.396 -1.919,0.542 -0.595,0.146 -1.148,0.255 -1.677,0.328 -0.529,0.073 -1.032,0.109 -1.525,0.109 -0.211,0 -0.419,-0.007 -0.628,-0.02 -0.208,-0.014 -0.415,-0.034 -0.623,-0.062 -0.208,-0.028 -0.416,-0.062 -0.626,-0.103 -0.21,-0.041 -0.422,-0.089 -0.636,-0.144 -0.786,-0.2 -1.426,-0.414 -1.975,-0.668 -0.55,-0.255 -1.009,-0.55 -1.433,-0.912 -0.424,-0.361 -0.813,-0.791 -1.224,-1.315 -0.41,-0.523 -0.842,-1.142 -1.35,-1.88 -0.118,-0.177 -0.604,-1.251 -1.266,-2.765 -0.661,-1.511 -1.498,-3.46 -2.324,-5.393 -0.824,-1.93 -1.637,-3.843 -2.252,-5.292 -0.615,-1.446 -1.033,-2.431 -1.071,-2.507 -0.477,-0.967 -1.065,-2.116 -1.767,-3.354 -0.7,-1.237 -1.513,-2.563 -2.437,-3.885 -0.924,-1.32 -1.958,-2.637 -3.104,-3.857 -1.146,-1.219 -2.403,-2.342 -3.774,-3.279 -0.218,-0.147 -0.649,-0.428 -1.201,-0.765 -0.553,-0.337 -1.225,-0.73 -1.923,-1.106 -0.698,-0.375 -1.423,-0.731 -2.08,-0.994 -0.657,-0.263 -1.247,-0.432 -1.677,-0.432 -0.042,0 -0.082,0.002 -0.121,0.005 -0.039,0.003 -0.076,0.008 -0.111,0.015 -0.035,0.007 -0.069,0.016 -0.101,0.025 -0.032,0.011 -0.063,0.022 -0.091,0.037 2.174,-1.067 4.147,-2.163 5.9,-3.223 1.751,-1.059 3.282,-2.082 4.574,-3.006 1.291,-0.923 2.343,-1.746 3.138,-2.408 0.794,-0.661 1.33,-1.16 1.591,-1.434 1.496,-1.571 2.704,-3.265 3.66,-4.971 0.955,-1.703 1.659,-3.42 2.15,-5.039 0.49,-1.617 0.769,-3.139 0.871,-4.456 0.103,-1.315 0.03,-2.429 -0.18,-3.232 -0.005,-0.019 0.002,-0.892 -0.271,-2.273 -0.273,-1.38 -0.825,-3.265 -1.947,-5.312 -1.12,-2.042 -2.807,-4.243 -5.352,-6.262 -2.535,-2.015 -5.93,-3.849 -10.47,-5.166"
   id="path118"
   style="fill:#525252" />
								<path
   d="m 365.724,342.569 -6.031,0.521 1.637,40.42 H 199.875 l 1.231,-33.371 -6.003,-1.555 -1.555,39.015 H 367.68 l -1.956,-45.03 m -3.243,-74.637 H 198.315 l -2.168,54.421 5.927,1.517 1.929,-52.29 h 152.794 l 1.903,47.009 5.959,-0.509 -2.178,-50.148"
   id="path120"
   style="opacity:0.4" />
								<polyline
   opacity="0.302"
   fill="#CCCCCC"
   points="157.987,314.672 145.232,333.536 195.187,346.467 196.065,324.421           157.987,314.672         "
   id="polyline122"
   style="opacity:0.30199998;fill:#cccccc" />
								<path
   d="m 201.999,325.94 -0.814,22.078 5.113,1.324 10.522,-16.411 c -0.006,-0.008 -0.013,-0.017 -0.019,-0.025 -0.006,-0.008 -0.013,-0.018 -0.019,-0.026 -0.006,-0.009 -0.013,-0.019 -0.019,-0.027 -0.006,-0.008 -0.013,-0.018 -0.019,-0.026 -0.173,-0.249 -0.333,-0.512 -0.478,-0.784 -0.145,-0.273 -0.276,-0.557 -0.393,-0.849 -0.117,-0.293 -0.22,-0.594 -0.31,-0.9 -0.09,-0.308 -0.167,-0.621 -0.23,-0.939 l -13.334,-3.415"
   id="path124"
   style="opacity:0.5804;fill:#cccccc" />
								<path
   d="m 215.332,329.354 c 0.063,0.318 0.14,0.632 0.23,0.939 0.09,0.307 0.193,0.607 0.31,0.9 0.117,0.292 0.248,0.575 0.393,0.849 0.145,0.272 0.305,0.535 0.478,0.784 0.006,0.009 0.013,0.018 0.019,0.026 0.006,0.008 0.013,0.019 0.019,0.027 0.006,0.009 0.012,0.018 0.019,0.026 0.007,0.008 0.013,0.018 0.019,0.025 l 1.761,-2.746 -3.248,-0.83"
   id="path126"
   style="fill:#777777" />
								<polyline
   opacity="0.5804"
   fill="#6A6A6A"
   points="196.065,324.421 195.187,346.467 201.184,348.019 201.999,325.94           196.065,324.421         "
   id="polyline128"
   style="opacity:0.5804;fill:#6a6a6a" />
								<polyline
   opacity="0.302"
   points="156.461,312.203 141.257,334.633 195.103,348.584 195.187,346.467 145.232,333.536           157.987,314.672 196.065,324.421 196.147,322.353 156.461,312.203         "
   id="polyline130"
   style="opacity:0.30199998" />
								<path
   d="m 216.819,332.932 -10.522,16.411 -5.113,-1.324 -0.078,2.12 6.808,1.764 L 218.727,335 c -0.152,-0.123 -0.307,-0.258 -0.464,-0.405 -0.157,-0.146 -0.316,-0.305 -0.477,-0.476 -0.161,-0.172 -0.322,-0.355 -0.484,-0.553 -0.162,-0.198 -0.323,-0.408 -0.483,-0.634 m -14.744,-9.063 -0.076,2.071 13.333,3.413 c -0.035,-0.176 -0.066,-0.354 -0.093,-0.532 -0.027,-0.179 -0.051,-0.357 -0.07,-0.538 -0.02,-0.18 -0.035,-0.36 -0.047,-0.541 -0.012,-0.181 -0.02,-0.362 -0.023,-0.543 l -13.024,-3.33"
   id="path132"
   style="opacity:0.5804;fill:#626262" />
								<path
   d="m 215.099,327.199 c 0.004,0.181 0.012,0.362 0.023,0.543 0.011,0.181 0.027,0.361 0.047,0.541 0.019,0.181 0.042,0.359 0.07,0.538 0.027,0.179 0.058,0.356 0.093,0.532 l 3.248,0.832 -1.761,2.746 c 0.161,0.227 0.322,0.438 0.483,0.635 0.161,0.197 0.323,0.381 0.484,0.553 0.16,0.171 0.319,0.329 0.477,0.476 0.157,0.147 0.312,0.282 0.464,0.405 l 3.779,-5.906 -7.407,-1.895"
   id="path134"
   style="fill:#393939" />
								<path
   d="m 195.187,346.467 -0.084,2.117 6.003,1.555 0.078,-2.12 -5.997,-1.552 m 0.96,-24.114 -0.083,2.068 5.934,1.52 0.076,-2.071 -5.927,-1.517"
   id="path136"
   style="opacity:0.5804" />
								<polyline
   opacity="0.302"
   fill="#CCCCCC"
   points="403.757,316.682 364.744,320.011 365.638,340.595 409.204,336.835           403.757,316.682         "
   id="polyline138"
   style="opacity:0.30199998;fill:#cccccc" />
								<polyline
   opacity="0.5804"
   fill="#CCCCCC"
   points="358.779,320.52 338.815,322.224 343.636,342.493 359.612,341.114           358.779,320.52         "
   id="polyline140"
   style="opacity:0.5804;fill:#cccccc" />
								<polyline
   opacity="0.5804"
   fill="#6A6A6A"
   points="364.744,320.011 358.779,320.52 359.612,341.114 365.638,340.595           364.744,320.011         "
   id="polyline142"
   style="opacity:0.5804;fill:#6a6a6a" />
								<polyline
   opacity="0.302"
   points="406.19,314.534 364.66,318.079 364.744,320.011 403.757,316.682 409.204,336.835           365.638,340.595 365.724,342.569 412.699,338.515 406.19,314.534         "
   id="polyline144"
   style="opacity:0.30199998" />
								<polyline
   opacity="0.5804"
   fill="#626262"
   points="358.701,318.588 335.408,320.576 341.102,344.694 359.692,343.09           359.612,341.114 343.636,342.493 338.815,322.224 358.779,320.52 358.701,318.588         "
   id="polyline146"
   style="opacity:0.5804;fill:#626262" />
								<path
   d="m 365.638,340.595 -6.025,0.52 0.08,1.976 6.031,-0.521 -0.086,-1.975 m -0.978,-22.516 -5.959,0.509 0.078,1.932 5.965,-0.509 -0.084,-1.932"
   id="path148"
   style="opacity:0.5804" />
							</g>
						</g>
					</g>
				</g>
			</g>
		</g>
	</g>
</g>
</svg>